<svg width="34" height="20" viewBox="0 0 34 20" fill="none" xmlns="http://www.w3.org/2000/svg">
<path opacity="0.4" d="M32.4477 0.966684C33.5038 1.74453 33.7294 3.23128 32.9516 4.28743C32.3474 5.10777 31.7431 5.88757 31.213 6.56673C30.1549 7.92255 28.6983 9.73831 27.1157 11.561C25.5434 13.3719 23.8 15.2441 22.1725 16.6821C21.3614 17.3988 20.5232 18.0578 19.7058 18.5506C18.9535 19.004 17.92 19.5039 16.7891 19.5039C15.6583 19.5039 14.6247 19.004 13.8725 18.5506C13.0551 18.0578 12.2168 17.3988 11.4057 16.6821C9.77818 15.2441 8.03484 13.3719 6.4625 11.561C4.87991 9.73831 3.42327 7.92255 2.36517 6.56673C1.83514 5.88757 1.23083 5.10777 0.62665 4.28743C-0.151197 3.23128 0.0744081 1.74453 1.13056 0.966685C1.55511 0.654005 2.04926 0.503497 2.53897 0.503908L31.0392 0.503907C31.529 0.503496 32.0231 0.654004 32.4477 0.966684Z" fill="#0E2C43"/>
<path d="M32.4473 0.966684C33.5034 1.74453 33.729 3.23128 32.9512 4.28743C32.347 5.10777 31.7427 5.88757 31.2126 6.56673C30.1545 7.92255 28.6979 9.73831 27.1153 11.561C25.543 13.3719 23.7996 15.2441 22.1721 16.6821C21.361 17.3988 20.5227 18.0578 19.7053 18.5506C18.9531 19.004 17.9195 19.5039 16.7887 19.5039C15.6579 19.5039 14.6243 19.004 13.8721 18.5506C13.0547 18.0578 12.2164 17.3988 11.4053 16.6821C10.0221 15.4599 8.55515 13.9241 7.18066 12.3789L19.164 0.503908L31.0388 0.503907C31.5286 0.503496 32.0227 0.654004 32.4473 0.966684Z" fill="#0E2C43"/>
</svg>
