<svg width="18" height="18" viewBox="0 0 18 18" fill="none" xmlns="http://www.w3.org/2000/svg">
<path d="M2.43234 0.599623C3.24004 0.133296 4.23517 0.133296 5.04287 0.599623C5.34283 0.772802 5.61375 1.04413 5.95542 1.38631L6.02207 1.45302L7.7762 3.20715C8.20464 3.6356 8.47375 3.90245 8.69529 4.07148C8.89953 4.22731 8.97303 4.22784 9 4.22784C9.02697 4.22784 9.10047 4.22731 9.30471 4.07148C9.52625 3.90245 9.79536 3.6356 10.2238 3.20715L11.9779 1.45302L12.0446 1.3863C12.3863 1.04413 12.6572 0.772802 12.9571 0.599624C13.7648 0.133297 14.76 0.133296 15.5677 0.599624C15.8676 0.772801 16.1385 1.04413 16.4802 1.3863L16.5469 1.45302L16.6136 1.51967C16.9558 1.86134 17.2271 2.13226 17.4003 2.43221C17.8666 3.23992 17.8666 4.23505 17.4003 5.04275C17.2271 5.34271 16.9557 5.61363 16.6136 5.9553L16.5469 6.02194L14.7927 7.77608C14.3643 8.20452 14.0974 8.47363 13.9284 8.69517C13.7726 8.89941 13.772 8.97291 13.772 8.99988C13.772 9.02685 13.7726 9.10035 13.9284 9.30458C14.0974 9.52612 14.3643 9.79523 14.7927 10.2237L16.5469 11.9778L16.6136 12.0445C16.9558 12.3861 17.2271 12.6571 17.4003 12.957C17.8666 13.7647 17.8666 14.7598 17.4003 15.5675C17.2271 15.8675 16.9558 16.1384 16.6136 16.4801L16.5469 16.5467L16.4802 16.6135C16.1385 16.9556 15.8676 17.227 15.5677 17.4001C14.76 17.8665 13.7648 17.8665 12.9571 17.4001C12.6572 17.227 12.3863 16.9556 12.0446 16.6135L12.0446 16.6135L11.9779 16.5467L10.2238 14.7926C9.79536 14.3642 9.52625 14.0973 9.3047 13.9283C9.10047 13.7724 9.02697 13.7719 9 13.7719C8.97303 13.7719 8.89953 13.7724 8.69529 13.9283C8.47375 14.0973 8.20464 14.3642 7.7762 14.7926L6.02207 16.5467L5.95541 16.6135C5.61375 16.9556 5.34283 17.227 5.04287 17.4001C4.23517 17.8665 3.24004 17.8665 2.43233 17.4001C2.13238 17.227 1.86146 16.9556 1.5198 16.6135L1.45314 16.5467L1.38642 16.4801C1.04425 16.1384 0.772923 15.8675 0.599746 15.5675C0.133418 14.7598 0.133419 13.7647 0.599746 12.957C0.772922 12.6571 1.04424 12.3861 1.38641 12.0445L1.38643 12.0445L1.45314 11.9778L3.20727 10.2237C3.63572 9.79523 3.90258 9.52612 4.07161 9.30458C4.22743 9.10035 4.22796 9.02685 4.22796 8.99988C4.22796 8.97291 4.22743 8.89941 4.07161 8.69517C3.90258 8.47363 3.63572 8.20452 3.20727 7.77608L1.45314 6.02194L1.38643 5.9553C1.04425 5.61363 0.772925 5.34271 0.599746 5.04275C0.133418 4.23505 0.133419 3.23992 0.599746 2.43221C0.772924 2.13226 1.04425 1.86133 1.38643 1.51966L1.45314 1.45302L1.51979 1.38631C1.86146 1.04413 2.13238 0.772802 2.43234 0.599623Z" fill="#1D292F"/>
</svg>
