<svg width="20" height="25" viewBox="0 0 20 25" fill="none" xmlns="http://www.w3.org/2000/svg">
<path d="M11.2515 9.8886L13.6146 11.0019C11.9945 12.924 9.88348 13.7353 7.45207 13.8903V13.9769L8.94346 14.9931C7.76189 15.7966 5.43027 16.7891 3.8706 16.5291C7.8218 11.1482 12.2806 6.1591 17.1856 1.63059C12.1555 5.89855 7.56881 10.663 3.49511 15.8517C2.40806 13.1498 4.56903 8.08471 7.60435 6.2388L7.96145 8.32365C8.65201 7.07904 9.30056 5.8003 10.062 4.5872C10.8235 3.3741 11.7188 2.25552 13.079 1.52556V3.52639L13.1525 3.5684C13.8234 2.54243 14.7232 1.68614 15.7811 1.06694C16.8391 0.447737 18.0263 0.0825097 19.2494 0C19.1601 0.764095 19.105 1.49931 18.9868 2.22139C18.8892 2.73184 18.7415 3.23141 18.5457 3.71282C18.4482 3.91172 18.2836 4.06981 18.0809 4.1592C17.2932 4.52418 16.474 4.85503 15.597 5.22788L17.3983 6.09963C16.0093 8.44706 13.7196 9.28205 11.2515 9.8886Z" fill="#1D292F"/>
<path d="M8.24731 20.2891H16.3135C16.4579 21.2212 16.6916 22.156 16.7204 23.0986C16.7187 23.3476 16.668 23.5938 16.5711 23.8231C16.4743 24.0525 16.3332 24.2605 16.1559 24.4353C15.9787 24.6101 15.7687 24.7483 15.538 24.842C15.3074 24.9357 15.0605 24.983 14.8116 24.9813C13.1574 25.0075 11.5032 25.0049 9.85161 24.9813C9.55139 24.9933 9.25231 24.9376 8.97652 24.8184C8.70073 24.6992 8.45529 24.5195 8.25836 24.2925C8.06144 24.0656 7.91808 23.7973 7.8389 23.5074C7.75971 23.2176 7.74673 22.9136 7.80092 22.6181C7.90857 21.8383 8.09501 21.0689 8.24731 20.2891Z" fill="#1D292F"/>
<path d="M16.1296 17.7578V19.3333H8.38379V17.7578H16.1296Z" fill="#1D292F"/>
<path d="M2.71498 16.894L3.30576 17.3719C2.28436 19.1259 1.57018 20.9929 0.892748 22.907C0.737831 22.8571 0.596031 22.8151 0.454243 22.7652C0.312454 22.7153 0.170671 22.6655 0 22.6051C0.70419 20.6123 1.61409 18.6983 2.71498 16.894Z" fill="#1D292F"/>
</svg>
