<svg width="20" height="20" viewBox="0 0 20 20" fill="none" xmlns="http://www.w3.org/2000/svg">
<path d="M20.0031 16.1356C19.9526 16.3603 19.9048 16.5878 19.8486 16.8096C19.6667 17.4718 19.3302 18.0814 18.8668 18.5883C18.4035 19.0953 17.8265 19.485 17.1832 19.7256C16.54 19.9661 15.8489 20.0507 15.1666 19.9722C14.4843 19.8937 13.8304 19.6545 13.2586 19.2742C12.6867 18.8939 12.2132 18.3834 11.877 17.7845C11.5409 17.1856 11.3515 16.5156 11.3246 15.8293C11.2977 15.1431 11.434 14.4602 11.7223 13.8369C12.0106 13.2135 12.4426 12.6675 12.9829 12.2436C13.8564 11.5532 14.9642 11.2299 16.0718 11.3421C16.9721 11.4282 17.8229 11.7937 18.5052 12.3873C19.1875 12.981 19.6671 13.7732 19.8768 14.653C19.9217 14.8327 19.9582 15.0152 19.9975 15.1977L20.0031 16.1356ZM19.3263 15.4954C19.2936 14.7695 19.046 14.0697 18.6148 13.4847C18.1837 12.8998 17.5886 12.4561 16.9049 12.21C16.2212 11.9639 15.4798 11.9264 14.7748 12.1023C14.0698 12.2783 13.433 12.6597 12.9451 13.1982C12.4572 13.7366 12.1403 14.4079 12.0345 15.1268C11.9287 15.8457 12.0389 16.5798 12.351 17.236C12.6631 17.8922 13.1631 18.4409 13.7876 18.8124C14.412 19.184 15.1328 19.3616 15.8584 19.3229C16.8236 19.2706 17.7291 18.839 18.3776 18.1221C19.0261 17.4052 19.3651 16.4611 19.3207 15.4954H19.3263Z" fill="#1D292F"/>
<path d="M7.88548 0C8.10451 0.0252733 8.32075 0.0477467 8.53978 0.0786362C8.8936 0.129183 9.24739 0.17972 9.59839 0.244307C9.64241 0.250434 9.68476 0.265364 9.72289 0.288184C9.76102 0.311004 9.79415 0.341263 9.82035 0.377156C9.84654 0.413049 9.86525 0.453844 9.87536 0.497115C9.88547 0.540387 9.88678 0.585252 9.8792 0.629039C9.87429 0.673849 9.86007 0.717136 9.83742 0.756111C9.81477 0.795086 9.78421 0.82888 9.74771 0.855332C9.71121 0.881783 9.66956 0.900292 9.62547 0.909681C9.58139 0.919071 9.5358 0.919137 9.49169 0.909853C9.31759 0.893004 9.1463 0.856487 8.9722 0.828406C7.53737 0.586676 6.06638 0.674064 4.67026 1.08396C4.10864 1.25244 3.5779 1.49955 3.03313 1.70736C2.93494 1.75564 2.82792 1.78335 2.71863 1.78879C2.64956 1.78502 2.58393 1.75754 2.53277 1.71099C2.48161 1.66443 2.44806 1.60166 2.43782 1.53325C2.41836 1.46696 2.4226 1.39596 2.44975 1.33243C2.4769 1.2689 2.52529 1.21679 2.58666 1.18505C2.74465 1.09504 2.9078 1.01441 3.07526 0.943549C4.22208 0.429784 5.45193 0.126359 6.70611 0.0477508C6.7633 0.0409761 6.81971 0.0287506 6.87458 0.0112435L7.88548 0Z" fill="#1D292F"/>
<path d="M3.62835 12.749C3.62835 12.0385 3.62835 11.3309 3.62835 10.6204C3.61104 9.98262 3.75448 9.35074 4.04549 8.78296C4.33649 8.21517 4.7657 7.72974 5.29355 7.37138C5.87984 6.96864 6.56631 6.73634 7.27668 6.70026C7.98705 6.66419 8.6935 6.82576 9.31757 7.16704C9.94164 7.50832 10.4589 8.01596 10.8118 8.63352C11.1648 9.25108 11.3396 9.9544 11.3168 10.6653L11.3337 11.9739C11.3414 12.0211 11.339 12.0693 11.3266 12.1154C11.3142 12.1616 11.2921 12.2045 11.2619 12.2415C11.2317 12.2784 11.1939 12.3086 11.1511 12.3298C11.1084 12.3511 11.0616 12.363 11.0139 12.3648C10.9661 12.3666 10.9186 12.3583 10.8743 12.3403C10.8301 12.3223 10.7901 12.2951 10.7572 12.2606C10.7242 12.226 10.699 12.1848 10.6832 12.1398C10.6674 12.0947 10.6613 12.0468 10.6654 11.9992C10.6485 11.4741 10.6401 10.9462 10.6261 10.4182C10.5953 9.63034 10.2715 8.88232 9.71818 8.32064C9.16482 7.75896 8.42173 7.42407 7.63441 7.38156C6.84709 7.33905 6.07227 7.59198 5.46165 8.09081C4.85104 8.58965 4.44861 9.29845 4.33318 10.0784C4.30696 10.2786 4.29476 10.4803 4.29668 10.6822C4.29668 12.0357 4.29668 13.3892 4.29668 14.7456C4.28088 15.2864 4.39416 15.8232 4.62708 16.3115C4.86001 16.7998 5.2059 17.2257 5.63613 17.5537C6.37465 18.1434 7.09914 18.7444 7.82363 19.3537C7.92355 19.4401 7.99095 19.558 8.01459 19.6879C8.01295 19.7456 7.99627 19.8018 7.96622 19.8511C7.93618 19.9003 7.89379 19.9409 7.84327 19.9687C7.78138 19.9872 7.71644 19.9929 7.65227 19.9857C7.5881 19.9785 7.52603 19.9584 7.46981 19.9266C7.16654 19.7132 6.88855 19.4633 6.60212 19.2302C6.10509 18.8202 5.60243 18.4158 5.10821 18.0002C4.63328 17.621 4.25275 17.1369 3.99647 16.5858C3.74019 16.0347 3.61513 15.4317 3.63117 14.8242L3.62835 12.749Z" fill="#1D292F"/>
<path d="M5.65037 12.4683C5.65037 13.1114 5.63633 13.7573 5.65037 14.4004C5.65872 14.874 5.773 15.3398 5.98486 15.7635C6.19671 16.1873 6.50077 16.5582 6.87468 16.849C7.73395 17.5567 8.59882 18.2531 9.45809 18.9664C9.54569 19.0314 9.61685 19.1161 9.66589 19.2135C9.69381 19.2806 9.69672 19.3555 9.67405 19.4246C9.65137 19.4937 9.60462 19.5523 9.54235 19.5898C9.48123 19.6353 9.40598 19.6577 9.32993 19.6531C9.25387 19.6485 9.18192 19.6171 9.12676 19.5645C8.76452 19.2837 8.39947 18.972 8.04004 18.6743C7.46158 18.1998 6.87187 17.7336 6.31026 17.2422C5.87856 16.8729 5.53369 16.4129 5.30022 15.8949C5.06675 15.377 4.95044 14.814 4.9596 14.2459C4.94836 13.0122 4.94836 11.7813 4.9596 10.5532C4.95296 9.90781 5.19595 9.28484 5.63782 8.81442C6.07969 8.344 6.68624 8.06252 7.33075 8.02881C7.97527 7.9951 8.60786 8.21176 9.09639 8.63351C9.58492 9.05526 9.89159 9.64949 9.95232 10.292C9.98882 10.9744 9.97759 11.6568 9.98882 12.342C9.99824 12.8176 10.1174 13.2847 10.337 13.7067C10.3715 13.7691 10.4015 13.8339 10.4269 13.9005C10.4516 13.9402 10.4677 13.9847 10.474 14.031C10.4803 14.0773 10.4767 14.1245 10.4635 14.1693C10.4503 14.2142 10.4277 14.2558 10.3973 14.2913C10.3669 14.3268 10.3293 14.3555 10.287 14.3754C10.2447 14.3954 10.1987 14.4061 10.152 14.407C10.1052 14.4079 10.0588 14.3989 10.0158 14.3806C9.97274 14.3622 9.93408 14.335 9.90234 14.3007C9.8706 14.2663 9.84649 14.2256 9.83159 14.1813C9.5977 13.7977 9.44391 13.3707 9.37949 12.9261C9.32895 12.474 9.3177 12.0191 9.29805 11.5641C9.27839 11.1092 9.29804 10.6655 9.25592 10.219C9.20452 9.86293 9.04628 9.53081 8.80211 9.26658C8.55794 9.00234 8.23932 8.81842 7.88839 8.73912C7.547 8.66181 7.19071 8.68277 6.86073 8.79956C6.53076 8.91634 6.24059 9.1242 6.02383 9.39905C5.75965 9.74931 5.62294 10.1793 5.63632 10.6178V12.4683H5.65037Z" fill="#1D292F"/>
<path d="M6.98155 12.2182C6.98155 12.6591 6.98155 13.1027 6.98155 13.5436C6.96588 14.0663 7.07487 14.5852 7.29948 15.0574C7.5241 15.5296 7.85788 15.9415 8.27326 16.2591L10.2867 17.8991C10.3326 17.9351 10.3767 17.9735 10.4186 18.0142C10.4531 18.0415 10.4818 18.0754 10.5029 18.1139C10.524 18.1525 10.5372 18.1948 10.5416 18.2386C10.5461 18.2823 10.5417 18.3265 10.5288 18.3685C10.5159 18.4105 10.4946 18.4495 10.4664 18.4831C10.4382 18.517 10.4036 18.5449 10.3647 18.5653C10.3257 18.5858 10.2831 18.5983 10.2392 18.6022C10.1954 18.6061 10.1512 18.6014 10.1092 18.5882C10.0673 18.575 10.0283 18.5536 9.9946 18.5253C9.7503 18.3399 9.51722 18.1406 9.28134 17.9496L7.84362 16.7758C7.35747 16.4006 6.965 15.9177 6.69701 15.3652C6.42902 14.8126 6.29283 14.2054 6.29918 13.5914C6.29918 12.5945 6.29918 11.6004 6.29918 10.6035C6.29183 10.3032 6.40048 10.0116 6.60251 9.78928C6.80453 9.56696 7.08445 9.43101 7.38408 9.40969C7.68372 9.38836 7.98005 9.48329 8.21152 9.67475C8.443 9.86621 8.59182 10.1395 8.62708 10.4378C8.65235 11.2101 8.62708 11.9851 8.62708 12.7601C8.60396 13.3687 8.76125 13.9705 9.07917 14.49C9.32351 14.8245 9.59192 15.1408 9.88228 15.4363C9.98169 15.5295 10.0857 15.6176 10.194 15.7003C10.2319 15.7261 10.264 15.7596 10.2883 15.7985C10.3126 15.8374 10.3286 15.8809 10.3352 15.9264C10.3418 15.9718 10.3389 16.018 10.3267 16.0623C10.3144 16.1065 10.2931 16.1477 10.2642 16.1833C10.2362 16.2197 10.2009 16.2499 10.1606 16.2718C10.1203 16.2938 10.0758 16.3071 10.03 16.3108C9.98424 16.3145 9.9382 16.3085 9.89486 16.2934C9.85151 16.2782 9.81183 16.2541 9.77838 16.2226C9.52102 16.0176 9.27803 15.7953 9.0511 15.5571C8.69507 15.1799 8.41683 14.7363 8.2323 14.2516C8.04776 13.7669 7.96055 13.2505 7.97562 12.7321C7.97562 12.0356 7.97562 11.328 7.97562 10.6428C7.97491 10.5332 7.95394 10.4247 7.91382 10.3227C7.87147 10.2198 7.79415 10.1352 7.6955 10.0839C7.59685 10.0325 7.48324 10.0176 7.37469 10.0419C7.26443 10.0615 7.16498 10.1203 7.09477 10.2076C7.02457 10.2948 6.98835 10.4045 6.9928 10.5164C6.9928 11.0781 6.9928 11.6397 6.9928 12.2154L6.98155 12.2182Z" fill="#1D292F"/>
<path d="M7.51238 2.66748C8.84245 2.68059 10.1477 3.02925 11.3071 3.68115C12.4666 4.33304 13.4427 5.26709 14.145 6.3967C14.7412 7.36339 15.1241 8.44618 15.2683 9.57271C15.2811 9.62054 15.2839 9.67051 15.2766 9.71948C15.2692 9.76845 15.2517 9.81537 15.2254 9.8573C15.199 9.89922 15.1643 9.93524 15.1233 9.9631C15.0824 9.99096 15.0361 10.0101 14.9875 10.0192C14.8077 10.0585 14.6505 9.93215 14.5943 9.70469C14.4762 9.10106 14.3234 8.50475 14.1366 7.91871C13.5789 6.40849 12.5071 5.1429 11.1095 4.34395C9.90313 3.63035 8.51345 3.28756 7.11362 3.35829C6.95918 3.35829 6.80472 3.39199 6.64747 3.3948C6.55891 3.39794 6.47258 3.36664 6.4066 3.30747C6.34062 3.2483 6.30017 3.16586 6.29369 3.07748C6.2905 2.99159 6.3205 2.90778 6.3775 2.84345C6.4345 2.77913 6.51411 2.73924 6.59976 2.73208C6.90303 2.70119 7.20911 2.68714 7.51238 2.66748Z" fill="#1D292F"/>
<path d="M0.963889 10.9376C0.872523 9.41638 1.31664 7.9112 2.21912 6.68325C2.71193 5.99252 3.33892 5.40824 4.06264 4.96532C4.78635 4.52239 5.59193 4.2299 6.43122 4.10536C6.8038 4.05708 7.17881 4.0299 7.55445 4.02393C7.81279 4.02393 7.95318 4.13625 7.9588 4.34125C7.96441 4.54624 7.81841 4.68664 7.55726 4.68664C6.32451 4.66081 5.11626 5.03305 4.11176 5.74813C3.4196 6.2232 2.84145 6.84591 2.419 7.57138C1.99654 8.29686 1.74028 9.10703 1.66872 9.9435C1.61256 10.5051 1.63786 11.0864 1.62662 11.6593C1.63524 11.7281 1.62017 11.7979 1.58395 11.8571C1.54772 11.9162 1.49246 11.9614 1.42723 11.985C1.31325 12.013 1.19293 11.9969 1.09027 11.9401C1.05114 11.9044 1.01973 11.8611 0.997995 11.8128C0.976262 11.7645 0.964644 11.7122 0.963889 11.6593C0.952656 11.3869 0.963889 11.1117 0.963889 10.9376Z" fill="#1D292F"/>
<path d="M7.3886 1.33936C8.18792 1.33944 8.98411 1.43944 9.75863 1.63702C10.0142 1.70441 10.1433 1.85606 10.0984 2.04982C10.0535 2.24359 9.86813 2.36153 9.60417 2.29413C8.79213 2.08023 7.95225 1.99122 7.11342 2.03016C5.66564 2.08494 4.25688 2.51455 3.02489 3.27698C2.45118 3.62486 1.92292 4.04273 1.45234 4.52099C1.41584 4.55749 1.37936 4.59681 1.34005 4.63051C1.30751 4.66484 1.26832 4.69217 1.22487 4.71086C1.18142 4.72954 1.13461 4.73917 1.08731 4.73917C1.04002 4.73917 0.993206 4.72954 0.949755 4.71086C0.906304 4.69217 0.867117 4.66484 0.834581 4.63051C0.801873 4.59608 0.776875 4.55507 0.76126 4.51022C0.745644 4.46538 0.739766 4.41771 0.744018 4.37042C0.748269 4.32312 0.762543 4.27727 0.785906 4.23592C0.809269 4.19458 0.841196 4.15869 0.879519 4.13065C2.32007 2.64071 4.22213 1.68173 6.27662 1.40956C6.43106 1.38709 6.58832 1.37306 6.74277 1.36183L7.3886 1.33936Z" fill="#1D292F"/>
<path d="M2.27246 11.7069C2.29493 11.0891 2.27247 10.4657 2.34828 9.85635C2.49791 8.56202 3.14672 7.37717 4.15666 6.55398C4.18915 6.52147 4.22817 6.49619 4.27112 6.47983C4.31407 6.46347 4.35998 6.45639 4.40587 6.45904C4.45175 6.46169 4.49658 6.47402 4.53736 6.49522C4.57814 6.51642 4.61396 6.54601 4.64249 6.58205C4.6725 6.61697 4.6949 6.65778 4.70827 6.70184C4.72164 6.7459 4.72568 6.79225 4.72013 6.83796C4.71458 6.88367 4.69957 6.92773 4.67605 6.96731C4.65253 7.0069 4.62099 7.04114 4.5835 7.06787C4.14531 7.44625 3.77824 7.89986 3.49959 8.40734C3.14261 9.08194 2.95833 9.83449 2.96323 10.5977C2.96323 11.457 2.96323 12.3163 2.96323 13.1756C2.96323 13.2261 2.96323 13.2795 2.96323 13.33C2.96251 13.4187 2.92719 13.5036 2.86475 13.5665C2.80232 13.6295 2.71774 13.6655 2.62909 13.667C2.58498 13.667 2.54133 13.6582 2.50072 13.641C2.46011 13.6237 2.42337 13.5985 2.39271 13.5668C2.36205 13.5351 2.3381 13.4976 2.32227 13.4564C2.30643 13.4152 2.29903 13.3713 2.30053 13.3272C2.30053 12.7852 2.30053 12.2461 2.30053 11.7069H2.27246Z" fill="#1D292F"/>
<path d="M12.5867 9.88493C12.5939 9.97245 12.5669 10.0593 12.5114 10.1274C12.4559 10.1955 12.3762 10.2394 12.2891 10.25C12.2004 10.2558 12.1128 10.2277 12.044 10.1714C11.9752 10.1151 11.9303 10.0348 11.9184 9.94672C11.8663 9.66682 11.7979 9.39021 11.7134 9.11832C11.4574 8.34382 10.9964 7.65312 10.3794 7.11962C9.76231 6.58612 9.01227 6.22974 8.20893 6.08834C8.09555 6.06833 7.98976 6.01785 7.90286 5.94231C7.85229 5.89427 7.8214 5.82914 7.81621 5.75958C7.81102 5.69002 7.8319 5.62101 7.87479 5.56601C7.90822 5.50585 7.96012 5.45807 8.02284 5.42975C8.08556 5.40142 8.15576 5.39405 8.22299 5.40875C9.3031 5.58485 10.3014 6.09334 11.079 6.86342C11.8566 7.6335 12.3748 8.62684 12.5614 9.70521C12.5755 9.7698 12.5811 9.83439 12.5867 9.88493Z" fill="#1D292F"/>
<path d="M11.0391 2.07825C11.0954 2.09361 11.1507 2.11237 11.2048 2.13442C12.5633 2.74453 13.7549 3.6731 14.6784 4.84148C14.7161 4.8731 14.7465 4.91262 14.7673 4.95725C14.7882 5.00189 14.799 5.05056 14.799 5.09982C14.799 5.14908 14.7882 5.19773 14.7673 5.24237C14.7465 5.28701 14.7161 5.32654 14.6784 5.35816C14.6392 5.38765 14.5943 5.4086 14.5465 5.41966C14.4987 5.43072 14.4492 5.43165 14.401 5.42239C14.3529 5.41313 14.3072 5.39388 14.2669 5.36589C14.2267 5.33791 14.1927 5.3018 14.1673 5.25989C13.6763 4.62587 13.0911 4.07089 12.4319 3.6143C11.963 3.3026 11.4603 3.05267 10.9717 2.77186C10.8369 2.69323 10.7134 2.61741 10.6909 2.44331C10.6873 2.39589 10.6938 2.34826 10.7098 2.30349C10.7258 2.25871 10.751 2.2178 10.7839 2.18339C10.8167 2.14898 10.8564 2.12183 10.9003 2.10372C10.9443 2.08561 10.9916 2.07694 11.0391 2.07825Z" fill="#1D292F"/>
<path d="M13.9428 9.82866C13.9652 10.1488 13.8642 10.3004 13.662 10.3229C13.6133 10.3294 13.5637 10.3253 13.5167 10.3108C13.4698 10.2963 13.4265 10.2718 13.3899 10.2389C13.3534 10.2061 13.3244 10.1657 13.3049 10.1206C13.2854 10.0755 13.276 10.0266 13.2773 9.9775C13.1583 8.7539 12.6684 7.59584 11.8732 6.65827C11.7943 6.57495 11.751 6.46414 11.7525 6.34938C11.7666 6.29107 11.7923 6.23618 11.828 6.18795C11.8636 6.13972 11.9086 6.09913 11.9603 6.06857C12.0259 6.03633 12.1012 6.02938 12.1716 6.04906C12.242 6.06875 12.3027 6.11368 12.3422 6.17528C12.5303 6.41678 12.7269 6.64985 12.9038 6.90539C13.4851 7.77959 13.842 8.78364 13.9428 9.82866Z" fill="#1D292F"/>
<path d="M0.278762 8.53715C0.0821972 8.53715 -0.0610212 8.32092 0.026029 8.05695C0.247531 7.36167 0.57427 6.70443 0.994833 6.1081C1.20825 5.80763 1.44973 5.52402 1.68561 5.24039C1.71195 5.1968 1.74753 5.15951 1.78985 5.13116C1.83217 5.10282 1.88018 5.0841 1.93052 5.07633C1.98086 5.06857 2.03232 5.07195 2.08121 5.08622C2.13011 5.1005 2.17527 5.12532 2.21352 5.15895C2.37078 5.30497 2.36516 5.49031 2.18264 5.68969C1.51032 6.41756 0.998459 7.27862 0.680297 8.21702C0.66397 8.3102 0.614134 8.39418 0.540167 8.45315C0.466201 8.51212 0.373232 8.542 0.278762 8.53715Z" fill="#1D292F"/>
<path d="M5.27727 3.0047C5.35514 3.00136 5.43168 3.02558 5.49346 3.07309C5.55525 3.1206 5.59832 3.18837 5.61508 3.26448C5.63185 3.3406 5.62123 3.4202 5.58512 3.48927C5.54902 3.55834 5.48974 3.61247 5.41768 3.64215C5.17337 3.74325 4.91222 3.80783 4.67634 3.92297C4.2439 4.142 3.83391 4.38912 3.39866 4.625C3.33688 4.6587 3.28071 4.70644 3.21613 4.73453C3.14385 4.77329 3.05986 4.78413 2.98012 4.76497C2.90038 4.74581 2.83048 4.69799 2.78371 4.63063C2.73626 4.56302 2.71675 4.47967 2.72931 4.39803C2.74187 4.31639 2.78552 4.24278 2.8511 4.19256C3.01983 4.04976 3.2034 3.92549 3.39866 3.82188C3.97712 3.54106 4.564 3.28832 5.14808 3.02436C5.19018 3.01262 5.23358 3.00602 5.27727 3.0047Z" fill="#1D292F"/>
<path d="M9.11568 4.21533C9.24204 4.25465 9.4386 4.31081 9.63516 4.3754C10.1838 4.55753 10.7038 4.81659 11.1796 5.14483C11.2201 5.16589 11.2559 5.19504 11.2847 5.23046C11.3135 5.26587 11.3347 5.30682 11.3471 5.35076C11.3594 5.3947 11.3626 5.4407 11.3565 5.48594C11.3504 5.53118 11.3352 5.5747 11.3116 5.6138C11.2879 5.65493 11.2556 5.69048 11.217 5.71806C11.1784 5.74564 11.1343 5.76461 11.0877 5.77366C11.0411 5.78271 10.9931 5.78165 10.9469 5.77054C10.9008 5.75943 10.8576 5.73853 10.8202 5.70927C10.2478 5.32666 9.61582 5.04196 8.95001 4.86682C8.90821 4.85785 8.86861 4.84068 8.8335 4.81628C8.79839 4.79188 8.76846 4.76075 8.74547 4.7247C8.72249 4.68865 8.70688 4.64839 8.69958 4.60627C8.69227 4.56414 8.6934 4.52098 8.7029 4.4793C8.73098 4.32485 8.85734 4.21533 9.11568 4.21533Z" fill="#1D292F"/>
<path d="M2.90943 15.2286C2.97963 15.6694 3.04422 16.1103 3.12285 16.5456C3.16777 16.7871 3.09756 16.9527 2.89819 17.0117C2.85223 17.0246 2.80402 17.0274 2.75689 17.0198C2.70976 17.0122 2.66486 16.9944 2.6253 16.9677C2.58574 16.941 2.55249 16.9059 2.52784 16.865C2.5032 16.8241 2.48775 16.7784 2.4826 16.7309C2.3998 16.3853 2.34069 16.0344 2.30569 15.6807C2.28743 15.3439 2.28743 15.0065 2.30569 14.6697C2.30414 14.6257 2.31163 14.5817 2.32769 14.5407C2.34376 14.4996 2.36809 14.4623 2.39913 14.431C2.43017 14.3997 2.46728 14.3751 2.5082 14.3587C2.54912 14.3422 2.59298 14.3344 2.63705 14.3356C2.68105 14.3356 2.72458 14.3443 2.76515 14.3613C2.80572 14.3783 2.84253 14.4032 2.87337 14.4346C2.90421 14.4659 2.92849 14.5031 2.9448 14.544C2.96112 14.5849 2.96913 14.6285 2.96839 14.6725V15.2173L2.90943 15.2286Z" fill="#1D292F"/>
<path d="M7.16993 5.7287C7.16512 5.80196 7.13724 5.87182 7.09034 5.9283C7.04344 5.98479 6.9799 6.02501 6.90877 6.04321L5.53562 6.44477C5.45573 6.47308 5.36808 6.46997 5.29039 6.43608C5.21271 6.40219 5.15081 6.34006 5.11722 6.26225C5.09756 6.22261 5.08649 6.17927 5.08472 6.13506C5.08296 6.09085 5.09054 6.04677 5.10697 6.00569C5.1234 5.96461 5.14832 5.92746 5.18009 5.89666C5.21185 5.86587 5.24975 5.84212 5.29132 5.82698C5.70972 5.67814 6.13375 5.54616 6.56338 5.4226C6.65484 5.39719 6.74926 5.38399 6.84419 5.3833C6.93258 5.38765 7.01587 5.42604 7.07659 5.49042C7.13732 5.55481 7.17077 5.6402 7.16993 5.7287Z" fill="#1D292F"/>
<path d="M10.882 0.612305C11.0757 0.685316 11.3201 0.772367 11.5587 0.87346C11.7974 0.974553 11.994 1.07564 12.2074 1.18516C12.2531 1.19955 12.2952 1.22351 12.3309 1.25545C12.3665 1.28739 12.395 1.32658 12.4144 1.37039C12.4337 1.4142 12.4435 1.46163 12.4431 1.50953C12.4427 1.55742 12.432 1.60467 12.4119 1.64813C12.3918 1.6916 12.3626 1.73027 12.3264 1.76158C12.2902 1.79289 12.2477 1.81611 12.2017 1.82969C12.1558 1.84328 12.1075 1.84692 12.0601 1.84037C12.0126 1.83382 11.9671 1.81723 11.9266 1.79171C11.5334 1.62041 11.1403 1.44912 10.75 1.27221C10.6673 1.24853 10.5969 1.19386 10.5535 1.11958C10.5101 1.04531 10.497 0.957149 10.5169 0.87346C10.545 0.70778 10.6573 0.623537 10.882 0.612305Z" fill="#1D292F"/>
<path d="M14.6473 17.2023L16.3321 15.5175L17.6828 14.1639C17.7271 14.1074 17.7864 14.0645 17.8539 14.0402C17.9215 14.0159 17.9945 14.011 18.0647 14.0263C18.1139 14.0379 18.1597 14.0608 18.1984 14.0933C18.2371 14.1258 18.2677 14.1669 18.2876 14.2133C18.3076 14.2597 18.3163 14.3102 18.3132 14.3607C18.3101 14.4111 18.2952 14.4601 18.2696 14.5037C18.2275 14.5694 18.1765 14.629 18.118 14.6806L15.2061 17.5927C14.8242 17.9746 14.4675 17.9774 14.0828 17.5927C13.7477 17.2651 13.4164 16.9337 13.0888 16.5986C13.0286 16.5478 12.9886 16.477 12.9762 16.3991C12.9639 16.3213 12.9799 16.2416 13.0214 16.1746C13.0541 16.1093 13.1095 16.0582 13.1772 16.0308C13.245 16.0034 13.3203 16.0016 13.3892 16.0257C13.4787 16.0624 13.5591 16.118 13.6251 16.1886C13.9705 16.5172 14.2991 16.8513 14.6473 17.2023Z" fill="#1D292F"/>
</svg>
