<svg width="18" height="17" viewBox="0 0 18 17" fill="none" xmlns="http://www.w3.org/2000/svg">
<path d="M17.7053 15.6143C17.6631 15.7553 17.5855 15.8831 17.4799 15.9856C17.3743 16.0881 17.2442 16.1619 17.102 16.1999C17.0251 16.2168 16.9466 16.225 16.8678 16.2242H1.11939C1.01144 16.2309 0.903265 16.2152 0.801726 16.1779C0.700187 16.1406 0.607514 16.0826 0.529589 16.0076C0.451663 15.9326 0.390194 15.8422 0.349081 15.7422C0.307968 15.6421 0.2881 15.5346 0.290764 15.4265C0.290764 13.2535 0.290764 11.0821 0.290764 8.91211C0.290764 8.88338 0.290764 8.85687 0.290764 8.80383L1.17464 9.00271C3.24732 9.47339 5.32001 9.94627 7.3949 10.4081C7.57388 10.4479 7.63134 10.512 7.61587 10.6954C7.59819 11.0401 7.61587 11.387 7.61587 11.734C7.61587 12.0809 7.75285 12.2488 8.12408 12.2488H9.89182C10.2299 12.2488 10.3758 12.1052 10.3802 11.7649C10.3846 11.4246 10.3802 11.0268 10.3802 10.66C10.3802 10.5208 10.4089 10.4567 10.5614 10.4236C12.8388 9.91386 15.1155 9.39826 17.3915 8.87676L17.7075 8.80825L17.7053 15.6143Z" fill="#1D292F"/>
<path d="M17.7057 7.78965C17.0936 7.93107 16.4837 8.07692 15.8738 8.21613L10.4579 9.44033C10.4292 9.44224 10.4004 9.44224 10.3717 9.44033C10.3717 9.21936 10.3717 9.01606 10.3717 8.80834C10.3717 8.43711 10.2281 8.29347 9.86128 8.29126H8.10899C7.75323 8.29126 7.60739 8.43932 7.60518 8.7995C7.60518 9.00722 7.60518 9.21715 7.60518 9.45138L0.293347 7.79407V6.28702C0.293347 5.91136 0.293347 5.53791 0.293347 5.16446C0.28909 5.05795 0.306701 4.95169 0.34511 4.85225C0.383518 4.75281 0.441911 4.6623 0.516662 4.5863C0.591414 4.51031 0.680946 4.45044 0.779736 4.4104C0.878526 4.37035 0.984472 4.35099 1.09104 4.35349C1.25677 4.35349 1.42028 4.35349 1.58379 4.35349C6.61745 4.35349 11.6511 4.35349 16.6848 4.35349C17.1775 4.35349 17.5333 4.49491 17.7079 4.97443L17.7057 7.78965Z" fill="#1D292F"/>
<path d="M5.93268 3.54894H5.04881C5.04881 3.53789 5.02672 3.52905 5.02672 3.52242C5.00888 3.05359 5.02215 2.5841 5.06647 2.11702C5.14451 1.66589 5.37923 1.25676 5.72927 0.961677C6.07932 0.666596 6.52225 0.50449 6.98007 0.503906C8.32797 0.503906 9.6766 0.503906 11.026 0.503906C11.5345 0.512588 12.0204 0.715789 12.3838 1.07173C12.7471 1.42766 12.9602 1.90928 12.9794 2.41755C12.9794 2.791 12.9794 3.16445 12.9794 3.54673H12.0557C12.0557 3.23074 12.0756 2.91916 12.0557 2.6098C12.0419 2.38665 11.9872 2.16794 11.8944 1.96455C11.8232 1.81078 11.7094 1.6807 11.5664 1.58981C11.4234 1.49892 11.2573 1.45105 11.0879 1.45189C9.7289 1.45189 8.36775 1.42979 7.00879 1.45189C6.36357 1.45189 5.96361 1.91815 5.95256 2.58107C5.95256 2.84845 5.95256 3.11362 5.95256 3.381C5.94151 3.43845 5.9371 3.4937 5.93268 3.54894Z" fill="#1D292F"/>
</svg>
