<svg width="18" height="21" viewBox="0 0 18 21" fill="none" xmlns="http://www.w3.org/2000/svg">
<path d="M8.80695 20.3597C9.359 19.5459 8.79557 18.6011 7.81478 18.5898C7.62507 17.7152 7.41637 17.5634 6.23259 17.4515C6.25564 17.269 6.23724 17.0837 6.17878 16.9093C6.12031 16.7349 6.02329 16.5759 5.89491 16.4442C5.76315 16.3118 5.59774 16.218 5.41652 16.1729C5.23529 16.1277 5.04516 16.133 4.8667 16.1881C4.97673 15.6588 4.86668 15.2092 4.41327 14.9038C3.95987 14.5983 3.51026 14.6552 3.08532 14.9493C2.89561 14.7596 2.7059 14.5907 2.51619 14.3991C2.48204 14.3631 2.49723 14.2531 2.52569 14.1942C2.96202 13.3235 3.40593 12.4565 3.85364 11.5877C4.17235 10.9616 4.49106 10.3356 4.80219 9.70579C4.81804 9.65501 4.85237 9.61203 4.89838 9.58533C4.9444 9.55863 4.99876 9.55017 5.05072 9.56161C5.46428 9.59956 5.88165 9.62042 6.33884 9.65077L6.14913 9.85376C5.76936 10.2363 5.54205 10.7442 5.50979 11.2823C5.48703 11.8585 5.35842 12.4257 5.13038 12.9555C5.11408 12.9849 5.1038 13.0173 5.10013 13.0508C5.09646 13.0843 5.0995 13.1182 5.10903 13.1505C5.11856 13.1828 5.13441 13.2129 5.15567 13.239C5.17692 13.2651 5.20314 13.2867 5.23283 13.3026C5.43093 13.4343 5.65953 13.5128 5.89671 13.5308C6.13389 13.5487 6.37172 13.5054 6.58737 13.4051C6.8675 13.3103 7.1147 13.1374 7.29989 12.9069C7.48508 12.6763 7.60054 12.3977 7.63267 12.1037C7.68159 11.8183 7.79089 11.5467 7.95326 11.3069C8.24541 10.8573 8.78417 10.7036 9.36278 10.9028C9.64975 10.997 9.91583 11.1459 10.1463 11.3411C11.8157 12.8284 13.47 14.3308 15.1261 15.8314C15.3168 15.9925 15.4362 16.2223 15.4586 16.4708C15.4809 16.7194 15.4044 16.9668 15.2456 17.1594C15.0872 17.3465 14.8632 17.466 14.6195 17.4935C14.3759 17.521 14.131 17.4544 13.9348 17.3073C12.7813 16.465 11.6317 15.6152 10.4783 14.771C10.4043 14.7178 10.3113 14.5813 10.2203 14.6989C10.1292 14.8165 10.2867 14.8696 10.3569 14.9208C11.4685 15.7416 12.5809 16.5605 13.6938 17.3775C13.8435 17.497 13.9535 17.659 14.0094 17.8422C14.0653 18.0254 14.0644 18.2212 14.0068 18.4038C13.9375 18.5872 13.8095 18.7424 13.6428 18.8453C13.476 18.9483 13.2798 18.9932 13.0849 18.973C12.8588 18.9426 12.643 18.8594 12.455 18.7301C11.4211 17.9599 10.4024 17.1688 9.37797 16.3854L9.33434 16.3531C9.26605 16.3076 9.19394 16.2146 9.12375 16.3228C9.10478 16.3531 9.16168 16.4631 9.21101 16.503C9.72322 16.9014 10.2393 17.2922 10.7534 17.6867L12.197 18.7908C12.2694 18.8438 12.3301 18.9111 12.3752 18.9886C12.4203 19.066 12.4489 19.152 12.4593 19.2411C12.4696 19.3301 12.4614 19.4204 12.4352 19.5061C12.409 19.5919 12.3654 19.6713 12.3071 19.7394C12.2439 19.8257 12.1642 19.8987 12.0726 19.9541C11.981 20.0095 11.8794 20.0462 11.7736 20.0621C11.6677 20.0779 11.5598 20.0727 11.456 20.0466C11.3522 20.0205 11.2546 19.9741 11.1688 19.9101C10.6452 19.5516 10.1311 19.1778 9.61131 18.8079C9.23189 18.5461 8.87333 18.2805 8.5034 18.0168C8.48443 18.0017 8.46545 17.9789 8.44458 17.9751C8.38577 17.9751 8.32697 17.9751 8.27006 17.9751C8.29093 18.0301 8.29664 18.106 8.33838 18.1364C8.62484 18.3507 8.90747 18.5556 9.20721 18.7643C9.57714 19.028 9.94519 19.2936 10.3189 19.5516C10.3633 19.5746 10.3967 19.6143 10.412 19.6619C10.4273 19.7095 10.4231 19.7612 10.4005 19.8058C10.1577 20.502 9.4899 20.7885 8.89801 20.4451C8.86581 20.4187 8.8354 20.3901 8.80695 20.3597Z" fill="#1D292F"/>
<path d="M14.9655 15.4215L13.7039 14.2833L10.3081 11.2138C10.1078 11.0193 9.86986 10.8677 9.60892 10.7682C9.34798 10.6687 9.06949 10.6235 8.79047 10.6352C8.1891 10.6675 7.71862 11.081 7.50615 11.7526C7.46646 11.8759 7.4404 12.0031 7.42838 12.132C7.33732 12.9478 6.36413 13.5586 5.59392 13.2703C5.48764 13.2229 5.38435 13.169 5.28467 13.109C5.592 12.4773 5.6641 11.8171 5.7267 11.1531C5.78931 10.4892 6.16874 10.0547 6.64111 9.65825C7.0923 9.2751 7.61891 8.99099 8.18689 8.82433C8.75487 8.65766 9.35153 8.61215 9.93822 8.69074C10.7406 8.80782 11.5306 8.99833 12.2982 9.25986C12.5107 9.32247 12.7345 9.35662 12.9489 9.41732C13.0269 9.43653 13.0948 9.48468 13.1386 9.55201C13.9303 11.1873 14.7163 12.8238 15.4967 14.4616C15.5248 14.5125 15.5335 14.5718 15.5213 14.6286C15.3981 14.9313 15.2081 15.2024 14.9655 15.4215Z" fill="#1D292F"/>
<path d="M5.16868 8.51461C5.13073 8.60946 5.11173 8.66637 5.08517 8.71949L1.97777 14.8603C1.85066 15.1126 1.771 15.1354 1.51869 15.0083L0.190731 14.3386C-0.0160513 14.2343 -0.0464398 14.1394 0.0597968 13.9288L3.16724 7.78803C3.28866 7.5471 3.3759 7.52054 3.61493 7.64196C4.06264 7.86771 4.51226 8.09346 4.95618 8.3268C5.03431 8.38062 5.10567 8.44368 5.16868 8.51461Z" fill="#1D292F"/>
<path d="M17.8641 14.0576C17.8167 14.1107 17.775 14.1999 17.7067 14.234C17.2134 14.4869 16.7177 14.7266 16.2194 14.953C16.0505 15.0327 15.9652 14.9852 15.8665 14.7823C15.4062 13.8223 14.9458 12.8618 14.4854 11.9006C13.9644 10.8079 13.442 9.71582 12.9184 8.62438C12.797 8.36828 12.8198 8.29049 13.0721 8.16719C13.5293 7.94523 13.9884 7.72707 14.4475 7.5089C14.6277 7.42543 14.7226 7.45958 14.8117 7.6436C15.8083 9.71899 16.803 11.7937 17.7958 13.8679C17.811 13.9153 17.8319 13.9684 17.8641 14.0576Z" fill="#1D292F"/>
<path d="M6.90576 3.56871V0.688965H10.939V3.56871H6.90576Z" fill="#1D292F"/>
<path d="M9.87681 8.48159C9.21193 8.41998 8.54147 8.49354 7.90576 8.69785C7.98165 7.36991 8.05752 6.07041 8.1334 4.75195H9.75732C9.79716 5.97366 9.84266 7.21624 9.87681 8.48159Z" fill="#1D292F"/>
<path d="M3.91079 14.9151C4.06838 14.9284 4.21902 14.9858 4.34551 15.0808C4.47199 15.1757 4.56921 15.3043 4.62599 15.4519C4.70879 15.6129 4.73849 15.796 4.71089 15.9749C4.68329 16.1538 4.59978 16.3194 4.47232 16.4479C4.13843 16.8065 3.78937 17.1517 3.43462 17.4894C3.25968 17.6459 3.03165 17.7298 2.79699 17.7239C2.56234 17.7181 2.33872 17.623 2.17178 17.458C2.00484 17.293 1.90714 17.0705 1.89857 16.8359C1.88999 16.6014 1.9712 16.3724 2.12565 16.1956C2.45954 15.8352 2.81239 15.4937 3.16335 15.1541C3.34547 14.9777 3.55034 14.9132 3.91079 14.9151Z" fill="#1D292F"/>
<path d="M4.32605 19.0731C4.17497 19.065 4.0278 19.0223 3.89582 18.9484C3.76384 18.8744 3.65058 18.7712 3.56481 18.6465C3.47903 18.5219 3.42303 18.3792 3.40108 18.2296C3.37913 18.0799 3.39184 17.9271 3.43823 17.7831C3.45053 17.7496 3.46995 17.7192 3.49515 17.694C3.84611 17.3506 4.19139 17.0053 4.54614 16.6676C4.93694 16.2882 5.25184 16.2465 5.61797 16.4779C5.79611 16.5956 5.92935 16.7699 5.99614 16.9727C6.06293 17.1755 6.05935 17.3948 5.986 17.5953C5.93423 17.749 5.85448 17.8918 5.75076 18.0165C5.51552 18.284 5.26323 18.5363 5.01092 18.7886C4.92213 18.8801 4.81558 18.9525 4.69782 19.0015C4.58007 19.0504 4.45356 19.0748 4.32605 19.0731Z" fill="#1D292F"/>
<path d="M12.3093 2.13429C12.3093 2.63891 12.3093 3.14163 12.3093 3.65194C12.315 3.73066 12.3045 3.80971 12.2786 3.88427C12.2527 3.95882 12.2119 4.02731 12.1586 4.08555C12.1053 4.14379 12.0408 4.19055 11.9688 4.22298C11.8969 4.25542 11.8191 4.27284 11.7401 4.27418C11.6596 4.27561 11.5796 4.26041 11.5051 4.22953C11.4307 4.19866 11.3635 4.15277 11.3076 4.09474C11.2517 4.0367 11.2083 3.96776 11.1803 3.89223C11.1522 3.8167 11.14 3.73619 11.1445 3.65574C11.1445 2.64397 11.1445 1.6322 11.1445 0.62043C11.1389 0.541116 11.1499 0.461509 11.177 0.386739C11.204 0.311969 11.2464 0.243697 11.3015 0.186323C11.3565 0.12895 11.423 0.0837487 11.4966 0.0536328C11.5702 0.0235169 11.6493 0.00915458 11.7288 0.0114723C11.8076 0.009736 11.8859 0.0243957 11.9588 0.0545222C12.0316 0.0846487 12.0975 0.129585 12.152 0.186481C12.2066 0.243378 12.2488 0.310993 12.2758 0.385041C12.3029 0.459089 12.3143 0.537955 12.3093 0.616637C12.3093 1.11746 12.3093 1.62588 12.3093 2.13429Z" fill="#1D292F"/>
<path d="M5.53609 2.11741C5.53609 1.62038 5.53609 1.12335 5.53609 0.626318C5.52794 0.545645 5.5371 0.464163 5.563 0.387327C5.5889 0.310491 5.63092 0.240076 5.68624 0.180799C5.74157 0.121522 5.80896 0.074752 5.88383 0.0436202C5.9587 0.0124883 6.03931 -0.0022862 6.12036 0.000286583C6.20084 0.000281443 6.28049 0.0169574 6.35421 0.0492619C6.42792 0.0815664 6.49414 0.128798 6.54868 0.187978C6.60323 0.247157 6.6449 0.316999 6.6711 0.393097C6.6973 0.469195 6.70743 0.549899 6.70088 0.630113C6.70088 1.62924 6.70088 2.62899 6.70088 3.62937C6.70734 3.70902 6.69755 3.78915 6.67212 3.8649C6.64668 3.94065 6.60616 4.01044 6.55295 4.07005C6.49973 4.12965 6.43494 4.17782 6.36254 4.21164C6.29015 4.24546 6.21162 4.26423 6.13175 4.26679C5.78079 4.26679 5.54558 4.01258 5.54368 3.62558C5.54368 3.12286 5.54368 2.62014 5.54368 2.10793L5.53609 2.11741Z" fill="#1D292F"/>
<path d="M6.27401 20.1623C5.59106 20.1623 5.05232 19.671 5.07129 19.1568C5.07938 19.0639 5.11728 18.9761 5.17939 18.9064C5.38617 18.6769 5.61195 18.4663 5.82063 18.2387C5.9287 18.1337 6.01731 18.0103 6.0824 17.8744C6.10081 17.8047 6.14486 17.7445 6.20569 17.7059C6.26653 17.6672 6.33967 17.6529 6.41059 17.6658C6.62629 17.6749 6.83992 17.7119 7.04613 17.7758C7.17533 17.8295 7.29034 17.9124 7.38215 18.018C7.47397 18.1236 7.54011 18.249 7.57538 18.3844C7.61066 18.5198 7.6141 18.6616 7.58548 18.7985C7.55685 18.9355 7.49691 19.064 7.41036 19.1739C7.24723 19.406 7.06982 19.6278 6.87917 19.8379C6.72673 20.0199 6.50997 20.1361 6.27401 20.1623Z" fill="#1D292F"/>
<path d="M7.71799 20.8244C7.57948 20.8352 7.44085 20.805 7.3194 20.7375C7.19795 20.6701 7.09904 20.5683 7.03502 20.445C6.90412 20.2079 6.91741 20.1073 7.09005 19.8968C7.23612 19.7184 7.3841 19.542 7.52069 19.358C7.60782 19.2578 7.6725 19.14 7.7104 19.0127C7.75213 18.7965 7.87923 18.7965 8.03859 18.823C8.20852 18.8439 8.36887 18.9131 8.50068 19.0224C8.63248 19.1317 8.73019 19.2765 8.78223 19.4396C8.83491 19.5958 8.83957 19.7643 8.79561 19.9232C8.75166 20.0821 8.66113 20.2242 8.53565 20.3312C8.44459 20.4204 8.35539 20.5114 8.26243 20.5968C8.1171 20.7401 7.92205 20.8216 7.71799 20.8244Z" fill="#1D292F"/>
<path d="M10.2702 3.79443C10.2702 3.92913 10.2702 4.05054 10.2702 4.17385C10.2644 4.27048 10.2219 4.36123 10.1513 4.42753C10.0808 4.49384 9.98758 4.53067 9.89077 4.53049C9.25841 4.53808 8.62986 4.53808 8.00508 4.53049C7.9095 4.5308 7.81731 4.49502 7.74697 4.43031C7.67662 4.36559 7.63331 4.27671 7.62567 4.18144C7.61827 4.05507 7.61827 3.92838 7.62567 3.80202L10.2702 3.79443Z" fill="#1D292F"/>
</svg>
