<svg width="20" height="20" viewBox="0 0 20 20" fill="none" xmlns="http://www.w3.org/2000/svg">
<path d="M5.19113 19.6008C5.19113 19.351 5.19113 19.0979 5.19113 18.8548C5.18516 18.7491 5.20176 18.6433 5.23982 18.5446C5.27787 18.4458 5.33651 18.3562 5.41184 18.2819C5.48716 18.2075 5.57746 18.15 5.67672 18.1132C5.77597 18.0764 5.88192 18.0611 5.98752 18.0684H7.40596C7.42273 18.0646 7.43902 18.059 7.45457 18.0517C7.48544 17.6601 7.61024 17.2816 7.8184 16.9485C8.04944 16.5757 8.38952 16.2831 8.79253 16.1102C8.84676 16.0949 8.89361 16.0605 8.92444 16.0134C8.95526 15.9662 8.96798 15.9095 8.96019 15.8537C8.96019 13.018 8.96019 10.1834 8.96019 7.34999C8.96372 7.30054 8.95427 7.25102 8.93281 7.20633C8.91134 7.16164 8.87859 7.12332 8.83778 7.09516C8.67129 6.96622 8.53633 6.80109 8.44308 6.61229C8.34984 6.42348 8.30077 6.21594 8.29959 6.00537H11.1348C11.1372 6.21233 11.0917 6.41704 11.0018 6.60349C10.9119 6.78993 10.7801 6.95304 10.6167 7.08006C10.5715 7.11256 10.5352 7.15578 10.5109 7.20583C10.4866 7.25588 10.4751 7.31118 10.4775 7.36676C10.4775 10.1946 10.4775 13.023 10.4775 15.852C10.4689 15.9039 10.4788 15.9571 10.5055 16.0025C10.5322 16.0478 10.5739 16.0824 10.6234 16.1001C10.9816 16.2496 11.2935 16.4921 11.5266 16.8025C11.7598 17.1129 11.9058 17.4799 11.9496 17.8656C11.9496 17.9276 11.9731 17.988 11.9882 18.0634H13.4083C13.9414 18.0634 14.2382 18.3568 14.2466 18.8866C14.2466 19.123 14.2466 19.3594 14.2466 19.5958L5.19113 19.6008Z" fill="#1D292F"/>
<path d="M15.1866 7.20098C15.1403 7.2688 15.0984 7.32585 15.0639 7.38614C15.0441 7.41882 15.0323 7.4557 15.0294 7.49379C15.0303 7.5244 15.0409 7.55394 15.0598 7.57807C15.0787 7.60219 15.1048 7.61963 15.1343 7.62782C15.1638 7.63601 15.1952 7.63452 15.2238 7.62358C15.2524 7.61263 15.2767 7.5928 15.2932 7.567C15.3653 7.45934 15.4375 7.35169 15.5085 7.24404C15.5163 7.22905 15.5283 7.21667 15.543 7.20844C15.5578 7.20021 15.5746 7.19649 15.5914 7.19774C15.6991 7.19774 15.8067 7.19774 15.9144 7.19774C15.9303 7.1966 15.9463 7.20017 15.9603 7.20802C15.9743 7.21587 15.9856 7.22764 15.9929 7.24188C16.0586 7.34954 16.1275 7.44642 16.1964 7.54869C16.2055 7.56777 16.2186 7.58468 16.2347 7.59827C16.2509 7.61185 16.2698 7.6218 16.2902 7.62745C16.3106 7.63309 16.3319 7.63429 16.3528 7.63097C16.3737 7.62765 16.3936 7.61989 16.4112 7.6082C16.4288 7.59652 16.4437 7.58119 16.4548 7.56325C16.466 7.54531 16.4732 7.52518 16.4759 7.50423C16.4786 7.48327 16.4767 7.46198 16.4705 7.44179C16.4643 7.4216 16.4538 7.40299 16.4397 7.38721C16.401 7.328 16.3611 7.26987 16.317 7.2042H16.3665C16.4871 7.2042 16.6077 7.19129 16.7282 7.18806C16.7485 7.19063 16.7678 7.19842 16.7842 7.21066C17.0406 7.377 17.28 7.56811 17.499 7.78122C18.2373 8.48778 18.7977 9.35914 19.1343 10.324C19.2863 10.7416 19.3614 11.1833 19.3561 11.6276C19.3529 11.9573 19.2795 12.2824 19.1408 12.5814C18.9458 12.9812 18.6065 13.292 18.1913 13.4513C17.8793 13.5768 17.5486 13.6495 17.2127 13.6666C17.006 13.6795 16.7982 13.687 16.5915 13.6881C15.97 13.6881 15.3495 13.6881 14.7302 13.6881C14.3496 13.6939 13.9701 13.6479 13.6019 13.5514C13.2653 13.4668 12.9554 13.2987 12.7009 13.0626C12.4241 12.7895 12.2432 12.4341 12.1852 12.0496C12.0914 11.463 12.153 10.8621 12.3639 10.3067C12.6327 9.54454 13.0424 8.83972 13.5718 8.22905C13.8983 7.83788 14.2794 7.49564 14.7033 7.21282C14.7326 7.19212 14.7689 7.18364 14.8045 7.18914C14.8992 7.19775 14.995 7.19775 15.0908 7.20098H15.1866ZM17.1933 11.3014C17.1862 11.2234 17.1747 11.1457 17.1589 11.0689C17.0566 10.6566 16.7831 10.3939 16.4053 10.2206C16.192 10.1267 15.9611 10.0797 15.7281 10.0828C15.5615 10.0856 15.3995 10.0283 15.2717 9.92135C15.2431 9.90221 15.2191 9.87702 15.2013 9.84757C15.1836 9.81812 15.1725 9.78512 15.1689 9.75092C15.1653 9.71672 15.1693 9.68215 15.1805 9.64966C15.1918 9.61716 15.21 9.58753 15.234 9.56287C15.2715 9.52082 15.3151 9.48455 15.3632 9.45521C15.4695 9.39467 15.5887 9.36026 15.7109 9.35484C15.8331 9.34941 15.9549 9.37312 16.0662 9.424C16.1388 9.4471 16.2028 9.49164 16.2497 9.55178C16.2966 9.61192 16.3242 9.68483 16.3288 9.76094C16.333 9.81734 16.3485 9.87233 16.3744 9.92259C16.4003 9.97286 16.4361 10.0174 16.4796 10.0535C16.5231 10.0896 16.5735 10.1165 16.6277 10.1326C16.6819 10.1488 16.7388 10.1538 16.795 10.1474C16.9062 10.137 17.009 10.0838 17.0817 9.99905C17.1544 9.91429 17.1913 9.8046 17.1847 9.69313C17.181 9.49041 17.1198 9.29291 17.0081 9.12364C16.8264 8.84829 16.5498 8.64942 16.2309 8.56493C16.2126 8.56171 16.1955 8.55346 16.1817 8.5411C16.1678 8.52874 16.1576 8.51277 16.1523 8.49496C16.1237 8.40868 16.0684 8.33367 15.9946 8.28069C15.9207 8.2277 15.832 8.19945 15.7411 8.19999C15.6492 8.20223 15.5603 8.23281 15.4865 8.28754C15.4126 8.34227 15.3576 8.41847 15.3287 8.50572C15.3236 8.51773 15.3161 8.52859 15.3066 8.53765C15.2972 8.54671 15.286 8.55379 15.2738 8.55847C15.0661 8.62279 14.8732 8.72781 14.7065 8.86743C14.5299 9.01192 14.403 9.20807 14.3435 9.42835C14.284 9.64864 14.295 9.88202 14.3749 10.0957C14.5375 10.5059 14.8572 10.7417 15.2652 10.8741C15.4608 10.9229 15.6612 10.95 15.8627 10.9548C16.0096 10.9669 16.1469 11.0328 16.2481 11.14C16.271 11.1602 16.2894 11.185 16.3019 11.2129C16.3145 11.2407 16.321 11.2709 16.321 11.3014C16.321 11.332 16.3145 11.3622 16.3019 11.39C16.2894 11.4179 16.271 11.4427 16.2481 11.4629C16.2115 11.5022 16.1695 11.5359 16.1232 11.563C15.9548 11.66 15.7557 11.6889 15.5666 11.6438C15.4457 11.6215 15.3337 11.5651 15.2437 11.4812C15.1816 11.4078 15.1476 11.3147 15.1479 11.2186C15.1261 11.1158 15.0675 11.0246 14.9831 10.962C14.8987 10.8995 14.7944 10.8699 14.6898 10.8789C14.5851 10.8879 14.4874 10.9349 14.4149 11.0109C14.3424 11.0869 14.3003 11.1868 14.2963 11.2918C14.2935 11.5065 14.3558 11.7171 14.475 11.8957C14.6611 12.1701 14.939 12.369 15.2588 12.4566C15.2889 12.4662 15.3115 12.4738 15.3244 12.5104C15.3508 12.5984 15.4047 12.6756 15.4781 12.7308C15.5515 12.786 15.6406 12.8162 15.7324 12.8172C15.8254 12.817 15.9159 12.7877 15.9914 12.7334C16.0669 12.6792 16.1235 12.6027 16.1534 12.5147C16.1583 12.5024 16.1658 12.4914 16.1752 12.4821C16.1847 12.4728 16.1959 12.4656 16.2083 12.4609C16.4131 12.4002 16.603 12.2976 16.7659 12.1594C16.8939 12.0548 16.9981 11.9243 17.0718 11.7763C17.1455 11.6284 17.1869 11.4666 17.1933 11.3014Z" fill="#1D292F"/>
<path d="M15.388 6.33245C15.2588 6.33245 15.1404 6.33245 15.022 6.33245C15.0132 6.33118 15.0048 6.32776 14.9977 6.3225C14.9906 6.31725 14.9848 6.31031 14.981 6.30231C14.8465 5.88892 14.7141 5.47553 14.5806 5.06107C14.5806 5.06107 14.5806 5.06107 14.5806 5.04923C14.699 5.08583 14.8163 5.12351 14.9348 5.15688C15.1081 5.20963 15.2814 5.26454 15.4579 5.31083C15.6464 5.35324 15.8427 5.34582 16.0274 5.28929C16.274 5.21824 16.5183 5.13966 16.7638 5.06323L16.8262 5.04492L16.7466 5.36788C16.6701 5.66823 16.5926 5.96858 16.5183 6.27C16.5054 6.32275 16.485 6.34106 16.4301 6.3389C16.3224 6.33352 16.2223 6.3389 16.1071 6.3389C16.1168 6.31199 16.1232 6.29154 16.1308 6.27108C16.1911 6.11714 16.2535 5.96535 16.3127 5.81141C16.3247 5.78156 16.326 5.74854 16.3166 5.7178C16.3073 5.68706 16.2876 5.66046 16.261 5.6424C16.2377 5.62509 16.2094 5.61575 16.1803 5.61575C16.1512 5.61575 16.1229 5.62509 16.0996 5.6424C16.073 5.6638 16.0523 5.69157 16.0393 5.72314C15.9607 5.9126 15.8853 6.10315 15.81 6.29477C15.7981 6.32599 15.7852 6.34429 15.7454 6.34429C15.7056 6.34429 15.6926 6.32707 15.6797 6.29477C15.6029 6.101 15.5254 5.90686 15.4472 5.71237C15.4382 5.68579 15.4214 5.66259 15.3989 5.64585C15.3763 5.62912 15.3492 5.61965 15.3212 5.61871C15.2951 5.61699 15.269 5.62251 15.2459 5.63466C15.2227 5.64682 15.2033 5.66515 15.1899 5.68761C15.1759 5.70966 15.168 5.73497 15.1669 5.76103C15.1658 5.78709 15.1715 5.81299 15.1834 5.83617C15.2427 5.9815 15.3008 6.12791 15.3589 6.27324C15.3707 6.28293 15.3772 6.3023 15.388 6.33245Z" fill="#1D292F"/>
<path d="M15.751 6.62605H16.6122C16.6423 6.6251 16.6719 6.63364 16.6968 6.65045C16.7217 6.66726 16.7407 6.69149 16.7511 6.7197C16.7606 6.74717 16.761 6.77695 16.7523 6.80467C16.7436 6.83238 16.7261 6.85656 16.7026 6.87365C16.6742 6.8926 16.641 6.90305 16.6068 6.90379H15.2536H14.9145C14.8069 6.90379 14.753 6.85642 14.752 6.76815C14.7509 6.67987 14.8123 6.63036 14.9145 6.63036H15.7542L15.751 6.62605Z" fill="#1D292F"/>
<path d="M17.1937 11.3016C17.1892 11.4664 17.1499 11.6283 17.0782 11.7768C17.0066 11.9252 16.9043 12.0568 16.7782 12.1629C16.6153 12.301 16.4254 12.4037 16.2205 12.4643C16.2082 12.469 16.197 12.4763 16.1875 12.4855C16.1781 12.4948 16.1706 12.5059 16.1656 12.5181C16.1358 12.6061 16.0792 12.6826 16.0037 12.7369C15.9282 12.7911 15.8377 12.8204 15.7447 12.8206C15.6524 12.8207 15.5625 12.7912 15.4883 12.7363C15.414 12.6815 15.3594 12.6042 15.3324 12.516C15.3195 12.4794 15.2969 12.4718 15.2667 12.4621C14.947 12.3746 14.6691 12.1756 14.483 11.9013C14.3638 11.7226 14.3015 11.5121 14.3043 11.2973C14.3082 11.1924 14.3504 11.0925 14.4229 11.0165C14.4953 10.9404 14.5931 10.8935 14.6977 10.8845C14.8024 10.8755 14.9067 10.9051 14.9911 10.9676C15.0754 11.0302 15.134 11.1214 15.1559 11.2241C15.1556 11.3203 15.1895 11.4134 15.2517 11.4868C15.3416 11.5706 15.4537 11.627 15.5746 11.6494C15.7636 11.6945 15.9628 11.6656 16.1312 11.5686C16.1774 11.5415 16.2195 11.5077 16.2561 11.4685C16.279 11.4483 16.2973 11.4235 16.3099 11.3956C16.3225 11.3678 16.329 11.3376 16.329 11.307C16.329 11.2765 16.3225 11.2463 16.3099 11.2185C16.2973 11.1906 16.279 11.1658 16.2561 11.1456C16.1549 11.0384 16.0176 10.9725 15.8707 10.9604C15.6691 10.9556 15.4688 10.9285 15.2732 10.8797C14.8652 10.7483 14.5454 10.5115 14.3829 10.1013C14.303 9.8876 14.292 9.65422 14.3515 9.43394C14.4109 9.21365 14.5379 9.0175 14.7145 8.87301C14.8812 8.7334 15.0741 8.62837 15.2818 8.56405C15.294 8.55937 15.3051 8.55229 15.3146 8.54323C15.324 8.53417 15.3315 8.52331 15.3367 8.5113C15.3655 8.42406 15.4206 8.34785 15.4944 8.29312C15.5682 8.23839 15.6572 8.20782 15.749 8.20557C15.8399 8.20504 15.9287 8.23328 16.0026 8.28627C16.0764 8.33925 16.1316 8.41426 16.1603 8.50054C16.1656 8.51835 16.1757 8.53433 16.1896 8.54669C16.2035 8.55904 16.2205 8.56729 16.2388 8.57051C16.5577 8.65501 16.8344 8.85388 17.0161 9.12923C17.1277 9.29849 17.189 9.49599 17.1927 9.69871C17.1993 9.81018 17.1623 9.91987 17.0896 10.0046C17.0169 10.0894 16.9141 10.1426 16.8029 10.153C16.7468 10.1594 16.6899 10.1544 16.6357 10.1382C16.5815 10.1221 16.5311 10.0951 16.4876 10.059C16.444 10.023 16.4082 9.97844 16.3823 9.92817C16.3564 9.87791 16.341 9.82293 16.3368 9.76653C16.3321 9.69042 16.3045 9.6175 16.2577 9.55736C16.2108 9.49723 16.1468 9.45268 16.0741 9.42958C15.9629 9.3787 15.8411 9.355 15.7189 9.36042C15.5967 9.36585 15.4775 9.40025 15.3712 9.4608C15.323 9.49013 15.2795 9.5264 15.242 9.56845C15.218 9.59311 15.1997 9.62274 15.1885 9.65524C15.1773 9.68774 15.1733 9.72231 15.1769 9.75651C15.1805 9.79071 15.1916 9.8237 15.2093 9.85315C15.2271 9.8826 15.2511 9.90779 15.2796 9.92693C15.4074 10.0339 15.5695 10.0912 15.7361 10.0884C15.9691 10.0853 16.2 10.1323 16.4132 10.2262C16.7868 10.3995 17.0592 10.6622 17.1668 11.0745C17.1799 11.1497 17.1889 11.2255 17.1937 11.3016ZM14.8813 9.71701C14.8833 9.6232 14.9089 9.5314 14.9557 9.45011C15.0026 9.36881 15.0692 9.30066 15.1494 9.25195C15.3067 9.14144 15.4916 9.07661 15.6835 9.06464C15.8754 9.05267 16.0668 9.09403 16.2367 9.18413C16.3463 9.22841 16.4408 9.30353 16.5087 9.40041C16.5765 9.49728 16.6148 9.61174 16.6189 9.72993C16.6195 9.74838 16.6239 9.76651 16.6319 9.78318C16.6398 9.79985 16.6511 9.81471 16.6651 9.82683C16.679 9.83895 16.6953 9.84806 16.7129 9.85362C16.7305 9.85917 16.7491 9.86104 16.7674 9.85911C16.8044 9.85743 16.8391 9.84121 16.8642 9.81398C16.8892 9.78675 16.9024 9.75072 16.9009 9.71378C16.8999 9.5215 16.8287 9.33623 16.7007 9.19274C16.5281 8.99642 16.2945 8.86373 16.0375 8.81596C15.9299 8.7912 15.8997 8.75568 15.89 8.64264C15.8917 8.62316 15.8894 8.60353 15.8831 8.58501C15.8768 8.56649 15.8667 8.54948 15.8535 8.53506C15.8403 8.52064 15.8243 8.50913 15.8064 8.50125C15.7885 8.49337 15.7691 8.4893 15.7496 8.4893C15.73 8.4893 15.7107 8.49337 15.6928 8.50125C15.6749 8.50913 15.6588 8.52064 15.6456 8.53506C15.6324 8.54948 15.6223 8.56649 15.616 8.58501C15.6097 8.60353 15.6074 8.62316 15.6091 8.64264C15.6005 8.75029 15.5692 8.7912 15.4605 8.81596C15.2349 8.85947 15.0271 8.96841 14.863 9.12923C14.7439 9.2339 14.6595 9.37239 14.621 9.52625C14.5825 9.6801 14.5918 9.84202 14.6477 9.99044C14.7339 10.2157 14.903 10.3994 15.1203 10.5039C15.3201 10.6064 15.5417 10.6588 15.7662 10.6568C16.0014 10.6543 16.2299 10.7343 16.4122 10.8829C16.4768 10.9332 16.5291 10.9976 16.5651 11.0712C16.601 11.1448 16.6197 11.2257 16.6197 11.3076C16.6197 11.3895 16.601 11.4703 16.5651 11.5439C16.5291 11.6175 16.4768 11.6819 16.4122 11.7323C16.2868 11.8367 16.1378 11.9089 15.9781 11.9427C15.8185 11.9765 15.653 11.9708 15.496 11.926C15.1666 11.8442 14.9158 11.6741 14.8878 11.2941C14.8835 11.258 14.8654 11.225 14.8373 11.2019C14.8092 11.1788 14.7732 11.1674 14.737 11.1702C14.7007 11.173 14.6669 11.1897 14.6427 11.2168C14.6184 11.2439 14.6056 11.2793 14.6068 11.3156C14.6067 11.4526 14.6439 11.5869 14.7145 11.7043C14.7962 11.8348 14.904 11.9471 15.0311 12.0341C15.1581 12.1212 15.3017 12.1811 15.453 12.2102C15.5789 12.2404 15.6015 12.2651 15.6155 12.3954C15.6155 12.4325 15.6303 12.4681 15.6565 12.4944C15.6828 12.5206 15.7184 12.5353 15.7555 12.5353C15.7926 12.5353 15.8282 12.5206 15.8544 12.4944C15.8807 12.4681 15.8954 12.4325 15.8954 12.3954C15.9062 12.2727 15.932 12.2425 16.0537 12.2135C16.2401 12.1736 16.4148 12.091 16.564 11.9723C16.6647 11.899 16.7475 11.8039 16.8064 11.6941C16.8653 11.5844 16.8987 11.4627 16.9042 11.3383C16.9106 10.9991 16.7384 10.7515 16.4617 10.5728C16.2496 10.439 16.003 10.3698 15.7522 10.3737C15.5633 10.3779 15.3769 10.3294 15.214 10.2337C15.1175 10.1851 15.0358 10.1115 14.9773 10.0207C14.9188 9.92981 14.8857 9.82497 14.8813 9.71701Z" fill="#1D292F"/>
<path d="M10.1774 2.421L10.6804 2.75632C11.027 2.57857 11.3855 2.42508 11.7534 2.29693C12.4039 2.11754 13.0461 2.24161 13.658 2.49645C14.1342 2.69596 14.597 2.92565 15.0614 3.14696C15.0975 3.16987 15.1402 3.18001 15.1828 3.17575C15.2254 3.1715 15.2652 3.1531 15.2961 3.12349C15.379 3.06095 15.4739 3.01623 15.575 2.99215C15.676 2.96807 15.7809 2.96515 15.8831 2.98357C15.9853 3.002 16.0825 3.04136 16.1688 3.0992C16.255 3.15703 16.3284 3.2321 16.3842 3.31965C16.4391 3.40591 16.4762 3.50229 16.4933 3.60311C16.5104 3.70392 16.5071 3.80713 16.4837 3.90666C16.4602 4.00619 16.4171 4.10002 16.3568 4.18263C16.2966 4.26523 16.2204 4.33494 16.1327 4.38764C16.0442 4.44266 15.9451 4.47826 15.8418 4.49209C15.7385 4.50592 15.6335 4.49767 15.5336 4.46788C15.4338 4.43808 15.3414 4.38742 15.2626 4.31925C15.1838 4.25108 15.1203 4.16695 15.0765 4.07244C15.046 4.01191 14.9988 3.96132 14.9407 3.92657C14.4377 3.6885 13.9347 3.44707 13.4317 3.22576C13.0083 3.02557 12.537 2.94886 12.072 3.00445C11.7213 3.04932 11.3957 3.20979 11.1465 3.46049C11.1006 3.50837 11.0749 3.57194 11.0744 3.63821C11.0875 3.82592 11.0619 4.01434 10.9991 4.19172C10.9363 4.36911 10.8377 4.53168 10.7093 4.66931C10.581 4.80695 10.4257 4.91669 10.2531 4.99173C10.0806 5.06677 9.89442 5.1055 9.70624 5.1055C9.51806 5.1055 9.3319 5.06677 9.15933 4.99173C8.98676 4.91669 8.83148 4.80695 8.70315 4.66931C8.57482 4.53168 8.47618 4.36911 8.41339 4.19172C8.35059 4.01434 8.32496 3.82592 8.33811 3.63821C8.33535 3.57194 8.30783 3.50911 8.26099 3.46216C7.74124 2.95918 7.11921 2.89714 6.46198 3.07486C6.13381 3.17541 5.81285 3.29808 5.50127 3.44204C5.26152 3.54431 5.03348 3.67341 4.79708 3.77736C4.57243 3.8566 4.37794 4.00365 4.24045 4.19818C4.18567 4.27953 4.11434 4.34841 4.03114 4.40033C3.94793 4.45224 3.85471 4.48602 3.75756 4.49946C3.66041 4.51291 3.56152 4.50572 3.46734 4.47836C3.37316 4.45101 3.28582 4.4041 3.211 4.3407C3.05197 4.21972 2.9465 4.04141 2.91706 3.84378C2.88762 3.64615 2.93652 3.44484 3.05339 3.28277C3.11083 3.20202 3.18379 3.13352 3.268 3.08127C3.35221 3.02902 3.44598 2.99408 3.54385 2.97847C3.64171 2.96286 3.74171 2.9669 3.83799 2.99036C3.93428 3.01382 4.02492 3.05623 4.10463 3.11511C4.14079 3.14773 4.18677 3.16739 4.23533 3.17103C4.28389 3.17468 4.33229 3.16209 4.37291 3.13523C4.93458 2.88039 5.48786 2.59871 6.06797 2.39249C6.40774 2.25832 6.77183 2.19677 7.13682 2.21178C7.50181 2.2268 7.85963 2.31805 8.18723 2.47968C8.35489 2.56686 8.52255 2.6859 8.69022 2.78817L9.21164 2.4428L9.01379 2.19465C8.91236 2.08606 8.8461 1.94938 8.82366 1.80249C8.80122 1.6556 8.82366 1.50537 8.88805 1.37145C9.1211 0.907035 9.39104 0.464417 9.6526 0.0117374L9.73307 0C9.75319 0.0385616 9.76996 0.077122 9.79343 0.114007C10.0047 0.449325 10.2361 0.769554 10.4255 1.11996C10.734 1.66821 10.6586 1.99011 10.1774 2.421Z" fill="#1D292F"/>
<path d="M3.04404 7.20098C2.99775 7.2688 2.95578 7.32585 2.92133 7.38614C2.90155 7.41882 2.88974 7.4557 2.88687 7.49379C2.88771 7.5244 2.89836 7.55394 2.91723 7.57807C2.93609 7.60219 2.9622 7.61963 2.99171 7.62782C3.02122 7.63601 3.05257 7.63452 3.08118 7.62358C3.10978 7.61263 3.13412 7.5928 3.15062 7.567C3.22275 7.45934 3.29487 7.35169 3.36593 7.24404C3.37369 7.22905 3.3857 7.21667 3.40043 7.20844C3.41517 7.20021 3.43199 7.19649 3.44882 7.19774C3.55648 7.19774 3.66413 7.19774 3.77178 7.19774C3.78777 7.1966 3.80376 7.20017 3.81773 7.20802C3.8317 7.21587 3.84303 7.22764 3.85037 7.24188C3.91604 7.34954 3.98495 7.44642 4.05385 7.54869C4.06293 7.56777 4.07599 7.58468 4.09217 7.59827C4.10835 7.61185 4.12727 7.6218 4.14763 7.62745C4.16799 7.63309 4.18934 7.63429 4.21021 7.63097C4.23107 7.62765 4.25098 7.61989 4.26858 7.6082C4.28619 7.59652 4.30107 7.58119 4.31224 7.56325C4.3234 7.54531 4.33058 7.52518 4.33329 7.50423C4.336 7.48327 4.33416 7.46198 4.32793 7.44179C4.32169 7.4216 4.31121 7.40299 4.29715 7.38721C4.2584 7.328 4.21855 7.26987 4.17441 7.2042H4.22395C4.34453 7.2042 4.46508 7.19129 4.58566 7.18806C4.60596 7.19063 4.62525 7.19842 4.64164 7.21066C4.89801 7.377 5.13742 7.56811 5.35645 7.78122C6.0947 8.48778 6.65511 9.35914 6.99174 10.324C7.14374 10.7416 7.21886 11.1833 7.21349 11.6276C7.21036 11.9573 7.13696 12.2824 6.99818 12.5814C6.80326 12.9812 6.46393 13.292 6.04869 13.4513C5.73668 13.5768 5.40597 13.6495 5.0701 13.6666C4.86341 13.6795 4.65563 13.687 4.44893 13.6881C3.82741 13.6881 3.20696 13.6881 2.58759 13.6881C2.20706 13.6939 1.82751 13.6479 1.45937 13.5514C1.12269 13.4668 0.812789 13.2987 0.558319 13.0626C0.28152 12.7895 0.100603 12.4341 0.0426505 12.0496C-0.0511799 11.463 0.0104282 10.8621 0.221347 10.3067C0.490077 9.54454 0.89983 8.83972 1.42923 8.22905C1.75577 7.83788 2.13681 7.49564 2.56067 7.21282C2.59007 7.19212 2.62636 7.18364 2.66189 7.18914C2.75662 7.19775 2.85243 7.19775 2.94824 7.20098H3.04404ZM5.05073 11.3014C5.04359 11.2234 5.03208 11.1457 5.01627 11.0689C4.914 10.6566 4.64056 10.3939 4.26269 10.2206C4.04946 10.1267 3.81853 10.0797 3.58554 10.0828C3.41893 10.0856 3.25689 10.0283 3.12909 9.92135C3.10052 9.90221 3.07651 9.87702 3.05876 9.84757C3.041 9.81812 3.02995 9.78512 3.02635 9.75092C3.02276 9.71672 3.02672 9.68215 3.03797 9.64966C3.04921 9.61716 3.06747 9.58753 3.09143 9.56287C3.12896 9.52082 3.17248 9.48455 3.22061 9.45521C3.32692 9.39467 3.4461 9.36026 3.56833 9.35484C3.69056 9.34941 3.81233 9.37312 3.92359 9.424C3.99626 9.4471 4.06024 9.49164 4.10713 9.55178C4.15401 9.61192 4.18159 9.68483 4.18626 9.76094C4.1904 9.81734 4.20588 9.87233 4.23179 9.92259C4.25769 9.97286 4.29349 10.0174 4.33702 10.0535C4.38056 10.0896 4.43093 10.1165 4.48513 10.1326C4.53932 10.1488 4.59623 10.1538 4.65242 10.1474C4.7636 10.137 4.8664 10.0838 4.93911 9.99905C5.01182 9.91429 5.04874 9.8046 5.04211 9.69313C5.0384 9.49041 4.97718 9.29291 4.86557 9.12364C4.68387 8.84829 4.40721 8.64942 4.08831 8.56493C4.07 8.56171 4.05296 8.55346 4.03908 8.5411C4.0252 8.52874 4.01504 8.51277 4.00972 8.49496C3.98109 8.40868 3.92587 8.33367 3.852 8.28069C3.77813 8.2277 3.68938 8.19945 3.59848 8.19999C3.50662 8.20223 3.41768 8.23281 3.34387 8.28754C3.27006 8.34227 3.21498 8.41847 3.18615 8.50572C3.18098 8.51773 3.17348 8.52859 3.16405 8.53765C3.15462 8.54671 3.14346 8.55379 3.13125 8.55847C2.9235 8.62279 2.73064 8.72781 2.56391 8.86743C2.38731 9.01192 2.26038 9.20807 2.20091 9.42835C2.14145 9.64864 2.15245 9.88202 2.23235 10.0957C2.39491 10.5059 2.71462 10.7417 3.12263 10.8741C3.3182 10.9229 3.51858 10.95 3.72011 10.9548C3.86702 10.9669 4.00429 11.0328 4.10552 11.14C4.12843 11.1602 4.14678 11.185 4.15935 11.2129C4.17192 11.2407 4.17841 11.2709 4.17841 11.3014C4.17841 11.332 4.17192 11.3622 4.15935 11.39C4.14678 11.4179 4.12843 11.4427 4.10552 11.4629C4.06895 11.5022 4.02689 11.5359 3.98065 11.563C3.81224 11.66 3.61309 11.6889 3.42406 11.6438C3.30313 11.6215 3.19108 11.5651 3.1011 11.4812C3.03898 11.4078 3.00502 11.3147 3.0053 11.2186C2.98349 11.1158 2.92488 11.0246 2.84051 10.962C2.75613 10.8995 2.65183 10.8699 2.54719 10.8789C2.44255 10.8879 2.34478 10.9349 2.27232 11.0109C2.19987 11.0869 2.15769 11.1868 2.15374 11.2918C2.1509 11.5065 2.21322 11.7171 2.33246 11.8957C2.51851 12.1701 2.79645 12.369 3.11619 12.4566C3.14633 12.4662 3.16892 12.4738 3.18184 12.5104C3.20824 12.5984 3.26209 12.6756 3.33549 12.7308C3.40889 12.786 3.49802 12.8162 3.58985 12.8172C3.6828 12.817 3.77334 12.7877 3.84882 12.7334C3.92429 12.6792 3.98091 12.6027 4.01077 12.5147C4.01577 12.5024 4.02322 12.4914 4.03267 12.4821C4.04211 12.4728 4.05334 12.4656 4.06568 12.4609C4.2705 12.4002 4.46044 12.2976 4.62335 12.1594C4.75127 12.0548 4.85552 11.9243 4.9292 11.7763C5.00288 11.6284 5.0443 11.4666 5.05073 11.3014Z" fill="#1D292F"/>
<path d="M3.24491 6.33245C3.11572 6.33245 2.99731 6.33245 2.87889 6.33245C2.87012 6.33118 2.86177 6.32776 2.85463 6.3225C2.8475 6.31725 2.84178 6.31031 2.83797 6.30231C2.7034 5.88892 2.57099 5.47553 2.4375 5.06107C2.4375 5.06107 2.4375 5.06107 2.4375 5.04923C2.55592 5.08583 2.67327 5.12351 2.79169 5.15688C2.96501 5.20963 3.13832 5.26454 3.31487 5.31083C3.50335 5.35324 3.69963 5.34582 3.88437 5.28929C4.1309 5.21824 4.37528 5.13966 4.62073 5.06323L4.68315 5.04492L4.60349 5.36788C4.52706 5.66823 4.44956 5.96858 4.37528 6.27C4.36236 6.32275 4.3419 6.34106 4.28699 6.3389C4.17934 6.33352 4.07922 6.3389 3.96403 6.3389C3.97372 6.31199 3.98018 6.29154 3.98771 6.27108C4.048 6.11714 4.11046 5.96535 4.16967 5.81141C4.1816 5.78156 4.18298 5.74854 4.17358 5.7178C4.16419 5.68706 4.14455 5.66046 4.11797 5.6424C4.09461 5.62509 4.0663 5.61575 4.03723 5.61575C4.00815 5.61575 3.97985 5.62509 3.95649 5.6424C3.92991 5.6638 3.90919 5.69157 3.89622 5.72314C3.81763 5.9126 3.74226 6.10315 3.6669 6.29477C3.65506 6.32599 3.64216 6.34429 3.60233 6.34429C3.56249 6.34429 3.54956 6.32707 3.53665 6.29477C3.45985 6.101 3.38235 5.90686 3.30412 5.71237C3.29515 5.68579 3.2783 5.66259 3.25579 5.64585C3.23328 5.62912 3.20618 5.61965 3.17815 5.61871C3.15204 5.61699 3.12597 5.62251 3.1028 5.63466C3.07962 5.64682 3.06024 5.66515 3.04681 5.68761C3.03288 5.70966 3.02498 5.73497 3.02384 5.76103C3.02271 5.78709 3.02841 5.81299 3.04037 5.83617C3.09958 5.9815 3.15771 6.12791 3.21584 6.27324C3.22768 6.28293 3.23414 6.3023 3.24491 6.33245Z" fill="#1D292F"/>
<path d="M3.60791 6.62605H4.46914C4.49919 6.6251 4.5288 6.63364 4.55372 6.65045C4.57865 6.66726 4.59764 6.69149 4.60802 6.7197C4.6175 6.74717 4.61793 6.77695 4.60921 6.80467C4.60048 6.83238 4.58308 6.85656 4.55958 6.87365C4.53116 6.8926 4.49793 6.90305 4.46378 6.90379H3.11056H2.77146C2.66381 6.90379 2.60998 6.85642 2.6089 6.76815C2.60782 6.67987 2.66919 6.63036 2.77146 6.63036H3.61114L3.60791 6.62605Z" fill="#1D292F"/>
<path d="M5.05019 11.3012C5.04567 11.4659 5.0063 11.6278 4.93468 11.7763C4.86305 11.9247 4.76079 12.0563 4.63463 12.1624C4.47172 12.3005 4.28181 12.4032 4.07699 12.4638C4.06465 12.4686 4.05342 12.4758 4.04398 12.485C4.03454 12.4943 4.02708 12.5054 4.02208 12.5176C3.99223 12.6057 3.93561 12.6821 3.86013 12.7364C3.78465 12.7906 3.69411 12.8199 3.60117 12.8201C3.50886 12.8203 3.41896 12.7907 3.34472 12.7358C3.27049 12.681 3.21584 12.6037 3.18884 12.5155C3.17592 12.4789 3.1533 12.4713 3.12316 12.4617C2.80343 12.3741 2.52551 12.1752 2.33946 11.9008C2.22022 11.7222 2.1579 11.5116 2.16074 11.2969C2.16469 11.1919 2.20687 11.092 2.27933 11.016C2.35178 10.94 2.44952 10.893 2.55416 10.884C2.65881 10.875 2.76314 10.9046 2.84751 10.9671C2.93188 11.0297 2.99049 11.1209 3.0123 11.2237C3.01202 11.3198 3.04598 11.4129 3.1081 11.4863C3.19808 11.5701 3.31013 11.6265 3.43106 11.6489C3.62009 11.694 3.81922 11.6651 3.98763 11.5681C4.03387 11.541 4.07595 11.5073 4.11252 11.468C4.13543 11.4478 4.15378 11.423 4.16635 11.3951C4.17892 11.3673 4.18541 11.3371 4.18541 11.3065C4.18541 11.276 4.17892 11.2458 4.16635 11.218C4.15378 11.1901 4.13543 11.1653 4.11252 11.1451C4.0113 11.0379 3.87402 10.972 3.72711 10.9599C3.52558 10.9551 3.3252 10.928 3.12963 10.8792C2.72162 10.7478 2.40188 10.511 2.23932 10.1008C2.15942 9.88711 2.14845 9.65374 2.20791 9.43345C2.26738 9.21316 2.39431 9.01701 2.57091 8.87252C2.73764 8.73291 2.9305 8.62788 3.13825 8.56356C3.15046 8.55888 3.16159 8.5518 3.17102 8.54274C3.18045 8.53368 3.18798 8.52283 3.19315 8.51081C3.22198 8.42357 3.27706 8.34736 3.35087 8.29263C3.42468 8.2379 3.51362 8.20733 3.60548 8.20509C3.69638 8.20455 3.78513 8.23279 3.859 8.28578C3.93287 8.33876 3.98806 8.41377 4.0167 8.50005C4.02201 8.51786 4.03217 8.53384 4.04605 8.5462C4.05993 8.55856 4.07698 8.5668 4.09528 8.57002C4.41418 8.65452 4.69084 8.85339 4.87254 9.12874C4.98416 9.298 5.0454 9.4955 5.04911 9.69822C5.05574 9.8097 5.01879 9.91938 4.94608 10.0041C4.87337 10.0889 4.77058 10.1421 4.65939 10.1525C4.6032 10.1589 4.54632 10.1539 4.49213 10.1377C4.43793 10.1216 4.38756 10.0947 4.34402 10.0586C4.30049 10.0225 4.26469 9.97795 4.23879 9.92769C4.21288 9.87742 4.1974 9.82244 4.19326 9.76604C4.18859 9.68993 4.16098 9.61701 4.1141 9.55688C4.06722 9.49674 4.00324 9.45219 3.93057 9.42909C3.8193 9.37821 3.69756 9.35451 3.57533 9.35994C3.4531 9.36536 3.33392 9.39976 3.22761 9.46031C3.17948 9.48964 3.13593 9.52592 3.0984 9.56796C3.07444 9.59263 3.05619 9.62225 3.04494 9.65475C3.0337 9.68725 3.02976 9.72182 3.03335 9.75602C3.03695 9.79022 3.048 9.82321 3.06576 9.85266C3.08351 9.88211 3.10752 9.9073 3.13609 9.92644C3.26389 10.0334 3.42593 10.0907 3.59254 10.0879C3.82553 10.0848 4.05646 10.1318 4.26969 10.2257C4.64325 10.399 4.91562 10.6617 5.02327 11.074C5.03636 11.1492 5.04534 11.225 5.05019 11.3012ZM2.73778 9.71652C2.73972 9.62271 2.7653 9.53091 2.81216 9.44962C2.85901 9.36832 2.92563 9.30017 3.00583 9.25146C3.16317 9.14095 3.34803 9.07612 3.53993 9.06416C3.73183 9.05219 3.92327 9.09354 4.09313 9.18364C4.20279 9.22792 4.29727 9.30305 4.3651 9.39992C4.43293 9.49679 4.47121 9.61125 4.4753 9.72944C4.47594 9.7479 4.48037 9.76602 4.48831 9.78269C4.49626 9.79936 4.50757 9.81422 4.52151 9.82634C4.53545 9.83846 4.55171 9.84758 4.56932 9.85313C4.58693 9.85868 4.60552 9.86055 4.62388 9.85862C4.66082 9.85695 4.69559 9.84072 4.7206 9.81349C4.74561 9.78626 4.75883 9.75023 4.75737 9.71329C4.75634 9.52101 4.68512 9.33574 4.55712 9.19225C4.38452 8.99593 4.151 8.86325 3.89398 8.81547C3.78633 8.79071 3.75617 8.75519 3.74648 8.64215C3.74819 8.62267 3.74583 8.60304 3.73954 8.58452C3.73326 8.566 3.72319 8.54899 3.70998 8.53457C3.69676 8.52015 3.6807 8.50864 3.6628 8.50076C3.6449 8.49288 3.62556 8.48882 3.606 8.48882C3.58644 8.48882 3.56711 8.49288 3.5492 8.50076C3.5313 8.50864 3.51524 8.52015 3.50203 8.53457C3.48881 8.54899 3.47874 8.566 3.47246 8.58452C3.46617 8.60304 3.46381 8.62267 3.46552 8.64215C3.45691 8.74981 3.42567 8.79071 3.31694 8.81547C3.09135 8.85898 2.88355 8.96793 2.71946 9.12874C2.60032 9.23341 2.51591 9.3719 2.47744 9.52576C2.43898 9.67961 2.44829 9.84153 2.50415 9.98996C2.59031 10.2152 2.75943 10.3989 2.97677 10.5035C3.17655 10.6059 3.39819 10.6583 3.62269 10.6563C3.85781 10.6538 4.08636 10.7338 4.26862 10.8824C4.33325 10.9327 4.38553 10.9971 4.4215 11.0707C4.45747 11.1443 4.47617 11.2252 4.47617 11.3071C4.47617 11.389 4.45747 11.4698 4.4215 11.5434C4.38553 11.617 4.33325 11.6814 4.26862 11.7318C4.14323 11.8362 3.99422 11.9085 3.83456 11.9422C3.6749 11.976 3.50942 11.9703 3.35248 11.9255C3.02306 11.8437 2.77223 11.6736 2.74424 11.2936C2.73993 11.2575 2.72183 11.2245 2.69373 11.2014C2.66562 11.1783 2.62969 11.167 2.59343 11.1697C2.55717 11.1725 2.52336 11.1892 2.4991 11.2163C2.47485 11.2434 2.46201 11.2788 2.46325 11.3152C2.46317 11.4521 2.50038 11.5864 2.57091 11.7038C2.65267 11.8343 2.76045 11.9466 2.88751 12.0336C3.01457 12.1207 3.15819 12.1806 3.30943 12.2097C3.43538 12.2399 3.45796 12.2647 3.47196 12.3949C3.47196 12.432 3.48671 12.4676 3.51296 12.4939C3.53921 12.5201 3.5748 12.5349 3.61191 12.5349C3.64903 12.5349 3.68462 12.5201 3.71087 12.4939C3.73712 12.4676 3.75187 12.432 3.75187 12.3949C3.76264 12.2722 3.78847 12.242 3.91012 12.213C4.09655 12.1731 4.2712 12.0905 4.4204 11.9718C4.52111 11.8985 4.60399 11.8034 4.66288 11.6936C4.72178 11.5839 4.75519 11.4622 4.7606 11.3378C4.76706 10.9987 4.59481 10.7511 4.31813 10.5724C4.106 10.4385 3.85948 10.3693 3.60868 10.3732C3.41975 10.3774 3.23337 10.3289 3.07041 10.2333C2.97394 10.1846 2.89222 10.111 2.83373 10.0202C2.77525 9.92932 2.74213 9.82448 2.73778 9.71652Z" fill="#1D292F"/>
</svg>
