<svg width="17" height="22" viewBox="0 0 17 22" fill="none" xmlns="http://www.w3.org/2000/svg">
<path d="M3.13477 22V14.5396H13.555V22H3.13477Z" fill="#1D292F"/>
<path d="M14.8119 9.06025C15.2643 9.08095 15.5186 9.08095 15.77 9.1046C16.6836 9.19331 17.0296 9.696 16.6748 10.5565C16.3234 11.456 15.8991 12.3252 15.4063 13.1557C15.2766 13.3404 15.1091 13.4953 14.9148 13.61C14.7205 13.7247 14.504 13.7967 14.2797 13.821C10.3292 13.8683 6.37871 13.8476 2.42824 13.8476H2.31587C1.44949 13.7707 -0.451814 10.2164 0.0981772 9.57772C0.355431 9.28202 0.932037 9.13122 1.36671 9.12826C5.2817 9.09278 9.19373 9.10756 13.1058 9.10756H14.2885C14.8119 7.1737 14.5842 6.51133 13.1058 5.36107C13.0242 5.29516 12.9585 5.21179 12.9135 5.11712C12.8685 5.02244 12.8452 4.91887 12.8456 4.81403C12.8722 4.65731 13.1412 4.41188 13.2684 4.42962C13.4964 4.49188 13.6978 4.62685 13.842 4.81403C14.9065 5.9909 15.0455 7.42504 14.8119 9.06025Z" fill="#1D292F"/>
<path d="M12.8691 8.41829H4.04264C3.7292 6.38685 4.25258 5.30164 5.92621 4.57422C8.07294 6.49034 8.96595 6.49625 10.7726 4.60379C12.3398 5.0769 12.9815 6.23604 12.8691 8.41829Z" fill="#1D292F"/>
<path d="M10.8257 2.63783C10.7222 4.14589 9.50392 5.52089 8.31819 5.46766C7.01713 5.41148 5.88758 3.87385 5.97333 2.28004C5.98483 1.96247 6.06018 1.65047 6.19491 1.36266C6.32963 1.07486 6.52096 0.817144 6.75747 0.604912C6.99399 0.39268 7.27084 0.230277 7.5715 0.127399C7.87216 0.0245202 8.19046 -0.0167264 8.50742 0.00612327C8.8336 0.0233386 9.15308 0.105495 9.44711 0.247774C9.74113 0.390053 10.0038 0.589592 10.2197 0.834698C10.4356 1.0798 10.6004 1.36555 10.7045 1.67517C10.8085 1.9848 10.8497 2.31208 10.8257 2.63783Z" fill="#1D292F"/>
</svg>
