<svg width="17" height="25" viewBox="0 0 17 25" fill="none" xmlns="http://www.w3.org/2000/svg">
<path d="M16.8755 17.237C14.39 17.1027 12.1381 17.1301 10.0751 18.5618C9.53324 18.9396 8.5639 18.7407 7.79091 18.7432C7.06265 18.7432 6.34434 18.8078 6.36174 19.7225C6.37913 20.5651 7.06267 20.6372 7.75116 20.6173C8.54109 20.5547 9.33576 20.639 10.095 20.8658C8.97899 21.2586 7.83813 21.3953 6.7271 21.0324C5.31533 20.5701 3.93834 20.0009 2.55888 19.4416C1.94993 19.1931 1.34595 19.0564 1.00543 19.7324C0.664917 20.4085 1.02781 20.9156 1.69641 21.2437C3.63263 22.1981 5.55395 23.1873 7.48768 24.1443C9.4935 25.1385 11.5018 25.1807 13.6393 24.4251C16.8481 23.2942 16.8705 23.3713 16.8705 19.9959L16.8755 17.237Z" fill="#1D292F"/>
<path d="M3.70951 3.21114C4.00529 2.90294 4.62664 2.30392 6.41373 1.25006C7.79816 0.434801 8.49911 0.0271715 8.98875 0.0545124C9.35412 0.0768822 10.0252 0.482024 11.35 1.29728C12.8885 2.2393 12.5455 2.14733 13.3831 2.60964C14.2208 3.07195 14.6035 3.17635 14.8223 3.60386C14.9863 3.93195 14.9217 4.38432 14.7626 5.28159C14.2108 8.41585 12.8463 11.0555 10.0401 12.7929C9.29447 13.2602 8.64824 13.2577 7.87773 12.778C7.0892 12.3315 6.38642 11.7483 5.8023 11.0555C4.85035 9.87486 3.68464 7.48875 2.81968 4.26998C3.08879 3.89481 3.38628 3.54083 3.70951 3.21114ZM7.5347 6.8102L7.21904 8.65447L8.18345 8.15736L8.87443 7.79447L9.56541 8.15736L10.5298 8.65447L10.3558 7.63788L10.2141 6.8102L10.8628 6.17887L11.5538 5.50529L9.70206 5.23686L8.87443 3.55912L8.04673 5.23686L6.19503 5.50529L7.5347 6.8102Z" fill="#1D292F"/>
<path d="M10.8628 6.17871L10.214 6.81004L10.3557 7.63772C10.5148 7.18535 10.6863 6.68576 10.8628 6.17871Z" fill="#1D292F"/>
<path d="M8.18347 8.14756H9.56543L8.87445 7.78467L8.18347 8.14756Z" fill="#1D292F"/>
</svg>
