<svg width="20" height="16" viewBox="0 0 20 16" fill="none" xmlns="http://www.w3.org/2000/svg">
<path d="M15.6567 15.0693L14.5898 16.0003C12.8909 14.405 11.2549 12.7367 9.56966 11.1245C8.14602 9.76537 6.72238 8.39608 5.2002 7.1508C4.86043 6.87898 4.11802 7.11172 3.38921 7.11172C3.41809 7.55513 3.43849 7.88301 3.45717 8.2007C2.56527 8.8157 0.479078 6.94863 0 5.04759L1.20619 4.92527C1.23676 3.13635 2.73516 1.59037 4.38984 1.67701V0.297521C5.95789 0.159912 7.66014 1.82651 7.69412 3.57296H6.57627C6.50152 4.28818 6.43357 4.93206 6.36392 5.58953C9.44055 8.71037 12.5647 11.8686 15.6567 15.0693Z" fill="#1D292F"/>
<path d="M11.1225 10.0319L10.0132 8.83247C11.1106 7.65345 12.2115 6.46763 13.3871 5.20197C13.3344 4.72798 13.2665 4.0858 13.1884 3.36548L12.1215 3.28393C11.9958 1.72266 13.6504 0.013591 15.3493 0V1.37099C17.077 1.41516 18.5601 2.94246 18.5075 4.66342L19.7137 4.75007C19.4266 6.522 17.9061 7.97794 16.3159 8.00002V6.94162L14.8193 6.74285C13.5842 7.84202 12.412 8.88514 11.1225 10.0319Z" fill="#1D292F"/>
<path d="M9.35427 11.3692L4.96273 15.6674L4.03516 14.8264C4.08272 14.7704 4.13879 14.7109 4.20504 14.6565C5.57432 13.3314 6.88073 11.9383 8.43688 10.355C8.79667 10.643 9.10761 10.9872 9.35767 11.3743L9.35427 11.3692Z" fill="#1D292F"/>
</svg>
