<svg width="22" height="17" viewBox="0 0 22 17" fill="none" xmlns="http://www.w3.org/2000/svg">
<path d="M0 15.9884H2.02943C1.96762 15.9492 1.94294 15.9328 1.91615 15.9183C1.70817 15.8209 1.52608 15.6757 1.38471 15.4947C1.24334 15.3136 1.14667 15.1018 1.10252 14.8764C1.05836 14.651 1.06797 14.4184 1.13059 14.1974C1.1932 13.9764 1.307 13.7733 1.46283 13.6045C2.03561 12.9287 2.61048 12.2549 3.18738 11.5833C4.13378 10.4844 5.07742 9.37931 6.01832 8.26806C6.15862 8.08807 6.33753 7.94186 6.54186 7.84023C6.74619 7.73859 6.97072 7.68413 7.19891 7.68085V9.71035H6.70238C6.11517 9.71035 5.84317 9.98231 5.84111 10.5757C5.84111 11.5091 5.84111 12.4445 5.84111 13.3779C5.847 13.4515 5.83424 13.5253 5.80399 13.5927C5.77373 13.66 5.727 13.7187 5.66807 13.7632C5.50879 13.8968 5.38126 14.0643 5.29473 14.2534C5.2082 14.4424 5.16481 14.6484 5.16777 14.8563C5.17073 15.0642 5.21996 15.2689 5.31183 15.4554C5.40371 15.642 5.53593 15.8057 5.69895 15.9348C5.7406 15.969 5.79157 15.9898 5.84523 15.9946C6.03067 15.9946 6.21816 15.9946 6.46334 15.9946C6.10278 15.7617 6.13784 15.4444 6.13784 15.1374C6.13784 13.6622 6.13784 12.1876 6.13784 10.7138C6.13784 10.244 6.34387 10.0441 6.80127 10.0441H14.4411C14.8965 10.0441 15.0984 10.2502 15.0984 10.6973C15.0984 12.2261 15.0984 13.757 15.0984 15.2858C15.0984 15.5516 15.0674 15.7947 14.8161 15.9595C15.6979 16.2171 16.0667 15.4403 16.075 14.8284C16.0813 14.6158 16.0361 14.4049 15.9431 14.2137C15.8502 14.0224 15.7123 13.8565 15.5413 13.7302C15.4947 13.6969 15.4576 13.652 15.4338 13.6C15.4099 13.5479 15.4001 13.4905 15.4054 13.4335C15.4054 12.4836 15.3909 11.5359 15.4054 10.5881C15.4198 10.0091 15.051 9.65471 14.5153 9.70416C14.3649 9.71858 14.2124 9.70416 14.0434 9.70416V7.67879C14.2623 7.67655 14.4789 7.72419 14.6767 7.81807C14.8745 7.91196 15.0482 8.04964 15.1849 8.22067C16.7205 10.0132 18.2528 11.8078 19.7816 13.6045C20.445 14.3833 20.2307 15.4321 19.3201 15.9142L19.1964 15.9884H21.23V16.8496H0.26992H0V15.9884Z" fill="#1D292F"/>
<path d="M10.5658 7.23612C9.85017 7.23449 9.15108 7.02065 8.55697 6.62164C7.96285 6.22264 7.50041 5.65639 7.22814 4.99454C6.95587 4.33268 6.88597 3.60495 7.02734 2.90338C7.1687 2.2018 7.51496 1.55792 8.02231 1.05316C8.52965 0.548399 9.17532 0.205447 9.87759 0.0676751C10.5799 -0.0700966 11.3072 0.0035039 11.9676 0.279167C12.6281 0.55483 13.192 1.02017 13.5879 1.61633C13.9839 2.21249 14.1941 2.91269 14.192 3.62836C14.1877 4.58707 13.8037 5.50499 13.124 6.18117C12.4444 6.85734 11.5245 7.23668 10.5658 7.23612Z" fill="#1D292F"/>
<path d="M11.4185 8.73814C11.0188 8.96479 11.2413 9.37275 11.163 9.71684H10.1081C10.0134 9.38717 10.2585 8.96478 9.85059 8.7402L10.6397 7.95312L11.4185 8.73814Z" fill="#1D292F"/>
</svg>
