<svg width="1441" height="684" viewBox="0 0 1441 684" fill="none" xmlns="http://www.w3.org/2000/svg">
<rect x="0.5" y="0.5" width="1500" height="800" fill="#76A4AE"/>
<rect x="0.5" y="0.5" width="1500" height="800" stroke="black"/>
<rect x="0.5" y="0.5" width="1500" height="800" stroke="black" stroke-opacity="0.2"/>
<circle cx="11" cy="418" r="3" fill="#F3F8F8"/>
<circle cx="37" cy="418" r="3" fill="#F3F8F8"/>
<circle cx="11" cy="444" r="3" fill="#F3F8F8"/>
<circle cx="37" cy="444" r="3" fill="#F3F8F8"/>
<circle cx="11" cy="470" r="3" fill="#F3F8F8"/>
<circle cx="37" cy="470" r="3" fill="#F3F8F8"/>
<circle cx="63" cy="418" r="3" fill="#F3F8F8"/>
<circle cx="89" cy="418" r="3" fill="#F3F8F8"/>
<circle cx="115" cy="418" r="3" fill="#F3F8F8"/>
<circle cx="141" cy="418" r="3" fill="#F3F8F8"/>
<circle cx="167" cy="418" r="3" fill="#F3F8F8"/>
<circle cx="193" cy="418" r="3" fill="#F3F8F8"/>
<circle cx="219" cy="418" r="3" fill="#F3F8F8"/>
<circle cx="245" cy="418" r="3" fill="#F3F8F8"/>
<circle cx="271" cy="418" r="3" fill="#F3F8F8"/>
<circle cx="63" cy="444" r="3" fill="#F3F8F8"/>
<circle cx="89" cy="444" r="3" fill="#F3F8F8"/>
<circle cx="115" cy="444" r="3" fill="#F3F8F8"/>
<circle cx="141" cy="444" r="3" fill="#F3F8F8"/>
<circle cx="167" cy="444" r="3" fill="#F3F8F8"/>
<circle cx="193" cy="444" r="3" fill="#F3F8F8"/>
<circle cx="219" cy="444" r="3" fill="#F3F8F8"/>
<circle cx="245" cy="444" r="3" fill="#F3F8F8"/>
<circle cx="271" cy="444" r="3" fill="#F3F8F8"/>
<circle cx="63" cy="470" r="3" fill="#F3F8F8"/>
<circle cx="89" cy="470" r="3" fill="#F3F8F8"/>
<circle cx="115" cy="470" r="3" fill="#F3F8F8"/>
<circle cx="141" cy="470" r="3" fill="#F3F8F8"/>
<circle cx="167" cy="470" r="3" fill="#F3F8F8"/>
<circle cx="193" cy="470" r="3" fill="#F3F8F8"/>
<circle cx="219" cy="470" r="3" fill="#F3F8F8"/>
<circle cx="245" cy="470" r="3" fill="#F3F8F8"/>
<circle cx="271" cy="470" r="3" fill="#F3F8F8"/>
<circle cx="1166" cy="257" r="3" fill="#F3F8F8"/>
<circle cx="1192" cy="257" r="3" fill="#F3F8F8"/>
<circle cx="1218" cy="257" r="3" fill="#F3F8F8"/>
<circle cx="1244" cy="257" r="3" fill="#F3F8F8"/>
<circle cx="1270" cy="257" r="3" fill="#F3F8F8"/>
<circle cx="1296" cy="257" r="3" fill="#F3F8F8"/>
<circle cx="1322" cy="257" r="3" fill="#F3F8F8"/>
<circle cx="1348" cy="257" r="3" fill="#F3F8F8"/>
<circle cx="1374" cy="257" r="3" fill="#F3F8F8"/>
<circle cx="1166" cy="283" r="3" fill="#F3F8F8"/>
<circle cx="1192" cy="283" r="3" fill="#F3F8F8"/>
<circle cx="1218" cy="283" r="3" fill="#F3F8F8"/>
<circle cx="1244" cy="283" r="3" fill="#F3F8F8"/>
<circle cx="1270" cy="283" r="3" fill="#F3F8F8"/>
<circle cx="1296" cy="283" r="3" fill="#F3F8F8"/>
<circle cx="1322" cy="283" r="3" fill="#F3F8F8"/>
<circle cx="1348" cy="283" r="3" fill="#F3F8F8"/>
<circle cx="1374" cy="283" r="3" fill="#F3F8F8"/>
<circle cx="1166" cy="309" r="3" fill="#F3F8F8"/>
<circle cx="1192" cy="309" r="3" fill="#F3F8F8"/>
<circle cx="1218" cy="309" r="3" fill="#F3F8F8"/>
<circle cx="1244" cy="309" r="3" fill="#F3F8F8"/>
<circle cx="1270" cy="309" r="3" fill="#F3F8F8"/>
<circle cx="1296" cy="309" r="3" fill="#F3F8F8"/>
<circle cx="1322" cy="309" r="3" fill="#F3F8F8"/>
<circle cx="1348" cy="309" r="3" fill="#F3F8F8"/>
<circle cx="1374" cy="309" r="3" fill="#F3F8F8"/>
<circle cx="1400" cy="257" r="3" fill="#F3F8F8"/>
<circle cx="1426" cy="257" r="3" fill="#F3F8F8"/>
<circle cx="1400" cy="283" r="3" fill="#F3F8F8"/>
<circle cx="1426" cy="283" r="3" fill="#F3F8F8"/>
<circle cx="1400" cy="309" r="3" fill="#F3F8F8"/>
<circle cx="1426" cy="309" r="3" fill="#F3F8F8"/>
<circle opacity="0.1" cx="62.5" cy="94.5" r="242.5" fill="white"/>
<circle opacity="0.1" cx="1378.5" cy="441.5" r="242.5" fill="white"/>
</svg>
