<svg width="33" height="25" viewBox="0 0 33 25" fill="none" xmlns="http://www.w3.org/2000/svg">
<path d="M16.2879 13.0221C17.2862 13.0221 18.2845 13.0221 19.2828 13.0221C20.3366 13.017 21.3495 13.4297 22.0997 14.1698C22.8498 14.9099 23.2762 15.9171 23.2854 16.9709C23.3171 18.8375 23.2854 20.7073 23.2854 22.5771C23.296 22.6812 23.2702 22.7858 23.2124 22.873C23.1546 22.9602 23.0685 23.0248 22.9685 23.0557C20.4616 24.2095 17.6954 24.6838 14.9474 24.4311C13.111 24.2996 11.3137 23.8369 9.64219 23.0652C9.52429 23.0248 9.42381 22.9451 9.35749 22.8396C9.29118 22.7341 9.26303 22.609 9.27774 22.4852C9.27774 20.6851 9.27774 18.8882 9.27774 17.0976C9.2682 16.5579 9.36784 16.0218 9.57068 15.5216C9.77351 15.0214 10.0754 14.5673 10.4581 14.1866C10.8408 13.8059 11.2965 13.5066 11.7979 13.3064C12.2992 13.1063 12.8358 13.0096 13.3755 13.0221H16.2879Z" fill="white"/>
<path d="M12.7766 12.0207C11.7104 12.1433 10.7112 12.603 9.92433 13.3327C9.42617 13.7823 9.02778 14.3312 8.75485 14.9443C8.48192 15.5573 8.34051 16.2207 8.33975 16.8917C8.33975 17.947 8.33975 19.0024 8.33975 20.0609C8.33975 20.3144 8.29855 20.4443 7.99748 20.4634C5.48846 20.6659 2.9711 20.1909 0.708408 19.0879C0.578353 19.0489 0.465866 18.966 0.390151 18.8533C0.314436 18.7406 0.280186 18.6051 0.293247 18.4699C0.312262 17.0153 0.293247 15.5606 0.293247 14.106C0.279635 13.5623 0.377065 13.0215 0.579579 12.5167C0.782093 12.0119 1.08544 11.5537 1.47106 11.1702C1.85668 10.7866 2.31649 10.4858 2.82235 10.286C3.32822 10.0862 3.86952 9.99167 4.41316 10.0082C6.09598 10.0082 7.77881 9.9797 9.45846 10.0082C10.8909 10.0494 11.9526 10.7657 12.7766 12.0207Z" fill="white"/>
<path d="M19.8279 12.0175C20.0965 11.5385 20.4631 11.1215 20.9038 10.7939C21.3445 10.4662 21.8493 10.2352 22.3854 10.1159C22.6902 10.0483 23.0017 10.0154 23.314 10.0177C24.9556 10.0177 26.5962 10.0177 28.2357 10.0177C28.7611 10.0106 29.2827 10.1074 29.7706 10.3026C30.2584 10.4978 30.7029 10.7875 31.0784 11.155C31.4539 11.5226 31.7531 11.9608 31.9587 12.4444C32.1643 12.9279 32.2722 13.4474 32.2763 13.9728C32.308 15.5131 32.2763 17.0533 32.2763 18.5935C32.2835 18.6901 32.2589 18.7863 32.2062 18.8676C32.1536 18.9488 32.0758 19.0106 31.9848 19.0435C29.6908 20.1909 27.1247 20.6832 24.5689 20.4665C24.2869 20.4665 24.252 20.3175 24.252 20.083C24.252 19.1576 24.214 18.2291 24.252 17.3037C24.3166 16.0271 23.8967 14.7733 23.0763 13.7932C22.256 12.813 21.0958 12.1788 19.8279 12.0175Z" fill="white"/>
<path d="M20.7819 7.51409C20.7781 8.40355 20.5104 9.2719 20.0128 10.0091C19.5152 10.7464 18.81 11.3194 17.9865 11.6555C17.163 11.9917 16.2582 12.0759 15.3868 11.8975C14.5154 11.7192 13.7166 11.2862 13.0914 10.6535C12.4662 10.0207 12.0429 9.21673 11.875 8.34325C11.7071 7.46976 11.8022 6.56609 12.1482 5.74668C12.4942 4.92727 13.0756 4.22898 13.8188 3.74024C14.562 3.25149 15.4334 2.99428 16.3229 3.00117C16.9124 3.00324 17.4957 3.12177 18.0393 3.34996C18.5829 3.57815 19.076 3.91151 19.4903 4.33087C19.9047 4.75023 20.2321 5.24732 20.4537 5.7936C20.6754 6.33988 20.7869 6.92457 20.7819 7.51409Z" fill="white"/>
<path d="M2.56235 4.74103C2.56426 3.90004 2.81583 3.07855 3.28516 2.38071C3.75449 1.68286 4.42046 1.14007 5.19863 0.821155C5.97681 0.502241 6.83215 0.421559 7.65623 0.589337C8.48031 0.757114 9.23602 1.1658 9.82756 1.76358C10.4191 2.36136 10.8198 3.12132 10.979 3.94712C11.1381 4.77291 11.0485 5.62736 10.7214 6.40216C10.3944 7.17695 9.84464 7.8372 9.14192 8.2992C8.4392 8.7612 7.61512 9.00414 6.77417 8.99724C6.21791 8.99516 5.66753 8.88334 5.15457 8.66816C4.64161 8.45299 4.17616 8.1387 3.78489 7.74331C3.39362 7.34791 3.08422 6.87918 2.87444 6.36399C2.66465 5.8488 2.5586 5.29728 2.56235 4.74103Z" fill="white"/>
<path d="M30.0167 4.74102C30.0205 5.57998 29.7756 6.40124 29.3131 7.10118C28.8505 7.80111 28.191 8.34836 27.4178 8.67387C26.6445 8.99938 25.7922 9.08856 24.9683 8.93017C24.1445 8.77177 23.386 8.3729 22.7886 7.78387C22.1912 7.19485 21.7816 6.44206 21.6116 5.62051C21.4415 4.79895 21.5187 3.94545 21.8332 3.16768C22.1477 2.38991 22.6856 1.72273 23.3789 1.25034C24.0722 0.777938 24.89 0.52148 25.7289 0.513333C26.2894 0.504064 26.8463 0.606641 27.3667 0.815067C27.8872 1.02349 28.3609 1.33359 28.7601 1.72722C29.1594 2.12085 29.4761 2.59012 29.6919 3.1076C29.9076 3.62507 30.0181 4.18037 30.0167 4.74102Z" fill="white"/>
</svg>
