<svg width="25" height="28" viewBox="0 0 25 28" fill="none" xmlns="http://www.w3.org/2000/svg">
<path d="M24.7324 10.1937H0.447843C0.464832 9.91195 0.464832 9.62945 0.447843 9.34772C0.423549 9.19877 0.446796 9.04595 0.514289 8.91097C0.581781 8.77598 0.690087 8.66569 0.823822 8.59576C4.70143 5.92879 8.57026 3.2518 12.4303 0.56479C12.4721 0.525671 12.5272 0.503906 12.5845 0.503906C12.6417 0.503906 12.6968 0.525671 12.7386 0.56479C16.6764 3.29943 20.6166 6.0278 24.5594 8.74991C24.6156 8.78102 24.6615 8.8278 24.6915 8.88454C24.7216 8.94129 24.7345 9.00555 24.7286 9.06949C24.7248 9.43795 24.7324 9.80642 24.7324 10.1937Z" fill="white"/>
<path d="M0.289795 27.5039V26.1617H0.91768V24.8157H24.251V26.1504H24.8939V27.5039H0.289795Z" fill="white"/>
<path d="M5.84316 24.2779H3.51208V23.9997C3.51208 20.6033 3.51208 17.2082 3.51208 13.8143C3.50236 13.4979 3.42442 13.1873 3.28361 12.9037C3.14281 12.6201 2.94244 12.3703 2.69621 12.1713C2.63057 12.132 2.55449 12.1136 2.47814 12.1187C1.94425 12.1187 1.98561 12.1826 1.98561 11.6148V10.987C1.98561 10.8403 2.04576 10.7726 2.19991 10.7726H7.14029C7.30196 10.7726 7.36588 10.8403 7.36588 10.9982C7.36588 11.3028 7.36588 11.6036 7.36588 11.9081C7.36588 12.0735 7.29068 12.1487 7.13653 12.1187C6.76055 12.0397 6.51992 12.2615 6.30185 12.5398C5.99178 12.9277 5.82689 13.4118 5.83564 13.9083C5.83564 17.2696 5.83564 20.6309 5.83564 23.9959L5.84316 24.2779Z" fill="white"/>
<path d="M13.7569 24.2781H11.4258V23.9961C11.4258 20.5997 11.4258 17.2046 11.4258 13.8107C11.4169 13.4944 11.3385 13.184 11.1962 12.9013C11.0539 12.6187 10.8512 12.3708 10.6024 12.1752C10.5273 12.1038 10.3581 12.1226 10.2265 12.1188C9.89185 12.1188 9.89185 12.1188 9.89185 11.7917C9.89185 11.521 9.89185 11.2503 9.89185 10.9796C9.89185 10.833 9.95952 10.769 10.1099 10.769H15.0616C15.227 10.769 15.2872 10.8405 15.2834 10.9946C15.2834 11.2992 15.2834 11.6037 15.2834 11.9045C15.2834 12.0549 15.2232 12.1451 15.0728 12.1151C14.663 12.0323 14.4299 12.2617 14.2081 12.555C13.91 12.9342 13.7496 13.4035 13.7532 13.8859C13.7532 17.2698 13.7532 20.6235 13.7532 23.9923L13.7569 24.2781Z" fill="white"/>
<path d="M21.6681 24.2781H19.337V23.9961C19.337 20.5997 19.337 17.2046 19.337 13.8107C19.3278 13.4949 19.2496 13.1849 19.108 12.9024C18.9665 12.6198 18.7649 12.3717 18.5174 12.1752C18.4384 12.1038 18.2692 12.1226 18.1414 12.1188C17.8105 12.1188 17.8105 12.1188 17.8105 11.7917C17.8105 11.5285 17.8105 11.2653 17.8105 11.0022C17.8105 10.848 17.8632 10.769 18.0286 10.769H22.9577C23.1194 10.769 23.1795 10.8405 23.1795 10.9984C23.1795 11.2992 23.1795 11.6037 23.1795 11.9045C23.1795 12.0549 23.1156 12.1451 22.9652 12.1151C22.5592 12.0323 22.3261 12.2617 22.1042 12.555C21.8023 12.9336 21.6415 13.4055 21.6493 13.8897C21.6493 17.256 21.6493 20.6235 21.6493 23.9923L21.6681 24.2781Z" fill="white"/>
</svg>
