<svg width="50" height="68" viewBox="0 0 50 68" fill="none" xmlns="http://www.w3.org/2000/svg">
<path d="M24.6385 0.00500494C27.8013 -0.0249237 30.8755 1.04905 33.3317 3.04196C35.7879 5.03487 37.4722 7.82196 38.0947 10.9232C38.5399 13.3704 38.4047 15.888 37.7001 18.2735C36.7541 21.9757 34.9568 25.406 32.4515 28.2911C31.2088 29.7715 29.6417 30.9454 27.8718 31.7218C26.567 32.2702 25.1417 32.4684 23.7368 32.2969C22.3319 32.1254 20.9962 31.5902 19.8616 30.744C17.502 29.0641 15.5788 26.8438 14.2527 24.2686C12.8883 21.8281 11.935 19.1797 11.4311 16.4295C10.7602 13.1427 11.3165 9.72397 12.9946 6.8194C14.6728 3.91483 17.3566 1.72561 20.539 0.665418C21.8573 0.210718 23.2442 -0.0127109 24.6385 0.00500494Z" fill="#76A4AE"/>
<path d="M14.8081 30.1952C15.3141 32.0992 16.6177 33.4029 17.9298 34.6551C19.5164 36.1646 21.1974 37.5712 22.844 39.0207L23.0756 39.2094C19.2849 41.688 15.76 44.5269 12.0722 47.1428C11.1714 47.6887 10.4776 48.5183 10.0997 49.5014C9.8114 50.3864 9.88384 51.3494 10.3013 52.1812C10.7188 53.0131 11.4477 53.6466 12.3295 53.9442C12.947 54.1672 12.947 54.1672 12.8526 54.9219C12.1923 54.9219 11.5234 54.9219 10.8544 54.9219C8.76207 54.941 6.67923 54.6372 4.67946 54.0214C3.47894 53.6474 2.41663 52.9251 1.62721 51.9463C0.837797 50.9675 0.35693 49.7762 0.245611 48.5237C-0.288061 44.5111 0.6955 40.4439 3.00368 37.1186C5.31186 33.7934 8.77829 31.4497 12.724 30.5468C13.4015 30.401 14.0876 30.3238 14.8081 30.1952Z" fill="#76A4AE"/>
<path d="M26.4653 39.2951C28.0348 37.8971 29.6299 36.5248 31.1651 35.0839C32.026 34.2746 32.8231 33.4 33.5493 32.468C34.0343 31.7553 34.4698 31.0103 34.8529 30.238C37.6391 30.5071 40.3034 31.5136 42.5715 33.1541C44.3452 34.3922 45.85 35.9766 46.9952 37.8117C48.1405 39.6468 48.9025 41.6947 49.2353 43.8321C49.5567 45.5324 49.5567 47.2779 49.2353 48.9782C49.0369 50.1764 48.498 51.2922 47.6829 52.1925C46.8679 53.0927 45.811 53.7395 44.6384 54.0556C42.0693 54.7515 39.4069 55.0409 36.7482 54.9133C36.5767 54.1929 36.5853 54.1671 37.2028 53.9441C37.821 53.7428 38.3722 53.3755 38.796 52.8824C39.2198 52.3893 39.5001 51.7892 39.6063 51.1477C39.7125 50.5062 39.6404 49.8478 39.3981 49.2445C39.1557 48.6411 38.7523 48.1158 38.2319 47.726C36.6539 46.4395 34.9644 45.2816 33.3263 44.0723C31.5082 42.7343 29.69 41.3963 27.8633 40.0755C27.4115 39.7908 26.9448 39.5302 26.4653 39.2951Z" fill="#76A4AE"/>
<path d="M24.7509 50.8822H14.2192C14.1369 50.8952 14.053 50.8952 13.9706 50.8822C13.739 50.8308 13.5074 50.7536 13.2759 50.685C13.3896 50.4608 13.5371 50.2554 13.7133 50.076C16.7836 47.7889 19.8653 45.5246 22.9585 43.2833C23.3225 42.9819 23.7195 42.723 24.142 42.5114C24.4242 42.3968 24.7319 42.3594 25.0333 42.4031C25.3348 42.4468 25.6192 42.57 25.8573 42.7601C29.202 45.213 32.5467 47.6574 35.8828 50.1275C36.0336 50.2888 36.1608 50.4707 36.2602 50.6678C36.0648 50.7733 35.8533 50.8458 35.6342 50.8822H24.7509Z" fill="#76A4AE"/>
<path d="M29.7314 57.2719V53.0778C29.7314 52.3917 29.9458 52.2202 30.6405 52.2202H32.5101C33.1105 52.2202 33.3249 52.4431 33.3678 53.0778C33.4106 53.7125 33.3678 54.2185 33.3678 54.7932C33.3678 57.006 33.3678 59.2102 33.3678 61.4144C33.3678 62.2721 33.2048 62.478 32.3129 62.478C31.7383 62.478 31.1637 62.478 30.5977 62.478C30.0316 62.478 29.7829 62.2292 29.74 61.6203L29.7314 57.2719Z" fill="#76A4AE"/>
<path d="M26.568 57.3148V61.5088C26.568 62.1864 26.3365 62.3665 25.6504 62.3665C24.9643 62.3665 24.364 62.3665 23.7293 62.3665C23.6274 62.3801 23.5236 62.3704 23.4259 62.338C23.3283 62.3056 23.2393 62.2513 23.1658 62.1794C23.0922 62.1075 23.036 62.0198 23.0014 61.9229C22.9668 61.826 22.9547 61.7226 22.966 61.6203C22.966 58.7042 22.966 55.7881 22.966 52.872C22.966 52.3746 23.2148 52.143 23.7207 52.143H25.7447C26.3279 52.143 26.6024 52.3746 26.6024 53.0007C26.568 54.4501 26.568 55.8825 26.568 57.3148Z" fill="#76A4AE"/>
<path d="M16.1999 57.3062C16.1999 55.9082 16.1999 54.5102 16.1999 53.1122C16.1999 52.3574 16.38 52.1773 17.1176 52.1773H19.0386C19.5446 52.1773 19.7849 52.4089 19.7849 52.9149C19.7849 55.8138 19.7849 58.7128 19.7849 61.6117C19.7849 62.1606 19.5276 62.3922 18.9272 62.4008C18.3269 62.4094 17.6493 62.4008 17.0061 62.4008C16.3628 62.4008 16.1484 62.1778 16.1484 61.5431C16.1484 60.128 16.1484 58.7128 16.1484 57.2976L16.1999 57.3062Z" fill="#76A4AE"/>
<path d="M24.7392 67.5041H13.4958C12.7926 67.5041 12.6382 67.3497 12.6382 66.7836C12.6382 66.2176 12.7926 65.926 13.4958 65.926H36.18C36.8232 65.926 37.0376 66.1147 37.0376 66.7322C37.0376 67.3497 36.849 67.5041 36.18 67.5041H24.7392Z" fill="#76A4AE"/>
<path d="M24.7471 65.2656H15.682C14.9616 65.2656 14.8244 65.0684 14.8244 64.3565C14.8173 64.2719 14.8278 64.1867 14.8551 64.1064C14.8824 64.026 14.926 63.9521 14.9831 63.8893C15.0403 63.8265 15.1097 63.7762 15.1872 63.7415C15.2646 63.7068 15.3484 63.6884 15.4333 63.6875C15.5675 63.6788 15.7021 63.6788 15.8364 63.6875H33.7607C34.5583 63.6875 34.7556 63.8848 34.7298 64.6138C34.7386 64.7068 34.7261 64.8007 34.6933 64.8882C34.6605 64.9757 34.6084 65.0546 34.5407 65.1191C34.473 65.1835 34.3915 65.2317 34.3025 65.26C34.2134 65.2884 34.1191 65.2962 34.0266 65.2828H24.7643L24.7471 65.2656Z" fill="#76A4AE"/>
</svg>
