<svg width="61" height="70" viewBox="0 0 61 70" fill="none" xmlns="http://www.w3.org/2000/svg">
<path d="M20.2979 62.6356C15.8293 58.1813 11.4472 53.828 7.02905 49.4314C9.5805 45.9357 12.795 43.8888 17.4871 44.0546C24.9757 44.3212 32.4858 44.1266 39.9816 44.1266C40.4429 44.1266 40.8969 44.1266 41.3509 44.1266C43.4339 44.3284 44.6881 45.5681 44.6737 47.4349C44.6593 49.3016 43.4052 50.5918 41.2718 50.6422C37.3365 50.7431 33.3939 50.6422 29.4514 50.6927C28.6874 50.6927 27.9235 50.772 27.1523 50.8152V51.4711C27.7398 51.5893 28.3345 51.6687 28.9325 51.7089C32.9471 51.7089 36.9616 51.745 40.9761 51.7089C43.6862 51.7089 44.926 50.6927 45.7764 48.1052C45.9911 47.3917 46.341 46.7261 46.8071 46.1447C49.2071 43.3122 51.6289 40.5013 54.1083 37.7336C55.7372 35.9101 57.7769 35.7083 59.2832 37.1137C60.6454 38.3895 60.6455 40.458 59.1608 42.195C55.3552 46.6108 51.5303 51.0122 47.6863 55.3992C46.9256 56.3015 45.9715 57.0208 44.8947 57.5036C43.8179 57.9865 42.6461 58.2206 41.4664 58.1885C37.8266 58.1885 34.1867 58.2894 30.5542 58.1525C26.9216 58.0155 23.6854 58.9741 21.1845 61.8571C20.9138 62.1436 20.617 62.4042 20.2979 62.6356Z" fill="#76A4AE"/>
<path d="M31.1958 38.4904H28.7235V35.9245C28.7235 27.2755 28.7235 18.6265 28.7235 9.97743C28.7235 6.95027 28.0028 6.27997 24.9901 6.26556H15.1086C16.6294 10.0495 17.9916 13.4731 19.3754 16.8678C19.8799 18.1363 20.4062 19.3905 20.9179 20.6518C21.5465 22.041 21.6656 23.6072 21.2544 25.0755C20.8431 26.5438 19.9278 27.8204 18.6691 28.6809C17.3681 29.6128 15.808 30.1139 14.2077 30.1139C12.6074 30.1139 11.0473 29.6128 9.74633 28.6809C8.48305 27.8259 7.5615 26.553 7.14365 25.0859C6.7258 23.6188 6.83825 22.0513 7.46144 20.659C9.14078 16.5219 10.8345 12.3847 12.5067 8.24042C12.7229 7.70706 12.8671 7.13767 13.0905 6.42412L9.67419 6.09258L9.61647 5.4367C10.3313 5.30816 11.0535 5.22391 11.7787 5.18443C16.3987 5.18443 21.0189 5.18443 25.6461 5.18443C27.7362 5.18443 28.8461 4.01681 29.1271 1.92663C28.9842 1.76252 28.8903 1.5615 28.8562 1.34655C28.822 1.1316 28.8489 0.911374 28.9339 0.711028C29.019 0.510682 29.1587 0.338295 29.3371 0.213548C29.5154 0.0888011 29.7252 0.0167263 29.9426 0.00555756C30.1599 -0.00561121 30.3762 0.0445725 30.5664 0.150382C30.7566 0.256192 30.9131 0.413362 31.0182 0.603937C31.1234 0.794512 31.1727 1.01081 31.1608 1.22813C31.1488 1.44545 31.076 1.65503 30.9507 1.83294C31.2029 4.11772 32.248 5.18443 34.5183 5.19164C38.987 5.19164 43.4557 5.19164 47.9315 5.19164C48.7243 5.19164 49.5172 5.2565 50.31 5.29254L50.382 5.96284L46.944 6.51061C47.1098 7.08001 47.2324 7.63499 47.4415 8.16114C49.0751 12.231 50.7207 16.3008 52.3785 20.3707C53.6974 23.5996 53.1714 26.0934 50.692 28.2989C49.5429 29.3014 48.1158 29.9306 46.6007 30.1031C45.0855 30.2756 43.5539 29.9832 42.2088 29.2648C39.7078 27.8737 37.3221 24.1186 39.0446 20.6157C41.2069 16.1471 42.843 11.4117 44.8755 6.35926C40.7385 6.35926 36.9473 6.13582 33.1273 6.46016C31.484 6.59711 31.203 8.46385 31.2102 10.0639C31.2535 18.6265 31.2102 27.189 31.2102 35.7515L31.1958 38.4904ZM20.1539 21.9996L14.2005 7.3611L8.26876 21.9996H20.1539ZM45.7621 7.33227L39.852 21.9924H51.6938C49.7045 17.1849 47.881 12.5938 45.7476 7.33227H45.7621Z" fill="#76A4AE"/>
<path d="M13.2635 69.4395L0.290039 56.5164L5.95519 50.7072L19.0944 63.8681L13.2635 69.4395Z" fill="#76A4AE"/>
<path d="M36.731 42.9375H23.1304V39.9536H36.731V42.9375Z" fill="#76A4AE"/>
</svg>
