<svg width="26" height="26" viewBox="0 0 26 26" fill="none" xmlns="http://www.w3.org/2000/svg">
<path d="M9.68466 9.85499C9.78651 9.5959 9.82507 9.31625 9.79715 9.03927C9.76923 8.76229 9.67564 8.49597 9.52414 8.26242C9.48945 8.17388 9.43648 8.09364 9.3687 8.02694C9.30091 7.96024 9.21989 7.90857 9.1308 7.87531C9.04171 7.84205 8.94655 7.82794 8.85164 7.8339C8.75673 7.83987 8.66417 7.86577 8.57994 7.90992C7.61685 8.24354 6.64748 8.55827 5.6781 8.8793C5.63718 8.8793 5.59627 8.89819 5.52388 8.91393V8.66843C5.52388 6.88703 5.50185 5.10247 5.52388 3.31792C5.54277 2.19431 5.24062 1.24695 4.26495 0.529356C4.38455 0.529356 4.46327 0.529356 4.5388 0.529356H19.3313C19.6541 0.519816 19.9754 0.576255 20.2756 0.69522C20.5758 0.814185 20.8486 0.993177 21.0772 1.22123C21.3059 1.44928 21.4855 1.72159 21.6053 2.0215C21.725 2.32141 21.7823 2.6426 21.7736 2.96542V14.6767C21.4589 14.5603 21.1756 14.4659 20.9018 14.3431C20.8278 14.305 20.7458 14.2852 20.6626 14.2852C20.5794 14.2852 20.4974 14.305 20.4234 14.3431C19.3235 14.8508 18.1131 15.0727 16.9046 14.9883C16.7509 14.9754 16.5984 14.9512 16.4483 14.9159C16.2532 14.8687 16.1052 14.9159 16.0423 15.1079C15.9604 15.3629 15.8 15.4227 15.5482 15.4227C12.8604 15.4227 10.1725 15.4227 7.48467 15.4227C7.41228 15.4227 7.32103 15.4006 7.26752 15.4227C7.21402 15.4447 7.06921 15.5706 7.0755 15.6398C7.08985 15.6905 7.11429 15.7378 7.14727 15.7789C7.18025 15.82 7.22113 15.8541 7.26752 15.879C7.35927 15.9068 7.45613 15.9133 7.55075 15.8979H15.6804L15.4097 16.7981H7.47522C7.40913 16.7981 7.32733 16.776 7.28012 16.7981C7.23291 16.8201 7.0818 16.9303 7.0755 17.0058C7.06921 17.0813 7.16048 17.1946 7.23602 17.2481C7.31795 17.2806 7.40711 17.2904 7.49412 17.2765H15.3027C14.9219 20.021 15.3939 22.4979 17.4869 24.5154H5.49868V19.7503C5.49868 19.6716 5.51762 19.5709 5.47985 19.5142C5.44209 19.4576 5.31934 19.3411 5.24065 19.3474C5.16197 19.3537 5.08638 19.467 5.03288 19.5489C4.97938 19.6307 5.03288 19.6653 5.03288 19.722C5.03288 20.7763 5.03288 21.8276 5.03288 22.8693V23.1337L2.71963 22.819V17.5471C2.9966 17.5471 3.26722 17.5471 3.53474 17.5471C3.70785 17.5471 3.8495 17.5157 3.87783 17.3205C3.90616 17.1254 3.75821 17.0625 3.53789 17.0593C3.31758 17.0562 3.00913 17.0593 2.74161 17.0593C2.68102 17.0625 2.62063 17.0506 2.56572 17.0248C2.51081 16.999 2.46309 16.9601 2.42687 16.9114C1.78245 16.1119 1.34184 15.1679 1.14281 14.1606C0.815146 12.7661 0.834577 11.3126 1.19944 9.92738C1.3622 9.28956 1.67758 8.70088 2.11844 8.21206C2.90528 7.36857 3.89669 7.1577 5.03288 7.29618V7.55742C5.03288 8.00119 5.03288 8.44182 5.03288 8.88245C5.03736 8.90723 5.03657 8.93267 5.03057 8.95712C5.02458 8.98157 5.01351 9.00449 4.99807 9.02439C4.98264 9.04428 4.96318 9.06069 4.94098 9.07257C4.91878 9.08445 4.89433 9.09152 4.86921 9.09333L3.67643 9.40807C3.45297 9.46472 3.36167 9.57488 3.41203 9.7228C3.46239 9.87073 3.63233 9.90219 3.79285 9.86128C5.47193 9.46762 7.12272 8.96186 8.73416 8.3474C8.89467 8.2813 9.00485 8.30649 9.06779 8.4733L9.08984 8.51107C9.499 9.32308 9.33216 9.81408 8.51071 10.2043L5.74418 11.5168C5.45777 11.6521 5.42947 11.7119 5.53333 12.0141C5.73268 12.5768 5.80992 13.1754 5.75993 13.7703C5.73195 14.196 5.56782 14.6014 5.29183 14.9267C5.01584 15.252 4.64265 15.4799 4.22722 15.5769C4.14854 15.6021 4.06985 15.6147 3.99117 15.6367C3.85269 15.6808 3.75192 15.7657 3.78655 15.9263C3.79214 15.9605 3.8053 15.9931 3.82512 16.0216C3.84494 16.0502 3.87094 16.0739 3.90111 16.0911C3.93129 16.1083 3.9649 16.1185 3.99954 16.121C4.03418 16.1236 4.06894 16.1183 4.10128 16.1057C4.34048 16.0364 4.57338 15.9483 4.80628 15.8633C4.86923 15.8413 4.92586 15.8098 5.02658 15.7626V16.0364C5.02658 16.5526 5.02658 17.0656 5.02658 17.5818C5.02658 17.7549 5.02657 17.9185 5.25633 17.9343C5.42314 17.9343 5.50183 17.8273 5.50183 17.5692C5.50183 16.9145 5.50183 16.2599 5.50183 15.6052C5.50834 15.4899 5.55137 15.3797 5.62462 15.2905C5.86748 15.0022 6.04862 14.6671 6.15689 14.3061C6.26515 13.945 6.29825 13.5656 6.25409 13.1912C6.22261 12.7757 6.12815 12.3666 6.05577 11.9322C6.44604 11.7434 6.87722 11.5451 7.3147 11.3343C7.94417 11.0195 8.57364 10.7048 9.20311 10.39C9.28544 10.3593 9.37367 10.3474 9.46121 10.3554H19.9953C20.1433 10.3554 20.2503 10.2547 20.2282 10.1225C20.2062 9.99032 20.1087 9.93997 20.0206 9.88017C19.9324 9.82037 19.8789 9.88017 19.8034 9.88017H9.67206L9.68466 9.85499ZM8.32814 20.1248C8.10782 20.4616 7.89072 20.7858 7.68299 21.1131C7.58857 21.261 7.56652 21.4121 7.74277 21.5128C7.91902 21.6135 8.01026 21.4939 8.09839 21.3586C8.2662 21.0738 8.45119 20.7995 8.65232 20.5371C8.86881 20.2786 9.11377 20.0453 9.38253 19.8416C9.6532 19.6464 9.87668 19.722 10.0372 20.0178C10.1222 20.1689 10.1662 20.3326 10.2386 20.5057C10.3012 20.6756 10.4278 20.8142 10.5914 20.8918C10.7549 20.9695 10.9424 20.98 11.1136 20.9211C11.223 20.8914 11.3286 20.8492 11.4283 20.7952C12.2183 20.3829 12.8131 19.7283 13.4552 19.1397C13.48 19.0961 13.493 19.0467 13.493 18.9965C13.493 18.9463 13.48 18.8969 13.4552 18.8533C13.4097 18.822 13.3576 18.8018 13.303 18.7942C13.2484 18.7865 13.1927 18.7917 13.1404 18.8092C13.0315 18.8701 12.9337 18.9488 12.8509 19.0421C12.5362 19.3223 12.2403 19.6213 11.9067 19.8793C11.6464 20.0821 11.3671 20.2592 11.0727 20.4081C10.8209 20.534 10.717 20.4679 10.6226 20.2098C10.5848 20.1122 10.5565 20.0147 10.5156 19.9203C10.4691 19.772 10.3866 19.6376 10.2757 19.5288C10.1648 19.4201 10.0287 19.3404 9.8796 19.2968C9.73049 19.2532 9.57291 19.2471 9.42087 19.279C9.26883 19.3109 9.12704 19.3798 9.00801 19.4796C8.95262 19.5285 8.89251 19.5717 8.82859 19.6087C8.74856 19.6411 8.66313 19.6581 8.57679 19.659C8.28072 19.6276 7.98221 19.6276 7.68614 19.659C7.25363 19.7543 6.87561 20.0152 6.63321 20.3859C6.39082 20.7566 6.3033 21.2074 6.3894 21.6419C6.47588 22.0841 6.73137 22.4752 7.10163 22.732C7.47188 22.9888 7.92773 23.0912 8.37224 23.0173C8.63463 22.9714 8.88265 22.8648 9.09653 22.706C9.31041 22.5472 9.4842 22.3407 9.60405 22.1028C9.72391 21.8649 9.78652 21.6023 9.78685 21.3359C9.78719 21.0695 9.72524 20.8068 9.60598 20.5686L9.19681 20.7417C9.41082 21.5506 9.24406 22.0793 8.69328 22.3941C8.45636 22.5303 8.18099 22.5842 7.91021 22.5474C7.63943 22.5106 7.38849 22.3851 7.19652 22.1906C7.00455 21.9962 6.88241 21.7436 6.84913 21.4723C6.81586 21.2011 6.8733 20.9265 7.01257 20.6913C7.1394 20.4657 7.33685 20.2881 7.57457 20.1857C7.81229 20.0833 8.07707 20.0619 8.32814 20.1248ZM13.6598 7.5763H19.8663C19.9261 7.5763 20.0017 7.5763 20.0395 7.5763C20.0772 7.5763 20.244 7.42522 20.2377 7.35913C20.2314 7.29304 20.1244 7.17029 20.0363 7.11993C19.9446 7.09215 19.8476 7.08569 19.753 7.10104H7.51933C7.44379 7.10104 7.35561 7.07901 7.3021 7.10104C7.2486 7.12308 7.10386 7.25212 7.11016 7.32136C7.11645 7.39061 7.22027 7.50076 7.30525 7.56056C7.39023 7.62036 7.44694 7.56056 7.52248 7.56056L13.6598 7.5763ZM13.6849 6.18831H19.8222C19.8883 6.18831 19.9702 6.21349 20.0174 6.18831C20.0646 6.16313 20.2314 6.04668 20.2345 5.97114C20.2377 5.89561 20.1276 5.78859 20.0426 5.7225C19.9576 5.6564 19.9167 5.7225 19.8506 5.7225H7.49097C7.40914 5.7225 7.30843 5.7225 7.25807 5.75397C7.21763 5.78416 7.18387 5.8224 7.15895 5.86628C7.13403 5.91015 7.11851 5.95872 7.11331 6.00891C7.11331 6.07815 7.22972 6.15369 7.3084 6.2009C7.38708 6.24811 7.43748 6.2009 7.50357 6.2009L13.6849 6.18831ZM13.6598 13.1125H19.838C19.9041 13.1125 19.9891 13.1314 20.0332 13.1125C20.0772 13.0936 20.2283 12.9614 20.2408 12.8702C20.2534 12.7789 20.159 12.6435 20.0079 12.6373H7.49412C7.43432 12.6373 7.36192 12.6184 7.31785 12.6373C7.27379 12.6561 7.11016 12.7726 7.11331 12.8418C7.1238 12.8941 7.14446 12.9438 7.17416 12.9881C7.20386 13.0324 7.24204 13.0704 7.28643 13.0999C7.33993 13.1377 7.44379 13.1157 7.52248 13.1157L13.6598 13.1125ZM13.6598 4.12364H9.99624C9.68151 4.12364 9.5336 4.19918 9.54304 4.37543C9.55249 4.55168 9.68151 4.61148 9.99309 4.61148H17.3893C17.4692 4.62178 17.5503 4.61205 17.6254 4.58316C17.6646 4.56211 17.6989 4.533 17.7261 4.49774C17.7532 4.46247 17.7725 4.42186 17.7828 4.37858C17.7732 4.33173 17.7543 4.28726 17.7273 4.24781C17.7003 4.20835 17.6656 4.17469 17.6254 4.14882C17.5687 4.1079 17.4712 4.12364 17.3925 4.12364H13.6598ZM16.1777 11.7245H19.8222C19.9009 11.7245 20.0016 11.7403 20.0583 11.7025C20.148 11.6511 20.2137 11.5662 20.2408 11.4664C20.2408 11.4003 20.137 11.3091 20.0614 11.2556C19.9991 11.2328 19.9319 11.2263 19.8663 11.2367H12.5833C12.5246 11.2335 12.4659 11.2335 12.4072 11.2367C12.2624 11.2524 12.168 11.3248 12.168 11.4759C12.1662 11.5075 12.171 11.5391 12.1822 11.5687C12.1934 11.5984 12.2106 11.6253 12.2329 11.6479C12.2551 11.6704 12.2819 11.688 12.3113 11.6996C12.3408 11.7112 12.3724 11.7164 12.404 11.7151C12.4701 11.7151 12.5362 11.7151 12.6022 11.7151L16.1777 11.7245ZM16.2248 8.4733H12.5582C12.4984 8.4733 12.4229 8.45127 12.3851 8.4733C12.3473 8.49533 12.1899 8.60863 12.1836 8.68417C12.1773 8.7597 12.2686 8.86986 12.3441 8.93281C12.4197 8.99576 12.4858 8.95169 12.5582 8.95169H19.8474C19.9259 8.96328 20.0061 8.95462 20.0803 8.92652C20.1559 8.87301 20.2503 8.766 20.2377 8.69676C20.2251 8.62752 20.1213 8.52995 20.0395 8.47644C19.9576 8.42293 19.9104 8.47644 19.8443 8.47644L16.2248 8.4733ZM10.503 13.9969H7.49727C7.43118 13.9969 7.34617 13.9749 7.30525 13.9969C7.26434 14.0189 7.11016 14.1574 7.11016 14.2393C7.11016 14.3211 7.23917 14.3998 7.32415 14.4659C7.35563 14.491 7.42171 14.4659 7.47522 14.4659H13.5244C13.5779 14.4659 13.644 14.4848 13.6755 14.4659C13.7604 14.4029 13.877 14.3242 13.8927 14.2393C13.9084 14.1543 13.7983 14.063 13.7196 14.0001C13.6409 13.9371 13.5936 13.9843 13.5275 13.9843L10.503 13.9969ZM13.9053 20.7071C13.9053 20.4899 13.7668 20.3546 13.6125 20.3924C12.9957 20.6022 12.382 20.8246 11.7714 21.0596C11.7395 21.068 11.71 21.0837 11.6853 21.1055C11.6606 21.1273 11.6413 21.1546 11.6291 21.1852C11.6168 21.2158 11.6119 21.2489 11.6148 21.2817C11.6176 21.3146 11.6281 21.3463 11.6454 21.3743C11.6552 21.4053 11.6716 21.4339 11.6935 21.4579C11.7154 21.4819 11.7422 21.5009 11.7722 21.5135C11.8021 21.5261 11.8345 21.532 11.867 21.5308C11.8995 21.5296 11.9312 21.5213 11.9602 21.5065C12.5519 21.2956 13.1468 21.0848 13.7385 20.8613C13.8109 20.8487 13.8675 20.7512 13.9053 20.7165V20.7071Z" fill="white"/>
<path d="M15.6768 18.8785C15.682 17.7418 15.9198 16.6182 16.3755 15.5769C16.4321 15.451 16.4951 15.3975 16.6399 15.4195C17.9594 15.5757 19.2967 15.3735 20.5111 14.8341C20.5658 14.8085 20.6254 14.7953 20.6858 14.7953C20.7461 14.7953 20.8057 14.8085 20.8604 14.8341C21.975 15.3223 23.1898 15.5381 24.4043 15.4636H24.5365C24.9331 15.4164 24.9456 15.4101 25.0841 15.7783C25.9906 18.1766 25.9623 20.5308 24.6561 22.7812C23.7969 24.2636 22.4341 25.0914 20.7943 25.4911C20.7155 25.5082 20.6339 25.5082 20.5551 25.4911C17.946 24.8301 16.4101 23.1463 15.8499 20.5371C15.808 20.3515 15.7786 20.1633 15.7617 19.9738C15.7271 19.5961 15.7051 19.2373 15.6768 18.8785ZM16.5171 19.4639C16.5517 19.7283 16.5738 20.0934 16.643 20.427C17.0805 22.5955 18.3426 23.9929 20.5048 24.5406C20.6086 24.5623 20.7158 24.5623 20.8195 24.5406C21.5738 24.3871 22.2808 24.0569 22.8827 23.5771C23.4845 23.0972 23.964 22.4815 24.2816 21.7804C24.7713 20.6965 24.9416 19.4955 24.7725 18.3183C24.6947 17.6304 24.4943 16.962 24.1809 16.3449C24.1116 16.2095 24.0361 16.1088 23.8661 16.1403C22.8508 16.3118 21.8072 16.1679 20.8762 15.728C20.8079 15.6953 20.7331 15.6783 20.6574 15.6783C20.5817 15.6783 20.5069 15.6953 20.4386 15.728C19.5402 16.1494 18.5366 16.2941 17.5557 16.1434C17.4685 16.1176 17.3747 16.1269 17.2941 16.1692C17.2136 16.2115 17.1528 16.2836 17.1246 16.37C16.6828 17.3396 16.4747 18.3993 16.5171 19.4639Z" fill="white"/>
<path d="M5.06138 5.20612H0.290039V4.63015C0.290039 4.01956 0.290039 3.40898 0.290039 2.79839C0.309079 2.2241 0.535807 1.67622 0.92819 1.25646C1.32057 0.8367 1.85194 0.573563 2.42364 0.515894C2.99533 0.458224 3.56849 0.609939 4.0368 0.942879C4.50511 1.27582 4.83674 1.76737 4.97009 2.32628C5.02303 2.57032 5.04941 2.81935 5.04878 3.06906C5.06766 3.77407 5.06138 4.47908 5.06138 5.20612Z" fill="white"/>
<path d="M24.376 19.2624C24.3955 20.4954 23.9773 21.6953 23.1957 22.649C22.5637 23.3661 21.719 23.8624 20.7849 24.0653C20.7061 24.0805 20.6248 24.0751 20.5488 24.0496C18.6604 23.5586 17.5368 22.328 17.1371 20.4396C16.8713 19.231 16.9913 17.9695 17.4802 16.8327C17.5179 16.7414 17.5368 16.6407 17.6879 16.6627C18.6521 16.769 19.6274 16.626 20.5205 16.2473C20.6225 16.2125 20.7332 16.2125 20.8352 16.2473C21.7333 16.6276 22.7145 16.7696 23.6836 16.6596C23.822 16.6407 23.841 16.7288 23.8756 16.8138C24.2078 17.5873 24.3781 18.4206 24.376 19.2624ZM20.6716 21.5821L20.5709 21.453C20.2561 21.0407 19.9414 20.6284 19.6456 20.2161C19.5102 20.0367 19.3623 20.0084 19.2396 20.1311C19.1168 20.2539 19.1671 20.3829 19.2584 20.5057L20.4072 22.0447C20.6401 22.3595 20.7755 22.3594 20.9737 22.0132C21.6032 20.9452 22.24 19.8783 22.8841 18.8124C22.9156 18.762 22.9691 18.7054 22.9628 18.6582C22.9616 18.558 22.9261 18.4614 22.8621 18.3843C22.8086 18.3434 22.6701 18.3843 22.5914 18.4127C22.5128 18.441 22.4939 18.5354 22.453 18.6047L20.6716 21.5821Z" fill="white"/>
</svg>
