<svg width="33" height="34" viewBox="0 0 33 34" fill="none" xmlns="http://www.w3.org/2000/svg">
<path d="M8.95583 33.225C8.95583 32.8079 8.95583 32.3853 8.95583 31.9795C8.94588 31.8031 8.97359 31.6265 9.03711 31.4616C9.10064 31.2967 9.19853 31.1473 9.32428 31.0231C9.45003 30.8989 9.60076 30.803 9.76645 30.7415C9.93215 30.6801 10.109 30.6546 10.2853 30.6668H12.6532C12.6812 30.6605 12.7083 30.6511 12.7343 30.6389C12.7858 29.9851 12.9942 29.3534 13.3417 28.7972C13.7273 28.175 14.2951 27.6864 14.9678 27.3978C15.0584 27.3723 15.1366 27.3149 15.188 27.2362C15.2395 27.1574 15.2607 27.0627 15.2477 26.9696C15.2477 22.2359 15.2477 17.504 15.2477 12.7739C15.2536 12.6914 15.2378 12.6087 15.202 12.5341C15.1662 12.4595 15.1115 12.3955 15.0434 12.3485C14.7654 12.1333 14.5401 11.8576 14.3845 11.5425C14.2288 11.2273 14.1469 10.8808 14.1449 10.5293H18.8778C18.8819 10.8748 18.8059 11.2165 18.6559 11.5278C18.5058 11.839 18.2858 12.1113 18.013 12.3233C17.9376 12.3776 17.8769 12.4497 17.8363 12.5333C17.7958 12.6168 17.7767 12.7092 17.7807 12.8019C17.7807 17.5226 17.7807 22.2442 17.7807 26.9668C17.7664 27.0534 17.7829 27.1423 17.8274 27.218C17.8719 27.2937 17.9415 27.3514 18.0242 27.381C18.6222 27.6306 19.1428 28.0354 19.532 28.5535C19.9212 29.0716 20.165 29.6843 20.2381 30.3282C20.2381 30.4317 20.2773 30.5325 20.3025 30.6584H22.6731C23.5631 30.6584 24.0585 31.1482 24.0725 32.0327C24.0725 32.4273 24.0725 32.8219 24.0725 33.2166L8.95583 33.225Z" fill="white"/>
<path d="M25.6426 12.5248C25.5653 12.638 25.4953 12.7332 25.4377 12.8339C25.4047 12.8884 25.385 12.95 25.3802 13.0136C25.3816 13.0647 25.3994 13.114 25.4309 13.1543C25.4624 13.1945 25.506 13.2236 25.5552 13.2373C25.6045 13.251 25.6568 13.2485 25.7046 13.2302C25.7523 13.2119 25.793 13.1788 25.8205 13.1358C25.9409 12.9561 26.0613 12.7764 26.1799 12.5966C26.1929 12.5716 26.2129 12.551 26.2375 12.5372C26.2621 12.5235 26.2902 12.5173 26.3183 12.5194C26.498 12.5194 26.6777 12.5194 26.8575 12.5194C26.8841 12.5174 26.9108 12.5234 26.9341 12.5365C26.9575 12.5496 26.9764 12.5693 26.9886 12.593C27.0983 12.7728 27.2133 12.9345 27.3283 13.1052C27.3435 13.1371 27.3653 13.1653 27.3923 13.188C27.4193 13.2107 27.4509 13.2273 27.4849 13.2367C27.5189 13.2461 27.5545 13.2481 27.5893 13.2426C27.6242 13.237 27.6574 13.2241 27.6868 13.2046C27.7162 13.1851 27.741 13.1595 27.7597 13.1295C27.7783 13.0996 27.7903 13.066 27.7948 13.031C27.7993 12.996 27.7963 12.9605 27.7859 12.9268C27.7754 12.8931 27.7579 12.862 27.7345 12.8356C27.6698 12.7368 27.6033 12.6398 27.5296 12.5301H27.6123C27.8136 12.5301 28.0148 12.5086 28.2161 12.5032C28.25 12.5075 28.2822 12.5205 28.3095 12.5409C28.7375 12.8186 29.1372 13.1376 29.5028 13.4934C30.7352 14.6729 31.6707 16.1275 32.2327 17.7381C32.4864 18.4353 32.6118 19.1726 32.6029 19.9144C32.5976 20.4647 32.4751 21.0075 32.2434 21.5066C31.918 22.1739 31.3516 22.6929 30.6584 22.9587C30.1376 23.1682 29.5855 23.2897 29.0248 23.3181C28.6798 23.3397 28.3329 23.3523 27.9879 23.3541C26.9503 23.3541 25.9146 23.3541 24.8806 23.3541C24.2454 23.3637 23.6118 23.2869 22.9972 23.1258C22.4352 22.9847 21.9179 22.7041 21.4931 22.31C21.031 21.854 20.729 21.2608 20.6322 20.6189C20.4756 19.6396 20.5784 18.6365 20.9305 17.7094C21.3791 16.437 22.0632 15.2604 22.9469 14.241C23.492 13.588 24.1281 13.0167 24.8357 12.5445C24.8848 12.51 24.9453 12.4958 25.0047 12.505C25.1628 12.5194 25.3227 12.5194 25.4827 12.5248H25.6426ZM28.9925 19.3699C28.9805 19.2395 28.9613 19.1099 28.9349 18.9817C28.7642 18.2934 28.3077 17.8549 27.677 17.5656C27.321 17.4088 26.9355 17.3304 26.5466 17.3356C26.2684 17.3402 25.9979 17.2445 25.7846 17.066C25.7369 17.0341 25.6968 16.992 25.6672 16.9429C25.6375 16.8937 25.6191 16.8386 25.6131 16.7815C25.6071 16.7244 25.6137 16.6667 25.6325 16.6125C25.6512 16.5582 25.6817 16.5088 25.7217 16.4676C25.7844 16.3974 25.857 16.3368 25.9374 16.2879C26.1148 16.1868 26.3138 16.1294 26.5178 16.1203C26.7219 16.1112 26.9251 16.1508 27.1109 16.2358C27.2322 16.2743 27.339 16.3487 27.4173 16.4491C27.4955 16.5495 27.5416 16.6712 27.5494 16.7982C27.5563 16.8924 27.5821 16.9842 27.6254 17.0681C27.6686 17.152 27.7284 17.2263 27.801 17.2866C27.8737 17.3468 27.9578 17.3918 28.0483 17.4187C28.1387 17.4457 28.2337 17.4541 28.3275 17.4434C28.5131 17.426 28.6847 17.3372 28.8061 17.1957C28.9275 17.0542 28.9891 16.8711 28.9781 16.685C28.9719 16.3466 28.8697 16.0169 28.6834 15.7344C28.38 15.2747 27.9182 14.9427 27.3858 14.8017C27.3553 14.7963 27.3268 14.7825 27.3037 14.7619C27.2805 14.7413 27.2635 14.7146 27.2547 14.6849C27.2069 14.5408 27.1147 14.4156 26.9914 14.3272C26.868 14.2387 26.7199 14.1916 26.5681 14.1925C26.4148 14.1962 26.2663 14.2472 26.1431 14.3386C26.0199 14.43 25.928 14.5572 25.8798 14.7028C25.8712 14.7229 25.8587 14.741 25.8429 14.7561C25.8272 14.7713 25.8086 14.7831 25.7882 14.7909C25.4414 14.8983 25.1194 15.0736 24.8411 15.3067C24.5463 15.5479 24.3344 15.8753 24.2351 16.243C24.1359 16.6108 24.1542 17.0004 24.2876 17.3572C24.559 18.0418 25.0927 18.4354 25.7738 18.6565C26.1003 18.738 26.4348 18.7832 26.7712 18.7912C27.0164 18.8114 27.2456 18.9215 27.4146 19.1003C27.4528 19.1341 27.4835 19.1755 27.5044 19.222C27.5254 19.2685 27.5362 19.3189 27.5362 19.3699C27.5362 19.4209 27.5254 19.4713 27.5044 19.5178C27.4835 19.5642 27.4528 19.6057 27.4146 19.6395C27.3535 19.7049 27.2833 19.7612 27.2061 19.8066C26.925 19.9685 26.5925 20.0167 26.277 19.9414C26.0751 19.9041 25.8881 19.8099 25.7379 19.67C25.6341 19.5475 25.5775 19.392 25.5779 19.2315C25.5415 19.06 25.4437 18.9077 25.3028 18.8033C25.162 18.6989 24.9879 18.6496 24.8132 18.6646C24.6385 18.6796 24.4753 18.7579 24.3543 18.8849C24.2334 19.0118 24.163 19.1785 24.1564 19.3537C24.1516 19.7122 24.2557 20.0637 24.4547 20.3619C24.7653 20.8199 25.2293 21.152 25.763 21.2982C25.8134 21.3144 25.8511 21.3269 25.8726 21.388C25.9167 21.5349 26.0066 21.6638 26.1291 21.7559C26.2517 21.8481 26.4004 21.8986 26.5538 21.9002C26.7089 21.8998 26.8601 21.8509 26.9861 21.7604C27.112 21.6698 27.2066 21.5422 27.2564 21.3952C27.2647 21.3748 27.2772 21.3563 27.293 21.3408C27.3087 21.3254 27.3275 21.3133 27.3481 21.3054C27.69 21.2042 28.0071 21.0328 28.279 20.8022C28.4926 20.6276 28.6666 20.4096 28.7896 20.1627C28.9126 19.9158 28.9817 19.6455 28.9925 19.3699Z" fill="white"/>
<path d="M25.9787 11.0745C25.763 11.0745 25.5654 11.0745 25.3677 11.0745C25.3531 11.0724 25.3391 11.0667 25.3272 11.0579C25.3153 11.0491 25.3057 11.0376 25.2994 11.0242C25.0747 10.3341 24.8537 9.64401 24.6309 8.95213C24.6309 8.95213 24.6309 8.95213 24.6309 8.93237C24.8285 8.99347 25.0244 9.05637 25.2221 9.11208C25.5115 9.20013 25.8008 9.29178 26.0955 9.36906C26.4101 9.43986 26.7378 9.42747 27.0462 9.33312C27.4577 9.21451 27.8657 9.08332 28.2754 8.95573L28.3796 8.92517L28.2467 9.4643C28.1191 9.96569 27.9897 10.4671 27.8657 10.9703C27.8441 11.0583 27.81 11.0889 27.7183 11.0853C27.5386 11.0763 27.3715 11.0853 27.1792 11.0853C27.1953 11.0404 27.2061 11.0062 27.2187 10.9721C27.3193 10.7151 27.4236 10.4617 27.5224 10.2047C27.5424 10.1549 27.5447 10.0998 27.529 10.0484C27.5133 9.99713 27.4805 9.95273 27.4361 9.92257C27.3971 9.89368 27.3499 9.87808 27.3014 9.87808C27.2528 9.87808 27.2056 9.89368 27.1666 9.92257C27.1222 9.95829 27.0876 10.0047 27.066 10.0574C26.9348 10.3736 26.809 10.6917 26.6832 11.0116C26.6634 11.0637 26.6419 11.0943 26.5754 11.0943C26.5089 11.0943 26.4873 11.0655 26.4657 11.0116C26.3375 10.6881 26.2081 10.364 26.0776 10.0394C26.0626 9.99501 26.0344 9.95628 25.9969 9.92834C25.9593 9.9004 25.9141 9.88459 25.8673 9.88303C25.8237 9.88015 25.7802 9.88936 25.7415 9.90966C25.7028 9.92995 25.6704 9.96054 25.648 9.99804C25.6248 10.0349 25.6116 10.0771 25.6097 10.1206C25.6078 10.1641 25.6173 10.2074 25.6373 10.246C25.7361 10.4887 25.8331 10.7331 25.9302 10.9757C25.9499 10.9918 25.9607 11.0242 25.9787 11.0745Z" fill="white"/>
<path d="M26.5847 11.5651H28.0224C28.0726 11.5635 28.122 11.5778 28.1636 11.6059C28.2052 11.6339 28.2369 11.6744 28.2542 11.7215C28.2701 11.7673 28.2708 11.817 28.2562 11.8633C28.2417 11.9096 28.2126 11.9499 28.1734 11.9785C28.1259 12.0101 28.0705 12.0275 28.0135 12.0288H25.7545H25.1884C25.0087 12.0288 24.9188 11.9497 24.917 11.8023C24.9152 11.655 25.0177 11.5723 25.1884 11.5723H26.5901L26.5847 11.5651Z" fill="white"/>
<path d="M28.9928 19.3699C28.9853 19.645 28.9196 19.9153 28.8 20.1631C28.6804 20.4109 28.5097 20.6306 28.2991 20.8076C28.0272 21.0382 27.7101 21.2096 27.3682 21.3108C27.3476 21.3187 27.3289 21.3308 27.3131 21.3462C27.2974 21.3617 27.2849 21.3802 27.2766 21.4007C27.2267 21.5476 27.1322 21.6753 27.0062 21.7658C26.8802 21.8564 26.7291 21.9053 26.5739 21.9056C26.4198 21.9058 26.2698 21.8565 26.1458 21.7649C26.0219 21.6734 25.9307 21.5444 25.8856 21.3971C25.864 21.336 25.8263 21.3234 25.776 21.3072C25.2422 21.161 24.7783 20.829 24.4677 20.3709C24.2686 20.0727 24.1646 19.7212 24.1693 19.3627C24.1759 19.1875 24.2464 19.0208 24.3673 18.8939C24.4883 18.767 24.6514 18.6886 24.8261 18.6736C25.0008 18.6586 25.175 18.7079 25.3158 18.8123C25.4566 18.9168 25.5545 19.069 25.5909 19.2405C25.5904 19.4011 25.6471 19.5565 25.7508 19.679C25.901 19.819 26.0881 19.9131 26.29 19.9504C26.6055 20.0257 26.9379 19.9775 27.2191 19.8156C27.2963 19.7703 27.3665 19.714 27.4276 19.6485C27.4658 19.6148 27.4964 19.5733 27.5174 19.5268C27.5384 19.4803 27.5492 19.4299 27.5492 19.3789C27.5492 19.3279 27.5384 19.2775 27.5174 19.231C27.4964 19.1846 27.4658 19.1431 27.4276 19.1094C27.2586 18.9305 27.0294 18.8204 26.7842 18.8003C26.4477 18.7922 26.1132 18.747 25.7868 18.6655C25.1056 18.4462 24.5719 18.0509 24.3005 17.3662C24.1671 17.0094 24.1488 16.6198 24.2481 16.2521C24.3474 15.8843 24.5593 15.5569 24.8541 15.3157C25.1324 15.0826 25.4544 14.9073 25.8011 14.7999C25.8215 14.7921 25.8401 14.7803 25.8559 14.7652C25.8716 14.75 25.8842 14.7319 25.8928 14.7119C25.9409 14.5662 26.0329 14.439 26.1561 14.3476C26.2793 14.2563 26.4278 14.2052 26.5811 14.2015C26.7329 14.2006 26.881 14.2477 27.0043 14.3362C27.1277 14.4246 27.2198 14.5499 27.2676 14.6939C27.2765 14.7236 27.2934 14.7503 27.3166 14.7709C27.3398 14.7916 27.3682 14.8053 27.3988 14.8107C27.9311 14.9517 28.393 15.2837 28.6963 15.7434C28.8826 16.026 28.9849 16.3557 28.991 16.6941C29.0021 16.8802 28.9404 17.0633 28.8191 17.2048C28.6977 17.3462 28.5261 17.4351 28.3405 17.4524C28.2467 17.4631 28.1517 17.4547 28.0612 17.4277C27.9708 17.4008 27.8867 17.3558 27.814 17.2956C27.7413 17.2353 27.6816 17.161 27.6383 17.0771C27.5951 16.9932 27.5692 16.9014 27.5623 16.8073C27.5545 16.6802 27.5084 16.5585 27.4302 16.4581C27.3519 16.3577 27.2451 16.2834 27.1238 16.2448C26.9381 16.1599 26.7348 16.1203 26.5308 16.1293C26.3268 16.1384 26.1278 16.1958 25.9503 16.2969C25.87 16.3459 25.7973 16.4064 25.7346 16.4766C25.6946 16.5178 25.6642 16.5672 25.6454 16.6215C25.6266 16.6757 25.62 16.7335 25.626 16.7906C25.632 16.8476 25.6505 16.9027 25.6801 16.9519C25.7098 17.001 25.7499 17.0431 25.7975 17.075C26.0109 17.2536 26.2814 17.3492 26.5595 17.3446C26.9485 17.3394 27.334 17.4178 27.6899 17.5746C28.3135 17.864 28.7682 18.3025 28.9479 18.9907C28.9698 19.1162 28.9848 19.2428 28.9928 19.3699ZM25.1326 16.7246C25.1359 16.568 25.1786 16.4148 25.2568 16.2791C25.335 16.1433 25.4462 16.0296 25.5801 15.9483C25.8428 15.7638 26.1513 15.6556 26.4717 15.6356C26.792 15.6156 27.1116 15.6846 27.3952 15.835C27.5782 15.909 27.736 16.0344 27.8492 16.1961C27.9624 16.3578 28.0263 16.5489 28.0332 16.7462C28.0342 16.777 28.0416 16.8072 28.0549 16.8351C28.0681 16.8629 28.087 16.8877 28.1103 16.9079C28.1336 16.9282 28.1607 16.9434 28.1901 16.9527C28.2195 16.9619 28.2505 16.9651 28.2812 16.9618C28.3428 16.959 28.4009 16.9319 28.4426 16.8865C28.4844 16.841 28.5065 16.7809 28.504 16.7192C28.5023 16.3982 28.3834 16.0889 28.1697 15.8494C27.8816 15.5217 27.4918 15.3002 27.0627 15.2204C26.883 15.1791 26.8327 15.1198 26.8165 14.9311C26.8194 14.8986 26.8154 14.8658 26.8049 14.8349C26.7944 14.804 26.7776 14.7756 26.7556 14.7515C26.7335 14.7274 26.7067 14.7082 26.6768 14.6951C26.6469 14.6819 26.6146 14.6751 26.582 14.6751C26.5493 14.6751 26.5171 14.6819 26.4872 14.6951C26.4573 14.7082 26.4305 14.7274 26.4084 14.7515C26.3864 14.7756 26.3696 14.804 26.3591 14.8349C26.3486 14.8658 26.3446 14.8986 26.3475 14.9311C26.3331 15.1108 26.281 15.1791 26.0995 15.2204C25.7229 15.2931 25.376 15.4749 25.102 15.7434C24.9032 15.9181 24.7622 16.1493 24.698 16.4062C24.6338 16.663 24.6494 16.9333 24.7426 17.1811C24.8865 17.5571 25.1688 17.8638 25.5316 18.0383C25.8651 18.2093 26.2351 18.2968 26.6099 18.2935C27.0023 18.2893 27.3839 18.4229 27.6881 18.6709C27.796 18.7549 27.8833 18.8624 27.9434 18.9853C28.0034 19.1081 28.0346 19.2431 28.0346 19.3798C28.0346 19.5166 28.0034 19.6515 27.9434 19.7744C27.8833 19.8972 27.796 20.0048 27.6881 20.0888C27.4788 20.2631 27.2301 20.3837 26.9635 20.4401C26.697 20.4965 26.4208 20.4869 26.1588 20.4123C25.6089 20.2757 25.1901 19.9917 25.1434 19.3574C25.1362 19.2971 25.106 19.2419 25.0591 19.2034C25.0122 19.1648 24.9522 19.1459 24.8917 19.1505C24.8311 19.1552 24.7747 19.183 24.7342 19.2283C24.6937 19.2735 24.6723 19.3326 24.6743 19.3933C24.6742 19.6219 24.7363 19.8461 24.8541 20.0421C24.9906 20.2599 25.1705 20.4474 25.3826 20.5927C25.5947 20.738 25.8344 20.8381 26.0869 20.8867C26.2972 20.937 26.3349 20.9783 26.3582 21.1958C26.3582 21.2578 26.3829 21.3172 26.4267 21.361C26.4705 21.4048 26.5299 21.4294 26.5919 21.4294C26.6538 21.4294 26.7132 21.4048 26.7571 21.361C26.8009 21.3172 26.8255 21.2578 26.8255 21.1958C26.8435 20.9909 26.8866 20.9406 27.0897 20.8921C27.4009 20.8255 27.6924 20.6877 27.9415 20.4895C28.1096 20.3671 28.248 20.2084 28.3463 20.0251C28.4446 19.8419 28.5004 19.6388 28.5094 19.431C28.5202 18.865 28.2327 18.4516 27.7708 18.1533C27.4167 17.9299 27.0051 17.8143 26.5865 17.8208C26.2711 17.8278 25.9599 17.747 25.6879 17.5872C25.5269 17.506 25.3904 17.3832 25.2928 17.2315C25.1952 17.0798 25.1399 16.9048 25.1326 16.7246Z" fill="white"/>
<path d="M17.2797 4.54541L18.1194 5.10518C18.698 4.80846 19.2965 4.55222 19.9106 4.3383C20.9966 4.03883 22.0686 4.24594 23.0901 4.67136C23.885 5.00442 24.6575 5.38785 25.4328 5.75729C25.4931 5.79554 25.5645 5.81247 25.6355 5.80536C25.7065 5.79826 25.7731 5.76755 25.8246 5.71812C25.963 5.61371 26.1215 5.53906 26.2902 5.49886C26.4588 5.45867 26.6339 5.45379 26.8045 5.48455C26.9751 5.5153 27.1375 5.58102 27.2815 5.67757C27.4255 5.77412 27.5479 5.89942 27.6411 6.04558C27.7328 6.18958 27.7947 6.35047 27.8232 6.51877C27.8517 6.68707 27.8462 6.85936 27.8071 7.02551C27.768 7.19166 27.696 7.3483 27.5954 7.4862C27.4948 7.62409 27.3676 7.74045 27.2213 7.82843C27.0736 7.92028 26.908 7.9797 26.7356 8.00279C26.5632 8.02588 26.3879 8.01212 26.2212 7.96237C26.0545 7.91263 25.9002 7.82806 25.7687 7.71427C25.6371 7.60047 25.5312 7.46003 25.458 7.30225C25.4071 7.20121 25.3284 7.11676 25.2313 7.05875C24.3916 6.66132 23.552 6.25829 22.7123 5.88884C22.0055 5.55466 21.2187 5.42661 20.4424 5.5194C19.8571 5.5943 19.3135 5.86219 18.8974 6.28069C18.821 6.36062 18.7779 6.46674 18.7771 6.57736C18.7991 6.89073 18.7563 7.20526 18.6515 7.50138C18.5466 7.79751 18.382 8.06889 18.1677 8.29865C17.9535 8.5284 17.6943 8.7116 17.4062 8.83687C17.1181 8.96214 16.8074 9.0268 16.4932 9.0268C16.1791 9.0268 15.8683 8.96214 15.5802 8.83687C15.2922 8.7116 15.033 8.5284 14.8187 8.29865C14.6045 8.06889 14.4398 7.79751 14.335 7.50138C14.2302 7.20526 14.1874 6.89073 14.2093 6.57736C14.2047 6.46674 14.1588 6.36186 14.0806 6.28347C13.213 5.44382 12.1746 5.34027 11.0774 5.63694C10.5296 5.80479 9.9938 6.00957 9.47368 6.24989C9.07344 6.42062 8.69277 6.63613 8.29813 6.80965C7.92311 6.94194 7.59844 7.18742 7.36892 7.51216C7.27747 7.64795 7.1584 7.76295 7.01951 7.84961C6.88061 7.93628 6.72498 7.99266 6.56281 8.01511C6.40064 8.03756 6.23556 8.02556 6.07834 7.97988C5.92112 7.93421 5.77531 7.85592 5.65041 7.75007C5.38494 7.54812 5.20887 7.25045 5.15972 6.92054C5.11057 6.59062 5.19221 6.25457 5.3873 5.98401C5.48319 5.84921 5.60499 5.73486 5.74556 5.64764C5.88614 5.56042 6.04268 5.50208 6.20605 5.47603C6.36942 5.44997 6.53635 5.45671 6.69708 5.49587C6.85781 5.53504 7.00913 5.60584 7.1422 5.70413C7.20256 5.75858 7.27932 5.79141 7.36038 5.79749C7.44144 5.80357 7.52224 5.78255 7.59004 5.73771C8.52766 5.31229 9.45129 4.84207 10.4197 4.49782C10.9869 4.27384 11.5947 4.17109 12.204 4.19616C12.8133 4.22122 13.4106 4.37356 13.9575 4.64336C14.2374 4.7889 14.5172 4.98763 14.7971 5.15836L15.6676 4.5818L15.3373 4.16756C15.168 3.98629 15.0573 3.75811 15.0199 3.5129C14.9824 3.26769 15.0199 3.0169 15.1274 2.79334C15.5164 2.01807 15.9671 1.27918 16.4037 0.5235L16.538 0.503906C16.5716 0.568279 16.5996 0.63265 16.6388 0.694224C16.9914 1.25399 17.3777 1.78857 17.694 2.37352C18.2089 3.28874 18.083 3.82611 17.2797 4.54541Z" fill="white"/>
<path d="M5.3716 12.5248C5.29433 12.638 5.22426 12.7332 5.16675 12.8339C5.13374 12.8884 5.11402 12.95 5.10923 13.0136C5.11063 13.0647 5.12841 13.114 5.1599 13.1543C5.1914 13.1945 5.23498 13.2236 5.28425 13.2373C5.33351 13.251 5.38585 13.2485 5.4336 13.2302C5.48135 13.2119 5.52197 13.1788 5.54952 13.1358C5.66992 12.9561 5.79033 12.7764 5.90894 12.5966C5.92189 12.5716 5.94195 12.551 5.96655 12.5372C5.99115 12.5235 6.01922 12.5173 6.04732 12.5194C6.22703 12.5194 6.40675 12.5194 6.58646 12.5194C6.61314 12.5174 6.63983 12.5234 6.66315 12.5365C6.68648 12.5496 6.7054 12.5693 6.71765 12.593C6.82727 12.7728 6.94231 12.9345 7.05733 13.1052C7.07248 13.1371 7.09429 13.1653 7.1213 13.188C7.14831 13.2107 7.17988 13.2273 7.21387 13.2367C7.24787 13.2461 7.28351 13.2481 7.31834 13.2426C7.35318 13.237 7.3864 13.2241 7.41579 13.2046C7.44518 13.1851 7.47003 13.1595 7.48866 13.1295C7.5073 13.0996 7.51929 13.066 7.52381 13.031C7.52833 12.996 7.52527 12.9605 7.51486 12.9268C7.50445 12.8931 7.48694 12.862 7.46348 12.8356C7.39878 12.7368 7.33226 12.6398 7.25858 12.5301H7.34129C7.54257 12.5301 7.74382 12.5086 7.9451 12.5032C7.97898 12.5075 8.01118 12.5205 8.03855 12.5409C8.46652 12.8186 8.86618 13.1376 9.23182 13.4934C10.4642 14.6729 11.3997 16.1275 11.9617 17.7381C12.2154 18.4353 12.3408 19.1726 12.3319 19.9144C12.3266 20.4647 12.2041 21.0075 11.9724 21.5066C11.647 22.1739 11.0806 22.6929 10.3874 22.9587C9.86656 23.1682 9.31449 23.2897 8.7538 23.3181C8.40876 23.3397 8.06191 23.3523 7.71686 23.3541C6.67932 23.3541 5.64357 23.3541 4.60962 23.3541C3.97438 23.3637 3.34079 23.2869 2.72624 23.1258C2.1642 22.9847 1.64687 22.7041 1.22207 22.31C0.759994 21.854 0.45798 21.2608 0.361238 20.6189C0.204602 19.6396 0.307447 18.6365 0.659545 17.7094C1.10815 16.437 1.79217 15.2604 2.67591 14.241C3.22103 13.588 3.85712 13.0167 4.56469 12.5445C4.61376 12.51 4.67435 12.4958 4.73366 12.505C4.8918 12.5194 5.05173 12.5194 5.21168 12.5248H5.3716ZM8.72147 19.3699C8.70955 19.2395 8.69033 19.1099 8.66395 18.9817C8.49322 18.2934 8.03675 17.8549 7.40596 17.5656C7.05 17.4088 6.66449 17.3304 6.27556 17.3356C5.99742 17.3402 5.72693 17.2445 5.51358 17.066C5.46589 17.0341 5.42581 16.992 5.39617 16.9429C5.36653 16.8937 5.34807 16.8386 5.34207 16.7815C5.33607 16.7244 5.3427 16.6667 5.36147 16.6125C5.38024 16.5582 5.41071 16.5088 5.45071 16.4676C5.51336 16.3974 5.58602 16.3368 5.66635 16.2879C5.84383 16.1868 6.04278 16.1294 6.24682 16.1203C6.45086 16.1112 6.65414 16.1508 6.83988 16.2358C6.96119 16.2743 7.068 16.3487 7.14626 16.4491C7.22452 16.5495 7.27057 16.6712 7.27837 16.7982C7.28527 16.8924 7.31112 16.9842 7.35436 17.0681C7.39761 17.152 7.45737 17.2263 7.53004 17.2866C7.60271 17.3468 7.6868 17.3918 7.77727 17.4187C7.86775 17.4457 7.96274 17.4541 8.05654 17.4434C8.24215 17.426 8.41375 17.3372 8.53513 17.1957C8.65651 17.0542 8.71814 16.8711 8.70708 16.685C8.70088 16.3466 8.59869 16.0169 8.41237 15.7344C8.10904 15.2747 7.6472 14.9427 7.11485 14.8017C7.08429 14.7963 7.05584 14.7825 7.03267 14.7619C7.0095 14.7413 6.99253 14.7146 6.98366 14.6849C6.93586 14.5408 6.84368 14.4156 6.72037 14.3272C6.59705 14.2387 6.4489 14.1916 6.29715 14.1925C6.1438 14.1962 5.99534 14.2472 5.87213 14.3386C5.74892 14.43 5.65696 14.5572 5.60883 14.7028C5.60021 14.7229 5.58768 14.741 5.57194 14.7561C5.55619 14.7713 5.53756 14.7831 5.51718 14.7909C5.17038 14.8983 4.84843 15.0736 4.57009 15.3067C4.27528 15.5479 4.0634 15.8753 3.96413 16.243C3.86486 16.6108 3.88322 17.0004 4.01661 17.3572C4.28797 18.0418 4.82168 18.4354 5.50279 18.6565C5.82927 18.738 6.16378 18.7832 6.5002 18.7912C6.74545 18.8114 6.9746 18.9215 7.14359 19.1003C7.18183 19.1341 7.21246 19.1755 7.23344 19.222C7.25442 19.2685 7.26525 19.3189 7.26525 19.3699C7.26525 19.4209 7.25442 19.4713 7.23344 19.5178C7.21246 19.5642 7.18183 19.6057 7.14359 19.6395C7.08253 19.7049 7.01233 19.7612 6.93514 19.8066C6.654 19.9685 6.32155 20.0167 6.00599 19.9414C5.80411 19.9041 5.61707 19.8099 5.46685 19.67C5.36315 19.5475 5.30647 19.392 5.30693 19.2315C5.27053 19.06 5.17268 18.9077 5.03183 18.8033C4.89099 18.6989 4.71687 18.6496 4.54219 18.6646C4.3675 18.6796 4.2043 18.7579 4.08334 18.8849C3.96238 19.0118 3.89197 19.1785 3.88538 19.3537C3.88064 19.7122 3.98468 20.0637 4.18373 20.3619C4.49431 20.8199 4.95829 21.152 5.49204 21.2982C5.54236 21.3144 5.58007 21.3269 5.60164 21.388C5.64571 21.5349 5.7356 21.6638 5.85813 21.7559C5.98067 21.8481 6.12945 21.8986 6.28276 21.9002C6.43791 21.8998 6.58906 21.8509 6.71506 21.7604C6.84105 21.6698 6.93557 21.5422 6.98542 21.3952C6.99375 21.3748 7.0062 21.3563 7.02196 21.3408C7.03773 21.3254 7.05647 21.3133 7.07707 21.3054C7.41898 21.2042 7.73607 21.0328 8.00801 20.8022C8.22157 20.6276 8.39559 20.4096 8.51859 20.1627C8.64158 19.9158 8.71073 19.6455 8.72147 19.3699Z" fill="white"/>
<path d="M5.70771 11.0744C5.49205 11.0744 5.29439 11.0744 5.0967 11.0744C5.08206 11.0723 5.06812 11.0666 5.05621 11.0578C5.04429 11.0491 5.03475 11.0375 5.02839 11.0241C4.80375 10.334 4.58271 9.64395 4.35986 8.95207C4.35986 8.95207 4.35986 8.95207 4.35986 8.93231C4.55755 8.99341 4.75344 9.05631 4.95112 9.11202C5.24046 9.20007 5.52977 9.29172 5.8245 9.369C6.13914 9.4398 6.4668 9.42741 6.77519 9.33305C7.18673 9.21445 7.59469 9.08326 8.00444 8.95567L8.10864 8.92511L7.97566 9.46424C7.84806 9.96563 7.71869 10.467 7.59469 10.9702C7.57312 11.0583 7.53896 11.0888 7.44731 11.0852C7.2676 11.0762 7.10047 11.0852 6.90817 11.0852C6.92435 11.0403 6.93513 11.0062 6.94771 10.972C7.04834 10.715 7.15261 10.4616 7.25145 10.2046C7.27138 10.1548 7.27368 10.0997 7.25799 10.0484C7.2423 9.99707 7.20953 9.95267 7.16515 9.92251C7.12615 9.89362 7.0789 9.87802 7.03037 9.87802C6.98183 9.87802 6.93458 9.89362 6.89558 9.92251C6.85121 9.95823 6.81662 10.0046 6.79498 10.0573C6.66379 10.3736 6.53796 10.6917 6.41217 11.0115C6.3924 11.0637 6.37086 11.0942 6.30436 11.0942C6.23787 11.0942 6.21629 11.0655 6.19472 11.0115C6.06653 10.6881 5.93715 10.364 5.80656 10.0393C5.79159 9.99495 5.76344 9.95622 5.72587 9.92828C5.6883 9.90034 5.64306 9.88453 5.59626 9.88297C5.55267 9.88009 5.50916 9.8893 5.47047 9.9096C5.43179 9.92989 5.39943 9.96048 5.37702 9.99798C5.35376 10.0348 5.34056 10.077 5.33867 10.1205C5.33678 10.164 5.3463 10.2073 5.36627 10.246C5.46511 10.4886 5.56214 10.733 5.65918 10.9756C5.67895 10.9918 5.68974 11.0241 5.70771 11.0744Z" fill="white"/>
<path d="M6.31347 11.5651H7.75117C7.80133 11.5635 7.85075 11.5778 7.89236 11.6059C7.93397 11.6339 7.96567 11.6744 7.98301 11.7215C7.99883 11.7673 7.99954 11.817 7.98498 11.8633C7.97042 11.9096 7.94137 11.9499 7.90214 11.9785C7.85469 12.0101 7.79923 12.0275 7.74222 12.0288H5.48322H4.91714C4.73743 12.0288 4.64757 11.9497 4.64578 11.8023C4.64398 11.655 4.74642 11.5723 4.91714 11.5723H6.31887L6.31347 11.5651Z" fill="white"/>
<path d="M8.72087 19.3699C8.71333 19.6449 8.64761 19.9152 8.52804 20.163C8.40847 20.4108 8.23776 20.6305 8.02716 20.8076C7.75521 21.0382 7.43817 21.2096 7.09626 21.3107C7.07566 21.3187 7.05692 21.3307 7.04116 21.3462C7.02539 21.3616 7.01294 21.3802 7.00461 21.4006C6.95476 21.5475 6.86024 21.6752 6.73425 21.7657C6.60825 21.8563 6.4571 21.9052 6.30195 21.9056C6.14786 21.9058 5.99778 21.8564 5.87386 21.7649C5.74993 21.6733 5.6587 21.5443 5.61363 21.397C5.59207 21.3359 5.55431 21.3233 5.50399 21.3071C4.97024 21.1609 4.50631 20.8289 4.19572 20.3709C3.99668 20.0727 3.89264 19.7212 3.89737 19.3627C3.90397 19.1875 3.97438 19.0207 4.09534 18.8938C4.21629 18.7669 4.37945 18.6886 4.55414 18.6735C4.72882 18.6585 4.90298 18.7079 5.04383 18.8123C5.18467 18.9167 5.28252 19.069 5.31893 19.2405C5.31846 19.401 5.37514 19.5565 5.47885 19.679C5.62907 19.8189 5.81611 19.9131 6.01799 19.9503C6.33354 20.0257 6.66595 19.9775 6.94709 19.8156C7.02428 19.7702 7.09453 19.7139 7.15558 19.6484C7.19383 19.6147 7.22446 19.5732 7.24544 19.5267C7.26642 19.4803 7.27725 19.4299 7.27725 19.3789C7.27725 19.3279 7.26642 19.2775 7.24544 19.231C7.22446 19.1845 7.19383 19.143 7.15558 19.1093C6.9866 18.9304 6.75744 18.8203 6.5122 18.8002C6.17578 18.7922 5.84126 18.747 5.51478 18.6654C4.83367 18.4462 4.29992 18.0508 4.02856 17.3661C3.89517 17.0093 3.87686 16.6197 3.97613 16.252C4.0754 15.8843 4.28728 15.5568 4.58209 15.3156C4.86042 15.0826 5.18238 14.9072 5.52917 14.7999C5.54956 14.792 5.56815 14.7802 5.58389 14.7651C5.59963 14.75 5.6122 14.7318 5.62083 14.7118C5.66895 14.5662 5.76091 14.4389 5.88412 14.3476C6.00734 14.2562 6.1558 14.2052 6.30914 14.2014C6.4609 14.2005 6.60905 14.2477 6.73236 14.3361C6.85568 14.4246 6.94781 14.5498 6.99561 14.6938C7.00448 14.7236 7.02145 14.7502 7.04462 14.7709C7.06779 14.7915 7.09625 14.8053 7.1268 14.8106C7.65915 14.9517 8.12099 15.2837 8.42432 15.7433C8.61064 16.0259 8.71288 16.3556 8.71907 16.694C8.73014 16.8801 8.66846 17.0632 8.54708 17.2047C8.4257 17.3462 8.2541 17.435 8.06849 17.4524C7.97469 17.463 7.87974 17.4546 7.78927 17.4277C7.6988 17.4007 7.61471 17.3558 7.54203 17.2955C7.46936 17.2353 7.4096 17.161 7.36636 17.0771C7.32311 16.9931 7.29727 16.9014 7.29037 16.8072C7.28257 16.6802 7.23648 16.5584 7.15821 16.458C7.07995 16.3577 6.97315 16.2833 6.85183 16.2447C6.6661 16.1598 6.46286 16.1202 6.25882 16.1293C6.05478 16.1383 5.85583 16.1958 5.67835 16.2968C5.59801 16.3458 5.52531 16.4064 5.46266 16.4765C5.42266 16.5177 5.39219 16.5672 5.37342 16.6214C5.35465 16.6757 5.34807 16.7334 5.35407 16.7905C5.36007 16.8476 5.37853 16.9027 5.40817 16.9518C5.43781 17.001 5.47789 17.043 5.52558 17.075C5.73892 17.2535 6.00942 17.3492 6.28756 17.3446C6.67649 17.3393 7.062 17.4178 7.41796 17.5746C8.04156 17.8639 8.49623 18.3024 8.67594 18.9907C8.69778 19.1162 8.71278 19.2428 8.72087 19.3699ZM4.86065 16.7246C4.8639 16.5679 4.9066 16.4147 4.98482 16.279C5.06304 16.1433 5.17425 16.0295 5.30813 15.9482C5.57079 15.7637 5.87937 15.6555 6.19972 15.6355C6.52007 15.6155 6.83966 15.6846 7.1232 15.835C7.30626 15.9089 7.46399 16.0343 7.57722 16.196C7.69046 16.3577 7.75435 16.5488 7.76119 16.7461C7.76225 16.7769 7.76964 16.8072 7.78291 16.835C7.79617 16.8628 7.81506 16.8877 7.83832 16.9079C7.86159 16.9281 7.88873 16.9433 7.91813 16.9526C7.94753 16.9619 7.97856 16.965 8.00922 16.9618C8.07088 16.959 8.12892 16.9319 8.17068 16.8864C8.21243 16.841 8.2345 16.7808 8.23206 16.7192C8.23033 16.3982 8.11145 16.0889 7.89777 15.8494C7.60963 15.5216 7.21981 15.3001 6.79076 15.2204C6.61105 15.179 6.56071 15.1197 6.54453 14.931C6.54738 14.8985 6.54344 14.8658 6.53295 14.8348C6.52246 14.8039 6.50565 14.7755 6.48359 14.7515C6.46154 14.7274 6.43472 14.7082 6.40483 14.695C6.37495 14.6819 6.34267 14.6751 6.31002 14.6751C6.27737 14.6751 6.24509 14.6819 6.21521 14.695C6.18532 14.7082 6.15851 14.7274 6.13645 14.7515C6.1144 14.7755 6.09758 14.8039 6.08709 14.8348C6.0766 14.8658 6.07266 14.8985 6.07551 14.931C6.06113 15.1108 6.00899 15.179 5.82748 15.2204C5.45088 15.293 5.10399 15.4749 4.83007 15.7433C4.63119 15.9181 4.49028 16.1493 4.42607 16.4061C4.36186 16.6629 4.37739 16.9332 4.47064 17.181C4.61449 17.557 4.89679 17.8637 5.25961 18.0382C5.59312 18.2092 5.96311 18.2968 6.33788 18.2934C6.73038 18.2893 7.11191 18.4228 7.41616 18.6708C7.52405 18.7548 7.61133 18.8624 7.67138 18.9852C7.73142 19.1081 7.76264 19.243 7.76264 19.3798C7.76264 19.5165 7.73142 19.6514 7.67138 19.7743C7.61133 19.8972 7.52405 20.0047 7.41616 20.0887C7.20683 20.2631 6.95808 20.3837 6.69156 20.44C6.42503 20.4964 6.14879 20.4869 5.8868 20.4122C5.33688 20.2756 4.91817 19.9917 4.87144 19.3573C4.86425 19.297 4.83403 19.2418 4.78712 19.2033C4.7402 19.1648 4.68022 19.1458 4.61969 19.1505C4.55915 19.1551 4.50271 19.183 4.46222 19.2282C4.42173 19.2734 4.4003 19.3326 4.40237 19.3932C4.40223 19.6218 4.46436 19.8461 4.58209 20.042C4.71859 20.2599 4.89851 20.4473 5.11061 20.5926C5.32271 20.7379 5.56246 20.838 5.81493 20.8866C6.0252 20.9369 6.06289 20.9783 6.08626 21.1957C6.08626 21.2577 6.11089 21.3171 6.1547 21.3609C6.19852 21.4047 6.25793 21.4294 6.31989 21.4294C6.38185 21.4294 6.44127 21.4047 6.48508 21.3609C6.5289 21.3171 6.55353 21.2577 6.55353 21.1957C6.5715 20.9909 6.61462 20.9405 6.8177 20.892C7.12892 20.8254 7.42047 20.6876 7.66954 20.4895C7.83765 20.3671 7.97601 20.2083 8.07433 20.0251C8.17265 19.8418 8.22842 19.6387 8.23745 19.431C8.24824 18.8649 7.96068 18.4516 7.49882 18.1532C7.1447 17.9298 6.73317 17.8143 6.3145 17.8208C5.9991 17.8278 5.68798 17.7469 5.41593 17.5872C5.25488 17.5059 5.11847 17.3831 5.02084 17.2315C4.9232 17.0798 4.86792 16.9048 4.86065 16.7246Z" fill="white"/>
</svg>
