<svg width="73" height="71" viewBox="0 0 73 71" fill="none" xmlns="http://www.w3.org/2000/svg">
<path d="M26.9429 26.3737C27.2301 25.643 27.3388 24.8544 27.2601 24.0733C27.1814 23.2922 26.9174 22.5412 26.4902 21.8826C26.3924 21.6329 26.243 21.4066 26.0518 21.2185C25.8607 21.0304 25.6322 20.8847 25.381 20.7909C25.1297 20.6971 24.8614 20.6573 24.5938 20.6742C24.3261 20.691 24.0651 20.764 23.8275 20.8885C21.1116 21.8293 18.378 22.7169 15.6443 23.6222C15.5289 23.6222 15.4135 23.6755 15.2094 23.7198V23.0275C15.2094 18.0039 15.1473 12.9715 15.2094 7.93897C15.2626 4.77037 14.4106 2.0988 11.6592 0.0751561C11.9964 0.0751561 12.2184 0.0751561 12.4314 0.0751561H54.1466C55.0569 0.0482539 55.9629 0.207411 56.8095 0.542896C57.6561 0.87838 58.4255 1.38314 59.0702 2.02625C59.715 2.66936 60.2216 3.43727 60.5593 4.28302C60.897 5.12878 61.0586 6.03457 61.0341 6.9449V39.9711C60.1465 39.6427 59.3477 39.3765 58.5755 39.0303C58.3669 38.9229 58.1356 38.8668 57.901 38.8668C57.6663 38.8668 57.4351 38.9229 57.2264 39.0303C54.1245 40.4618 50.7114 41.0876 47.3034 40.8498C46.87 40.8134 46.4399 40.7452 46.0165 40.6457C45.4662 40.5126 45.049 40.6457 44.8715 41.1871C44.6407 41.906 44.1882 42.0747 43.4782 42.0747C35.8984 42.0747 28.3186 42.0747 20.7389 42.0747C20.5347 42.0747 20.2774 42.0125 20.1265 42.0747C19.9756 42.1368 19.5672 42.4918 19.585 42.6871C19.6255 42.83 19.6944 42.9634 19.7874 43.0793C19.8804 43.1952 19.9957 43.2912 20.1265 43.3616C20.3852 43.44 20.6584 43.4582 20.9252 43.4149H43.8509L43.0875 45.9533H20.7122C20.5258 45.9533 20.2952 45.8912 20.162 45.9533C20.0289 46.0154 19.6027 46.3261 19.585 46.5391C19.5672 46.7521 19.8246 47.0716 20.0377 47.2225C20.2687 47.314 20.5201 47.3416 20.7655 47.3024H42.7859C41.7119 55.042 43.0432 62.0271 48.9454 67.7164H15.1383V54.2787C15.1383 54.0568 15.1917 53.7727 15.0852 53.613C14.9787 53.4532 14.6326 53.1248 14.4107 53.1426C14.1888 53.1603 13.9756 53.4799 13.8248 53.7106C13.6739 53.9414 13.8248 54.039 13.8248 54.1988C13.8248 57.1721 13.8248 60.1366 13.8248 63.0744V63.82L7.30134 62.9324V48.0657C8.08239 48.0657 8.84555 48.0657 9.59997 48.0657C10.0881 48.0657 10.4876 47.9769 10.5675 47.4267C10.6474 46.8764 10.2301 46.6989 9.60885 46.69C8.98756 46.6811 8.11773 46.69 7.36331 46.69C7.19245 46.699 7.02215 46.6656 6.86731 46.5928C6.71247 46.52 6.57788 46.4101 6.47575 46.2728C4.65847 44.0184 3.41594 41.3563 2.85467 38.5155C1.93064 34.5831 1.98544 30.4841 3.01437 26.5778C3.47336 24.7791 4.36272 23.119 5.60596 21.7406C7.82486 19.3619 10.6207 18.7672 13.8248 19.1578V19.8944C13.8248 21.1459 13.8248 22.3885 13.8248 23.6311C13.8374 23.701 13.8352 23.7727 13.8183 23.8417C13.8013 23.9106 13.7701 23.9752 13.7266 24.0313C13.6831 24.0874 13.6282 24.1337 13.5656 24.1672C13.503 24.2007 13.434 24.2207 13.3632 24.2258L9.99954 25.1133C9.36938 25.2731 9.11191 25.5837 9.25392 26.0009C9.39593 26.418 9.87517 26.5068 10.3278 26.3914C15.0629 25.2813 19.7181 23.855 24.2624 22.1222C24.7151 21.9358 25.0258 22.0069 25.2033 22.4773L25.2655 22.5838C26.4193 24.8737 25.9488 26.2583 23.6323 27.3589L15.8306 31.06C15.023 31.4416 14.9432 31.6103 15.236 32.4624C15.7982 34.0491 16.016 35.7374 15.8751 37.4149C15.7961 38.6154 15.3333 39.7586 14.555 40.676C13.7767 41.5933 12.7243 42.2361 11.5528 42.5096C11.3309 42.5806 11.109 42.6161 10.8871 42.6782C10.4966 42.8024 10.2124 43.0421 10.3101 43.4948C10.3258 43.5914 10.363 43.6833 10.4188 43.7638C10.4747 43.8442 10.548 43.9111 10.6331 43.9596C10.7182 44.0081 10.813 44.037 10.9107 44.0441C11.0084 44.0512 11.1064 44.0364 11.1976 44.0007C11.8722 43.8054 12.5289 43.5569 13.1857 43.3172C13.3632 43.2551 13.523 43.1663 13.807 43.0332V43.8054C13.807 45.261 13.807 46.7077 13.807 48.1634C13.807 48.6515 13.807 49.113 14.4549 49.1574C14.9253 49.1574 15.1472 48.8556 15.1472 48.1278C15.1472 46.2817 15.1472 44.4356 15.1472 42.5894C15.1656 42.2644 15.2869 41.9535 15.4935 41.7019C16.1783 40.8889 16.6892 39.9441 16.9945 38.9258C17.2998 37.9076 17.3931 36.8375 17.2686 35.7818C17.1798 34.6102 16.9135 33.4564 16.7093 32.2316C17.8099 31.699 19.0258 31.1399 20.2595 30.5452C22.0347 29.6576 23.8098 28.7701 25.5849 27.8825C25.8171 27.7957 26.0659 27.7624 26.3127 27.7849H56.0193C56.4364 27.7849 56.7382 27.5009 56.676 27.1281C56.6139 26.7553 56.3388 26.6133 56.0903 26.4447C55.8418 26.276 55.691 26.4447 55.478 26.4447H26.9073L26.9429 26.3737ZM23.1175 55.3349C22.4962 56.2845 21.8839 57.1987 21.2981 58.1218C21.0319 58.5389 20.9697 58.965 21.4667 59.249C21.9637 59.533 22.221 59.1958 22.4696 58.8141C22.9428 58.011 23.4645 57.2374 24.0317 56.4976C24.6422 55.7684 25.333 55.1105 26.0909 54.5361C26.8542 53.9858 27.4844 54.1988 27.937 55.0331C28.1767 55.4591 28.3008 55.9206 28.505 56.4088C28.6814 56.8879 29.0386 57.2788 29.4998 57.4978C29.961 57.7168 30.4896 57.7465 30.9724 57.5804C31.281 57.4967 31.5788 57.3775 31.86 57.2254C34.0877 56.0627 35.7652 54.2165 37.5758 52.5568C37.6458 52.4337 37.6826 52.2945 37.6826 52.1529C37.6826 52.0113 37.6458 51.8722 37.5758 51.7491C37.4476 51.661 37.3008 51.6039 37.1467 51.5823C36.9927 51.5608 36.8357 51.5753 36.6882 51.6248C36.3811 51.7964 36.1051 52.0184 35.8717 52.2816C34.9842 53.0716 34.1499 53.9148 33.2091 54.6426C32.475 55.2143 31.6874 55.7137 30.8571 56.1337C30.1471 56.4887 29.854 56.3023 29.5878 55.5745C29.4813 55.2993 29.4015 55.0242 29.2861 54.7579C29.1549 54.34 28.9225 53.9608 28.6096 53.6541C28.2968 53.3474 27.9131 53.1227 27.4926 52.9998C27.0721 52.8769 26.6277 52.8596 26.199 52.9496C25.7702 53.0395 25.3704 53.2338 25.0347 53.5154C24.8785 53.6531 24.709 53.775 24.5287 53.8792C24.303 53.9706 24.0621 54.0188 23.8187 54.0213C22.9837 53.9328 22.1419 53.9328 21.307 54.0213C20.0873 54.2899 19.0213 55.0258 18.3377 56.0711C17.6542 57.1163 17.4074 58.3878 17.6502 59.6129C17.894 60.86 18.6145 61.9629 19.6587 62.6872C20.7028 63.4114 21.9883 63.7 23.2418 63.4916C23.9818 63.3622 24.6812 63.0616 25.2843 62.6139C25.8875 62.1661 26.3776 61.5836 26.7156 60.9127C27.0536 60.2419 27.2301 59.5013 27.2311 58.7502C27.232 57.999 27.0573 57.258 26.721 56.5863L25.5671 57.0745C26.1707 59.3555 25.7004 60.8466 24.1472 61.7342C23.4791 62.1183 22.7025 62.2703 21.9389 62.1665C21.1753 62.0627 20.4676 61.709 19.9263 61.1605C19.3849 60.6121 19.0405 59.8997 18.9466 59.1348C18.8528 58.3699 19.0148 57.5955 19.4075 56.9325C19.7652 56.2962 20.322 55.7952 20.9924 55.5065C21.6628 55.2178 22.4094 55.1575 23.1175 55.3349ZM38.1528 19.9477H55.6554C55.8241 19.9477 56.0371 19.9477 56.1436 19.9477C56.2501 19.9477 56.7204 19.5217 56.7027 19.3353C56.6849 19.1489 56.3833 18.8027 56.1348 18.6607C55.876 18.5824 55.6027 18.5642 55.3358 18.6075H20.8366C20.6236 18.6075 20.3749 18.5453 20.224 18.6075C20.0731 18.6696 19.665 19.0335 19.6827 19.2288C19.7005 19.424 19.9932 19.7347 20.2329 19.9033C20.4725 20.0719 20.6325 19.9033 20.8455 19.9033L38.1528 19.9477ZM38.2237 16.0335H55.5311C55.7174 16.0335 55.9483 16.1045 56.0814 16.0335C56.2146 15.9625 56.6849 15.6341 56.6938 15.4211C56.7027 15.2081 56.3922 14.9063 56.1525 14.7199C55.9129 14.5336 55.7974 14.7199 55.611 14.7199H20.7566C20.5259 14.7199 20.2419 14.7199 20.0998 14.8087C19.9858 14.8938 19.8906 15.0017 19.8203 15.1254C19.75 15.2491 19.7063 15.3861 19.6916 15.5276C19.6916 15.7229 20.0199 15.9359 20.2418 16.0691C20.4637 16.2022 20.6058 16.0691 20.7922 16.0691L38.2237 16.0335ZM38.1528 35.5599H55.5755C55.7619 35.5599 56.0016 35.6132 56.1259 35.5599C56.2501 35.5067 56.6761 35.1339 56.7116 34.8765C56.7471 34.6191 56.4808 34.2375 56.0548 34.2197H20.7655C20.5969 34.2197 20.3927 34.1665 20.2684 34.2197C20.1442 34.273 19.6827 34.6014 19.6916 34.7966C19.7212 34.944 19.7795 35.0842 19.8632 35.2091C19.947 35.334 20.0546 35.4411 20.1798 35.5244C20.3307 35.6309 20.6236 35.5688 20.8455 35.5688L38.1528 35.5599ZM38.1528 10.2111H27.8215C26.934 10.2111 26.5169 10.4241 26.5435 10.9212C26.5701 11.4182 26.934 11.5868 27.8127 11.5868H48.6703C48.8953 11.6159 49.1241 11.5884 49.3359 11.507C49.4465 11.4476 49.5433 11.3655 49.6198 11.2661C49.6963 11.1666 49.7507 11.0521 49.7797 10.9301C49.7526 10.7979 49.6995 10.6725 49.6233 10.5613C49.547 10.45 49.4493 10.3551 49.3359 10.2821C49.1762 10.1667 48.901 10.2111 48.6791 10.2111H38.1528ZM45.2533 31.6458H55.5311C55.7529 31.6458 56.037 31.6902 56.1967 31.5836C56.4497 31.4387 56.6349 31.1993 56.7116 30.918C56.7116 30.7316 56.4186 30.4742 56.2056 30.3233C56.0297 30.259 55.8404 30.2407 55.6554 30.2701H35.1172C34.9517 30.2611 34.7859 30.2611 34.6204 30.2701C34.2121 30.3144 33.9458 30.5186 33.9458 30.9446C33.9408 31.0337 33.9544 31.123 33.9859 31.2065C34.0175 31.29 34.0662 31.366 34.1289 31.4296C34.1916 31.4931 34.2671 31.5428 34.3502 31.5755C34.4333 31.6081 34.5223 31.623 34.6115 31.6192C34.7979 31.6192 34.9842 31.6192 35.1705 31.6192L45.2533 31.6458ZM45.3863 22.4773H35.0464C34.8777 22.4773 34.6647 22.4151 34.5582 22.4773C34.4517 22.5394 34.0078 22.8589 33.99 23.0719C33.9723 23.2849 34.2297 23.5956 34.4427 23.7731C34.6557 23.9506 34.8422 23.8263 35.0464 23.8263H55.6021C55.8235 23.859 56.0496 23.8346 56.2589 23.7554C56.4719 23.6045 56.7382 23.3027 56.7027 23.1074C56.6672 22.9122 56.3744 22.637 56.1436 22.4861C55.9129 22.3352 55.7796 22.4861 55.5932 22.4861L45.3863 22.4773ZM29.2506 38.054H20.7744C20.588 38.054 20.3483 37.9919 20.2329 38.054C20.1175 38.1161 19.6827 38.5066 19.6827 38.7374C19.6827 38.9682 20.0466 39.1901 20.2862 39.3765C20.375 39.4475 20.5613 39.3765 20.7122 39.3765H37.771C37.9219 39.3765 38.1083 39.4297 38.197 39.3765C38.4367 39.1989 38.7652 38.977 38.8096 38.7374C38.854 38.4978 38.5433 38.2404 38.3214 38.0629C38.0995 37.8854 37.9663 38.0185 37.7799 38.0185L29.2506 38.054ZM38.8452 56.9768C38.8452 56.3644 38.4545 55.9828 38.0196 56.0893C36.28 56.681 34.5494 57.3082 32.8275 57.9709C32.7376 57.9945 32.6545 58.0389 32.5848 58.1004C32.5151 58.1619 32.4607 58.2389 32.4262 58.3252C32.3917 58.4115 32.3779 58.5047 32.3859 58.5973C32.3939 58.6899 32.4235 58.7794 32.4723 58.8585C32.4998 58.9459 32.5461 59.0263 32.6078 59.0941C32.6695 59.1619 32.7452 59.2154 32.8297 59.2509C32.9142 59.2864 33.0055 59.303 33.0971 59.2996C33.1886 59.2962 33.2782 59.2729 33.3599 59.2312C35.0285 58.6366 36.7061 58.0419 38.3747 57.4117C38.5789 57.3762 38.7386 57.1011 38.8452 57.0035V56.9768Z" fill="#76A4AE"/>
<path d="M43.8413 51.8201C43.8561 48.6147 44.5266 45.4462 45.8117 42.5096C45.9714 42.1545 46.149 42.0037 46.5573 42.0658C50.2785 42.5061 54.0497 41.9359 57.4743 40.4149C57.6285 40.3428 57.7966 40.3054 57.9668 40.3054C58.1371 40.3054 58.3051 40.3428 58.4593 40.4149C61.6025 41.7916 65.0283 42.4001 68.4533 42.1901H68.826C69.9443 42.0569 69.9798 42.0392 70.3703 43.0776C72.9265 49.8409 72.8467 56.4798 69.1633 62.8259C66.7403 67.0063 62.8972 69.3406 58.273 70.4678C58.0507 70.5161 57.8207 70.5161 57.5984 70.4678C50.2406 68.6039 45.9094 63.8555 44.3295 56.4976C44.2114 55.9741 44.1284 55.4433 44.081 54.9088C43.9833 53.8438 43.9212 52.8319 43.8413 51.8201ZM46.211 53.471C46.3086 54.2165 46.3709 55.2461 46.5662 56.1869C47.7999 62.3022 51.359 66.243 57.4565 67.7874C57.7492 67.8487 58.0514 67.8487 58.3441 67.7874C60.4711 67.3546 62.465 66.4234 64.1622 65.0703C65.8594 63.7171 67.2115 61.9806 68.1072 60.0035C69.4881 56.9471 69.9683 53.5601 69.4916 50.2403C69.2721 48.3005 68.7071 46.4157 67.8231 44.6752C67.6279 44.2936 67.4148 44.0096 66.9356 44.0983C64.0722 44.582 61.1294 44.1762 58.5038 42.9356C58.3112 42.8434 58.1004 42.7956 57.8869 42.7956C57.6734 42.7956 57.4625 42.8434 57.2699 42.9356C54.7362 44.1241 51.9062 44.532 49.14 44.1072C48.894 44.0344 48.6295 44.0605 48.4024 44.1798C48.1753 44.2992 48.0038 44.5024 47.9242 44.7462C46.6783 47.4804 46.0914 50.4688 46.211 53.471Z" fill="#76A4AE"/>
<path d="M13.9033 13.2644H0.447998V11.6401C0.447998 9.91825 0.447998 8.1964 0.447998 6.47452C0.501692 4.85502 1.14107 3.30999 2.2476 2.12625C3.35413 0.942514 4.8526 0.200463 6.4648 0.037833C8.07699 -0.124797 9.69331 0.303043 11.014 1.24194C12.3346 2.18084 13.2698 3.56703 13.6459 5.14318C13.7951 5.83135 13.8695 6.53364 13.8678 7.23781C13.921 9.22596 13.9033 11.2141 13.9033 13.2644Z" fill="#76A4AE"/>
<path d="M68.3737 52.903C68.4289 56.3798 67.2496 59.7637 65.0454 62.4531C63.263 64.4754 60.8809 65.8749 58.2467 66.4472C58.0247 66.4899 57.7954 66.4746 57.5811 66.4028C52.2557 65.0182 49.0871 61.5478 47.9599 56.2224C47.2102 52.8142 47.5487 49.2567 48.9274 46.051C49.0339 45.7936 49.0871 45.5095 49.5131 45.5717C52.2322 45.8715 54.9827 45.4681 57.5011 44.4001C57.7888 44.302 58.1009 44.302 58.3887 44.4001C60.9214 45.4726 63.6882 45.8731 66.4211 45.5628C66.8116 45.5095 66.865 45.7581 66.9626 45.9977C67.8995 48.179 68.3796 50.529 68.3737 52.903ZM57.9273 59.4443L57.6433 59.0804C56.7557 57.9177 55.8682 56.755 55.0339 55.5923C54.6522 55.0864 54.2351 55.0065 53.8889 55.3526C53.5428 55.6988 53.6846 56.0627 53.942 56.4088L57.1817 60.749C57.8385 61.6366 58.2202 61.6366 58.7794 60.6602C60.5545 57.6484 62.3501 54.6396 64.1667 51.6337C64.2554 51.4917 64.4063 51.332 64.3886 51.1988C64.385 50.9165 64.2849 50.644 64.1047 50.4266C63.9538 50.3113 63.5632 50.4266 63.3413 50.5065C63.1194 50.5864 63.0662 50.8527 62.9508 51.0479L57.9273 59.4443Z" fill="#76A4AE"/>
</svg>
