<svg width="18" height="18" viewBox="0 0 18 18" fill="none" xmlns="http://www.w3.org/2000/svg">
<path fill-rule="evenodd" clip-rule="evenodd" d="M4.91496 8.99992C4.91496 6.58367 6.87371 4.62492 9.28996 4.62492C11.7062 4.62492 13.665 6.58367 13.665 8.99992C13.665 11.4162 11.7062 13.3749 9.28996 13.3749C6.87371 13.3749 4.91496 11.4162 4.91496 8.99992ZM9.28996 5.87492C7.56407 5.87492 6.16496 7.27403 6.16496 8.99992C6.16496 10.7258 7.56407 12.1249 9.28996 12.1249C11.0158 12.1249 12.415 10.7258 12.415 8.99992C12.415 7.27403 11.0158 5.87492 9.28996 5.87492Z" fill="white"/>
<path d="M13.8798 5.24992C14.34 5.24992 14.7131 4.87682 14.7131 4.41658C14.7131 3.95635 14.34 3.58325 13.8798 3.58325H13.8723C13.4121 3.58325 13.039 3.95635 13.039 4.41658C13.039 4.87682 13.4121 5.24992 13.8723 5.24992H13.8798Z" fill="white"/>
<path fill-rule="evenodd" clip-rule="evenodd" d="M9.3376 0.458252C11.1632 0.458241 12.5971 0.458233 13.7166 0.608747C14.8638 0.762986 15.774 1.08551 16.4892 1.80068C17.2044 2.51584 17.5269 3.42606 17.6811 4.57327C17.8316 5.69278 17.8316 7.12667 17.8316 8.95225V9.04756C17.8316 10.8731 17.8316 12.3071 17.6811 13.4266C17.5269 14.5738 17.2044 15.484 16.4892 16.1992C15.774 16.9143 14.8638 17.2368 13.7166 17.3911C12.5971 17.5416 11.1632 17.5416 9.33763 17.5416H9.24232C7.41674 17.5416 5.98282 17.5416 4.86331 17.3911C3.7161 17.2368 2.80588 16.9143 2.09072 16.1992C1.37555 15.484 1.05302 14.5738 0.898786 13.4266C0.748271 12.307 0.74828 10.8732 0.748291 9.04756V8.95227C0.74828 7.12668 0.748271 5.69279 0.898786 4.57327C1.05302 3.42606 1.37555 2.51584 2.09072 1.80068C2.80588 1.08551 3.7161 0.762986 4.86331 0.608747C5.98282 0.458233 7.41671 0.458241 9.24228 0.458252L9.3376 0.458252ZM5.02987 1.8476C4.02127 1.9832 3.41881 2.24036 2.9746 2.68456C2.5304 3.12877 2.27324 3.73123 2.13764 4.73983C1.99962 5.76641 1.99829 7.11627 1.99829 8.99992C1.99829 10.8836 1.99962 12.2334 2.13764 13.26C2.27324 14.2686 2.5304 14.8711 2.9746 15.3153C3.41881 15.7595 4.02127 16.0166 5.02987 16.1522C6.05645 16.2903 7.40631 16.2916 9.28996 16.2916C11.1736 16.2916 12.5235 16.2903 13.55 16.1522C14.5587 16.0166 15.1611 15.7595 15.6053 15.3153C16.0495 14.8711 16.3067 14.2686 16.4423 13.26C16.5803 12.2334 16.5816 10.8836 16.5816 8.99992C16.5816 7.11627 16.5803 5.76641 16.4423 4.73983C16.3067 3.73123 16.0495 3.12877 15.6053 2.68456C15.1611 2.24036 14.5587 1.9832 13.55 1.8476C12.5235 1.70958 11.1736 1.70825 9.28996 1.70825C7.40631 1.70825 6.05645 1.70958 5.02987 1.8476Z" fill="white"/>
</svg>
