<svg width="18" height="18" viewBox="0 0 18 18" fill="none" xmlns="http://www.w3.org/2000/svg">
<path fill-rule="evenodd" clip-rule="evenodd" d="M4.41496 8.68693C4.41496 6.27068 6.37371 4.31193 8.78996 4.31193C11.2062 4.31193 13.165 6.27068 13.165 8.68693C13.165 11.1032 11.2062 13.0619 8.78996 13.0619C6.37371 13.0619 4.41496 11.1032 4.41496 8.68693ZM8.78996 5.56193C7.06407 5.56193 5.66496 6.96104 5.66496 8.68693C5.66496 10.4128 7.06407 11.8119 8.78996 11.8119C10.5158 11.8119 11.915 10.4128 11.915 8.68693C11.915 6.96104 10.5158 5.56193 8.78996 5.56193Z" fill="#221F1F"/>
<path d="M13.3798 4.93693C13.84 4.93693 14.2131 4.56383 14.2131 4.1036C14.2131 3.64336 13.84 3.27026 13.3798 3.27026H13.3723C12.9121 3.27026 12.539 3.64336 12.539 4.1036C12.539 4.56383 12.9121 4.93693 13.3723 4.93693H13.3798Z" fill="#221F1F"/>
<path fill-rule="evenodd" clip-rule="evenodd" d="M8.8376 0.145264C10.6632 0.145253 12.0971 0.145245 13.2166 0.295758C14.3638 0.449998 15.274 0.772526 15.9892 1.48769C16.7044 2.20286 17.0269 3.11307 17.1811 4.26028C17.3316 5.37979 17.3316 6.81368 17.3316 8.63926V8.73457C17.3316 10.5601 17.3316 11.9941 17.1811 13.1136C17.0269 14.2608 16.7044 15.171 15.9892 15.8862C15.274 16.6013 14.3638 16.9239 13.2166 17.0781C12.0971 17.2286 10.6632 17.2286 8.83763 17.2286H8.74232C6.91674 17.2286 5.48282 17.2286 4.36331 17.0781C3.2161 16.9239 2.30588 16.6013 1.59072 15.8862C0.875554 15.171 0.553025 14.2608 0.398786 13.1136C0.248271 11.9941 0.24828 10.5602 0.248291 8.73458L0.248291 8.63928C0.24828 6.8137 0.248271 5.3798 0.398786 4.26028C0.553025 3.11307 0.875554 2.20286 1.59072 1.48769C2.30588 0.772526 3.2161 0.449998 4.36331 0.295758C5.48282 0.145245 6.91671 0.145253 8.74228 0.145264L8.8376 0.145264ZM4.52987 1.53461C3.52127 1.67022 2.91881 1.92737 2.4746 2.37158C2.0304 2.81578 1.77324 3.41824 1.63764 4.42684C1.49962 5.45343 1.49829 6.80328 1.49829 8.68693C1.49829 10.5706 1.49962 11.9204 1.63764 12.947C1.77324 13.9556 2.0304 14.5581 2.4746 15.0023C2.91881 15.4465 3.52127 15.7036 4.52987 15.8392C5.55645 15.9773 6.90631 15.9786 8.78996 15.9786C10.6736 15.9786 12.0235 15.9773 13.05 15.8392C14.0587 15.7036 14.6611 15.4465 15.1053 15.0023C15.5495 14.5581 15.8067 13.9556 15.9423 12.947C16.0803 11.9204 16.0816 10.5706 16.0816 8.68693C16.0816 6.80328 16.0803 5.45343 15.9423 4.42684C15.8067 3.41824 15.5495 2.81578 15.1053 2.37158C14.6611 1.92737 14.0587 1.67022 13.05 1.53461C12.0235 1.39659 10.6736 1.39526 8.78996 1.39526C6.90631 1.39526 5.55645 1.39659 4.52987 1.53461Z" fill="#221F1F"/>
</svg>
