<svg width="143" height="23" viewBox="0 0 143 23" fill="none" xmlns="http://www.w3.org/2000/svg">
<path d="M0.992485 9.08311C1.70371 8.78569 2.75775 8.85639 3.58527 9.01702C3.84697 9.06607 3.8228 9.48 4.00828 9.53009C4.3712 9.62646 4.62402 9.38139 4.98887 9.50338C5.11043 9.54529 5.13755 10.1847 5.26172 10.2138C5.9406 10.3667 6.48802 10.0899 7.13868 10.0865C10.3703 10.0547 13.4534 9.44104 16.6235 8.72665C17.6702 8.49267 19.0761 8.55301 20.0513 7.99215C20.1651 7.92657 19.9233 7.50943 19.9328 7.4651C20.0857 6.78664 20.3044 7.71774 20.5875 7.75387C21.7102 7.8952 22.7766 7.54927 23.6242 7.05383C23.9807 6.84315 23.2596 6.14731 23.8345 6.47704C23.874 6.49886 23.9564 6.98012 24.0805 6.98913C24.3626 7.008 24.7937 6.75637 24.9927 6.72246C25.3804 6.65757 25.4323 6.63287 25.7766 6.50883C26.2542 6.34138 26.882 6.34975 27.3468 6.0581C27.4451 5.99505 27.1214 5.61129 27.2618 5.47216C27.4029 5.33309 27.8676 5.20103 28.0597 5.24622C28.2523 5.29137 28.3299 5.6554 28.3888 5.72316C28.8846 6.29275 29.0313 5.18047 29.0883 5.13481C30.1537 4.28897 31.4222 4.39045 32.5813 3.94281C33.4517 3.60797 34.3465 3.08801 35.2146 2.80239C36.2571 2.46171 37.1973 2.37875 38.2268 2.01791C38.3341 1.98125 38.0522 1.55533 38.1841 1.51003C39.5968 1.03683 41.1512 0.66524 42.9424 0.877564C43.1285 0.901205 42.9203 1.31963 43.1011 1.36827C43.2851 1.41767 43.4821 1.48522 43.6798 1.55953C44.5307 1.92431 45.5296 2.27743 46.0725 0.89071C46.6809 1.01384 47.4234 1.1723 47.9238 1.58549C48.2463 1.85132 47.8577 2.22186 48.3043 2.10342C48.4049 2.07773 48.3281 1.6944 48.4764 1.68434C49.1066 1.64436 49.748 1.87917 50.3811 1.81958C50.5095 1.80667 50.5358 1.48332 50.5812 1.43367C50.9652 1.03633 51.2983 1.907 51.3888 1.98465C52.0938 2.57673 52.6948 2.56264 53.4137 2.77305C53.5803 2.82221 53.4878 2.36228 53.652 2.39585C54.5041 2.57692 55.3466 2.87783 56.0897 3.3014C56.2543 3.39636 55.995 3.67606 56.0686 3.7381C56.3965 4.00676 56.66 3.41093 56.9762 3.65906C57.0433 3.71045 56.9174 3.9767 56.9219 4.0118C56.9921 4.56076 57.3785 3.9364 57.4383 3.93976C58.1905 3.95799 58.4207 4.80064 59.1165 4.90725C59.1997 4.91965 59.1226 4.51883 59.3501 4.5753C60.8676 4.95081 62.4017 5.52278 63.8187 6.19337C64.0416 6.29781 63.8109 6.49831 63.8176 6.53279C63.9356 7.07153 64.2478 6.47601 64.3297 6.47319C64.5075 6.46979 64.6699 6.52047 64.8258 6.58103C65.2849 6.75382 65.6137 7.00633 66.1155 6.60842C68.6201 7.89267 71.0111 8.77568 73.1228 10.3946C73.1499 10.4146 72.9813 10.6548 73.0361 10.6933C73.6978 11.1584 73.7367 10.6866 74.4157 10.3915C74.5844 10.3177 74.7062 11.0717 74.7231 11.1284C74.778 11.3391 74.5 11.6793 74.5277 11.7269C74.7677 12.1056 75.2138 10.7962 75.6512 10.9686C75.6642 10.9761 75.5176 11.1907 75.546 11.2286C75.6343 11.3472 75.7838 11.2966 75.8674 11.4205C76.0582 11.7056 75.9383 12.3655 76.4697 12.1403C76.5363 12.1099 76.7038 11.3563 77.086 11.5237C77.2395 11.5935 77.9432 11.7988 78.1274 11.8981C78.3109 12.0001 78.1146 12.1977 78.1256 12.2118C78.5884 12.6669 78.3509 12.7404 78.5231 13.2679C78.7084 13.7913 78.8707 12.6784 79.0077 12.5813C79.1429 12.4852 79.4938 12.8225 79.5804 12.928C79.6653 13.0348 79.5142 13.1625 79.5957 13.2285C80.1502 13.6549 79.9422 12.7273 80.1576 12.5833C80.6459 12.2367 80.9063 13.0808 81.3382 13.1755C81.3748 13.1837 81.3904 13.1695 81.3981 13.1463C81.4152 13.0978 81.3961 13.0095 81.4692 13.0002C81.896 12.9485 82.1446 13.2042 82.6176 12.986C82.6958 12.95 83.0757 12.4825 83.3108 12.8349C83.346 12.8855 83.2411 13.0811 83.4232 13.1271C83.6952 13.1964 84.1774 13.2406 84.4583 13.1749C84.6657 13.1265 84.4262 12.8073 84.6868 12.9064C84.8024 12.9503 84.5904 13.1378 84.8076 13.2043C85.0144 13.2711 85.593 13.2553 85.8062 13.2444C86.0203 13.2336 85.8973 12.9972 85.9143 12.9808C86.0174 12.8869 86.4171 12.7642 86.4516 12.7636C88.2634 12.6955 89.9575 12.9798 91.6996 12.6511C91.8377 12.6254 91.7162 12.4017 91.737 12.3954C92.1952 12.242 91.9028 12.9088 92.259 13.0743C92.15 12.6069 92.3526 12.6692 92.67 12.5727C92.8304 12.5247 92.7146 12.3554 92.7269 12.3347C92.9271 12.0258 93.143 12.3572 93.1974 12.423C93.3961 12.6657 93.5131 12.3247 93.6459 12.4852C93.7794 12.6435 93.5835 12.9448 93.8936 12.8883C93.9522 12.7081 93.6459 12.3146 93.8725 12.2046C94.7324 11.8006 96.4513 11.7674 97.1622 11.5876C97.8756 11.4184 98.0904 11.3122 98.5089 11.2308C99.2652 11.0719 98.9033 10.8722 99.2807 10.5772C99.6653 10.2726 99.7438 11.0513 99.8701 11.1749C99.9974 11.2967 100.002 11.1138 100.115 11.1613C100.229 11.2083 100.103 11.3837 100.301 11.3328C100.492 11.2866 100.891 10.7807 100.87 10.6026C100.845 10.2188 100.46 9.99831 100.983 9.88049C101.013 9.8737 101.017 10.091 101.128 10.056C102.004 9.77091 102.813 9.27289 103.631 8.83584C103.746 8.77443 103.778 9.01284 103.846 8.97868C104.543 8.62623 104.116 8.49941 104.203 7.93928C104.447 8.41056 104.833 8.51554 105.294 8.15398C105.567 7.94157 105.385 7.79709 105.468 7.533C105.492 7.45403 105.786 7.42597 105.759 7.31479C105.679 6.94799 105.243 6.77622 105.86 6.53732C105.887 6.52796 105.92 6.73259 106.005 6.68914C106.565 6.41899 106.436 6.06237 107.092 5.72451C107.208 5.66835 107.353 5.6187 107.516 5.57923C108.001 5.46947 108.648 5.39854 109.078 5.28664C109.244 5.82238 109.716 5.53073 109.805 5.09929C110.167 4.99984 110.542 4.85927 110.904 4.80333C111.028 4.78408 110.997 4.96063 111.017 4.97252C111.324 5.16139 111.372 4.76071 111.445 4.72407C112.242 4.34126 113.001 4.41811 113.744 3.9546C113.771 3.9379 113.726 3.56259 114.009 3.77545C114.028 3.79036 113.8 4.0208 114.186 3.94106C114.57 3.8616 115.336 3.89225 115.833 3.61824C115.955 3.55098 116.223 3.19366 116.533 3.37449C116.574 3.39925 116.555 3.51002 116.616 3.55851C116.812 3.71262 116.836 3.33111 117.084 3.60765C117.33 3.88501 117.76 4.04712 118.264 3.75278C118.28 3.74393 118.365 3.4362 118.535 3.41696C118.809 3.38577 119.2 3.39544 119.486 3.35935C119.623 3.34191 119.514 3.17395 119.537 3.16784C120.445 2.96181 121.116 3.06065 122.105 3.06274C122.289 3.06294 122.793 2.7927 123.153 2.96772C123.544 3.15985 123.191 4.03605 124.051 3.79876C124.359 3.71558 124.726 2.84493 125.264 3.03457C125.325 3.06875 125.391 3.12118 125.455 3.19553C126.704 3.22829 127.803 3.66827 129.063 3.64353C129.12 3.6426 129.337 3.37138 129.464 3.39329C129.659 3.42703 129.747 3.57971 129.882 3.60771C130.457 3.72937 131.003 3.6848 131.558 3.77983C131.77 3.8158 131.677 3.94736 131.926 3.98952C132.182 4.03235 132.372 3.86866 132.704 4.00545C132.952 4.10921 133.16 4.52431 133.498 4.61444C133.56 4.24151 133.796 4.28133 134.229 4.2389C134.312 4.23051 134.244 4.08885 134.284 4.07817C134.444 4.03146 134.579 4.15925 134.733 4.10554C134.771 4.09275 134.789 3.9653 134.822 3.94779C135.098 3.79372 135.467 4.13427 135.533 4.19347C135.778 4.41834 135.927 4.26922 136.123 4.37032C136.322 4.47172 135.999 4.52491 136.236 4.6013C136.724 4.75884 137.373 4.81866 137.883 4.88418C138.087 4.90944 137.967 4.72355 137.997 4.72322C138.139 4.72525 138.279 4.75173 138.41 4.77426C138.676 4.8242 138.915 4.8623 139.102 4.65883C139.272 5.56995 139.367 4.60861 139.943 4.87038C139.988 4.89142 139.987 5.31107 139.798 5.34499C139.609 5.37894 139.353 5.21101 139.089 5.27062C139.027 5.28423 138.636 5.62461 138.587 5.64228C138.447 5.69157 138.362 5.64094 138.31 5.55454L138.322 5.55603C138.227 5.40623 138.23 5.14522 138.22 5.12226C138.042 4.73146 137.575 5.09916 137.46 5.11452C136.938 5.18596 136.521 5.04521 136.086 5.08586C135.803 5.11176 135.72 5.51304 135.508 5.47324C134.791 5.33957 134.617 4.73961 133.872 5.14142C133.714 5.22726 133.798 5.69093 133.325 5.2725C133.295 5.24618 132.953 4.87478 132.7 5.04719C132.668 5.06895 132.651 5.19891 132.613 5.20498C132.359 5.24304 132.204 5.117 131.929 5.13081C131.65 5.14418 131.315 5.17498 131.016 5.08995C130.83 5.03834 130.63 4.76376 130.548 4.69198C130.316 4.48568 130.016 4.73229 129.885 4.50245C129.758 4.27183 130.106 3.9956 129.717 3.80423C129.655 4.14254 129.571 4.48722 129.499 4.82637C128.598 4.69358 127.729 4.46409 126.824 4.35807C126.712 4.34535 126.801 4.54558 126.68 4.53675C126.165 4.49825 125.745 4.30753 125.211 4.29013C125.17 4.28884 125.128 4.28902 125.085 4.29038L125.273 4.30275C124.9 4.37073 124.517 4.54639 124.14 4.60532C123.876 4.21106 123.257 4.3736 122.805 4.36478C122.646 4.36159 122.651 4.25284 122.537 4.22465C122.108 4.12188 122.326 4.46755 122.214 4.53206C121.736 4.81092 121.633 4.0007 121.046 4.07379C121.016 4.07674 120.672 4.54995 120.625 4.58305C120.315 4.79552 120.555 4.43719 120.347 4.42757C119.959 4.41177 119.685 4.3384 119.258 4.5262C119.136 4.58097 118.86 4.89844 118.585 4.72511C118.548 4.70241 118.545 4.55476 118.518 4.55027C118.012 4.48348 118.076 4.94189 117.828 5.14334C117.584 5.34458 117.114 5.10777 117.011 5.03338C116.746 4.84065 117.163 4.90017 117.172 4.87509C117.267 4.57391 116.965 4.67782 116.728 4.70004C116.609 4.25791 116.281 4.35016 116.479 4.72609C116.501 4.76696 116.677 4.68873 116.728 4.70004C116.601 5.18068 116.264 5.30979 115.781 4.98461C115.557 4.83231 115.68 4.56663 115.133 4.77764C114.884 4.87461 115.054 5.16159 114.849 5.30023C114.385 5.61727 113.651 5.50271 113.138 5.69755C112.951 5.76862 113.184 5.88587 113.059 5.94042C112.73 6.0855 112.391 6.04793 112.064 6.22037C112.035 6.23618 112.164 6.39139 112.059 6.4268C111.258 6.70005 110.517 6.82136 109.665 7.10973C109.287 7.23769 108.657 7.55117 108.215 7.70023C108.19 7.70901 108.165 7.71708 108.141 7.72419C107.641 7.85871 106.802 8.09197 106.334 8.55074C106.034 8.84322 106.223 8.94714 106.167 9.16552C106.052 9.59631 105.25 9.63905 105.134 9.63468C105.132 9.63342 105.403 9.35833 105.181 9.40408C104.957 9.30857 105.137 9.63107 105.134 9.63468C105.061 9.63524 104.403 10.0814 104.3 10.2002C104.243 10.2679 104.392 10.3955 104.36 10.4282C103.585 11.2057 102.648 11.8482 101.614 12.2679C101.595 12.2731 101.525 12.0623 101.481 12.0766C100.864 12.2748 100.611 12.6823 100.177 13.0409C99.7524 13.3939 99.3257 13.4962 98.9151 13.231C98.5467 13.4148 97.9816 13.4173 97.636 13.41C97.2929 13.4021 97.3803 13.8396 97.3528 13.8571C96.5712 14.3746 96.0108 14.2512 95.1176 14.4047C94.6965 14.4774 93.8661 14.7053 93.4157 14.8324C93.0507 14.9363 92.82 14.8624 92.5012 14.9819C92.4576 14.998 92.5301 15.198 92.5174 15.208C92.1764 15.5127 92.2906 14.9784 92.2025 14.8992C91.8868 14.609 91.6704 14.4578 91.235 14.6704C91.1333 14.7188 90.8914 15.4991 90.6898 15.5675C90.4289 15.654 90.5055 15.3749 90.2303 15.4708C90.2079 15.4786 90.2214 15.6443 90.0577 15.6548C89.2896 15.7069 88.405 15.6849 87.6034 15.7573C87.4913 15.7667 87.6476 16.0275 87.485 16.0459C86.7008 16.1325 85.9215 16.1677 85.1546 16.0679C84.9787 16.0422 85.0863 15.8427 85.0475 15.7864C84.8111 15.4442 84.4795 15.9647 84.4227 15.9767C83.2765 16.2191 82.4209 15.937 81.3226 15.9669C81.0794 15.972 80.8257 15.9826 80.5642 16.0049C80.4843 16.0164 79.7338 16.5353 79.5107 16.0062C79.4921 15.9713 79.2912 15.434 78.9872 15.7387C78.9674 15.7576 79.0987 16.0435 78.7945 15.9692C78.4933 15.8948 77.961 15.9772 77.6265 15.6045C77.5167 15.4869 77.3556 14.9197 76.8757 15.2236C76.8476 15.2461 75.9982 15.9973 75.9852 15.316C75.9838 15.2037 76.227 14.5577 75.6902 14.7667C75.5863 14.8072 75.6876 14.9994 75.4393 15.0252C75.0577 15.0658 74.6851 14.7494 74.1762 14.9074C74.0879 14.9358 73.6162 15.2824 73.5102 14.8591C73.4939 14.7928 73.65 14.5974 73.5355 14.5285C72.9934 14.1996 72.3261 14.1175 71.8123 13.735C71.6312 13.5997 71.8918 13.2829 71.723 13.1008C71.5535 12.9187 71.1768 12.6507 70.8847 12.7236C70.5925 12.7974 70.5701 13.4729 70.2208 13.3834C68.7002 12.997 67.4843 12.0509 66.1918 11.4644C66.0012 11.3789 66.0622 11.66 65.7768 11.5532C65.16 11.3222 64.1938 11.0684 63.7273 10.9506C63.0957 10.7872 62.5346 10.5726 62.1744 10.2716C61.4437 9.66105 62.5878 9.5915 61.9917 9.26959C61.7079 9.11368 61.1603 9.83434 61.0756 9.84187C60.2802 9.92764 59.8746 9.44595 59.1931 9.3932C59.0535 9.38308 59.0878 9.74678 58.97 9.73489C58.5582 9.69532 58.1982 9.44598 57.8167 9.37874C57.6474 9.35004 57.6015 9.61448 57.4563 9.55703C57.099 9.41963 56.8157 9.23235 56.5335 8.89746C56.5082 8.86682 56.821 8.59935 56.5583 8.51796C56.1333 8.38813 55.6704 8.00283 55.1089 8.13095C54.9403 8.16945 54.7539 8.77662 54.5684 8.27888C54.5293 8.17506 54.828 7.46075 54.2803 8.00531C54.1876 8.09303 53.3397 8.81579 53.2081 8.19057C53.1723 8.0254 53.1442 7.36479 52.9477 7.42161C52.9206 7.43188 52.9205 7.78965 52.7717 7.79091C52.2465 7.78951 51.7447 7.64546 51.2215 7.65943C51.0822 7.66439 51.193 8.05948 50.9895 8.05675C50.4303 8.05034 49.7918 7.85747 49.295 7.67462C49.1124 7.60657 49.3003 7.31506 49.2928 7.27986C49.1644 6.70282 48.8984 7.42515 48.819 7.46086C48.3157 7.66882 48.0175 7.28502 47.5791 7.34602C47.4581 7.36244 47.4957 7.73085 47.4682 7.76146C47.1881 8.06207 47.4488 7.42204 47.3027 7.3397C46.8991 7.1075 46.4049 7.11208 45.9619 7.14891C45.7992 7.16312 45.947 7.59821 45.8024 7.60688C45.0717 7.65898 44.3201 7.65335 43.5823 7.52361C43.5516 7.50288 43.508 7.47878 43.4527 7.45225C43.3785 7.41783 43.4031 7.06527 43.3825 6.98928C43.217 6.45598 43.0646 7.25059 43.0294 7.33501C42.8549 7.71414 42.7032 7.43688 42.477 7.55998C41.3899 8.16553 39.5751 8.70574 38.1519 9.19663C36.3018 9.84259 34.7321 10.1832 32.9986 11.1158C32.8883 11.1749 33.2058 11.6096 33.1135 11.6674C31.9122 12.3949 30.586 12.8054 29.3739 13.5657C29.2738 13.6276 29.6255 14.0414 29.4715 14.1581C29.1555 14.4018 28.7057 14.5906 28.2942 14.6006C28.0926 14.6067 28.1484 14.0715 27.9487 14.0854C27.4831 14.1164 27.0311 14.2849 26.6547 14.5575C26.4932 14.6757 26.9654 15.0667 26.7391 15.1812C25.1962 15.9721 23.6778 16.8028 21.8017 16.8004C21.6727 16.8007 21.1597 15.7187 21.0028 16.0343C21.1003 16.3549 21.2368 16.7228 21.3522 17.0609C19.0874 18.2651 16.6021 18.8297 14.1742 19.6679C14.0726 19.7036 14.4522 20.2949 14.2559 20.3684C13.1169 20.793 12.0501 21.405 10.6679 21.1374C10.5308 21.1116 10.2512 19.8776 9.96033 20.1754C9.90968 20.2291 9.43635 20.5637 9.37291 20.8756C9.36537 20.9221 9.61631 21.4639 9.45188 21.5377C8.48616 21.9585 7.42546 22.163 6.34311 22.1017C6.16985 22.09 6.1854 21.4029 6.06099 21.3883C5.18357 21.2844 4.40787 22.0291 3.51028 21.6432C2.90705 21.3796 2.854 20.1912 2.34473 19.1334C2.27304 18.984 1.95188 19.0323 1.79927 18.3786C1.41537 16.7344 1.18832 14.8976 0.760865 13.1495C0.690188 12.8584 0.483325 13.0751 0.415951 12.7477C0.415937 12.7476 0.415922 12.7476 0.415908 12.7475C0.39608 12.651 0.388429 12.5073 0.399559 12.2901C0.403741 12.226 0.631739 11.877 0.637519 11.5567C0.641918 11.3352 0.412931 10.6818 0.455592 10.3938C0.497848 10.1068 0.726493 10.648 0.823814 10.3038C0.919545 9.95632 0.684702 9.21417 0.992485 9.08311ZM96.1446 13.3255C95.8199 13.181 95.9533 13.9665 96.2148 13.7064C96.2272 13.6929 96.1613 13.3323 96.1446 13.3255ZM127.798 4.00487C127.471 3.686 127.168 4.04836 127.396 4.29111C127.62 4.53279 127.899 4.10158 127.798 4.00487ZM131.601 4.32426C131.202 4.05645 131.019 4.90237 131.5 4.79102C131.528 4.78483 131.625 4.3398 131.601 4.32426ZM3.5219 18.5167C3.51132 18.4873 3.28105 18.5119 3.28234 18.5434C3.3242 19.3032 3.78704 19.2493 3.5219 18.5167ZM135.378 4.61628C135.262 4.4847 134.86 4.56627 135.006 4.73048C135.126 4.86284 135.523 4.78007 135.378 4.61628ZM81.3354 13.6288C81.3313 13.6151 81.1684 13.5964 81.1679 13.6745C81.1674 13.9277 81.4039 13.8636 81.3354 13.6288ZM141.741 5.46735C140.809 5.2897 140.344 4.51026 141.356 4.74594C141.539 4.78874 140.922 4.90505 141.148 5.00393C141.548 5.17805 141.891 4.82079 142.277 5.06735C142.291 5.07644 142.324 4.96325 142.373 4.75444C142.452 4.3848 142.309 5.15696 142.259 5.18557C142.114 5.30066 141.779 5.47611 141.739 5.46805C141.739 5.46782 141.74 5.46759 141.741 5.46735ZM95.7714 12.4347C95.764 12.4258 95.5428 12.4655 95.5394 12.4768C95.4745 12.7508 95.9241 12.6689 95.7714 12.4347ZM72.4633 10.4077C72.4644 10.3767 72.001 10.135 71.975 10.1524C71.5026 10.5332 72.446 11.0189 72.4633 10.4077ZM109.092 5.29802C109.257 5.01209 109.533 4.89704 109.804 5.09936C109.568 5.15985 109.33 5.23459 109.092 5.29802Z" fill="#9ABFC6"/>
</svg>
