<svg width="21" height="21" viewBox="0 0 21 21" fill="none" xmlns="http://www.w3.org/2000/svg">
<path fill-rule="evenodd" clip-rule="evenodd" d="M1.83179 4.22876C1.83179 2.84805 2.95108 1.72876 4.33179 1.72876C5.7125 1.72876 6.83179 2.84805 6.83179 4.22876C6.83179 5.60947 5.7125 6.72876 4.33179 6.72876C2.95108 6.72876 1.83179 5.60947 1.83179 4.22876ZM4.33179 2.97876C3.64143 2.97876 3.08179 3.5384 3.08179 4.22876C3.08179 4.91912 3.64143 5.47876 4.33179 5.47876C5.02214 5.47876 5.58179 4.91912 5.58179 4.22876C5.58179 3.5384 5.02214 2.97876 4.33179 2.97876Z" fill="#221F1F"/>
<path fill-rule="evenodd" clip-rule="evenodd" d="M4.08617 7.97876H4.57742C4.9381 7.97872 5.26879 7.97868 5.5378 8.01485C5.83403 8.05468 6.14714 8.14838 6.40466 8.4059C6.66218 8.66342 6.75588 8.97653 6.79571 9.27276C6.83188 9.54177 6.83184 9.87246 6.8318 10.2331L6.8318 17.3911C6.83184 17.7517 6.83188 18.0824 6.79571 18.3514C6.75588 18.6477 6.66218 18.9608 6.40466 19.2183C6.14714 19.4758 5.83403 19.5695 5.5378 19.6093C5.26879 19.6455 4.93809 19.6455 4.57741 19.6454H4.08617C3.72549 19.6455 3.3948 19.6455 3.12579 19.6093C2.82955 19.5695 2.51645 19.4758 2.25893 19.2183C2.00141 18.9608 1.9077 18.6477 1.86788 18.3514C1.83171 18.0824 1.83175 17.7517 1.83179 17.3911L1.83179 10.2331C1.83175 9.87246 1.83171 9.54177 1.86788 9.27276C1.9077 8.97653 2.00141 8.66342 2.25893 8.4059C2.51645 8.14838 2.82955 8.05468 3.12579 8.01485C3.3948 7.97868 3.72549 7.97872 4.08617 7.97876ZM3.14282 9.2898L3.14485 9.28865C3.14646 9.28781 3.14923 9.28646 3.15343 9.28473C3.17158 9.27726 3.21188 9.26452 3.29235 9.2537C3.46795 9.23009 3.71295 9.22877 4.12346 9.22877H4.54013C4.95063 9.22877 5.19564 9.23009 5.37124 9.2537C5.45171 9.26452 5.49201 9.27726 5.51016 9.28473C5.51436 9.28646 5.51712 9.28781 5.51873 9.28865L5.52076 9.2898L5.52191 9.29183C5.52275 9.29344 5.5241 9.2962 5.52583 9.3004C5.53329 9.31855 5.54604 9.35885 5.55686 9.43932C5.58047 9.61492 5.58179 9.85993 5.58179 10.2704L5.58179 17.3538C5.58179 17.7643 5.58047 18.0093 5.55686 18.1849C5.54604 18.2653 5.53329 18.3056 5.52583 18.3238C5.5241 18.328 5.52275 18.3308 5.52191 18.3324L5.52076 18.3344L5.51873 18.3355C5.51712 18.3364 5.51436 18.3377 5.51016 18.3395C5.49201 18.3469 5.4517 18.3597 5.37124 18.3705C5.19564 18.3941 4.95063 18.3954 4.54013 18.3954H4.12346C3.71295 18.3954 3.46795 18.3941 3.29235 18.3705C3.21188 18.3597 3.17158 18.3469 3.15343 18.3395C3.14923 18.3377 3.14646 18.3364 3.14485 18.3355L3.14282 18.3344L3.14168 18.3324C3.14084 18.3308 3.13949 18.328 3.13776 18.3238C3.13029 18.3056 3.11755 18.2653 3.10673 18.1849C3.08312 18.0093 3.08179 17.7643 3.08179 17.3538L3.08179 10.2704C3.08179 9.85993 3.08312 9.61492 3.10673 9.43932C3.11755 9.35885 3.13029 9.31855 3.13776 9.3004C3.13949 9.2962 3.14084 9.29344 3.14168 9.29182L3.14282 9.2898Z" fill="#221F1F"/>
<path fill-rule="evenodd" clip-rule="evenodd" d="M10.3362 7.97876C10.5775 7.97874 11.5494 7.97873 11.7339 7.99563C11.9334 8.01391 12.1506 8.05591 12.3599 8.17836C12.5759 8.30475 12.7558 8.48461 12.8822 8.70063L12.8922 8.71804C13.5503 8.25334 14.3447 7.97896 15.2041 7.97896C17.4501 7.97896 19.7485 9.89081 19.7485 12.354L19.7474 16.975C19.7474 17.3356 19.7473 17.6663 19.7111 17.9352C19.6712 18.2314 19.5774 18.5444 19.3199 18.8019C19.0624 19.0593 18.7494 19.153 18.4532 19.1928C18.1842 19.2289 17.8536 19.2289 17.493 19.2289H17.0028C16.6421 19.2289 16.3114 19.2289 16.0424 19.1928C15.7462 19.153 15.4331 19.0592 15.1756 18.8017C14.918 18.5442 14.8243 18.2311 14.7845 17.9349C14.7483 17.6659 14.7484 17.3352 14.7484 16.9745L14.7484 13.1872C14.7484 12.8059 14.4664 12.5622 14.1967 12.5622C13.7657 12.5622 13.534 12.7275 13.3747 12.9919C13.1875 13.3028 13.0818 13.7945 13.0818 14.4372L13.0818 17.3911C13.0819 17.7518 13.0819 18.0824 13.0457 18.3515C13.0059 18.6477 12.9122 18.9608 12.6547 19.2183C12.3971 19.4758 12.084 19.5695 11.7878 19.6093C11.5188 19.6455 11.1881 19.6455 10.8274 19.6454H10.3362C9.97548 19.6455 9.64479 19.6455 9.37579 19.6093C9.07955 19.5695 8.76645 19.4758 8.50893 19.2183C8.25141 18.9608 8.1577 18.6477 8.11788 18.3514C8.08171 18.0824 8.08175 17.7517 8.08179 17.3911L8.08179 10.2331C8.08175 9.87246 8.08171 9.54177 8.11788 9.27276C8.1577 8.97653 8.25141 8.66342 8.50893 8.4059C8.76645 8.14838 9.07955 8.05468 9.37579 8.01485C9.6448 7.97868 9.97549 7.97872 10.3362 7.97876ZM10.3735 9.22876C9.96295 9.22876 9.71794 9.23009 9.54234 9.2537C9.48596 9.2515 9.36989 9.28556 9.35672 9.43931C9.33311 9.61491 9.33179 9.85992 9.33179 10.2704L9.33179 17.3538C9.33179 17.7643 9.33311 18.0093 9.35672 18.1849C9.36678 18.2865 9.48466 18.351 9.54234 18.3705C9.71794 18.3941 9.96295 18.3954 10.3735 18.3954H10.7901C11.2006 18.3954 11.4456 18.3941 11.6212 18.3705C11.6786 18.356 11.796 18.2986 11.8069 18.1849C11.8305 18.0093 11.8318 17.7643 11.8318 17.3538L11.8318 14.4372C11.8318 13.6992 11.9462 12.9409 12.3039 12.347C12.6897 11.7066 13.3279 11.3122 14.1967 11.3122C15.2268 11.3122 15.9984 12.1878 15.9984 13.1872V16.9372C15.9984 17.3477 15.9997 17.5927 16.0234 17.7683C16.0234 17.9 16.103 17.9221 16.1651 17.9393C16.1816 17.9439 16.1968 17.9481 16.209 17.9539C16.3846 17.9775 16.6296 17.9789 17.0401 17.9789L17.4557 17.9789C17.8661 17.9789 18.1111 17.9775 18.2867 17.9539C18.3445 17.9325 18.4625 17.8654 18.4723 17.7684C18.4959 17.5928 18.4973 17.3479 18.4974 16.9374L18.4985 12.3538C18.4984 10.6749 16.8574 9.22896 15.2041 9.22896C14.3062 9.22896 13.4937 9.66798 12.9543 10.3771C12.7919 10.5906 12.5114 10.6767 12.2572 10.591C12.003 10.5053 11.8318 10.267 11.8318 9.99874C11.8318 9.7246 11.8312 9.56125 11.8202 9.44075C11.8133 9.31471 11.6837 9.25467 11.6198 9.24041C11.4993 9.22937 11.336 9.22876 11.0618 9.22876L10.3735 9.22876Z" fill="#221F1F"/>
</svg>
