<svg width="19" height="18" viewBox="0 0 19 18" fill="none" xmlns="http://www.w3.org/2000/svg">
<path fill-rule="evenodd" clip-rule="evenodd" d="M0.331787 2.54175C0.331787 1.16104 1.45108 0.041748 2.83179 0.041748C4.2125 0.041748 5.33179 1.16104 5.33179 2.54175C5.33179 3.92246 4.2125 5.04175 2.83179 5.04175C1.45108 5.04175 0.331787 3.92246 0.331787 2.54175ZM2.83179 1.29175C2.14143 1.29175 1.58179 1.85139 1.58179 2.54175C1.58179 3.2321 2.14143 3.79175 2.83179 3.79175C3.52214 3.79175 4.08179 3.2321 4.08179 2.54175C4.08179 1.85139 3.52214 1.29175 2.83179 1.29175Z" fill="white"/>
<path fill-rule="evenodd" clip-rule="evenodd" d="M2.58617 6.29175H3.07742C3.4381 6.29171 3.76879 6.29167 4.0378 6.32784C4.33403 6.36766 4.64714 6.46137 4.90466 6.71889C5.16218 6.97641 5.25588 7.28951 5.29571 7.58575C5.33188 7.85476 5.33184 8.18545 5.3318 8.54612L5.3318 15.704C5.33184 16.0647 5.33188 16.3954 5.29571 16.6644C5.25588 16.9607 5.16218 17.2738 4.90466 17.5313C4.64714 17.7888 4.33403 17.8825 4.0378 17.9223C3.76879 17.9585 3.43809 17.9585 3.07741 17.9584H2.58617C2.22549 17.9585 1.8948 17.9585 1.62579 17.9223C1.32955 17.8825 1.01645 17.7888 0.758929 17.5313C0.501409 17.2738 0.407704 16.9607 0.367876 16.6644C0.331709 16.3954 0.331747 16.0647 0.33179 15.704L0.33179 8.54613C0.331747 8.18545 0.331709 7.85476 0.367876 7.58575C0.407703 7.28951 0.501409 6.97641 0.758929 6.71889C1.01645 6.46137 1.32955 6.36766 1.62579 6.32784C1.8948 6.29167 2.22549 6.29171 2.58617 6.29175ZM1.64282 7.60278L1.64485 7.60164C1.64646 7.6008 1.64923 7.59945 1.65343 7.59772C1.67158 7.59025 1.71188 7.57751 1.79235 7.56669C1.96795 7.54308 2.21295 7.54175 2.62346 7.54175H3.04013C3.45063 7.54175 3.69564 7.54308 3.87124 7.56669C3.95171 7.57751 3.99201 7.59025 4.01016 7.59772C4.01436 7.59945 4.01712 7.6008 4.01873 7.60164L4.02076 7.60278L4.02191 7.60481C4.02275 7.60642 4.0241 7.60919 4.02583 7.61339C4.03329 7.63154 4.04604 7.67184 4.05686 7.75231C4.08047 7.92791 4.08179 8.17291 4.08179 8.58342L4.08179 15.6668C4.08179 16.0773 4.08047 16.3223 4.05686 16.4979C4.04604 16.5783 4.03329 16.6186 4.02583 16.6368C4.0241 16.641 4.02275 16.6437 4.02191 16.6454L4.02076 16.6474L4.01873 16.6485C4.01712 16.6494 4.01436 16.6507 4.01016 16.6525C3.99201 16.6599 3.9517 16.6727 3.87124 16.6835C3.69564 16.7071 3.45063 16.7084 3.04013 16.7084H2.62346C2.21295 16.7084 1.96795 16.7071 1.79235 16.6835C1.71188 16.6727 1.67158 16.6599 1.65343 16.6525C1.64923 16.6507 1.64646 16.6494 1.64485 16.6485L1.64282 16.6474L1.64168 16.6454C1.64084 16.6437 1.63949 16.641 1.63776 16.6368C1.63029 16.6186 1.61755 16.5783 1.60673 16.4979C1.58312 16.3223 1.58179 16.0773 1.58179 15.6668L1.58179 8.58342C1.58179 8.17291 1.58312 7.92791 1.60673 7.75231C1.61755 7.67184 1.63029 7.63154 1.63776 7.61339C1.63949 7.60919 1.64084 7.60642 1.64168 7.60481L1.64282 7.60278Z" fill="white"/>
<path fill-rule="evenodd" clip-rule="evenodd" d="M8.83617 6.29175C9.07749 6.29173 10.0494 6.29172 10.2339 6.30862C10.4334 6.32689 10.6506 6.3689 10.8599 6.49135C11.0759 6.61774 11.2558 6.7976 11.3822 7.01362L11.3922 7.03103C12.0503 6.56633 12.8447 6.29195 13.7041 6.29195C15.9501 6.29195 18.2485 8.2038 18.2485 10.667L18.2474 15.288C18.2474 15.6486 18.2473 15.9793 18.2111 16.2482C18.1712 16.5444 18.0774 16.8574 17.8199 17.1148C17.5624 17.3723 17.2494 17.466 16.9532 17.5058C16.6842 17.5419 16.3536 17.5419 15.993 17.5419H15.5028C15.1421 17.5419 14.8114 17.5419 14.5424 17.5058C14.2462 17.4659 13.9331 17.3722 13.6756 17.1147C13.418 16.8572 13.3243 16.5441 13.2845 16.2479C13.2483 15.9789 13.2484 15.6482 13.2484 15.2875L13.2484 11.5002C13.2484 11.1189 12.9664 10.8752 12.6967 10.8752C12.2657 10.8752 12.034 11.0405 11.8747 11.3049C11.6875 11.6157 11.5818 12.1074 11.5818 12.7502L11.5818 15.7041C11.5819 16.0647 11.5819 16.3954 11.5457 16.6644C11.5059 16.9607 11.4122 17.2738 11.1547 17.5313C10.8971 17.7888 10.584 17.8825 10.2878 17.9223C10.0188 17.9585 9.6881 17.9585 9.32743 17.9584H8.83615C8.47548 17.9585 8.14479 17.9585 7.87579 17.9223C7.57955 17.8825 7.26645 17.7888 7.00893 17.5313C6.75141 17.2738 6.6577 16.9607 6.61788 16.6644C6.58171 16.3954 6.58175 16.0647 6.58179 15.704L6.58179 8.54613C6.58175 8.18545 6.58171 7.85476 6.61788 7.58575C6.6577 7.28951 6.75141 6.97641 7.00893 6.71889C7.26645 6.46137 7.57955 6.36766 7.87579 6.32784C8.1448 6.29167 8.47549 6.29171 8.83617 6.29175ZM8.87345 7.54175C8.46295 7.54175 8.21794 7.54308 8.04234 7.56668C7.98596 7.56449 7.86989 7.59854 7.85672 7.7523C7.83311 7.9279 7.83179 8.17291 7.83179 8.58341L7.83179 15.6667C7.83179 16.0773 7.83311 16.3223 7.85672 16.4979C7.86678 16.5995 7.98466 16.6639 8.04234 16.6835C8.21794 16.7071 8.46295 16.7084 8.87345 16.7084H9.29014C9.70064 16.7084 9.94564 16.7071 10.1212 16.6835C10.1786 16.669 10.296 16.6116 10.3069 16.4979C10.3305 16.3223 10.3318 16.0773 10.3318 15.6668L10.3318 12.7502C10.3318 12.0122 10.4462 11.2539 10.8039 10.6599C11.1897 10.0195 11.8279 9.62518 12.6967 9.62518C13.7268 9.62518 14.4984 10.5007 14.4984 11.5002V15.2502C14.4984 15.6607 14.4997 15.9057 14.5234 16.0813C14.5234 16.213 14.603 16.2351 14.6651 16.2523C14.6816 16.2569 14.6968 16.2611 14.709 16.2669C14.8846 16.2905 15.1296 16.2918 15.5401 16.2918L15.9557 16.2918C16.3661 16.2918 16.6111 16.2905 16.7867 16.2669C16.8445 16.2455 16.9625 16.1783 16.9723 16.0814C16.9959 15.9058 16.9973 15.6608 16.9974 15.2504L16.9985 10.6668C16.9984 8.98788 15.3574 7.54195 13.7041 7.54195C12.8062 7.54195 11.9937 7.98097 11.4543 8.69011C11.2919 8.90359 11.0114 8.98965 10.7572 8.90396C10.503 8.81827 10.3318 8.57996 10.3318 8.31173C10.3318 8.03759 10.3312 7.87423 10.3202 7.75374C10.3133 7.6277 10.1837 7.56766 10.1198 7.5534C9.99932 7.54236 9.83597 7.54175 9.56183 7.54175L8.87345 7.54175Z" fill="white"/>
</svg>
