<svg width="18" height="18" viewBox="0 0 31 37" fill="none" xmlns="http://www.w3.org/2000/svg">
<path fill-rule="evenodd" clip-rule="evenodd" d="M15.7476 0.35376C24.0874 0.35376 30.8726 7.19026 30.8726 15.5943C30.8726 25.9251 19.0366 36.1038 15.7476 36.1038C12.4586 36.1038 0.622559 25.9251 0.622559 15.5943C0.622559 7.19026 7.40773 0.35376 15.7476 0.35376ZM15.7476 3.10376C8.92389 3.10376 3.37256 8.70826 3.37256 15.5943C3.37256 24.3558 13.6832 32.8918 15.7476 33.3464C17.8119 32.8899 28.1226 24.3539 28.1226 15.5943C28.1226 8.70826 22.5712 3.10376 15.7476 3.10376ZM15.7494 9.52043C19.0347 9.52043 21.7077 12.1934 21.7077 15.4806C21.7077 18.7659 19.0347 21.4371 15.7494 21.4371C12.4641 21.4371 9.79106 18.7659 9.79106 15.4806C9.79106 12.1934 12.4641 9.52043 15.7494 9.52043ZM15.7494 12.2704C13.9802 12.2704 12.5411 13.7096 12.5411 15.4806C12.5411 17.2498 13.9802 18.6871 15.7494 18.6871C17.5186 18.6871 18.9577 17.2498 18.9577 15.4806C18.9577 13.7096 17.5186 12.2704 15.7494 12.2704Z" fill="black"/>
</svg>
