<svg width="88" height="87" viewBox="0 0 88 87" fill="none" xmlns="http://www.w3.org/2000/svg">
<path d="M23.3399 0.0104362C23.4961 0.00755035 23.6523 0.00547782 23.8085 0.00375704C23.8955 0.00251721 23.9825 0.00127739 24.0721 0C24.3039 0.0104362 24.3039 0.0104362 24.5182 0.117303C24.4686 2.09211 24.4106 4.06624 24.3303 6.04006C24.1897 9.51844 24.0559 12.9962 24.0439 16.4778C24.0429 16.6921 24.0409 16.9064 24.039 17.1206C24.0207 19.4078 24.0771 21.6583 25.7432 23.4209C26.7754 24.3739 27.9655 24.5491 29.3244 24.5159C29.8933 24.485 30.3453 24.3414 30.8378 24.0555C30.9277 24.0035 31.0175 23.9516 31.1102 23.8981C32.3288 23.12 32.9225 22.0124 33.5156 20.7426C33.5863 20.6015 33.657 20.4605 33.7298 20.3151C34.0479 20.3504 34.3661 20.3857 34.6938 20.422C34.8189 20.7963 34.7767 20.9271 34.6775 21.3028C34.6478 21.4156 34.618 21.5284 34.5874 21.6447C34.554 21.7658 34.5207 21.8869 34.4863 22.0116C34.452 22.1364 34.4177 22.2611 34.3824 22.3897C33.496 25.5368 32.0791 29.0886 29.121 30.8444C27.8683 31.4636 26.4931 31.6589 25.1407 31.269C23.415 30.617 22.3118 29.1534 21.56 27.5282C21.4339 27.2273 21.3124 26.9257 21.1977 26.6203C21.127 26.6203 21.0563 26.6203 20.9835 26.6203C20.8246 26.8307 20.8246 26.8307 20.6621 27.1078C20.3965 27.5384 20.1235 27.9595 19.8361 28.3758C18.56 30.2132 18.56 30.2132 18.4128 32.3911C18.5599 32.7271 18.6495 32.883 18.9797 33.0486C19.1332 33.0901 19.1332 33.0901 19.2897 33.1325C19.4123 33.1668 19.535 33.2011 19.6613 33.2364C20.0238 33.3294 20.388 33.4145 20.7525 33.4994C20.8642 33.5259 20.9758 33.5525 21.0909 33.5798C21.3133 33.6322 21.5362 33.6828 21.7595 33.7315C22.6408 33.9375 23.3955 34.2721 24.0495 34.9091C24.34 35.6335 24.3285 36.3049 24.0608 37.0385C23.8915 37.4046 23.6958 37.7546 23.4949 38.1042C23.3147 38.4197 23.141 38.7385 22.9667 39.0573C21.6787 41.3838 20.5695 42.7766 17.9497 43.5435C17.822 43.5793 17.6942 43.6152 17.5626 43.6522C17.424 43.6923 17.2856 43.7326 17.1472 43.773C16.7127 43.8993 16.2774 44.023 15.8421 44.1464C9.69508 45.8583 9.69508 45.8583 5.40239 50.366C3.70968 53.5026 3.3393 57.1998 3.21437 60.7128C3.20652 60.9294 3.19817 61.1459 3.18936 61.3625C3.0959 63.7198 3.08914 66.0761 3.09584 68.4349C3.09655 68.6885 3.09719 68.9422 3.09781 69.1959C3.10173 70.778 3.10653 72.3602 3.11407 73.9423C3.11782 74.7307 3.12033 75.5191 3.12159 76.3076C3.1223 76.72 3.12357 77.1324 3.12641 77.5448C3.17734 85.1272 3.17734 85.1272 2.23882 87C1.88535 87 1.53188 87 1.16769 87C0.862127 84.5481 0.67351 82.092 0.525021 79.6262C0.5192 79.5315 0.513379 79.4368 0.507382 79.3393C0.30376 75.9945 0.291115 72.6499 0.290713 69.3002C0.290657 69.1947 0.2906 69.0891 0.290543 68.9804C0.287722 63.1814 0.287722 63.1814 0.551799 60.4436C0.558454 60.3738 0.56511 60.304 0.571967 60.2321C1.18639 53.8718 2.89665 47.1829 7.9166 42.806C9.51953 41.4928 11.2464 40.4279 13.0346 39.3879C13.3415 39.209 13.6464 39.0272 13.95 38.8427C14.024 38.7979 14.0979 38.7531 14.1741 38.7069C14.3146 38.6215 14.4548 38.5357 14.5948 38.4495C15.0687 38.1619 15.0687 38.1619 15.3065 38.1619C15.2833 38.0904 15.2601 38.0189 15.2362 37.9452C14.5353 35.5334 15.2201 33.1495 16.3932 31.005C16.7783 30.3207 17.1906 29.6529 17.6027 28.9847C19.2669 26.2862 20.8103 23.524 20.7966 20.2705C20.797 20.1559 20.7974 20.0414 20.7978 19.9234C20.7985 19.6769 20.7988 19.4304 20.7986 19.184C20.7985 18.7918 20.7999 18.3997 20.8017 18.0076C20.8066 16.8934 20.8093 15.7791 20.81 14.6649C20.8106 13.9809 20.8132 13.2969 20.817 12.6129C20.8181 12.3546 20.8183 12.0962 20.8178 11.8379C20.8144 10.2639 20.9204 8.80608 21.3048 7.27738C21.3321 7.16353 21.3594 7.04967 21.3876 6.93237C21.4546 6.66357 21.5265 6.39691 21.6014 6.13023C21.6403 5.98841 21.6403 5.98841 21.68 5.84373C21.7617 5.54662 21.8445 5.24982 21.9274 4.95302C21.9845 4.74637 22.0416 4.53969 22.0986 4.33301C22.4984 2.88808 22.9088 1.44638 23.3399 0.0104362Z" fill="#76A4AE"/>
<path d="M80.2164 5.0332C80.6309 5.02525 80.9955 5.02818 81.3946 5.14007C81.3205 8.23248 81.2328 11.3245 81.1333 14.4162C81.1108 15.1166 81.089 15.8171 81.0686 16.5175C80.8921 22.5501 80.8921 22.5501 80.4306 25.1242C80.4045 25.2768 80.4045 25.2768 80.3779 25.4325C79.7965 28.8349 78.5464 33.4589 75.5562 35.5733C75.2938 35.7371 75.0293 35.8842 74.7537 36.0246C74.6859 36.0609 74.6181 36.0973 74.5482 36.1348C73.7201 36.5153 72.6719 36.4664 71.8215 36.1849C71.6933 36.132 71.5652 36.0791 71.4332 36.0246C71.4133 36.126 71.3934 36.2274 71.3729 36.3318C71.2063 36.9142 70.8327 37.3661 70.4692 37.8413C70.417 37.9125 70.3648 37.9837 70.311 38.0571C69.9103 38.5697 69.4491 38.8508 68.8625 39.1237C68.7631 39.17 68.6637 39.2163 68.5613 39.264C67.4848 39.4956 66.5614 39.2774 65.542 38.91C65.4889 38.9784 65.4357 39.0469 65.3809 39.1175C64.2799 40.5161 63.0521 41.613 61.2575 42.0091C59.9586 42.1291 58.907 42.028 57.7228 41.4748C57.6521 41.4748 57.5814 41.4748 57.5086 41.4748C57.3578 41.6641 57.2142 41.8591 57.0735 42.0559C55.6778 43.9278 53.4028 46.2624 50.9748 46.7113C50.9607 46.8363 50.9466 46.9614 50.9321 47.0903C50.5201 50.3525 48.7962 54.7733 46.1891 56.9057C45.4303 57.4296 44.4701 57.5876 43.5752 57.7298C43.4119 57.757 43.4119 57.757 43.2453 57.7847C43.0166 57.8225 42.7879 57.8597 42.5591 57.8964C42.2134 57.952 41.8681 58.0095 41.5227 58.0673C40.3899 58.2542 39.2702 58.4227 38.1213 58.4666C37.7452 57.581 37.7452 57.581 37.9071 57.0773C38.1175 56.8967 38.1175 56.8967 38.3979 56.7346C38.5029 56.6728 38.608 56.611 38.7163 56.5473C38.889 56.4493 38.889 56.4493 39.0652 56.3493C39.1841 56.28 39.303 56.2106 39.4255 56.1392C39.8105 55.915 40.1974 55.6943 40.5849 55.4743C40.6496 55.4376 40.7143 55.4008 40.7809 55.3629C41.105 55.1787 41.4292 54.9947 41.7534 54.8108C41.8169 54.7748 41.8805 54.7388 41.9459 54.7016C42.0742 54.6289 42.2026 54.5561 42.331 54.4834C43.3811 53.888 44.4072 53.2684 45.4049 52.5889C45.4823 52.5366 45.5597 52.4843 45.6394 52.4304C47.7082 51.1224 47.7082 51.1224 49.0467 49.1692C49.0843 48.589 49.0869 48.2608 48.7254 47.7799C48.3155 47.8383 48.0753 47.9444 47.748 48.194C46.7471 48.8773 45.6289 48.9614 44.4409 48.8486C43.4467 48.6288 42.5447 48.1052 41.9773 47.2456C41.4401 46.134 41.4032 45.0725 41.8073 43.9109C41.8635 43.7583 41.8635 43.7583 41.9209 43.6025C41.9595 43.493 41.9981 43.3835 42.0379 43.2707C42.1611 42.923 42.2867 42.5763 42.4125 42.2295C42.494 42.0008 42.5754 41.7719 42.6566 41.543C42.8161 41.0939 42.9774 40.6455 43.1397 40.1974C43.2916 39.7757 43.4363 39.3526 43.5743 38.9262C43.6227 38.7796 43.6227 38.7796 43.672 38.6301C43.7315 38.4488 43.7893 38.2669 43.8452 38.0844C44.073 37.3973 44.3875 37.0805 45.0338 36.7338C45.9752 36.3811 46.9215 36.2775 47.8886 36.6057C49.2006 37.2134 49.9875 38.3952 50.5195 39.6914C50.8261 40.5352 51.0819 41.4279 51.0819 42.3297C53.3162 41.538 55.1099 40.35 56.491 38.409C56.5518 38.3254 56.6125 38.2417 56.675 38.1555C57.0231 37.6691 57.3206 37.1829 57.5956 36.6524C57.8718 36.1645 57.8718 36.1645 58.1421 36.0275C58.5045 35.9891 58.7142 36.0722 59.0048 36.288C59.1488 36.4183 59.291 36.5506 59.4316 36.6846C60.0901 37.2701 60.8008 37.3785 61.6638 37.3475C62.8132 37.212 63.7188 36.551 64.4441 35.6773C64.8307 35.1556 65.077 34.5891 65.3278 33.9941C65.398 33.851 65.4689 33.7083 65.542 33.5666C65.8837 33.4971 66.167 33.4762 66.506 33.5666C66.7441 33.8208 66.9098 34.0797 67.0839 34.3807C67.2714 34.6584 67.3697 34.7444 67.6843 34.849C68.5408 34.9787 69.2289 34.81 69.9336 34.3147C70.6787 33.6932 71.0646 32.8741 71.4692 32.0146C71.6474 31.643 71.6474 31.643 71.8616 31.3224C72.1863 31.253 72.499 31.268 72.8257 31.3224C73.06 31.5228 73.06 31.5228 73.2541 31.7499C73.8214 32.0329 74.3631 31.9872 74.9679 31.8568C75.6771 31.601 76.1518 31.0713 76.5005 30.4191C77.0806 29.1282 77.426 27.7279 77.5532 26.3218C77.5666 26.1769 77.5666 26.1769 77.5802 26.0291C77.6618 25.066 77.6706 24.1071 77.6618 23.1412C77.659 22.8297 77.6577 22.5182 77.6566 22.2067C77.6538 21.4338 77.6486 20.6609 77.6435 19.888C77.6084 14.5002 77.6084 14.5002 77.8599 12.8345C77.8719 12.7535 77.8838 12.6725 77.8962 12.589C78.1563 10.9381 78.7397 9.36766 79.2792 7.7917C79.3702 7.52297 79.4611 7.2542 79.552 6.9854C79.7722 6.33425 79.9938 5.68356 80.2164 5.0332Z" fill="#76A4AE"/>
<path d="M33.7299 36.9865C33.7676 37.0716 33.8053 37.1567 33.8441 37.2444C34.4633 38.5701 35.2816 39.1081 36.6219 39.6581C36.9896 39.78 37.3563 39.8893 37.7311 39.9871C38.0226 40.0884 38.1551 40.1595 38.3357 40.4062C38.4629 41.1168 38.2415 41.5002 37.842 42.0818C37.7569 42.2002 37.6715 42.3185 37.586 42.4367C37.5337 42.5098 37.4814 42.583 37.4276 42.6584C37.0742 43.1533 36.7167 43.6451 36.3573 44.1357C36.2116 44.3354 36.0676 44.5361 35.9245 44.7376C35.8498 44.8423 35.7751 44.947 35.6981 45.0549C35.6349 45.1442 35.5716 45.2334 35.5065 45.3254C35.2819 45.6035 35.1011 45.737 34.7441 45.7892C33.8857 45.8083 33.2975 45.6294 32.5517 45.2152C32.4612 45.1675 32.3708 45.1199 32.2776 45.0708C31.5614 44.6717 30.5711 44.0961 30.3023 43.2916C29.7521 43.7826 29.3759 44.377 28.9701 44.9881C27.8117 46.7293 27.8117 46.7293 27.2764 47.0854C26.0408 47.3095 24.9599 46.6582 23.9467 46.0192C23.3273 45.541 22.836 44.7751 22.5902 44.0397C22.569 43.8065 22.5568 43.5724 22.5501 43.3383C22.5448 43.2148 22.5396 43.0912 22.5342 42.9639C22.6712 41.9366 23.3442 41.1394 23.9693 40.3461C24.0424 40.2519 24.1154 40.1578 24.1907 40.0607C24.4061 39.7834 24.6227 39.5069 24.8396 39.2307C24.9828 39.0472 25.1259 38.8636 25.2689 38.68C25.3306 38.6008 25.3924 38.5216 25.456 38.44C25.5 38.3835 25.544 38.3271 25.5894 38.2689C25.7946 38.3082 25.7946 38.3082 26.0178 38.3757C26.1618 38.6011 26.1618 38.6011 26.2856 38.8833C26.8615 40.18 28.0657 40.7587 29.3383 41.2611C29.5877 41.3442 29.8325 41.4125 30.0881 41.4749C30.1173 41.4129 30.1466 41.3509 30.1767 41.287C30.3009 41.0501 30.4386 40.8472 30.5986 40.6329C30.6579 40.5529 30.7172 40.473 30.7783 40.3907C30.8422 40.3054 30.906 40.2202 30.9718 40.1323C31.3928 39.5689 31.8121 39.005 32.2195 38.4317C32.2864 38.3383 32.3533 38.245 32.4223 38.1489C32.5515 37.9685 32.6796 37.7874 32.8066 37.6055C32.8946 37.4836 32.8946 37.4836 32.9843 37.3592C33.0353 37.2871 33.0864 37.2149 33.139 37.1406C33.3015 36.9865 33.3015 36.9865 33.7299 36.9865Z" fill="#76A4AE"/>
<path d="M86.4291 24.6965C86.7119 24.7318 86.9947 24.7671 87.286 24.8034C87.3038 29.1454 87.2604 33.485 87.1893 37.8264C87.1797 38.4189 87.1716 39.0115 87.1638 39.6041C87.1334 41.8489 87.0648 44.0574 86.7504 46.2836C86.7397 46.3675 86.729 46.4514 86.718 46.5379C86.405 48.9869 85.7086 51.4655 84.8224 53.7643C84.5043 53.7643 84.1862 53.7643 83.8584 53.7643C83.8509 50.9848 83.8452 48.2052 83.8418 45.4257C83.8401 44.1349 83.8379 42.8442 83.8342 41.5534C83.831 40.4276 83.8289 39.3017 83.8282 38.1759C83.8278 37.5805 83.8268 36.9851 83.8244 36.3897C83.8222 35.8277 83.8216 35.2658 83.8221 34.7038C83.822 34.499 83.8214 34.2943 83.8201 34.0896C83.8 30.605 84.847 27.762 86.4291 24.6965Z" fill="#76A4AE"/>
<path d="M84.1797 54.833C84.6039 54.833 85.0281 54.833 85.4651 54.833C85.4651 60.0876 85.4651 65.3423 85.4651 70.7562C58.6013 70.7562 31.7376 70.7562 4.05981 70.7562C4.05981 70.333 4.05981 69.9098 4.05981 69.4738C30.4994 69.4738 56.939 69.4738 84.1797 69.4738C84.1797 64.6423 84.1797 59.8109 84.1797 54.833Z" fill="#76A4AE"/>
<path d="M25.0537 17.3229C42.0556 17.3229 59.0576 17.3229 76.5747 17.3229C76.5747 17.7813 76.5747 18.2398 76.5747 18.7121C59.5728 18.7121 42.5708 18.7121 25.0537 18.7121C25.0537 18.2537 25.0537 17.7952 25.0537 17.3229Z" fill="#76A4AE"/>
<path d="M1.8103 17.3229C7.7486 17.3229 13.6869 17.3229 19.8051 17.3229C19.8051 17.7461 19.8051 18.1693 19.8051 18.6053C14.291 18.6053 8.77688 18.6053 3.09565 18.6053C3.10932 20.6519 3.12299 22.6986 3.13707 24.8073C3.14309 26.1062 3.14882 27.4051 3.15318 28.704C3.15549 29.3868 3.15787 30.0696 3.16037 30.7524C3.16068 30.8379 3.16099 30.9235 3.16131 31.0117C3.16642 32.3881 3.1757 33.7645 3.18655 35.1409C3.19762 36.5563 3.20413 37.9718 3.20651 39.3872C3.20811 40.2588 3.21316 41.1302 3.2228 42.0017C3.22909 42.6015 3.2309 43.2013 3.22938 43.8012C3.22863 44.146 3.23034 44.4904 3.2361 44.8351C3.26666 46.7609 2.9016 48.1459 1.91741 49.8104C1.88207 49.8104 1.84672 49.8104 1.8103 49.8104C1.8103 39.0895 1.8103 28.3686 1.8103 17.3229Z" fill="#76A4AE"/>
<path d="M82.0374 17.3229C83.1685 17.3229 84.2996 17.3229 85.4649 17.3229C85.5122 18.9845 85.5122 18.9845 85.5225 19.7101C85.5294 20.1993 85.5375 20.6882 85.5538 21.1772C85.6237 23.3291 85.4877 24.9568 84.2867 26.834C84.2514 26.834 84.216 26.834 84.1796 26.834C84.1796 24.1185 84.1796 21.403 84.1796 18.6053C83.4727 18.6053 82.7657 18.6053 82.0374 18.6053C82.0374 18.1821 82.0374 17.7589 82.0374 17.3229Z" fill="#76A4AE"/>
<path d="M23.3755 63.1131L23.2412 62.9568L23.4101 62.8167L23.5302 62.9588L23.6991 62.8187L23.8314 62.9751L23.6624 63.1152L23.5424 62.973L23.3755 63.1131ZM24.1712 63.9497V64.104L24.1509 64.1304H23.7764V63.9862C23.6638 64.0553 23.5627 64.0898 23.4732 64.0898C23.3755 64.0898 23.2988 64.0627 23.2432 64.0086C23.1876 63.9544 23.1598 63.8827 23.1598 63.7933C23.1598 63.7054 23.1828 63.614 23.229 63.5192L23.7764 63.3669V63.2065H23.9575V63.9233H24.1509L24.1712 63.9497ZM23.5037 63.8888C23.5932 63.8888 23.6841 63.8658 23.7764 63.8197V63.5355L23.345 63.6532C23.3368 63.683 23.3327 63.7148 23.3327 63.7487C23.3327 63.8421 23.3897 63.8888 23.5037 63.8888Z" fill="#76A4AE"/>
<path d="M24.919 63.9456V64.1101L24.8987 64.1304H24.86C24.78 64.1304 24.6979 64.0898 24.6138 64.0086L24.5385 64.1304H24.1518L24.1233 64.102V63.9456L24.1518 63.9233H24.4917V63.3832H24.6769V63.8746C24.7244 63.907 24.7881 63.9233 24.8682 63.9233H24.8987L24.919 63.9456ZM24.3594 64.301L24.4937 64.4634L24.3248 64.6035L24.1905 64.4411L24.3594 64.301ZM24.6626 64.301L24.7969 64.4634L24.6301 64.6035L24.4937 64.4411L24.6626 64.301Z" fill="#76A4AE"/>
<path d="M25.2898 63.1537L25.1555 62.9954L25.3265 62.8553L25.4587 63.0136L25.2898 63.1537ZM25.2247 63.3162H25.4079V64.1304H24.8991L24.8706 64.102V63.9456L24.8991 63.9233H25.2247V63.3162Z" fill="#76A4AE"/>
<path d="M26.6944 63.9456V64.0979L26.674 64.1304H26.5071C26.4678 64.4228 26.3077 64.569 26.0268 64.569C25.9387 64.569 25.8505 64.5487 25.7623 64.5081L25.7419 64.3334L25.7562 64.3213C25.8498 64.3537 25.9488 64.37 26.0533 64.37C26.1374 64.37 26.2019 64.3524 26.2466 64.3172C26.2928 64.282 26.3226 64.2191 26.3362 64.1284C26.0377 64.104 25.8213 64.0011 25.687 63.8197C25.7223 63.66 25.7799 63.5287 25.86 63.4258C25.94 63.3229 26.0255 63.2715 26.1164 63.2715C26.1802 63.2715 26.2371 63.2911 26.2873 63.3304C26.3389 63.3683 26.3803 63.4197 26.4115 63.4847C26.444 63.5483 26.4691 63.618 26.4868 63.6938C26.5044 63.7683 26.5146 63.8455 26.5173 63.9253L26.674 63.9233L26.6944 63.9456ZM26.0899 63.4827C26.0506 63.4827 26.0099 63.5077 25.9678 63.5578C25.9258 63.6079 25.8925 63.6729 25.8681 63.7527C25.9685 63.8502 26.1266 63.907 26.3423 63.9233C26.3342 63.8001 26.3091 63.6959 26.267 63.6106C26.2249 63.5253 26.1659 63.4827 26.0899 63.4827Z" fill="#76A4AE"/>
<path d="M27.0646 63.1537L26.9303 62.9954L27.1012 62.8553L27.2335 63.0136L27.0646 63.1537ZM26.9995 63.3162H27.1826V64.1304H26.6739L26.6454 64.102V63.9456L26.6739 63.9233H26.9995V63.3162Z" fill="#76A4AE"/>
<path d="M27.9339 63.9477V64.1081L27.9136 64.1304H27.5147V62.6075H27.6978V63.9233H27.9136L27.9339 63.9477Z" fill="#76A4AE"/>
<path d="M28.2966 63.0827L28.1623 62.9263L28.3312 62.7862L28.4513 62.9284L28.6202 62.7883L28.7525 62.9446L28.5836 63.0847L28.4635 62.9426L28.2966 63.0827ZM29.0272 63.9416V64.1121L29.0069 64.1304H28.9051C28.7708 64.1304 28.6399 64.102 28.5123 64.0451C28.3875 64.102 28.2349 64.1304 28.0544 64.1304H27.914L27.8937 64.104V63.9517L27.914 63.9233H28.3088C28.2098 63.8502 28.1338 63.7622 28.0809 63.6593C28.1202 63.5267 28.1793 63.4245 28.258 63.3527C28.338 63.2796 28.4221 63.2431 28.5103 63.2431C28.6107 63.2431 28.6921 63.2776 28.7545 63.3466C28.8183 63.4157 28.8502 63.501 28.8502 63.6025C28.8502 63.7202 28.8047 63.8245 28.7138 63.9152C28.76 63.9206 28.8305 63.9233 28.9255 63.9233H29.0069L29.0272 63.9416ZM28.4777 63.4461C28.433 63.4461 28.3909 63.463 28.3516 63.4969C28.3122 63.5294 28.2797 63.572 28.2539 63.6248C28.319 63.7372 28.416 63.8197 28.5449 63.8725C28.587 63.8427 28.6195 63.8082 28.6426 63.769C28.6657 63.7284 28.6772 63.6884 28.6772 63.6492C28.6772 63.5896 28.6596 63.5409 28.6243 63.503C28.589 63.4651 28.5402 63.4461 28.4777 63.4461Z" fill="#76A4AE"/>
<path d="M29.4162 62.6075V64.1304H29.0071L28.9847 64.1081V63.9477L29.0071 63.9233H29.2269V62.6075H29.4162Z" fill="#76A4AE"/>
<path d="M29.9496 64.1304H29.7664V62.6075H29.9496V64.1304Z" fill="#76A4AE"/>
<path d="M31.2917 63.2715L31.1574 63.1152L31.3263 62.9751L31.4464 63.1172L31.6153 62.9771L31.7476 63.1334L31.5787 63.2735L31.4586 63.1314L31.2917 63.2715ZM32.1546 63.3162V64.1304H31.2124C30.8555 64.1304 30.6771 63.9801 30.6771 63.6796C30.6771 63.5998 30.6927 63.5145 30.7239 63.4238L30.8644 63.3954L30.8786 63.4075C30.8583 63.4969 30.8481 63.5727 30.8481 63.635C30.8481 63.7351 30.8779 63.8082 30.9376 63.8543C30.9973 63.9003 31.1045 63.9233 31.2592 63.9233H31.9715V63.3162H32.1546Z" fill="#76A4AE"/>
<path d="M32.6704 64.1304H32.4872V62.6075H32.6704V64.1304Z" fill="#76A4AE"/>
<path d="M33.3496 63.3832V64.0857C33.3496 64.4079 33.2261 64.569 32.9792 64.569C32.9262 64.569 32.8754 64.5575 32.8265 64.5345L32.794 64.3578L32.8082 64.3456C32.8611 64.3619 32.9208 64.37 32.9873 64.37C33.0484 64.37 33.0938 64.3504 33.1237 64.3111C33.1535 64.2732 33.1684 64.2096 33.1684 64.1202V63.3832H33.3496Z" fill="#76A4AE"/>
<path d="M34.0711 63.9477V64.1081L34.0507 64.1304H33.6519V62.6075H33.835V63.9233H34.0507L34.0711 63.9477Z" fill="#76A4AE"/>
<path d="M34.8673 62.9344L34.7391 62.7801L34.9019 62.6441L35.0301 62.7984L34.8673 62.9344ZM34.7106 63.2045L34.5783 63.0482L34.7452 62.9081L34.8754 63.0644L34.7106 63.2045ZM34.8714 63.0502L35.0382 62.9121L35.1685 63.0685L35.0037 63.2065L34.8714 63.0502ZM35.7221 63.9456V64.1101L35.7017 64.1304H35.663C35.5816 64.1304 35.5029 64.0938 35.427 64.0208L35.3578 64.1304C35.1787 64.1304 35.0226 64.0911 34.8897 64.0126L34.8103 64.1304C34.6651 64.1304 34.5383 64.0932 34.4297 64.0187L34.4135 64.1304H34.0512L34.0309 64.1142V63.9395L34.0512 63.9233H34.2669L34.3402 63.4096H34.5234L34.4542 63.8664C34.5383 63.903 34.6373 63.9219 34.7513 63.9233L34.8164 63.4096H34.9996L34.9406 63.8725C35.0355 63.9037 35.1543 63.9206 35.2967 63.9233C35.2723 63.7338 35.2438 63.5497 35.2112 63.371L35.3944 63.3304C35.431 63.5361 35.4595 63.7175 35.4799 63.8746C35.526 63.907 35.5898 63.9233 35.6712 63.9233H35.7017L35.7221 63.9456Z" fill="#76A4AE"/>
<path d="M35.947 63.1964L35.8127 63.04L35.9816 62.8999L36.1017 63.0421L36.2706 62.902L36.4029 63.0583L36.234 63.1984L36.1139 63.0563L35.947 63.1964ZM36.468 63.9456V64.1101L36.4477 64.1304H36.409C36.329 64.1304 36.2469 64.0898 36.1628 64.0086L36.0875 64.1304H35.7008L35.6723 64.102V63.9456L35.7008 63.9233H36.0406V63.3832H36.2258V63.8746C36.2733 63.907 36.3371 63.9233 36.4171 63.9233H36.4477L36.468 63.9456Z" fill="#76A4AE"/>
<path d="M37.8849 63.9273L37.7546 64.1304C37.5755 64.1304 37.4195 64.0911 37.2865 64.0126L37.2072 64.1304C37.0593 64.1304 36.9311 64.0918 36.8225 64.0147L36.8042 64.1304H36.4481L36.4277 64.1142V63.9395L36.4481 63.9233H36.6597L36.737 63.4096H36.9202L36.8469 63.8644C36.9311 63.9023 37.0315 63.9219 37.1481 63.9233L37.2133 63.4096H37.3964L37.3374 63.8725C37.4324 63.9037 37.5518 63.9206 37.6956 63.9233C37.6712 63.7365 37.6386 63.5443 37.5979 63.3466L37.7811 63.302C37.8258 63.5158 37.8604 63.7243 37.8849 63.9273Z" fill="#76A4AE"/>
<path d="M38.8569 63.4664C38.9858 63.6262 39.0835 63.7832 39.1499 63.9375L39.0645 64.1304H38.1588L38.0896 63.9517L38.0937 63.9294C38.3027 63.8143 38.475 63.6769 38.6106 63.5172L38.6391 63.4827C38.5102 63.3446 38.3366 63.1876 38.1181 63.0116V62.9954L38.2484 62.8796C38.4505 63.0461 38.612 63.195 38.7327 63.3263C38.7829 63.2113 38.808 63.0556 38.808 62.8593V62.6075H38.9892V62.8309C38.9892 63.1057 38.9451 63.3175 38.8569 63.4664ZM38.7511 63.6086L38.7327 63.6309C38.6351 63.7446 38.5062 63.8455 38.3461 63.9334H38.9729C38.9186 63.8306 38.8447 63.7223 38.7511 63.6086Z" fill="#76A4AE"/>
<path d="M39.5668 64.1304H39.3836V62.6075H39.5668V64.1304Z" fill="#76A4AE"/>
<path d="M40.2928 63.2715C40.3796 63.2715 40.4542 63.3087 40.5166 63.3832C40.5804 63.4563 40.6258 63.5443 40.653 63.6471C40.6801 63.7487 40.6937 63.8556 40.6937 63.968C40.6937 64.3686 40.5302 64.569 40.2032 64.569C40.1109 64.569 40.0228 64.5493 39.9386 64.5101L39.9061 64.3334L39.9203 64.3213C40.0139 64.3537 40.1171 64.37 40.2297 64.37C40.3124 64.37 40.3762 64.3531 40.421 64.3192C40.4671 64.2854 40.4969 64.2252 40.5105 64.1385C40.2147 64.1114 39.999 64.0065 39.8633 63.8238C39.8986 63.6641 39.9563 63.5321 40.0363 63.4279C40.1164 63.3236 40.2019 63.2715 40.2928 63.2715ZM40.0445 63.7568C40.153 63.8651 40.3117 63.9267 40.5207 63.9416C40.5166 63.8603 40.5058 63.7872 40.4881 63.7223C40.4705 63.6559 40.442 63.5998 40.4027 63.5537C40.3647 63.5064 40.3192 63.4827 40.2663 63.4827C40.227 63.4827 40.1862 63.5084 40.1442 63.5598C40.1035 63.6113 40.0702 63.6769 40.0445 63.7568Z" fill="#76A4AE"/>
<path d="M41.5874 63.1091L41.4531 62.9527L41.622 62.8126L41.7421 62.9548L41.911 62.8147L42.0433 62.971L41.8743 63.1111L41.7543 62.969L41.5874 63.1091ZM41.7644 63.2004H41.7828C41.9401 63.4671 42.0636 63.6884 42.1531 63.8644L42.0778 64.0756C41.968 64.1324 41.8533 64.1609 41.7339 64.1609C41.6199 64.1609 41.529 64.1331 41.4612 64.0776C41.3947 64.0208 41.3615 63.9504 41.3615 63.8664C41.3615 63.7798 41.39 63.6993 41.447 63.6248C41.5039 63.549 41.5813 63.4732 41.679 63.3974C41.6559 63.3649 41.6376 63.3378 41.624 63.3162L41.7644 63.2004ZM41.5345 63.8157C41.5345 63.8563 41.5555 63.8901 41.5976 63.9172C41.6396 63.9429 41.6959 63.9558 41.7665 63.9558C41.8397 63.9558 41.911 63.9416 41.9802 63.9131C41.9015 63.7696 41.8289 63.6424 41.7624 63.5314C41.7 63.5734 41.6464 63.6201 41.6016 63.6715C41.5569 63.7229 41.5345 63.771 41.5345 63.8157Z" fill="#76A4AE"/>
<path d="M42.8556 63.9477V64.1081L42.8352 64.1304H42.4363V62.6075H42.6195V63.9233H42.8352L42.8556 63.9477Z" fill="#76A4AE"/>
<path d="M43.5256 63.2979C43.6151 63.2979 43.6877 63.3385 43.7433 63.4197C43.8003 63.501 43.8288 63.6045 43.8288 63.7304C43.8288 63.8373 43.803 63.9375 43.7515 64.0309L43.609 64.1669L43.145 63.9558C43.1029 64.0194 43.0602 64.0647 43.0168 64.0918C42.9734 64.1175 42.9184 64.1304 42.8519 64.1304H42.8357L42.8153 64.0999V63.9578L42.8357 63.9233H42.8682C42.9171 63.9233 42.9578 63.9057 42.9903 63.8705C43.0243 63.8339 43.0663 63.7676 43.1165 63.6715C43.1789 63.5524 43.2427 63.4603 43.3078 63.3954C43.3729 63.3304 43.4455 63.2979 43.5256 63.2979ZM43.2346 63.7994L43.6111 63.972C43.6409 63.9043 43.6558 63.8353 43.6558 63.7649C43.6558 63.685 43.6402 63.6221 43.609 63.5761C43.5792 63.5287 43.5391 63.505 43.4889 63.505C43.4482 63.505 43.4103 63.5267 43.375 63.57C43.3397 63.6119 43.2983 63.679 43.2508 63.771L43.2346 63.7994Z" fill="#76A4AE"/>
<path d="M44.5528 63.9477V64.1081L44.5325 64.1304H44.1336V62.6075H44.3167V63.9233H44.5325L44.5528 63.9477Z" fill="#76A4AE"/>
<path d="M45.8334 63.9436V64.1142L45.813 64.1304H45.6421C45.5186 64.1304 45.4175 64.0749 45.3388 63.9639C45.2086 64.0208 45.096 64.0627 45.001 64.0898C44.9074 64.1169 44.8043 64.1304 44.6917 64.1304H44.5329L44.5044 64.102V63.9517L44.5329 63.9233H44.7059C44.7629 63.9233 44.8145 63.9213 44.8606 63.9172C44.9067 63.9118 44.9569 63.901 45.0112 63.8847C45.0655 63.8671 45.1041 63.8549 45.1272 63.8482C45.1503 63.84 45.1984 63.8204 45.2717 63.7893C45.345 63.7581 45.3918 63.7385 45.4121 63.7304C45.2792 63.6383 45.1787 63.5761 45.1109 63.5436C45.0444 63.5097 44.9739 63.4928 44.8993 63.4928C44.8301 63.4928 44.7588 63.5057 44.6856 63.5314L44.6673 63.5213V63.3426C44.7649 63.3033 44.8504 63.2837 44.9237 63.2837C45.0105 63.2837 45.1048 63.3155 45.2066 63.3791C45.3083 63.4427 45.4481 63.547 45.6258 63.6918L45.579 63.8603L45.4935 63.8969C45.5301 63.9145 45.579 63.9233 45.64 63.9233H45.813L45.8334 63.9436Z" fill="#76A4AE"/>
<path d="M47.0258 63.9456V64.1101L47.0054 64.1304H46.9668C46.884 64.1304 46.8053 64.0959 46.7307 64.0268L46.7287 64.0309L46.5862 64.1669L46.1222 63.9558C46.0801 64.0194 46.0374 64.0647 45.994 64.0918C45.9506 64.1175 45.8956 64.1304 45.8291 64.1304H45.8128L45.7925 64.0999V63.9578L45.8128 63.9233H45.8454C45.8942 63.9233 45.9349 63.9057 45.9675 63.8705C46.0014 63.8339 46.0435 63.7676 46.0937 63.6715C46.1561 63.5524 46.2199 63.4603 46.285 63.3954C46.3501 63.3304 46.4227 63.2979 46.5028 63.2979C46.5923 63.2979 46.6649 63.3385 46.7205 63.4197C46.7775 63.501 46.806 63.6045 46.806 63.7304C46.806 63.7805 46.7999 63.8312 46.7877 63.8827C46.8324 63.9098 46.8949 63.9233 46.9749 63.9233H47.0054L47.0258 63.9456ZM46.2117 63.7994L46.5882 63.972C46.6181 63.9043 46.633 63.8353 46.633 63.7649C46.633 63.685 46.6174 63.6221 46.5862 63.5761C46.5563 63.5287 46.5163 63.505 46.4661 63.505C46.4254 63.505 46.3874 63.5267 46.3522 63.57C46.3169 63.6119 46.2755 63.679 46.228 63.771L46.2117 63.7994Z" fill="#76A4AE"/>
<path d="M47.7054 63.9456V64.1101L47.685 64.1304H47.6586C47.5677 64.1304 47.4836 64.0918 47.4062 64.0147L47.337 64.1304H47.0053L46.9768 64.102V63.9456L47.0053 63.9233H47.2882V62.6075H47.4734V63.8725C47.5182 63.9064 47.5826 63.9233 47.6667 63.9233H47.685L47.7054 63.9456Z" fill="#76A4AE"/>
<path d="M48.0861 62.6075V64.1304H47.6771L47.6547 64.1081V63.9477L47.6771 63.9233H47.8968V62.6075H48.0861Z" fill="#76A4AE"/>
<path d="M49.8768 63.9456V64.1101L49.8564 64.1304H49.8178C49.735 64.1304 49.6563 64.0959 49.5817 64.0268L49.4494 64.1527L48.9874 63.9862L48.9488 64.0796L49.1299 64.5954L48.9671 64.6685H48.9528L48.7615 64.0857C48.7887 64.0194 48.8104 63.9659 48.8267 63.9253C48.8443 63.8834 48.8694 63.8272 48.902 63.7568C48.9359 63.685 48.9678 63.6268 48.9976 63.5822C49.0288 63.5361 49.0641 63.4901 49.1034 63.4441C49.1428 63.3967 49.1842 63.3615 49.2276 63.3385C49.2724 63.3141 49.3178 63.302 49.3639 63.302C49.4467 63.302 49.5159 63.3419 49.5715 63.4218C49.6285 63.5016 49.657 63.6025 49.657 63.7243C49.657 63.7798 49.6502 63.8319 49.6366 63.8806C49.6828 63.9091 49.7459 63.9233 49.8259 63.9233H49.8564L49.8768 63.9456ZM49.3253 63.507C49.2832 63.507 49.2418 63.5321 49.2011 63.5822C49.1604 63.6323 49.1136 63.7128 49.0607 63.8238L49.4474 63.9598C49.4718 63.8989 49.484 63.8312 49.484 63.7568C49.484 63.6837 49.4684 63.6241 49.4372 63.5781C49.4074 63.5307 49.37 63.507 49.3253 63.507Z" fill="#76A4AE"/>
<path d="M50.5574 63.9456V64.1101L50.537 64.1304H50.5105C50.4196 64.1304 50.3355 64.0918 50.2582 64.0147L50.189 64.1304H49.8573L49.8288 64.102V63.9456L49.8573 63.9233H50.1402V62.6075H50.3253V63.8725C50.3701 63.9064 50.4346 63.9233 50.5187 63.9233H50.537L50.5574 63.9456Z" fill="#76A4AE"/>
<path d="M50.537 64.1304L50.5085 64.102V63.9456L50.537 63.9233H50.8626V63.3162H51.0458V64.1304H50.537ZM50.6652 64.301L50.7995 64.4634L50.6306 64.6035L50.4963 64.4411L50.6652 64.301ZM51.1027 64.4634L50.9359 64.6035L50.7995 64.4411L50.9684 64.301L51.1027 64.4634Z" fill="#76A4AE"/>
<path d="M52.3323 63.9456V64.0979L52.3119 64.1304H52.145C52.1057 64.4228 51.9456 64.569 51.6647 64.569C51.5765 64.569 51.4884 64.5487 51.4002 64.5081L51.3798 64.3334L51.3941 64.3213C51.4877 64.3537 51.5867 64.37 51.6912 64.37C51.7753 64.37 51.8398 64.3524 51.8845 64.3172C51.9307 64.282 51.9605 64.2191 51.9741 64.1284C51.6756 64.104 51.4592 64.0011 51.3249 63.8197C51.3601 63.66 51.4178 63.5287 51.4979 63.4258C51.5779 63.3229 51.6634 63.2715 51.7543 63.2715C51.8181 63.2715 51.875 63.2911 51.9252 63.3304C51.9768 63.3683 52.0182 63.4197 52.0494 63.4847C52.0819 63.5483 52.107 63.618 52.1247 63.6938C52.1423 63.7683 52.1525 63.8455 52.1552 63.9253L52.3119 63.9233L52.3323 63.9456ZM51.7278 63.4827C51.6885 63.4827 51.6478 63.5077 51.6057 63.5578C51.5637 63.6079 51.5304 63.6729 51.506 63.7527C51.6064 63.8502 51.7645 63.907 51.9802 63.9233C51.972 63.8001 51.9469 63.6959 51.9049 63.6106C51.8628 63.5253 51.8038 63.4827 51.7278 63.4827Z" fill="#76A4AE"/>
<path d="M53.9826 63.9456V64.1101L53.9622 64.1304H53.9236C53.8422 64.1304 53.7635 64.0938 53.6875 64.0208L53.6183 64.1304C53.4392 64.1304 53.2832 64.0911 53.1502 64.0126L53.0709 64.1304C52.9257 64.1304 52.7988 64.0932 52.6903 64.0187L52.674 64.1304H52.3117L52.2914 64.1142V63.9395L52.3117 63.9233H52.5275L52.6007 63.4096H52.7839L52.7147 63.8664C52.7988 63.903 52.8979 63.9219 53.0118 63.9233L53.077 63.4096H53.2601L53.2011 63.8725C53.2961 63.9037 53.4148 63.9206 53.5572 63.9233C53.5328 63.7338 53.5043 63.5497 53.4718 63.371L53.6549 63.3304C53.6916 63.5361 53.7201 63.7175 53.7404 63.8746C53.7865 63.907 53.8503 63.9233 53.9317 63.9233H53.9622L53.9826 63.9456Z" fill="#76A4AE"/>
<path d="M54.3704 62.6075V64.1304H53.9613L53.9389 64.1081V63.9477L53.9613 63.9233H54.1811V62.6075H54.3704Z" fill="#76A4AE"/>
<path d="M54.9038 64.1304H54.7206V62.6075H54.9038V64.1304Z" fill="#76A4AE"/>
<path d="M56.6062 63.9456V64.1101L56.5858 64.1304H56.5288C56.4366 64.1304 56.3565 64.0945 56.2887 64.0228C56.2249 64.062 56.1591 64.0898 56.0913 64.106C56.0248 64.1223 55.9427 64.1304 55.845 64.1304H55.6293L55.5805 63.9416L55.5968 63.9233H55.8837C56.0085 63.9233 56.1116 63.9111 56.193 63.8867L56.1605 63.8299C56.0655 63.6471 55.9766 63.4624 55.8939 63.2756L56.0363 63.174H56.0547C56.1306 63.3527 56.212 63.5287 56.2989 63.702C56.3477 63.7954 56.3891 63.8556 56.423 63.8827C56.4583 63.9098 56.5065 63.9233 56.5675 63.9233H56.5858L56.6062 63.9456Z" fill="#76A4AE"/>
<path d="M58.1192 63.9456V64.1101L58.0988 64.1304H58.0663C57.9916 64.1304 57.9123 64.0938 57.8281 64.0208C57.8064 64.0776 57.7807 64.1338 57.7508 64.1893C57.55 64.1636 57.3696 64.1162 57.2095 64.0471C57.0901 64.1026 56.9368 64.1304 56.7495 64.1304H56.5867L56.5664 64.104V63.9517L56.5867 63.9233H56.9917C56.8981 63.8597 56.818 63.7737 56.7516 63.6654C56.7841 63.5923 56.8248 63.5287 56.8737 63.4746L56.7414 63.507L56.7271 63.4949V63.3243C56.9171 63.2796 57.0779 63.2573 57.2095 63.2573C57.4116 63.2573 57.5731 63.3026 57.6938 63.3933C57.8159 63.484 57.877 63.6106 57.877 63.773C57.877 63.8055 57.8736 63.8421 57.8668 63.8827C57.9211 63.9098 57.9882 63.9233 58.0683 63.9233H58.0988L58.1192 63.9456ZM57.2237 63.8746C57.2644 63.8448 57.2956 63.8089 57.3173 63.7669C57.339 63.725 57.3499 63.685 57.3499 63.6471C57.3499 63.5862 57.3302 63.5361 57.2909 63.4969C57.2529 63.4576 57.2047 63.4387 57.1464 63.44C57.0568 63.4441 56.9842 63.5064 56.9286 63.6268C56.991 63.7351 57.0894 63.8177 57.2237 63.8746ZM57.704 63.8076C57.704 63.7223 57.6816 63.6505 57.6368 63.5923C57.5921 63.5341 57.5303 63.4915 57.4516 63.4644C57.4964 63.5185 57.5188 63.5747 57.5188 63.6329C57.5188 63.7453 57.4727 63.8455 57.3804 63.9334C57.4767 63.9646 57.571 63.9862 57.6633 63.9984C57.6904 63.9321 57.704 63.8685 57.704 63.8076Z" fill="#76A4AE"/>
<path d="M58.5733 62.9202L58.439 62.7619L58.61 62.6218L58.7423 62.7801L58.5733 62.9202ZM58.6385 63.0827C58.7172 63.0827 58.7864 63.1145 58.846 63.1781C58.9057 63.2404 58.9498 63.3182 58.9783 63.4116C59.0082 63.505 59.0231 63.6032 59.0231 63.706C59.0231 63.859 59.0082 64.0004 58.9783 64.1304H58.0992L58.0788 64.102V63.9537L58.0992 63.9233H58.8481C58.8508 63.8854 58.8522 63.8543 58.8522 63.8299C58.5971 63.8326 58.3942 63.7683 58.2436 63.637C58.2599 63.4881 58.3047 63.3588 58.378 63.2492C58.4526 63.1382 58.5394 63.0827 58.6385 63.0827ZM58.4126 63.5517C58.5089 63.6248 58.6541 63.6587 58.8481 63.6532C58.8372 63.5531 58.8115 63.4685 58.7707 63.3994C58.73 63.329 58.6798 63.2938 58.6201 63.2938C58.5767 63.2938 58.5347 63.3189 58.494 63.369C58.4546 63.4177 58.4275 63.4786 58.4126 63.5517Z" fill="#76A4AE"/>
<path d="M59.8866 63.1131L59.7523 62.9568L59.9212 62.8167L60.0413 62.9588L60.2102 62.8187L60.3425 62.9751L60.1736 63.1152L60.0535 62.973L59.8866 63.1131ZM60.6824 63.9497V64.104L60.662 64.1304H60.2875V63.9862C60.1749 64.0553 60.0739 64.0898 59.9843 64.0898C59.8866 64.0898 59.81 64.0627 59.7543 64.0086C59.6987 63.9544 59.6709 63.8827 59.6709 63.7933C59.6709 63.7054 59.694 63.614 59.7401 63.5192L60.2875 63.3669V63.2065H60.4687V63.9233H60.662L60.6824 63.9497ZM60.0148 63.8888C60.1044 63.8888 60.1953 63.8658 60.2875 63.8197V63.5355L59.8561 63.6532C59.848 63.683 59.8439 63.7148 59.8439 63.7487C59.8439 63.8421 59.9009 63.8888 60.0148 63.8888Z" fill="#76A4AE"/>
<path d="M61.2898 63.3507C61.4499 63.3507 61.5815 63.3974 61.6846 63.4908C61.789 63.5842 61.8467 63.7311 61.8576 63.9314L61.7477 64.1304H60.6629L60.6406 64.0938V63.9558L60.6629 63.9233H61.6846C61.6656 63.7757 61.6174 63.6756 61.5401 63.6228C61.4627 63.57 61.3549 63.5436 61.2165 63.5436C61.1025 63.5436 60.9736 63.5537 60.8298 63.574L60.7545 63.4035L61.4912 62.6096H61.5096L61.6052 62.7619L60.9825 63.3832C61.091 63.3615 61.1934 63.3507 61.2898 63.3507Z" fill="#76A4AE"/>
<path d="M62.7558 63.9456V64.1101L62.7354 64.1304H62.7028C62.6391 64.1304 62.5699 64.102 62.4953 64.0451V64.0857C62.4953 64.4079 62.3718 64.569 62.1249 64.569C62.072 64.569 62.0211 64.5575 61.9722 64.5345L61.9397 64.3578L61.9539 64.3456C62.0068 64.3619 62.0665 64.37 62.133 64.37C62.1941 64.37 62.2395 64.3504 62.2694 64.3111C62.2992 64.2732 62.3141 64.2096 62.3141 64.1202V63.3832H62.4953V63.8786C62.5482 63.9084 62.618 63.9233 62.7049 63.9233H62.7354L62.7558 63.9456Z" fill="#76A4AE"/>
<path d="M63.5397 62.9223L63.4115 62.768L63.5743 62.6319L63.7025 62.7862L63.5397 62.9223ZM63.383 63.1923L63.2507 63.036L63.4176 62.8959L63.5479 63.0522L63.383 63.1923ZM63.5438 63.038L63.7107 62.8999L63.8409 63.0563L63.6761 63.1943L63.5438 63.038ZM64.1726 63.9273L64.0424 64.1304C63.8633 64.1304 63.7073 64.0911 63.5743 64.0126L63.4949 64.1304C63.3471 64.1304 63.2188 64.0918 63.1103 64.0147L63.092 64.1304H62.7358L62.7155 64.1142V63.9395L62.7358 63.9233H62.9475L63.0248 63.4096H63.208L63.1347 63.8644C63.2188 63.9023 63.3192 63.9219 63.4359 63.9233L63.501 63.4096H63.6842L63.6252 63.8725C63.7202 63.9037 63.8396 63.9206 63.9834 63.9233C63.959 63.7365 63.9264 63.5443 63.8857 63.3466L64.0688 63.302C64.1136 63.5158 64.1482 63.7243 64.1726 63.9273Z" fill="#76A4AE"/>
<path d="M22.9074 65.8025V66.1895H23.4846V66.3548H22.9074V66.9089H22.7217V65.6372H23.5211V65.8025H22.9074Z" fill="#76A4AE"/>
<path d="M24.4101 66.3149V66.6764C24.4101 66.7539 24.4253 66.826 24.4556 66.8926L24.4483 66.9089H24.2735C24.265 66.8908 24.2578 66.8708 24.2517 66.849C24.1716 66.9071 24.0817 66.9362 23.9822 66.9362C23.8839 66.9362 23.8074 66.9132 23.7528 66.8671C23.6993 66.8199 23.6726 66.7539 23.6726 66.6691C23.6726 66.5989 23.6902 66.5304 23.7254 66.4638C23.8565 66.4299 24.0265 66.4105 24.2353 66.4057V66.3421C24.2353 66.2731 24.2195 66.224 24.188 66.195C24.1564 66.1647 24.1084 66.1495 24.0441 66.1495C23.9591 66.1495 23.8578 66.1671 23.74 66.2022L23.7273 66.195V66.0405C23.8511 66.0054 23.9664 65.9878 24.0732 65.9878C24.191 65.9878 24.2766 66.0127 24.33 66.0623C24.3834 66.1108 24.4101 66.195 24.4101 66.3149ZM24.0186 66.7963C24.0878 66.7963 24.16 66.7751 24.2353 66.7327V66.5202C24.0836 66.5262 23.9597 66.5377 23.8638 66.5547C23.8505 66.5837 23.8438 66.6146 23.8438 66.6473C23.8438 66.7466 23.9021 66.7963 24.0186 66.7963Z" fill="#76A4AE"/>
<path d="M25.1434 65.986C25.3485 65.986 25.4511 66.0823 25.4511 66.2749V66.9089H25.269V66.3112C25.269 66.2071 25.2114 66.155 25.096 66.155C25.0135 66.155 24.9334 66.1841 24.8557 66.2422V66.9089H24.6736V65.5464H24.8557V66.0751C24.9528 66.0157 25.0487 65.986 25.1434 65.986Z" fill="#76A4AE"/>
<path d="M26.4619 65.5464V66.6728C26.4619 66.7491 26.4765 66.8223 26.5056 66.8926L26.4984 66.9089H26.3181C26.3084 66.8847 26.3017 66.8665 26.2981 66.8544C26.2204 66.9089 26.1348 66.9362 26.0413 66.9362C25.9199 66.9362 25.827 66.8992 25.7627 66.8254C25.6984 66.7503 25.6662 66.6407 25.6662 66.4965C25.6662 66.4118 25.6759 66.3294 25.6953 66.2495C25.716 66.1695 25.7421 66.1047 25.7736 66.0551C25.8623 66.009 25.9582 65.986 26.0613 65.986C26.1451 65.986 26.2179 65.9975 26.2798 66.0205V65.5464H26.4619ZM25.8483 66.4784C25.8483 66.677 25.9254 66.7763 26.0795 66.7763C26.1475 66.7763 26.2143 66.7557 26.2798 66.7145V66.1841C26.2204 66.1586 26.15 66.1459 26.0686 66.1459C26.0091 66.1459 25.9527 66.1562 25.8993 66.1768C25.8653 66.27 25.8483 66.3706 25.8483 66.4784Z" fill="#76A4AE"/>
<path d="M27.8603 66.5365H27.3832L27.2558 66.9089H27.0773L27.5198 65.6372H27.7438L28.1826 66.9089H27.9859L27.8603 66.5365ZM27.8075 66.3784L27.6236 65.8371L27.4378 66.3784H27.8075Z" fill="#76A4AE"/>
<path d="M28.5402 65.5464V66.9089H28.3581V65.5464H28.5402Z" fill="#76A4AE"/>
<path d="M28.766 66.3966H29.2377V66.5401H28.766V66.3966Z" fill="#76A4AE"/>
<path d="M29.8646 66.175L29.8901 66.1841C30.0454 66.2373 30.1529 66.2931 30.2124 66.3512C30.2718 66.4081 30.3016 66.4856 30.3016 66.5837C30.3016 66.6637 30.2797 66.746 30.236 66.8308C30.1972 66.8635 30.1432 66.8896 30.074 66.9089C30.0048 66.9271 29.9307 66.9362 29.8518 66.9362C29.6891 66.9362 29.552 66.9144 29.4403 66.8708V66.7055L29.453 66.6982C29.5841 66.7454 29.7207 66.769 29.8627 66.769C29.9562 66.769 30.0357 66.7533 30.1013 66.7218C30.1146 66.6758 30.1213 66.6364 30.1213 66.6037C30.1213 66.5529 30.1001 66.5111 30.0576 66.4784C30.0151 66.4445 29.9362 66.4075 29.8209 66.3675L29.8008 66.3603C29.6588 66.3106 29.5611 66.2567 29.5077 66.1986C29.4555 66.1392 29.4294 66.0575 29.4294 65.9533C29.4294 65.8734 29.4512 65.7965 29.4949 65.7226C29.5969 65.6451 29.7316 65.6063 29.8992 65.6063C30.0339 65.6063 30.1486 65.6281 30.2433 65.6717V65.8352L30.2306 65.8425C30.1104 65.7965 29.9938 65.7735 29.8809 65.7735C29.7911 65.7735 29.708 65.7935 29.6315 65.8334C29.6169 65.8746 29.6096 65.9097 29.6096 65.9388C29.6096 65.9945 29.6272 66.0393 29.6624 66.0732C29.6989 66.1071 29.7662 66.1411 29.8646 66.175Z" fill="#76A4AE"/>
<path d="M31.2963 66.0115V66.9089H31.1397L31.1251 66.8381C31.0244 66.9035 30.9248 66.9362 30.8265 66.9362C30.6213 66.9362 30.5187 66.8393 30.5187 66.6455V66.0115H30.7008V66.6092C30.7008 66.7158 30.7585 66.769 30.8738 66.769C30.9576 66.769 31.0377 66.7394 31.1142 66.68V66.0115H31.2963Z" fill="#76A4AE"/>
<path d="M32.8367 66.0115L32.5672 66.9089H32.3214L32.132 66.2149L31.939 66.9089H31.7023L31.4456 66.0115H31.6404L31.8334 66.7327L32.0355 66.0115H32.2631L32.4543 66.7327L32.6565 66.0115H32.8367Z" fill="#76A4AE"/>
<path d="M33.6338 66.3149V66.6764C33.6338 66.7539 33.649 66.826 33.6793 66.8926L33.672 66.9089H33.4972C33.4887 66.8908 33.4814 66.8708 33.4754 66.849C33.3952 66.9071 33.3054 66.9362 33.2059 66.9362C33.1075 66.9362 33.0311 66.9132 32.9764 66.8671C32.923 66.8199 32.8963 66.7539 32.8963 66.6691C32.8963 66.5989 32.9139 66.5304 32.9491 66.4638C33.0802 66.4299 33.2502 66.4105 33.459 66.4057V66.3421C33.459 66.2731 33.4432 66.224 33.4116 66.195C33.3801 66.1647 33.3321 66.1495 33.2678 66.1495C33.1828 66.1495 33.0814 66.1671 32.9637 66.2022L32.9509 66.195V66.0405C33.0748 66.0054 33.1901 65.9878 33.2969 65.9878C33.4147 65.9878 33.5002 66.0127 33.5537 66.0623C33.6071 66.1108 33.6338 66.195 33.6338 66.3149ZM33.2423 66.7963C33.3115 66.7963 33.3837 66.7751 33.459 66.7327V66.5202C33.3072 66.5262 33.1834 66.5377 33.0875 66.5547C33.0742 66.5837 33.0675 66.6146 33.0675 66.6473C33.0675 66.7466 33.1257 66.7963 33.2423 66.7963Z" fill="#76A4AE"/>
<path d="M33.9992 65.8716L33.859 65.7335L33.9992 65.5936L34.1376 65.7335L33.9992 65.8716ZM34.0903 66.0115V66.9089H33.9082V66.0115H34.0903Z" fill="#76A4AE"/>
<path d="M34.5524 65.5464V66.9089H34.3703V65.5464H34.5524Z" fill="#76A4AE"/>
<path d="M35.5303 66.3566C35.5303 66.4051 35.5254 66.4535 35.5157 66.502H34.9385C34.9433 66.5965 34.9658 66.6655 35.0058 66.7091C35.0459 66.7527 35.1096 66.7745 35.197 66.7745C35.2954 66.7745 35.3937 66.7563 35.492 66.72L35.5048 66.7273V66.8762C35.4052 66.9162 35.2966 66.9362 35.1788 66.9362C35.0356 66.9362 34.93 66.8992 34.862 66.8254C34.7952 66.7503 34.7618 66.637 34.7618 66.4856C34.7618 66.3209 34.7983 66.1774 34.8711 66.0551C34.9719 66.009 35.0732 65.986 35.1752 65.986C35.4119 65.986 35.5303 66.1096 35.5303 66.3566ZM35.3573 66.3766V66.3548C35.3573 66.2785 35.3421 66.224 35.3118 66.1913C35.2814 66.1586 35.2359 66.1423 35.1752 66.1423C35.106 66.1423 35.0459 66.1532 34.9949 66.175C34.9682 66.2343 34.9512 66.3015 34.9439 66.3766H35.3573Z" fill="#76A4AE"/>
<path d="M36.8133 65.986C37.01 65.986 37.1083 66.0847 37.1083 66.2822V66.9089H36.9262V66.3258C36.9262 66.2168 36.8722 66.1623 36.7642 66.1623C36.6828 66.1623 36.6045 66.1913 36.5293 66.2495L36.5311 66.2822V66.9089H36.349V66.3258C36.349 66.2168 36.295 66.1623 36.1869 66.1623C36.102 66.1623 36.0243 66.1907 35.9539 66.2476V66.9089H35.7718V66.0115H35.9284L35.9466 66.0896C36.0425 66.0205 36.139 65.986 36.2361 65.986C36.3636 65.986 36.4498 66.0278 36.4947 66.1114C36.6015 66.0278 36.7077 65.986 36.8133 65.986Z" fill="#76A4AE"/>
<path d="M38.5694 66.7436V66.9089H37.8046V65.6372H37.9904V66.7436H38.5694Z" fill="#76A4AE"/>
<path d="M39.4184 66.3149V66.6764C39.4184 66.7539 39.4335 66.826 39.4639 66.8926L39.4566 66.9089H39.2818C39.2733 66.8908 39.266 66.8708 39.2599 66.849C39.1798 66.9071 39.09 66.9362 38.9904 66.9362C38.8921 66.9362 38.8156 66.9132 38.761 66.8671C38.7076 66.8199 38.6809 66.7539 38.6809 66.6691C38.6809 66.5989 38.6985 66.5304 38.7337 66.4638C38.8648 66.4299 39.0348 66.4105 39.2436 66.4057V66.3421C39.2436 66.2731 39.2278 66.224 39.1962 66.195C39.1646 66.1647 39.1167 66.1495 39.0524 66.1495C38.9674 66.1495 38.866 66.1671 38.7483 66.2022L38.7355 66.195V66.0405C38.8593 66.0054 38.9747 65.9878 39.0815 65.9878C39.1992 65.9878 39.2848 66.0127 39.3382 66.0623C39.3917 66.1108 39.4184 66.195 39.4184 66.3149ZM39.0269 66.7963C39.0961 66.7963 39.1683 66.7751 39.2436 66.7327V66.5202C39.0918 66.5262 38.968 66.5377 38.8721 66.5547C38.8587 66.5837 38.8521 66.6146 38.8521 66.6473C38.8521 66.7466 38.9103 66.7963 39.0269 66.7963Z" fill="#76A4AE"/>
<path d="M40.9419 66.0115L40.6724 66.9089H40.4266L40.2372 66.2149L40.0442 66.9089H39.8075L39.5507 66.0115H39.7456L39.9386 66.7327L40.1407 66.0115H40.3683L40.5595 66.7327L40.7616 66.0115H40.9419Z" fill="#76A4AE"/>
<path d="M41.6766 65.8025V66.1895H42.2539V66.3548H41.6766V66.9089H41.4909V65.6372H42.2903V65.8025H41.6766Z" fill="#76A4AE"/>
<path d="M42.6112 65.8716L42.471 65.7335L42.6112 65.5936L42.7496 65.7335L42.6112 65.8716ZM42.7022 66.0115V66.9089H42.5201V66.0115H42.7022Z" fill="#76A4AE"/>
<path d="M43.4702 65.986V66.1586C43.361 66.1586 43.2627 66.1853 43.1752 66.2386V66.9089H42.9932V66.0115H43.1498L43.1661 66.0823C43.2693 66.0181 43.3707 65.986 43.4702 65.986Z" fill="#76A4AE"/>
<path d="M44.6784 65.986C44.8751 65.986 44.9734 66.0847 44.9734 66.2822V66.9089H44.7913V66.3258C44.7913 66.2168 44.7373 66.1623 44.6293 66.1623C44.5479 66.1623 44.4696 66.1913 44.3944 66.2495L44.3962 66.2822V66.9089H44.2141V66.3258C44.2141 66.2168 44.1601 66.1623 44.052 66.1623C43.9671 66.1623 43.8894 66.1907 43.819 66.2476V66.9089H43.6369V66.0115H43.7935L43.8117 66.0896C43.9076 66.0205 44.0041 65.986 44.1012 65.986C44.2287 65.986 44.3149 66.0278 44.3598 66.1114C44.4666 66.0278 44.5728 65.986 44.6784 65.986Z" fill="#76A4AE"/>
<path d="M46.3143 66.3149V66.6764C46.3143 66.7539 46.3295 66.826 46.3599 66.8926L46.3526 66.9089H46.1778C46.1693 66.8908 46.162 66.8708 46.1559 66.849C46.0758 66.9071 45.986 66.9362 45.8864 66.9362C45.7881 66.9362 45.7116 66.9132 45.657 66.8671C45.6036 66.8199 45.5769 66.7539 45.5769 66.6691C45.5769 66.5989 45.5945 66.5304 45.6297 66.4638C45.7608 66.4299 45.9307 66.4105 46.1395 66.4057V66.3421C46.1395 66.2731 46.1237 66.224 46.0922 66.195C46.0606 66.1647 46.0127 66.1495 45.9483 66.1495C45.8634 66.1495 45.762 66.1671 45.6442 66.2022L45.6315 66.195V66.0405C45.7553 66.0054 45.8706 65.9878 45.9775 65.9878C46.0952 65.9878 46.1808 66.0127 46.2342 66.0623C46.2876 66.1108 46.3143 66.195 46.3143 66.3149ZM45.9228 66.7963C45.992 66.7963 46.0643 66.7751 46.1395 66.7327V66.5202C45.9878 66.5262 45.864 66.5377 45.7681 66.5547C45.7547 66.5837 45.748 66.6146 45.748 66.6473C45.748 66.7466 45.8063 66.7963 45.9228 66.7963Z" fill="#76A4AE"/>
<path d="M47.0585 65.986C47.2637 65.986 47.3663 66.0823 47.3663 66.2749V66.9089H47.1842V66.3112C47.1842 66.2059 47.1265 66.1532 47.0112 66.1532C46.9274 66.1532 46.8473 66.1828 46.7708 66.2422V66.9089H46.5887V66.0115H46.7453L46.7617 66.0805C46.8625 66.0175 46.9614 65.986 47.0585 65.986Z" fill="#76A4AE"/>
<path d="M48.3768 65.5464V66.6728C48.3768 66.7491 48.3914 66.8223 48.4205 66.8926L48.4133 66.9089H48.233C48.2233 66.8847 48.2166 66.8665 48.213 66.8544C48.1353 66.9089 48.0497 66.9362 47.9562 66.9362C47.8348 66.9362 47.742 66.8992 47.6776 66.8254C47.6133 66.7503 47.5811 66.6407 47.5811 66.4965C47.5811 66.4118 47.5908 66.3294 47.6102 66.2495C47.6309 66.1695 47.657 66.1047 47.6885 66.0551C47.7772 66.009 47.8731 65.986 47.9762 65.986C48.06 65.986 48.1328 65.9975 48.1947 66.0205V65.5464H48.3768ZM47.7632 66.4784C47.7632 66.677 47.8403 66.7763 47.9945 66.7763C48.0624 66.7763 48.1292 66.7557 48.1947 66.7145V66.1841C48.1353 66.1586 48.0649 66.1459 47.9835 66.1459C47.924 66.1459 47.8676 66.1562 47.8142 66.1768C47.7802 66.27 47.7632 66.3706 47.7632 66.4784Z" fill="#76A4AE"/>
<path d="M49.8772 66.7436V66.9089H49.1124V65.6372H49.2981V66.7436H49.8772Z" fill="#76A4AE"/>
<path d="M50.7644 66.3566C50.7644 66.4051 50.7595 66.4535 50.7498 66.502H50.1726C50.1774 66.5965 50.1999 66.6655 50.2399 66.7091C50.28 66.7527 50.3437 66.7745 50.4311 66.7745C50.5295 66.7745 50.6278 66.7563 50.7261 66.72L50.7389 66.7273V66.8762C50.6393 66.9162 50.5307 66.9362 50.4129 66.9362C50.2697 66.9362 50.1641 66.8992 50.0961 66.8254C50.0293 66.7503 49.9959 66.637 49.9959 66.4856C49.9959 66.3209 50.0324 66.1774 50.1052 66.0551C50.206 66.009 50.3073 65.986 50.4093 65.986C50.646 65.986 50.7644 66.1096 50.7644 66.3566ZM50.5914 66.3766V66.3548C50.5914 66.2785 50.5762 66.224 50.5459 66.1913C50.5155 66.1586 50.47 66.1423 50.4093 66.1423C50.3401 66.1423 50.28 66.1532 50.229 66.175C50.2023 66.2343 50.1853 66.3015 50.178 66.3766H50.5914Z" fill="#76A4AE"/>
<path d="M51.7306 66.0242V66.9852C51.7306 67.1209 51.6984 67.2214 51.6341 67.2868C51.5697 67.3534 51.4714 67.3867 51.3391 67.3867C51.2116 67.3867 51.0914 67.3674 50.9785 67.3286V67.1742L50.9913 67.1687C51.103 67.2087 51.2128 67.2287 51.3209 67.2287C51.3998 67.2287 51.4581 67.2081 51.4957 67.1669C51.5345 67.1269 51.554 67.0621 51.554 66.9725V66.8671C51.4835 66.9132 51.4059 66.9362 51.3209 66.9362C51.1946 66.9362 51.0987 66.8992 51.0332 66.8254C50.9676 66.7503 50.9348 66.6407 50.9348 66.4965C50.9348 66.3197 50.9707 66.1725 51.0423 66.0551C51.1309 66.009 51.2274 65.986 51.3318 65.986C51.4253 65.986 51.5078 66.0012 51.5794 66.0314L51.7106 66.006L51.7306 66.0242ZM51.35 66.7818C51.4192 66.7818 51.4872 66.7606 51.554 66.7182V66.1804C51.4933 66.155 51.4216 66.1423 51.3391 66.1423C51.2735 66.1423 51.2159 66.152 51.1661 66.1713C51.1297 66.2622 51.1115 66.3645 51.1115 66.4784C51.1115 66.6806 51.191 66.7818 51.35 66.7818Z" fill="#76A4AE"/>
<path d="M52.6448 66.3149V66.6764C52.6448 66.7539 52.66 66.826 52.6904 66.8926L52.6831 66.9089H52.5083C52.4998 66.8908 52.4925 66.8708 52.4864 66.849C52.4063 66.9071 52.3165 66.9362 52.2169 66.9362C52.1186 66.9362 52.0421 66.9132 51.9875 66.8671C51.9341 66.8199 51.9074 66.7539 51.9074 66.6691C51.9074 66.5989 51.925 66.5304 51.9602 66.4638C52.0913 66.4299 52.2612 66.4105 52.47 66.4057V66.3421C52.47 66.2731 52.4542 66.224 52.4227 66.195C52.3911 66.1647 52.3432 66.1495 52.2788 66.1495C52.1939 66.1495 52.0925 66.1671 51.9747 66.2022L51.962 66.195V66.0405C52.0858 66.0054 52.2011 65.9878 52.308 65.9878C52.4257 65.9878 52.5113 66.0127 52.5647 66.0623C52.6181 66.1108 52.6448 66.195 52.6448 66.3149ZM52.2533 66.7963C52.3225 66.7963 52.3948 66.7751 52.47 66.7327V66.5202C52.3183 66.5262 52.1945 66.5377 52.0986 66.5547C52.0852 66.5837 52.0785 66.6146 52.0785 66.6473C52.0785 66.7466 52.1368 66.7963 52.2533 66.7963Z" fill="#76A4AE"/>
<path d="M53.0904 65.5464V66.9089H52.9083V65.5464H53.0904Z" fill="#76A4AE"/>
<path d="M54.2372 65.7753C54.1438 65.7753 54.057 65.7922 53.9769 65.8262C53.9149 65.9533 53.884 66.1114 53.884 66.3003C53.884 66.4614 53.9119 66.5801 53.9678 66.6564C54.0236 66.7327 54.111 66.7709 54.23 66.7709C54.3477 66.7709 54.4661 66.7448 54.585 66.6927L54.5978 66.6982V66.8562C54.4812 66.9095 54.3526 66.9362 54.2118 66.9362C54.0382 66.9362 53.9089 66.8847 53.8239 66.7818C53.7401 66.6788 53.6983 66.5226 53.6983 66.313C53.6983 66.2016 53.7128 66.0908 53.742 65.9806C53.7711 65.8704 53.8087 65.7789 53.8549 65.7063C53.9835 65.6409 54.1171 65.6081 54.2555 65.6081C54.3841 65.6081 54.4982 65.63 54.5978 65.6736V65.8371L54.585 65.8443C54.4685 65.7983 54.3526 65.7753 54.2372 65.7753Z" fill="#76A4AE"/>
<path d="M55.1802 65.986C55.4473 65.986 55.5808 66.1362 55.5808 66.4366C55.5808 66.611 55.5444 66.7539 55.4716 66.8653C55.3733 66.9126 55.2725 66.9362 55.1693 66.9362C54.9022 66.9362 54.7687 66.786 54.7687 66.4856C54.7687 66.3185 54.8051 66.175 54.878 66.0551C54.9787 66.009 55.0795 65.986 55.1802 65.986ZM55.3478 66.7436C55.3817 66.6564 55.3987 66.5601 55.3987 66.4547C55.3987 66.2489 55.3259 66.1459 55.1802 66.1459C55.1171 66.1459 55.0576 66.1568 55.0018 66.1786C54.9678 66.2658 54.9508 66.3621 54.9508 66.4675C54.9508 66.6734 55.0236 66.7763 55.1693 66.7763C55.2324 66.7763 55.2919 66.7654 55.3478 66.7436Z" fill="#76A4AE"/>
<path d="M56.2715 65.986C56.4767 65.986 56.5793 66.0823 56.5793 66.2749V66.9089H56.3972V66.3112C56.3972 66.2059 56.3395 66.1532 56.2242 66.1532C56.1404 66.1532 56.0603 66.1828 55.9838 66.2422V66.9089H55.8018V66.0115H55.9583L55.9747 66.0805C56.0755 66.0175 56.1744 65.986 56.2715 65.986Z" fill="#76A4AE"/>
<path d="M57.1856 66.3821C57.2985 66.4087 57.3798 66.4438 57.4296 66.4874C57.4794 66.5311 57.5043 66.5868 57.5043 66.6546C57.5043 66.726 57.4861 66.7914 57.4496 66.8508C57.3804 66.9077 57.2791 66.9362 57.1455 66.9362C57.0424 66.9362 56.9355 66.9174 56.8251 66.8799L56.8269 66.7254L56.8396 66.72C56.9453 66.7587 57.0472 66.7787 57.1455 66.7799C57.2245 66.7799 57.2864 66.7709 57.3313 66.7527C57.3374 66.7345 57.3404 66.7127 57.3404 66.6873C57.3404 66.6522 57.3234 66.6237 57.2894 66.6019C57.2566 66.5789 57.199 66.5571 57.1164 66.5365C57.0072 66.5086 56.9295 66.4747 56.8833 66.4348C56.8384 66.3936 56.816 66.3379 56.816 66.2676C56.816 66.2022 56.8348 66.1368 56.8724 66.0714C56.9052 66.046 56.9495 66.026 57.0053 66.0115C57.0612 65.9957 57.1176 65.9878 57.1747 65.9878C57.2694 65.9878 57.3598 66.0054 57.446 66.0405V66.195L57.4333 66.2022C57.341 66.1647 57.2542 66.1459 57.1729 66.1459C57.1037 66.1459 57.0424 66.1568 56.9889 66.1786C56.9829 66.2028 56.9798 66.2246 56.9798 66.244C56.9798 66.2767 56.9944 66.3034 57.0235 66.3239C57.0527 66.3433 57.1067 66.3627 57.1856 66.3821Z" fill="#76A4AE"/>
<path d="M58.4996 66.0115V66.9089H58.343L58.3285 66.8381C58.2277 66.9035 58.1282 66.9362 58.0298 66.9362C57.8247 66.9362 57.7221 66.8393 57.7221 66.6455V66.0115H57.9042V66.6092C57.9042 66.7158 57.9619 66.769 58.0772 66.769C58.1609 66.769 58.2411 66.7394 58.3175 66.68V66.0115H58.4996Z" fill="#76A4AE"/>
<path d="M58.9621 65.5464V66.9089H58.78V65.5464H58.9621Z" fill="#76A4AE"/>
<path d="M59.7379 66.7055L59.7871 66.8508C59.7082 66.9053 59.6226 66.9325 59.5303 66.9325C59.3652 66.9325 59.2827 66.8411 59.2827 66.6582V66.1713H59.1443V66.0115H59.2827V65.7826H59.4648V66.0115H59.7579V66.1713H59.4648V66.6346C59.4648 66.7194 59.4975 66.7618 59.5631 66.7618C59.6141 66.7618 59.6724 66.743 59.7379 66.7055Z" fill="#76A4AE"/>
<path d="M60.6166 66.3149V66.6764C60.6166 66.7539 60.6318 66.826 60.6622 66.8926L60.6549 66.9089H60.4801C60.4716 66.8908 60.4643 66.8708 60.4582 66.849C60.3781 66.9071 60.2883 66.9362 60.1887 66.9362C60.0904 66.9362 60.0139 66.9132 59.9593 66.8671C59.9059 66.8199 59.8792 66.7539 59.8792 66.6691C59.8792 66.5989 59.8968 66.5304 59.932 66.4638C60.0631 66.4299 60.233 66.4105 60.4418 66.4057V66.3421C60.4418 66.2731 60.4261 66.224 60.3945 66.195C60.3629 66.1647 60.315 66.1495 60.2506 66.1495C60.1657 66.1495 60.0643 66.1671 59.9465 66.2022L59.9338 66.195V66.0405C60.0576 66.0054 60.1729 65.9878 60.2798 65.9878C60.3975 65.9878 60.4831 66.0127 60.5365 66.0623C60.5899 66.1108 60.6166 66.195 60.6166 66.3149ZM60.2251 66.7963C60.2943 66.7963 60.3666 66.7751 60.4418 66.7327V66.5202C60.2901 66.5262 60.1663 66.5377 60.0704 66.5547C60.057 66.5837 60.0503 66.6146 60.0503 66.6473C60.0503 66.7466 60.1086 66.7963 60.2251 66.7963Z" fill="#76A4AE"/>
<path d="M61.3863 66.7055L61.4355 66.8508C61.3566 66.9053 61.271 66.9325 61.1787 66.9325C61.0136 66.9325 60.9311 66.8411 60.9311 66.6582V66.1713H60.7927V66.0115H60.9311V65.7826H61.1132V66.0115H61.4064V66.1713H61.1132V66.6346C61.1132 66.7194 61.146 66.7618 61.2115 66.7618C61.2625 66.7618 61.3208 66.743 61.3863 66.7055Z" fill="#76A4AE"/>
<path d="M61.6969 65.8716L61.5567 65.7335L61.6969 65.5936L61.8353 65.7335L61.6969 65.8716ZM61.788 66.0115V66.9089H61.6059V66.0115H61.788Z" fill="#76A4AE"/>
<path d="M62.4194 65.986C62.6865 65.986 62.82 66.1362 62.82 66.4366C62.82 66.611 62.7836 66.7539 62.7108 66.8653C62.6124 66.9126 62.5117 66.9362 62.4085 66.9362C62.1414 66.9362 62.0079 66.786 62.0079 66.4856C62.0079 66.3185 62.0443 66.175 62.1171 66.0551C62.2179 66.009 62.3187 65.986 62.4194 65.986ZM62.5869 66.7436C62.6209 66.6564 62.6379 66.5601 62.6379 66.4547C62.6379 66.2489 62.5651 66.1459 62.4194 66.1459C62.3563 66.1459 62.2968 66.1568 62.241 66.1786C62.207 66.2658 62.19 66.3621 62.19 66.4675C62.19 66.6734 62.2628 66.7763 62.4085 66.7763C62.4716 66.7763 62.5311 66.7654 62.5869 66.7436Z" fill="#76A4AE"/>
<path d="M63.5107 65.986C63.7159 65.986 63.8184 66.0823 63.8184 66.2749V66.9089H63.6364V66.3112C63.6364 66.2059 63.5787 66.1532 63.4634 66.1532C63.3796 66.1532 63.2995 66.1828 63.223 66.2422V66.9089H63.0409V66.0115H63.1975L63.2139 66.0805C63.3147 66.0175 63.4136 65.986 63.5107 65.986Z" fill="#76A4AE"/>
<path d="M64.4248 66.3821C64.5377 66.4087 64.619 66.4438 64.6688 66.4874C64.7186 66.5311 64.7434 66.5868 64.7434 66.6546C64.7434 66.726 64.7252 66.7914 64.6888 66.8508C64.6196 66.9077 64.5183 66.9362 64.3847 66.9362C64.2815 66.9362 64.1747 66.9174 64.0642 66.8799L64.0661 66.7254L64.0788 66.72C64.1844 66.7587 64.2864 66.7787 64.3847 66.7799C64.4636 66.7799 64.5255 66.7709 64.5705 66.7527C64.5765 66.7345 64.5796 66.7127 64.5796 66.6873C64.5796 66.6522 64.5626 66.6237 64.5286 66.6019C64.4958 66.5789 64.4381 66.5571 64.3556 66.5365C64.2463 66.5086 64.1686 66.4747 64.1225 66.4348C64.0776 66.3936 64.0551 66.3379 64.0551 66.2676C64.0551 66.2022 64.074 66.1368 64.1116 66.0714C64.1444 66.046 64.1887 66.026 64.2445 66.0115C64.3004 65.9957 64.3568 65.9878 64.4139 65.9878C64.5085 65.9878 64.599 66.0054 64.6852 66.0405V66.195L64.6724 66.2022C64.5802 66.1647 64.4934 66.1459 64.412 66.1459C64.3428 66.1459 64.2815 66.1568 64.2281 66.1786C64.2221 66.2028 64.219 66.2246 64.219 66.244C64.219 66.2767 64.2336 66.3034 64.2627 66.3239C64.2919 66.3433 64.3459 66.3627 64.4248 66.3821Z" fill="#76A4AE"/>
</svg>
