<svg width="345" height="345" viewBox="0 0 345 345" fill="none" xmlns="http://www.w3.org/2000/svg">
<path d="M91.4047 0.041385C92.0241 0.029941 92.6435 0.0217224 93.263 0.0148986C93.608 0.00998206 93.9529 0.00506552 94.3083 0C95.2275 0.041385 95.2275 0.041385 96.077 0.465167C95.8803 8.29631 95.6506 16.1247 95.332 23.952C94.7745 37.7455 94.244 51.5367 94.1962 65.343C94.1922 66.1927 94.1846 67.0425 94.1769 67.8922C94.1045 76.9621 94.3278 85.8862 100.935 92.8761C105.028 96.6551 109.748 97.35 115.136 97.2183C117.392 97.0956 119.185 96.5263 121.138 95.3924C121.494 95.1864 121.85 94.9805 122.218 94.7683C127.05 91.6829 129.405 87.2905 131.756 82.2551C132.037 81.6957 132.317 81.1363 132.606 80.56C133.867 80.6998 135.129 80.8397 136.429 80.9838C136.925 82.4682 136.757 82.9866 136.364 84.4767C136.246 84.924 136.128 85.3714 136.007 85.8323C135.874 86.3125 135.742 86.7928 135.606 87.2875C135.47 87.7822 135.334 88.2769 135.194 88.7866C131.679 101.267 126.06 115.351 114.33 122.314C109.362 124.77 103.909 125.544 98.5459 123.998C91.7024 121.412 87.3277 115.608 84.3465 109.164C83.8465 107.97 83.3646 106.774 82.9096 105.563C82.6293 105.563 82.3489 105.563 82.0601 105.563C81.4303 106.398 81.4303 106.398 80.7858 107.497C79.7327 109.204 78.6501 110.874 77.5104 112.525C72.4497 119.811 72.4497 119.811 71.866 128.447C72.4493 129.78 72.8048 130.398 74.1142 131.055C74.7228 131.219 74.7228 131.219 75.3436 131.387C75.8299 131.523 76.3161 131.659 76.817 131.8C78.2546 132.168 79.6988 132.506 81.1442 132.842C81.5871 132.948 82.0299 133.053 82.4862 133.161C83.3682 133.369 84.252 133.57 85.1374 133.763C88.6325 134.58 91.6251 135.907 94.2187 138.433C95.3704 141.305 95.3248 143.968 94.2635 146.877C93.592 148.329 92.816 149.716 92.0194 151.103C91.3048 152.354 90.6158 153.618 89.9247 154.882C84.817 164.108 80.4186 169.631 70.0297 172.672C69.5231 172.815 69.0165 172.957 68.4945 173.103C67.9452 173.263 67.3961 173.422 66.8472 173.582C65.1242 174.083 63.3983 174.574 61.6718 175.063C37.2959 181.852 37.2959 181.852 20.2731 199.727C13.5606 212.165 12.0919 226.827 11.5965 240.758C11.5654 241.617 11.5322 242.475 11.4973 243.334C11.1267 252.682 11.0999 262.026 11.1265 271.38C11.1293 272.386 11.1318 273.392 11.1343 274.397C11.1498 280.671 11.1689 286.945 11.1987 293.219C11.2136 296.346 11.2236 299.472 11.2286 302.599C11.2314 304.234 11.2364 305.87 11.2477 307.505C11.4496 337.574 11.4497 337.574 7.72791 345C6.32622 345 4.92452 345 3.48036 345C2.26862 335.277 1.52066 325.537 0.931823 315.759C0.908741 315.384 0.885659 315.008 0.861878 314.621C0.0544108 301.357 0.00426515 288.094 0.00267131 274.811C0.00244941 274.393 0.00222589 273.974 0.00199726 273.543C-0.00918807 250.547 -0.00918647 250.547 1.03801 239.69C1.06441 239.413 1.0908 239.137 1.11799 238.851C3.55449 213.63 10.3366 187.105 30.2433 169.748C36.5997 164.54 43.4478 160.318 50.5386 156.193C51.7558 155.484 52.9649 154.763 54.1689 154.032C54.4621 153.854 54.7553 153.676 55.0573 153.493C55.6144 153.154 56.1707 152.814 56.7259 152.472C58.6048 151.332 58.6048 151.332 59.5481 151.332C59.4561 151.048 59.3641 150.765 59.2693 150.472C56.49 140.908 59.2055 131.455 63.8575 122.951C65.3844 120.237 67.0193 117.589 68.6537 114.939C75.2531 104.238 81.3734 93.2848 81.319 80.3829C81.3206 79.9286 81.3221 79.4744 81.3237 79.0065C81.3266 78.0291 81.3277 77.0518 81.3271 76.0744C81.3267 74.5193 81.3323 72.9644 81.3394 71.4093C81.359 66.9909 81.3695 62.5724 81.3723 58.1539C81.3745 55.4415 81.3849 52.7291 81.4001 50.0167C81.4042 48.9923 81.4053 47.9679 81.403 46.9434C81.3898 40.7016 81.8102 34.9206 83.3344 28.8586C83.4427 28.4071 83.5511 27.9556 83.6628 27.4904C83.9284 26.4245 84.2134 25.3671 84.5107 24.3095C84.665 23.7472 84.665 23.7472 84.8223 23.1734C85.1464 21.9952 85.4746 20.8182 85.8032 19.6413C86.0298 18.8218 86.2561 18.0022 86.4823 17.1826C88.0676 11.4527 89.6949 5.73565 91.4047 0.041385Z" fill="#76A4AE"/>
<path d="M316.949 19.9593C318.593 19.9277 320.038 19.9393 321.621 20.383C321.327 32.646 320.98 44.9074 320.585 57.1677C320.496 59.9452 320.409 62.7228 320.328 65.5006C319.629 89.4228 319.629 89.4228 317.799 99.6303C317.695 100.236 317.695 100.236 317.59 100.853C315.284 114.345 310.327 132.682 298.469 141.067C297.428 141.716 296.379 142.299 295.286 142.856C295.018 143 294.749 143.145 294.472 143.293C291.188 144.802 287.031 144.608 283.659 143.492C283.151 143.282 282.643 143.072 282.119 142.856C282.04 143.258 281.961 143.66 281.88 144.074C281.219 146.384 279.738 148.176 278.296 150.06C278.089 150.343 277.882 150.625 277.669 150.916C276.08 152.949 274.251 154.064 271.925 155.146C271.531 155.329 271.136 155.513 270.73 155.702C266.462 156.621 262.8 155.755 258.758 154.298C258.547 154.57 258.336 154.841 258.119 155.121C253.753 160.667 248.884 165.017 241.767 166.588C236.616 167.064 232.446 166.663 227.75 164.469C227.47 164.469 227.19 164.469 226.901 164.469C226.303 165.22 225.734 165.993 225.175 166.773C219.641 174.196 210.619 183.454 200.991 185.234C200.935 185.73 200.879 186.226 200.822 186.737C199.188 199.674 192.352 217.204 182.013 225.66C179.004 227.738 175.196 228.365 171.648 228.929C171 229.036 171 229.036 170.339 229.146C169.433 229.296 168.526 229.444 167.618 229.589C166.247 229.81 164.878 230.038 163.509 230.267C159.016 231.008 154.576 231.676 150.02 231.85C148.529 228.338 148.529 228.338 149.171 226.341C150.005 225.625 150.005 225.625 151.117 224.982C151.534 224.737 151.95 224.492 152.38 224.239C153.065 223.851 153.065 223.851 153.763 223.454C154.235 223.179 154.706 222.904 155.192 222.621C156.719 221.732 158.253 220.857 159.79 219.984C160.046 219.839 160.303 219.693 160.567 219.543C161.852 218.812 163.138 218.083 164.423 217.353C164.675 217.21 164.927 217.068 165.187 216.92C165.696 216.632 166.205 216.343 166.714 216.055C170.878 213.694 174.947 211.237 178.904 208.542C179.21 208.335 179.517 208.127 179.834 207.914C188.037 202.727 188.037 202.727 193.345 194.981C193.494 192.68 193.504 191.379 192.071 189.472C190.445 189.704 189.493 190.125 188.195 191.114C184.226 193.824 179.792 194.157 175.081 193.71C171.138 192.839 167.561 190.762 165.311 187.353C163.181 182.945 163.035 178.736 164.637 174.129C164.86 173.524 164.86 173.524 165.087 172.907C165.241 172.472 165.394 172.038 165.552 171.591C166.04 170.212 166.538 168.837 167.037 167.462C167.36 166.555 167.683 165.647 168.005 164.74C168.637 162.959 169.277 161.181 169.921 159.404C170.523 157.731 171.097 156.054 171.644 154.363C171.836 153.781 171.836 153.781 172.032 153.188C172.267 152.469 172.497 151.748 172.718 151.025C173.622 148.3 174.869 147.044 177.432 145.669C181.165 144.27 184.918 143.859 188.753 145.16C193.955 147.57 197.076 152.257 199.186 157.397C200.401 160.743 201.416 164.283 201.416 167.859C210.276 164.72 217.389 160.008 222.866 152.312C223.106 151.98 223.347 151.648 223.595 151.306C224.976 149.378 226.155 147.449 227.246 145.346C228.341 143.411 228.341 143.411 229.413 142.868C230.85 142.715 231.682 143.045 232.834 143.901C233.405 144.417 233.969 144.942 234.527 145.473C237.138 147.795 239.956 148.225 243.378 148.102C247.936 147.565 251.527 144.944 254.404 141.479C255.937 139.41 256.914 137.164 257.908 134.804C258.186 134.237 258.468 133.671 258.758 133.109C260.112 132.833 261.236 132.75 262.58 133.109C263.524 134.117 264.182 135.144 264.872 136.337C265.615 137.438 266.005 137.78 267.253 138.194C270.649 138.709 273.378 138.04 276.172 136.076C279.127 133.611 280.657 130.363 282.262 126.954C282.969 125.481 282.969 125.481 283.818 124.21C285.106 123.934 286.345 123.994 287.641 124.21C288.57 125.004 288.57 125.004 289.34 125.905C291.59 127.027 293.738 126.846 296.136 126.329C298.948 125.314 300.831 123.214 302.214 120.627C304.514 115.508 305.884 109.955 306.388 104.379C306.441 103.805 306.441 103.805 306.495 103.219C306.819 99.3998 306.854 95.5973 306.819 91.7669C306.808 90.5316 306.802 89.2964 306.798 88.0611C306.787 84.9961 306.766 81.9312 306.746 78.8662C306.607 57.5008 306.607 57.5008 307.604 50.8953C307.652 50.5741 307.699 50.2528 307.748 49.9218C308.78 43.3751 311.093 37.1476 313.232 30.8981C313.593 29.8325 313.954 28.7667 314.314 27.7007C315.188 25.1186 316.066 22.5382 316.949 19.9593Z" fill="#76A4AE"/>
<path d="M132.606 146.67C132.755 147.008 132.905 147.345 133.059 147.693C135.514 152.95 138.759 155.083 144.074 157.265C145.532 157.748 146.987 158.181 148.473 158.569C149.629 158.971 150.154 159.253 150.87 160.231C151.375 163.049 150.497 164.569 148.913 166.876C148.575 167.346 148.236 167.814 147.897 168.283C147.69 168.573 147.483 168.863 147.269 169.162C145.868 171.125 144.45 173.075 143.025 175.02C142.447 175.813 141.876 176.608 141.309 177.408C141.012 177.823 140.716 178.238 140.411 178.666C140.16 179.02 139.909 179.374 139.651 179.738C138.761 180.841 138.043 181.37 136.628 181.578C133.224 181.653 130.891 180.944 127.934 179.301C127.575 179.112 127.216 178.923 126.847 178.729C124.007 177.146 120.08 174.864 119.014 171.673C116.832 173.62 115.34 175.978 113.731 178.401C109.137 185.306 109.137 185.306 107.014 186.718C102.115 187.606 97.8283 185.023 93.8106 182.49C91.3543 180.593 89.4058 177.556 88.4314 174.64C88.3471 173.715 88.2987 172.787 88.2722 171.859C88.2513 171.369 88.2305 170.879 88.2091 170.374C88.7524 166.3 91.4213 163.139 93.9002 159.993C94.1898 159.619 94.4795 159.246 94.7779 158.861C95.6322 157.761 96.4914 156.665 97.3513 155.57C97.919 154.842 98.4865 154.114 99.0536 153.386C99.2985 153.072 99.5433 152.758 99.7955 152.434C99.9701 152.21 100.145 151.986 100.325 151.755C101.138 151.912 101.138 151.912 102.024 152.179C102.594 153.073 102.594 153.073 103.085 154.192C105.369 159.334 110.145 161.629 115.191 163.621C116.18 163.951 117.151 164.222 118.164 164.469C118.28 164.223 118.396 163.977 118.516 163.724C119.008 162.784 119.554 161.98 120.189 161.13C120.424 160.813 120.659 160.496 120.901 160.17C121.155 159.832 121.408 159.493 121.669 159.145C123.338 156.911 125.001 154.675 126.616 152.401C126.882 152.031 127.147 151.661 127.421 151.28C127.933 150.564 128.441 149.846 128.945 149.125C129.293 148.642 129.293 148.642 129.649 148.148C129.852 147.862 130.054 147.576 130.263 147.281C130.907 146.67 130.907 146.67 132.606 146.67Z" fill="#76A4AE"/>
<path d="M341.586 97.9344C342.708 98.0743 343.829 98.2141 344.984 98.3582C345.055 115.577 344.883 132.785 344.601 150.001C344.563 152.351 344.531 154.701 344.5 157.051C344.379 165.953 344.107 174.71 342.86 183.538C342.818 183.871 342.775 184.204 342.732 184.547C341.491 194.258 338.729 204.087 335.215 213.203C333.953 213.203 332.692 213.203 331.392 213.203C331.362 202.181 331.34 191.159 331.326 180.136C331.319 175.018 331.311 169.899 331.296 164.781C331.283 160.316 331.275 155.852 331.272 151.387C331.271 149.026 331.267 146.665 331.257 144.304C331.249 142.075 331.246 139.847 331.248 137.618C331.248 136.806 331.245 135.995 331.24 135.183C331.16 121.364 335.312 110.091 341.586 97.9344Z" fill="#76A4AE"/>
<path d="M332.666 217.441C334.348 217.441 336.03 217.441 337.763 217.441C337.763 238.279 337.763 259.116 337.763 280.585C231.235 280.585 124.706 280.585 14.9492 280.585C14.9492 278.907 14.9492 277.229 14.9492 275.5C119.796 275.5 224.642 275.5 332.666 275.5C332.666 256.34 332.666 237.181 332.666 217.441Z" fill="#76A4AE"/>
<path d="M98.2014 68.694C165.623 68.694 233.044 68.694 302.509 68.694C302.509 70.5121 302.509 72.3301 302.509 74.2032C235.087 74.2032 167.666 74.2032 98.2014 74.2032C98.2014 72.3852 98.2014 70.5671 98.2014 68.694Z" fill="#76A4AE"/>
<path d="M6.02881 68.6942C29.5772 68.6942 53.1257 68.6942 77.3877 68.6942C77.3877 70.3723 77.3877 72.0505 77.3877 73.7795C55.5213 73.7795 33.6549 73.7795 11.1259 73.7795C11.1801 81.8956 11.2343 90.0118 11.2901 98.3738C11.314 103.525 11.3367 108.675 11.354 113.826C11.3632 116.534 11.3726 119.241 11.3825 121.949C11.3838 122.288 11.385 122.628 11.3863 122.977C11.4065 128.436 11.4433 133.894 11.4864 139.352C11.5302 144.965 11.556 150.578 11.5655 156.191C11.5719 159.647 11.5919 163.102 11.6301 166.558C11.655 168.937 11.6622 171.315 11.6562 173.694C11.6532 175.062 11.66 176.427 11.6828 177.794C11.804 185.431 10.3564 190.924 6.45356 197.524C6.31339 197.524 6.17323 197.524 6.02881 197.524C6.02881 155.01 6.02881 112.496 6.02881 68.6942Z" fill="#76A4AE"/>
<path d="M324.171 68.694C328.656 68.694 333.141 68.694 337.763 68.694C337.95 75.2834 337.95 75.2834 337.991 78.1604C338.019 80.1004 338.051 82.0393 338.115 83.9784C338.392 92.5119 337.853 98.9666 333.091 106.411C332.95 106.411 332.81 106.411 332.666 106.411C332.666 95.6423 332.666 84.874 332.666 73.7794C329.862 73.7794 327.059 73.7794 324.171 73.7794C324.171 72.1012 324.171 70.4231 324.171 68.694Z" fill="#76A4AE"/>
<path d="M91.5454 250.276L91.0128 249.656L91.6826 249.101L92.1588 249.664L92.8286 249.109L93.3532 249.729L92.6833 250.284L92.2072 249.721L91.5454 250.276ZM94.7009 253.594V254.205L94.6202 254.31H93.1353V253.738C92.6887 254.012 92.2879 254.149 91.9328 254.149C91.5454 254.149 91.2414 254.042 91.0208 253.827C90.8003 253.612 90.69 253.328 90.69 252.974C90.69 252.625 90.7814 252.262 90.9644 251.887L93.1353 251.283V250.647H93.8535V253.489H94.6202L94.7009 253.594ZM92.0539 253.352C92.4089 253.352 92.7694 253.261 93.1353 253.078V251.951L91.4244 252.418C91.3921 252.536 91.3759 252.662 91.3759 252.796C91.3759 253.167 91.6019 253.352 92.0539 253.352Z" fill="#76A4AE"/>
<path d="M97.6665 253.577V254.23L97.5858 254.31H97.4324C97.115 254.31 96.7895 254.149 96.4559 253.827L96.1573 254.31H94.6239L94.511 254.197V253.577L94.6239 253.489H95.9717V251.347H96.7061V253.296C96.8944 253.424 97.1473 253.489 97.4647 253.489H97.5858L97.6665 253.577ZM95.4471 254.986L95.9798 255.631L95.3099 256.186L94.7773 255.542L95.4471 254.986ZM96.6496 254.986L97.1822 255.631L96.5205 256.186L95.9798 255.542L96.6496 254.986Z" fill="#76A4AE"/>
<path d="M99.1368 250.437L98.6041 249.809L99.2821 249.254L99.8066 249.882L99.1368 250.437ZM98.8785 251.081H99.6049V254.31H97.5873L97.4743 254.197V253.577L97.5873 253.489H98.8785V251.081Z" fill="#76A4AE"/>
<path d="M104.707 253.577V254.181L104.626 254.31H103.964C103.808 255.47 103.173 256.049 102.059 256.049C101.71 256.049 101.36 255.969 101.01 255.808L100.93 255.115L100.986 255.067C101.357 255.196 101.75 255.26 102.164 255.26C102.498 255.26 102.753 255.19 102.931 255.051C103.114 254.911 103.232 254.662 103.286 254.302C102.102 254.205 101.244 253.797 100.712 253.078C100.852 252.445 101.08 251.924 101.398 251.516C101.715 251.108 102.054 250.904 102.415 250.904C102.667 250.904 102.893 250.982 103.092 251.138C103.297 251.288 103.461 251.492 103.585 251.75C103.714 252.002 103.813 252.278 103.883 252.579C103.953 252.874 103.994 253.18 104.004 253.497L104.626 253.489L104.707 253.577ZM102.31 251.742C102.154 251.742 101.992 251.841 101.825 252.04C101.659 252.238 101.527 252.496 101.43 252.812C101.828 253.199 102.455 253.424 103.31 253.489C103.278 253 103.179 252.587 103.012 252.249C102.845 251.911 102.611 251.742 102.31 251.742Z" fill="#76A4AE"/>
<path d="M106.175 250.437L105.642 249.809L106.32 249.254L106.845 249.882L106.175 250.437ZM105.916 251.081H106.643V254.31H104.625L104.512 254.197V253.577L104.625 253.489H105.916V251.081Z" fill="#76A4AE"/>
<path d="M109.622 253.585V254.222L109.541 254.31H107.959V248.271H108.686V253.489H109.541L109.622 253.585Z" fill="#76A4AE"/>
<path d="M111.06 250.155L110.528 249.535L111.197 248.98L111.674 249.543L112.343 248.988L112.868 249.608L112.198 250.163L111.722 249.6L111.06 250.155ZM113.958 253.561V254.238L113.877 254.31H113.473C112.941 254.31 112.421 254.197 111.916 253.972C111.421 254.197 110.815 254.31 110.1 254.31H109.543L109.462 254.205V253.602L109.543 253.489H111.109C110.716 253.199 110.415 252.85 110.205 252.442C110.361 251.916 110.595 251.511 110.907 251.226C111.224 250.936 111.558 250.791 111.908 250.791C112.306 250.791 112.629 250.928 112.876 251.202C113.129 251.476 113.255 251.814 113.255 252.217C113.255 252.684 113.075 253.097 112.715 253.457C112.898 253.478 113.177 253.489 113.554 253.489H113.877L113.958 253.561ZM111.779 251.597C111.601 251.597 111.434 251.664 111.278 251.798C111.122 251.927 110.993 252.096 110.891 252.305C111.149 252.751 111.534 253.078 112.045 253.288C112.212 253.169 112.341 253.033 112.432 252.877C112.524 252.716 112.569 252.558 112.569 252.402C112.569 252.166 112.499 251.972 112.36 251.822C112.22 251.672 112.026 251.597 111.779 251.597Z" fill="#76A4AE"/>
<path d="M115.5 248.271V254.31H113.878L113.789 254.222V253.585L113.878 253.489H114.749V248.271H115.5Z" fill="#76A4AE"/>
<path d="M117.615 254.31H116.889V248.271H117.615V254.31Z" fill="#76A4AE"/>
<path d="M122.938 250.904L122.405 250.284L123.075 249.729L123.551 250.292L124.221 249.737L124.745 250.357L124.075 250.912L123.599 250.349L122.938 250.904ZM126.359 251.081V254.31H122.623C121.208 254.31 120.5 253.714 120.5 252.523C120.5 252.206 120.562 251.868 120.686 251.508L121.243 251.395L121.299 251.444C121.219 251.798 121.178 252.099 121.178 252.345C121.178 252.743 121.297 253.033 121.533 253.215C121.77 253.398 122.195 253.489 122.808 253.489H125.633V251.081H126.359Z" fill="#76A4AE"/>
<path d="M128.405 254.31H127.678V248.271H128.405V254.31Z" fill="#76A4AE"/>
<path d="M131.098 251.347V254.133C131.098 255.411 130.608 256.049 129.629 256.049C129.419 256.049 129.217 256.004 129.024 255.912L128.895 255.212L128.951 255.164C129.161 255.228 129.398 255.26 129.661 255.26C129.903 255.26 130.084 255.182 130.202 255.027C130.32 254.876 130.38 254.624 130.38 254.27V251.347H131.098Z" fill="#76A4AE"/>
<path d="M133.959 253.585V254.222L133.878 254.31H132.297V248.271H133.023V253.489H133.878L133.959 253.585Z" fill="#76A4AE"/>
<path d="M137.116 249.568L136.608 248.956L137.254 248.416L137.762 249.028L137.116 249.568ZM136.495 250.638L135.97 250.018L136.632 249.463L137.149 250.083L136.495 250.638ZM137.133 250.027L137.794 249.479L138.311 250.099L137.657 250.647L137.133 250.027ZM140.506 253.577V254.23L140.425 254.31H140.272C139.949 254.31 139.637 254.165 139.336 253.875L139.061 254.31C138.351 254.31 137.732 254.154 137.205 253.843L136.89 254.31C136.315 254.31 135.812 254.163 135.381 253.867L135.317 254.31H133.88L133.8 254.246V253.553L133.88 253.489H134.736L135.026 251.452H135.753L135.478 253.263C135.812 253.408 136.204 253.483 136.656 253.489L136.915 251.452H137.641L137.407 253.288C137.784 253.411 138.254 253.478 138.819 253.489C138.722 252.737 138.609 252.007 138.48 251.299L139.207 251.138C139.352 251.954 139.465 252.673 139.546 253.296C139.729 253.424 139.981 253.489 140.304 253.489H140.425L140.506 253.577Z" fill="#76A4AE"/>
<path d="M141.398 250.606L140.865 249.986L141.535 249.431L142.011 249.994L142.681 249.439L143.206 250.059L142.536 250.614L142.06 250.051L141.398 250.606ZM143.464 253.577V254.23L143.383 254.31H143.23C142.913 254.31 142.587 254.149 142.254 253.827L141.955 254.31H140.422L140.309 254.197V253.577L140.422 253.489H141.769V251.347H142.504V253.296C142.692 253.424 142.945 253.489 143.262 253.489H143.383L143.464 253.577Z" fill="#76A4AE"/>
<path d="M149.083 253.505L148.566 254.31C147.856 254.31 147.237 254.154 146.71 253.843L146.395 254.31C145.809 254.31 145.3 254.157 144.87 253.851L144.797 254.31H143.385L143.304 254.246V253.553L143.385 253.489H144.224L144.531 251.452H145.257L144.967 253.255C145.3 253.406 145.698 253.483 146.161 253.489L146.419 251.452H147.146L146.912 253.288C147.288 253.411 147.762 253.478 148.332 253.489C148.235 252.748 148.106 251.986 147.945 251.202L148.671 251.025C148.849 251.873 148.986 252.7 149.083 253.505Z" fill="#76A4AE"/>
<path d="M152.937 251.677C153.448 252.311 153.836 252.933 154.099 253.545L153.76 254.31H150.169L149.895 253.602L149.911 253.513C150.739 253.057 151.423 252.512 151.961 251.878L152.074 251.742C151.563 251.194 150.874 250.571 150.008 249.874V249.809L150.524 249.35C151.326 250.01 151.966 250.601 152.445 251.122C152.644 250.665 152.744 250.048 152.744 249.27V248.271H153.462V249.157C153.462 250.247 153.287 251.087 152.937 251.677ZM152.518 252.241L152.445 252.329C152.058 252.78 151.546 253.18 150.912 253.529H153.397C153.182 253.121 152.889 252.692 152.518 252.241Z" fill="#76A4AE"/>
<path d="M155.752 254.31H155.026V248.271H155.752V254.31Z" fill="#76A4AE"/>
<path d="M158.631 250.904C158.975 250.904 159.271 251.052 159.519 251.347C159.772 251.637 159.952 251.986 160.06 252.394C160.167 252.796 160.221 253.22 160.221 253.666C160.221 255.255 159.573 256.049 158.276 256.049C157.91 256.049 157.56 255.972 157.227 255.816L157.098 255.115L157.154 255.067C157.526 255.196 157.934 255.26 158.381 255.26C158.709 255.26 158.962 255.193 159.14 255.059C159.323 254.925 159.441 254.686 159.495 254.342C158.322 254.235 157.466 253.819 156.928 253.094C157.068 252.461 157.297 251.938 157.614 251.524C157.932 251.111 158.271 250.904 158.631 250.904ZM157.647 252.829C158.077 253.258 158.706 253.502 159.535 253.561C159.519 253.239 159.476 252.949 159.406 252.692C159.336 252.429 159.223 252.206 159.067 252.023C158.916 251.836 158.736 251.742 158.526 251.742C158.37 251.742 158.209 251.844 158.042 252.048C157.881 252.252 157.749 252.512 157.647 252.829Z" fill="#76A4AE"/>
<path d="M163.765 250.26L163.232 249.64L163.902 249.084L164.378 249.648L165.048 249.093L165.573 249.713L164.903 250.268L164.427 249.704L163.765 250.26ZM164.467 250.622H164.54C165.164 251.68 165.653 252.558 166.009 253.255L165.71 254.093C165.274 254.318 164.82 254.431 164.346 254.431C163.894 254.431 163.534 254.321 163.265 254.101C163.001 253.875 162.869 253.596 162.869 253.263C162.869 252.92 162.982 252.6 163.208 252.305C163.434 252.005 163.741 251.704 164.128 251.403C164.037 251.275 163.964 251.167 163.91 251.081L164.467 250.622ZM163.555 253.062C163.555 253.223 163.639 253.357 163.805 253.465C163.972 253.567 164.195 253.618 164.475 253.618C164.766 253.618 165.048 253.561 165.323 253.449C165.011 252.88 164.723 252.375 164.459 251.935C164.212 252.101 163.999 252.286 163.822 252.49C163.644 252.694 163.555 252.885 163.555 253.062Z" fill="#76A4AE"/>
<path d="M168.794 253.585V254.222L168.713 254.31H167.132V248.271H167.858V253.489H168.713L168.794 253.585Z" fill="#76A4AE"/>
<path d="M171.451 251.009C171.806 251.009 172.094 251.17 172.314 251.492C172.54 251.814 172.653 252.225 172.653 252.724C172.653 253.148 172.551 253.545 172.347 253.916L171.782 254.455L169.942 253.618C169.775 253.87 169.606 254.05 169.433 254.157C169.261 254.259 169.043 254.31 168.78 254.31H168.715L168.634 254.189V253.626L168.715 253.489H168.844C169.038 253.489 169.199 253.419 169.328 253.279C169.463 253.135 169.63 252.872 169.829 252.49C170.076 252.018 170.329 251.653 170.587 251.395C170.846 251.138 171.134 251.009 171.451 251.009ZM170.297 252.998L171.79 253.682C171.908 253.414 171.967 253.14 171.967 252.861C171.967 252.544 171.906 252.294 171.782 252.112C171.663 251.924 171.505 251.83 171.306 251.83C171.144 251.83 170.994 251.916 170.854 252.088C170.714 252.254 170.55 252.52 170.361 252.885L170.297 252.998Z" fill="#76A4AE"/>
<path d="M175.525 253.585V254.222L175.444 254.31H173.862V248.271H174.588V253.489H175.444L175.525 253.585Z" fill="#76A4AE"/>
<path d="M180.603 253.569V254.246L180.522 254.31H179.844C179.354 254.31 178.954 254.09 178.642 253.65C178.125 253.875 177.678 254.042 177.302 254.149C176.931 254.256 176.522 254.31 176.075 254.31H175.446L175.333 254.197V253.602L175.446 253.489H176.132C176.358 253.489 176.562 253.481 176.745 253.465C176.928 253.443 177.127 253.4 177.342 253.336C177.557 253.266 177.711 253.218 177.802 253.191C177.894 253.159 178.085 253.081 178.375 252.957C178.666 252.834 178.851 252.756 178.932 252.724C178.405 252.359 178.007 252.112 177.738 251.983C177.474 251.849 177.194 251.782 176.898 251.782C176.624 251.782 176.341 251.833 176.051 251.935L175.978 251.895V251.186C176.366 251.03 176.705 250.953 176.995 250.953C177.34 250.953 177.713 251.079 178.117 251.331C178.52 251.583 179.075 251.997 179.779 252.571L179.594 253.239L179.255 253.384C179.4 253.454 179.594 253.489 179.836 253.489H180.522L180.603 253.569Z" fill="#76A4AE"/>
<path d="M185.331 253.577V254.23L185.25 254.31H185.097C184.769 254.31 184.457 254.173 184.161 253.899L184.153 253.916L183.588 254.455L181.748 253.618C181.581 253.87 181.412 254.05 181.239 254.157C181.067 254.259 180.849 254.31 180.586 254.31H180.521L180.44 254.189V253.626L180.521 253.489H180.65C180.844 253.489 181.005 253.419 181.135 253.279C181.269 253.135 181.436 252.872 181.635 252.49C181.882 252.018 182.135 251.653 182.393 251.395C182.652 251.138 182.94 251.009 183.257 251.009C183.612 251.009 183.9 251.17 184.121 251.492C184.347 251.814 184.459 252.225 184.459 252.724C184.459 252.923 184.435 253.124 184.387 253.328C184.564 253.435 184.812 253.489 185.129 253.489H185.25L185.331 253.577ZM182.103 252.998L183.596 253.682C183.714 253.414 183.774 253.14 183.774 252.861C183.774 252.544 183.712 252.294 183.588 252.112C183.47 251.924 183.311 251.83 183.112 251.83C182.95 251.83 182.8 251.916 182.66 252.088C182.52 252.254 182.356 252.52 182.168 252.885L182.103 252.998Z" fill="#76A4AE"/>
<path d="M188.026 253.577V254.23L187.945 254.31H187.84C187.48 254.31 187.146 254.157 186.84 253.851L186.565 254.31H185.25L185.137 254.197V253.577L185.25 253.489H186.372V248.271H187.106V253.288C187.284 253.422 187.539 253.489 187.873 253.489H187.945L188.026 253.577Z" fill="#76A4AE"/>
<path d="M189.536 248.271V254.31H187.914L187.825 254.222V253.585L187.914 253.489H188.785V248.271H189.536Z" fill="#76A4AE"/>
<path d="M196.637 253.577V254.23L196.556 254.31H196.403C196.075 254.31 195.763 254.173 195.467 253.899L194.942 254.399L193.11 253.738L192.957 254.109L193.675 256.154L193.029 256.444H192.973L192.214 254.133C192.322 253.87 192.408 253.658 192.473 253.497C192.542 253.33 192.642 253.108 192.771 252.829C192.906 252.544 193.032 252.313 193.15 252.136C193.274 251.954 193.414 251.771 193.57 251.589C193.726 251.401 193.89 251.261 194.062 251.17C194.24 251.073 194.42 251.025 194.603 251.025C194.931 251.025 195.206 251.183 195.426 251.5C195.652 251.817 195.765 252.217 195.765 252.7C195.765 252.92 195.738 253.127 195.685 253.32C195.867 253.432 196.118 253.489 196.435 253.489H196.556L196.637 253.577ZM194.45 251.838C194.283 251.838 194.119 251.938 193.957 252.136C193.796 252.335 193.61 252.654 193.401 253.094L194.934 253.634C195.031 253.392 195.079 253.124 195.079 252.829C195.079 252.539 195.017 252.303 194.894 252.12C194.775 251.932 194.627 251.838 194.45 251.838Z" fill="#76A4AE"/>
<path d="M199.336 253.577V254.23L199.255 254.31H199.15C198.79 254.31 198.456 254.157 198.149 253.851L197.875 254.31H196.559L196.446 254.197V253.577L196.559 253.489H197.681V248.271H198.416V253.288C198.593 253.422 198.849 253.489 199.182 253.489H199.255L199.336 253.577Z" fill="#76A4AE"/>
<path d="M199.255 254.31L199.142 254.197V253.577L199.255 253.489H200.546V251.081H201.272V254.31H199.255ZM199.763 254.986L200.296 255.631L199.626 256.186L199.093 255.542L199.763 254.986ZM201.498 255.631L200.837 256.186L200.296 255.542L200.966 254.986L201.498 255.631Z" fill="#76A4AE"/>
<path d="M206.374 253.577V254.181L206.293 254.31H205.632C205.476 255.47 204.841 256.049 203.727 256.049C203.377 256.049 203.028 255.969 202.678 255.808L202.597 255.115L202.654 255.067C203.025 255.196 203.418 255.26 203.832 255.26C204.165 255.26 204.421 255.19 204.599 255.051C204.781 254.911 204.9 254.662 204.954 254.302C203.77 254.205 202.912 253.797 202.379 253.078C202.519 252.445 202.748 251.924 203.065 251.516C203.383 251.108 203.722 250.904 204.082 250.904C204.335 250.904 204.561 250.982 204.76 251.138C204.964 251.288 205.129 251.492 205.252 251.75C205.381 252.002 205.481 252.278 205.551 252.579C205.621 252.874 205.661 253.18 205.672 253.497L206.293 253.489L206.374 253.577ZM203.977 251.742C203.821 251.742 203.66 251.841 203.493 252.04C203.326 252.238 203.194 252.496 203.097 252.812C203.496 253.199 204.122 253.424 204.978 253.489C204.946 253 204.846 252.587 204.679 252.249C204.512 251.911 204.278 251.742 203.977 251.742Z" fill="#76A4AE"/>
<path d="M212.918 253.577V254.23L212.838 254.31H212.684C212.362 254.31 212.05 254.165 211.748 253.875L211.474 254.31C210.764 254.31 210.145 254.154 209.618 253.843L209.303 254.31C208.727 254.31 208.224 254.163 207.794 253.867L207.729 254.31H206.293L206.212 254.246V253.553L206.293 253.489H207.148L207.439 251.452H208.165L207.891 253.263C208.224 253.408 208.617 253.483 209.069 253.489L209.327 251.452H210.053L209.819 253.288C210.196 253.411 210.667 253.478 211.232 253.489C211.135 252.737 211.022 252.007 210.893 251.299L211.619 251.138C211.764 251.954 211.877 252.673 211.958 253.296C212.141 253.424 212.394 253.489 212.717 253.489H212.838L212.918 253.577Z" fill="#76A4AE"/>
<path d="M214.456 248.271V254.31H212.834L212.745 254.222V253.585L212.834 253.489H213.706V248.271H214.456Z" fill="#76A4AE"/>
<path d="M216.572 254.31H215.845V248.271H216.572V254.31Z" fill="#76A4AE"/>
<path d="M223.322 253.577V254.23L223.242 254.31H223.016C222.65 254.31 222.332 254.168 222.063 253.883C221.81 254.039 221.55 254.149 221.281 254.214C221.017 254.278 220.691 254.31 220.304 254.31H219.449L219.255 253.561L219.319 253.489H220.457C220.952 253.489 221.361 253.441 221.684 253.344L221.555 253.118C221.178 252.394 220.826 251.661 220.498 250.92L221.063 250.518H221.135C221.437 251.226 221.759 251.924 222.104 252.611C222.297 252.982 222.461 253.22 222.596 253.328C222.736 253.435 222.927 253.489 223.169 253.489H223.242L223.322 253.577Z" fill="#76A4AE"/>
<path d="M229.322 253.577V254.23L229.241 254.31H229.112C228.816 254.31 228.502 254.165 228.168 253.875C228.082 254.101 227.98 254.324 227.861 254.544C227.065 254.442 226.35 254.254 225.715 253.98C225.241 254.2 224.633 254.31 223.891 254.31H223.245L223.164 254.205V253.602L223.245 253.489H224.851C224.48 253.237 224.162 252.896 223.899 252.466C224.028 252.176 224.189 251.924 224.383 251.709L223.859 251.838L223.802 251.79V251.114C224.555 250.936 225.193 250.848 225.715 250.848C226.516 250.848 227.157 251.028 227.635 251.387C228.12 251.747 228.362 252.249 228.362 252.893C228.362 253.022 228.348 253.167 228.321 253.328C228.537 253.435 228.803 253.489 229.12 253.489H229.241L229.322 253.577ZM225.771 253.296C225.933 253.178 226.056 253.035 226.142 252.869C226.229 252.702 226.272 252.544 226.272 252.394C226.272 252.152 226.194 251.954 226.038 251.798C225.887 251.642 225.696 251.567 225.465 251.573C225.109 251.589 224.822 251.836 224.601 252.313C224.848 252.743 225.239 253.07 225.771 253.296ZM227.676 253.03C227.676 252.692 227.587 252.407 227.409 252.176C227.232 251.946 226.987 251.776 226.675 251.669C226.853 251.884 226.941 252.107 226.941 252.337C226.941 252.783 226.758 253.18 226.393 253.529C226.775 253.653 227.149 253.738 227.514 253.787C227.622 253.524 227.676 253.271 227.676 253.03Z" fill="#76A4AE"/>
<path d="M231.123 249.511L230.59 248.883L231.268 248.328L231.793 248.956L231.123 249.511ZM231.381 250.155C231.693 250.155 231.968 250.282 232.205 250.534C232.441 250.781 232.616 251.089 232.729 251.46C232.848 251.83 232.907 252.219 232.907 252.627C232.907 253.234 232.848 253.795 232.729 254.31H229.243L229.162 254.197V253.61L229.243 253.489H232.213C232.223 253.339 232.229 253.215 232.229 253.118C231.217 253.129 230.413 252.874 229.816 252.354C229.88 251.763 230.058 251.25 230.348 250.816C230.644 250.375 230.989 250.155 231.381 250.155ZM230.486 252.015C230.868 252.305 231.443 252.439 232.213 252.418C232.17 252.021 232.067 251.685 231.906 251.411C231.745 251.132 231.546 250.993 231.309 250.993C231.137 250.993 230.97 251.092 230.808 251.291C230.652 251.484 230.545 251.725 230.486 252.015Z" fill="#76A4AE"/>
<path d="M236.331 250.276L235.798 249.656L236.468 249.101L236.944 249.664L237.614 249.109L238.139 249.729L237.469 250.284L236.993 249.721L236.331 250.276ZM239.486 253.594V254.205L239.406 254.31H237.921V253.738C237.474 254.012 237.073 254.149 236.718 254.149C236.331 254.149 236.027 254.042 235.806 253.827C235.586 253.612 235.476 253.328 235.476 252.974C235.476 252.625 235.567 252.262 235.75 251.887L237.921 251.283V250.647H238.639V253.489H239.406L239.486 253.594ZM236.839 253.352C237.195 253.352 237.555 253.261 237.921 253.078V251.951L236.21 252.418C236.178 252.536 236.161 252.662 236.161 252.796C236.161 253.167 236.387 253.352 236.839 253.352Z" fill="#76A4AE"/>
<path d="M241.895 251.218C242.53 251.218 243.052 251.403 243.461 251.774C243.875 252.144 244.104 252.727 244.147 253.521L243.711 254.31H239.41L239.321 254.165V253.618L239.41 253.489H243.461C243.385 252.904 243.195 252.507 242.888 252.297C242.581 252.088 242.153 251.983 241.605 251.983C241.153 251.983 240.642 252.023 240.071 252.104L239.773 251.428L242.694 248.279H242.767L243.146 248.883L240.677 251.347C241.107 251.261 241.513 251.218 241.895 251.218Z" fill="#76A4AE"/>
<path d="M247.709 253.577V254.23L247.628 254.31H247.499C247.246 254.31 246.972 254.197 246.676 253.972V254.133C246.676 255.411 246.186 256.049 245.207 256.049C244.997 256.049 244.795 256.004 244.602 255.912L244.472 255.212L244.529 255.164C244.739 255.228 244.975 255.26 245.239 255.26C245.481 255.26 245.661 255.182 245.78 255.027C245.898 254.876 245.957 254.624 245.957 254.27V251.347H246.676V253.312C246.885 253.43 247.163 253.489 247.507 253.489H247.628L247.709 253.577Z" fill="#76A4AE"/>
<path d="M250.817 249.519L250.309 248.907L250.955 248.368L251.463 248.98L250.817 249.519ZM250.196 250.59L249.671 249.97L250.333 249.415L250.85 250.035L250.196 250.59ZM250.834 249.978L251.495 249.431L252.012 250.051L251.358 250.598L250.834 249.978ZM253.327 253.505L252.811 254.31C252.101 254.31 251.482 254.154 250.955 253.843L250.64 254.31C250.053 254.31 249.545 254.157 249.115 253.851L249.042 254.31H247.63L247.549 254.246V253.553L247.63 253.489H248.469L248.776 251.452H249.502L249.211 253.255C249.545 253.406 249.943 253.483 250.406 253.489L250.664 251.452H251.39L251.156 253.288C251.533 253.411 252.006 253.478 252.577 253.489C252.48 252.748 252.351 251.986 252.189 251.202L252.916 251.025C253.093 251.873 253.23 252.7 253.327 253.505Z" fill="#76A4AE"/>
<path d="M89.6893 260.941V262.476H91.9783V263.131H89.6893V265.328H88.9528V260.285H92.1227V260.941H89.6893Z" fill="#76A4AE"/>
<path d="M95.6482 262.973V264.406C95.6482 264.714 95.7084 264.999 95.8287 265.264L95.7999 265.328H95.1067C95.073 265.256 95.0441 265.177 95.02 265.091C94.7023 265.321 94.3461 265.437 93.9513 265.437C93.5614 265.437 93.2581 265.345 93.0415 265.163C92.8297 264.975 92.7238 264.714 92.7238 264.378C92.7238 264.099 92.7936 263.828 92.9332 263.563C93.4531 263.429 94.127 263.352 94.955 263.333V263.081C94.955 262.807 94.8924 262.612 94.7673 262.497C94.6421 262.377 94.452 262.317 94.1968 262.317C93.8599 262.317 93.4579 262.387 92.991 262.526L92.9404 262.497V261.885C93.4314 261.746 93.8887 261.676 94.3124 261.676C94.7793 261.676 95.1187 261.774 95.3305 261.971C95.5423 262.163 95.6482 262.497 95.6482 262.973ZM94.0957 264.882C94.3701 264.882 94.6566 264.798 94.955 264.63V263.787C94.3533 263.811 93.8623 263.856 93.482 263.924C93.429 264.039 93.4025 264.161 93.4025 264.291C93.4025 264.685 93.6336 264.882 94.0957 264.882Z" fill="#76A4AE"/>
<path d="M98.556 261.669C99.3696 261.669 99.7763 262.051 99.7763 262.814V265.328H99.0543V262.958C99.0543 262.545 98.8256 262.339 98.3683 262.339C98.0409 262.339 97.7232 262.454 97.4151 262.684V265.328H96.693V259.925H97.4151V262.022C97.8002 261.786 98.1805 261.669 98.556 261.669Z" fill="#76A4AE"/>
<path d="M103.785 259.925V264.392C103.785 264.694 103.843 264.985 103.958 265.264L103.929 265.328H103.214C103.176 265.232 103.149 265.16 103.135 265.112C102.827 265.328 102.487 265.437 102.117 265.437C101.635 265.437 101.267 265.29 101.012 264.997C100.757 264.699 100.629 264.265 100.629 263.693C100.629 263.357 100.668 263.03 100.745 262.713C100.827 262.396 100.93 262.139 101.055 261.942C101.407 261.76 101.787 261.669 102.196 261.669C102.528 261.669 102.817 261.714 103.063 261.806V259.925H103.785ZM101.351 263.621C101.351 264.409 101.657 264.803 102.268 264.803C102.538 264.803 102.803 264.721 103.063 264.558V262.454C102.827 262.353 102.548 262.303 102.225 262.303C101.989 262.303 101.765 262.343 101.554 262.425C101.419 262.795 101.351 263.194 101.351 263.621Z" fill="#76A4AE"/>
<path d="M109.33 263.852H107.438L106.933 265.328H106.225L107.98 260.285H108.868L110.608 265.328H109.828L109.33 263.852ZM109.121 263.225L108.391 261.078L107.655 263.225H109.121Z" fill="#76A4AE"/>
<path d="M112.026 259.925V265.328H111.304V259.925H112.026Z" fill="#76A4AE"/>
<path d="M112.922 263.297H114.792V263.866H112.922V263.297Z" fill="#76A4AE"/>
<path d="M117.278 262.418L117.379 262.454C117.995 262.665 118.421 262.886 118.657 263.117C118.893 263.342 119.011 263.65 119.011 264.039C119.011 264.356 118.924 264.682 118.751 265.019C118.597 265.148 118.383 265.252 118.108 265.328C117.834 265.401 117.54 265.437 117.227 265.437C116.582 265.437 116.038 265.35 115.596 265.177V264.522L115.646 264.493C116.166 264.68 116.708 264.774 117.271 264.774C117.641 264.774 117.957 264.711 118.217 264.586C118.27 264.404 118.296 264.248 118.296 264.118C118.296 263.916 118.212 263.751 118.043 263.621C117.875 263.487 117.562 263.34 117.105 263.182L117.025 263.153C116.462 262.956 116.074 262.742 115.863 262.512C115.656 262.276 115.552 261.952 115.552 261.539C115.552 261.222 115.639 260.917 115.812 260.624C116.217 260.317 116.751 260.163 117.415 260.163C117.95 260.163 118.404 260.249 118.78 260.422V261.071L118.729 261.1C118.253 260.917 117.791 260.826 117.343 260.826C116.987 260.826 116.657 260.905 116.354 261.064C116.296 261.227 116.267 261.366 116.267 261.481C116.267 261.702 116.337 261.88 116.476 262.014C116.621 262.149 116.888 262.283 117.278 262.418Z" fill="#76A4AE"/>
<path d="M122.955 261.77V265.328H122.334L122.277 265.048C121.877 265.307 121.482 265.437 121.092 265.437C120.279 265.437 119.872 265.052 119.872 264.284V261.77H120.594V264.14C120.594 264.562 120.823 264.774 121.28 264.774C121.612 264.774 121.93 264.656 122.233 264.421V261.77H122.955Z" fill="#76A4AE"/>
<path d="M129.064 261.77L127.996 265.328H127.021L126.27 262.576L125.504 265.328H124.566L123.547 261.77H124.32L125.086 264.63L125.887 261.77H126.79L127.548 264.63L128.349 261.77H129.064Z" fill="#76A4AE"/>
<path d="M132.225 262.973V264.406C132.225 264.714 132.285 264.999 132.405 265.264L132.377 265.328H131.683C131.65 265.256 131.621 265.177 131.597 265.091C131.279 265.321 130.923 265.437 130.528 265.437C130.138 265.437 129.835 265.345 129.618 265.163C129.406 264.975 129.3 264.714 129.3 264.378C129.3 264.099 129.37 263.828 129.51 263.563C130.03 263.429 130.704 263.352 131.532 263.333V263.081C131.532 262.807 131.469 262.612 131.344 262.497C131.219 262.377 131.029 262.317 130.773 262.317C130.437 262.317 130.035 262.387 129.568 262.526L129.517 262.497V261.885C130.008 261.746 130.465 261.676 130.889 261.676C131.356 261.676 131.695 261.774 131.907 261.971C132.119 262.163 132.225 262.497 132.225 262.973ZM130.672 264.882C130.947 264.882 131.233 264.798 131.532 264.63V263.787C130.93 263.811 130.439 263.856 130.059 263.924C130.006 264.039 129.979 264.161 129.979 264.291C129.979 264.685 130.21 264.882 130.672 264.882Z" fill="#76A4AE"/>
<path d="M133.674 261.215L133.118 260.667L133.674 260.113L134.223 260.667L133.674 261.215ZM134.035 261.77V265.328H133.313V261.77H134.035Z" fill="#76A4AE"/>
<path d="M135.868 259.925V265.328H135.145V259.925H135.868Z" fill="#76A4AE"/>
<path d="M139.745 263.138C139.745 263.33 139.726 263.523 139.688 263.715H137.399C137.418 264.089 137.507 264.363 137.666 264.536C137.825 264.709 138.077 264.795 138.424 264.795C138.814 264.795 139.204 264.723 139.594 264.579L139.644 264.608V265.199C139.25 265.357 138.819 265.437 138.352 265.437C137.784 265.437 137.365 265.29 137.095 264.997C136.831 264.699 136.698 264.25 136.698 263.65C136.698 262.997 136.843 262.428 137.132 261.942C137.531 261.76 137.933 261.669 138.337 261.669C139.276 261.669 139.745 262.159 139.745 263.138ZM139.059 263.218V263.131C139.059 262.829 138.999 262.612 138.879 262.483C138.759 262.353 138.578 262.288 138.337 262.288C138.063 262.288 137.825 262.331 137.623 262.418C137.517 262.653 137.449 262.92 137.42 263.218H139.059Z" fill="#76A4AE"/>
<path d="M144.833 261.669C145.613 261.669 146.003 262.06 146.003 262.843V265.328H145.281V263.016C145.281 262.584 145.067 262.368 144.638 262.368C144.316 262.368 144.005 262.483 143.707 262.713L143.714 262.843V265.328H142.992V263.016C142.992 262.584 142.778 262.368 142.349 262.368C142.012 262.368 141.704 262.48 141.425 262.706V265.328H140.703V261.77H141.324L141.396 262.079C141.777 261.806 142.159 261.669 142.544 261.669C143.05 261.669 143.392 261.834 143.57 262.166C143.993 261.834 144.415 261.669 144.833 261.669Z" fill="#76A4AE"/>
<path d="M151.797 264.673V265.328H148.764V260.285H149.501V264.673H151.797Z" fill="#76A4AE"/>
<path d="M155.164 262.973V264.406C155.164 264.714 155.224 264.999 155.344 265.264L155.315 265.328H154.622C154.588 265.256 154.56 265.177 154.536 265.091C154.218 265.321 153.862 265.437 153.467 265.437C153.077 265.437 152.774 265.345 152.557 265.163C152.345 264.975 152.239 264.714 152.239 264.378C152.239 264.099 152.309 263.828 152.449 263.563C152.969 263.429 153.643 263.352 154.471 263.333V263.081C154.471 262.807 154.408 262.612 154.283 262.497C154.158 262.377 153.967 262.317 153.712 262.317C153.375 262.317 152.973 262.387 152.506 262.526L152.456 262.497V261.885C152.947 261.746 153.404 261.676 153.828 261.676C154.295 261.676 154.634 261.774 154.846 261.971C155.058 262.163 155.164 262.497 155.164 262.973ZM153.611 264.882C153.886 264.882 154.172 264.798 154.471 264.63V263.787C153.869 263.811 153.378 263.856 152.997 263.924C152.945 264.039 152.918 264.161 152.918 264.291C152.918 264.685 153.149 264.882 153.611 264.882Z" fill="#76A4AE"/>
<path d="M161.205 261.77L160.137 265.328H159.162L158.411 262.576L157.646 265.328H156.707L155.689 261.77H156.461L157.227 264.63L158.028 261.77H158.931L159.689 264.63L160.491 261.77H161.205Z" fill="#76A4AE"/>
<path d="M164.119 260.941V262.476H166.408V263.131H164.119V265.328H163.382V260.285H166.552V260.941H164.119Z" fill="#76A4AE"/>
<path d="M167.825 261.215L167.269 260.667L167.825 260.113L168.374 260.667L167.825 261.215ZM168.186 261.77V265.328H167.464V261.77H168.186Z" fill="#76A4AE"/>
<path d="M171.232 261.669V262.353C170.798 262.353 170.408 262.459 170.062 262.67V265.328H169.34V261.77H169.961L170.026 262.051C170.435 261.796 170.837 261.669 171.232 261.669Z" fill="#76A4AE"/>
<path d="M176.023 261.669C176.803 261.669 177.192 262.06 177.192 262.843V265.328H176.47V263.016C176.47 262.584 176.256 262.368 175.828 262.368C175.505 262.368 175.195 262.483 174.896 262.713L174.903 262.843V265.328H174.181V263.016C174.181 262.584 173.967 262.368 173.539 262.368C173.202 262.368 172.894 262.48 172.614 262.706V265.328H171.892V261.77H172.513L172.586 262.079C172.966 261.806 173.349 261.669 173.734 261.669C174.239 261.669 174.581 261.834 174.759 262.166C175.183 261.834 175.604 261.669 176.023 261.669Z" fill="#76A4AE"/>
<path d="M182.51 262.973V264.406C182.51 264.714 182.57 264.999 182.69 265.264L182.661 265.328H181.968C181.935 265.256 181.906 265.177 181.882 265.091C181.564 265.321 181.208 265.437 180.813 265.437C180.423 265.437 180.12 265.345 179.903 265.163C179.691 264.975 179.585 264.714 179.585 264.378C179.585 264.099 179.655 263.828 179.795 263.563C180.315 263.429 180.989 263.352 181.817 263.333V263.081C181.817 262.807 181.754 262.612 181.629 262.497C181.504 262.377 181.314 262.317 181.058 262.317C180.721 262.317 180.32 262.387 179.853 262.526L179.802 262.497V261.885C180.293 261.746 180.75 261.676 181.174 261.676C181.641 261.676 181.98 261.774 182.192 261.971C182.404 262.163 182.51 262.497 182.51 262.973ZM180.957 264.882C181.232 264.882 181.518 264.798 181.817 264.63V263.787C181.215 263.811 180.724 263.856 180.344 263.924C180.291 264.039 180.264 264.161 180.264 264.291C180.264 264.685 180.495 264.882 180.957 264.882Z" fill="#76A4AE"/>
<path d="M185.461 261.669C186.275 261.669 186.681 262.051 186.681 262.814V265.328H185.959V262.958C185.959 262.54 185.731 262.331 185.273 262.331C184.941 262.331 184.623 262.449 184.32 262.684V265.328H183.598V261.77H184.219L184.284 262.043C184.684 261.794 185.076 261.669 185.461 261.669Z" fill="#76A4AE"/>
<path d="M190.689 259.925V264.392C190.689 264.694 190.747 264.985 190.862 265.264L190.833 265.328H190.118C190.08 265.232 190.053 265.16 190.039 265.112C189.731 265.328 189.391 265.437 189.021 265.437C188.539 265.437 188.171 265.29 187.916 264.997C187.661 264.699 187.533 264.265 187.533 263.693C187.533 263.357 187.572 263.03 187.649 262.713C187.731 262.396 187.834 262.139 187.959 261.942C188.311 261.76 188.691 261.669 189.1 261.669C189.432 261.669 189.721 261.714 189.967 261.806V259.925H190.689ZM188.255 263.621C188.255 264.409 188.561 264.803 189.172 264.803C189.442 264.803 189.707 264.721 189.967 264.558V262.454C189.731 262.353 189.452 262.303 189.129 262.303C188.893 262.303 188.669 262.343 188.458 262.425C188.323 262.795 188.255 263.194 188.255 263.621Z" fill="#76A4AE"/>
<path d="M196.638 264.673V265.328H193.606V260.285H194.342V264.673H196.638Z" fill="#76A4AE"/>
<path d="M200.157 263.138C200.157 263.33 200.137 263.523 200.099 263.715H197.81C197.829 264.089 197.918 264.363 198.077 264.536C198.236 264.709 198.489 264.795 198.835 264.795C199.225 264.795 199.615 264.723 200.005 264.579L200.055 264.608V265.199C199.661 265.357 199.23 265.437 198.763 265.437C198.195 265.437 197.776 265.29 197.506 264.997C197.242 264.699 197.109 264.25 197.109 263.65C197.109 262.997 197.254 262.428 197.543 261.942C197.942 261.76 198.344 261.669 198.748 261.669C199.687 261.669 200.157 262.159 200.157 263.138ZM199.471 263.218V263.131C199.471 262.829 199.41 262.612 199.29 262.483C199.17 262.353 198.989 262.288 198.748 262.288C198.474 262.288 198.236 262.331 198.034 262.418C197.928 262.653 197.86 262.92 197.831 263.218H199.471Z" fill="#76A4AE"/>
<path d="M203.988 261.82V265.631C203.988 266.169 203.861 266.568 203.605 266.827C203.35 267.091 202.96 267.223 202.436 267.223C201.93 267.223 201.454 267.146 201.006 266.993V266.38L201.056 266.359C201.499 266.517 201.935 266.596 202.363 266.596C202.676 266.596 202.907 266.515 203.057 266.351C203.211 266.193 203.288 265.936 203.288 265.581V265.163C203.008 265.345 202.7 265.437 202.363 265.437C201.863 265.437 201.482 265.29 201.222 264.997C200.963 264.699 200.833 264.265 200.833 263.693C200.833 262.992 200.975 262.408 201.259 261.942C201.61 261.76 201.993 261.669 202.407 261.669C202.777 261.669 203.105 261.729 203.389 261.849L203.909 261.748L203.988 261.82ZM202.479 264.824C202.753 264.824 203.023 264.74 203.288 264.572V262.44C203.047 262.339 202.763 262.288 202.436 262.288C202.176 262.288 201.947 262.327 201.75 262.404C201.605 262.764 201.533 263.17 201.533 263.621C201.533 264.423 201.848 264.824 202.479 264.824Z" fill="#76A4AE"/>
<path d="M207.614 262.973V264.406C207.614 264.714 207.674 264.999 207.794 265.264L207.765 265.328H207.072C207.038 265.256 207.009 265.177 206.985 265.091C206.668 265.321 206.311 265.437 205.917 265.437C205.527 265.437 205.223 265.345 205.007 265.163C204.795 264.975 204.689 264.714 204.689 264.378C204.689 264.099 204.759 263.828 204.899 263.563C205.418 263.429 206.092 263.352 206.92 263.333V263.081C206.92 262.807 206.858 262.612 206.733 262.497C206.607 262.377 206.417 262.317 206.162 262.317C205.825 262.317 205.423 262.387 204.956 262.526L204.906 262.497V261.885C205.397 261.746 205.854 261.676 206.278 261.676C206.745 261.676 207.084 261.774 207.296 261.971C207.508 262.163 207.614 262.497 207.614 262.973ZM206.061 264.882C206.335 264.882 206.622 264.798 206.92 264.63V263.787C206.319 263.811 205.828 263.856 205.447 263.924C205.394 264.039 205.368 264.161 205.368 264.291C205.368 264.685 205.599 264.882 206.061 264.882Z" fill="#76A4AE"/>
<path d="M209.38 259.925V265.328H208.658V259.925H209.38Z" fill="#76A4AE"/>
<path d="M213.928 260.833C213.558 260.833 213.213 260.9 212.896 261.035C212.65 261.539 212.527 262.166 212.527 262.915C212.527 263.554 212.638 264.024 212.86 264.327C213.081 264.63 213.428 264.781 213.899 264.781C214.366 264.781 214.836 264.678 215.307 264.471L215.358 264.493V265.12C214.896 265.331 214.386 265.437 213.827 265.437C213.139 265.437 212.626 265.232 212.289 264.824C211.957 264.416 211.791 263.796 211.791 262.965C211.791 262.524 211.849 262.084 211.964 261.647C212.08 261.21 212.229 260.847 212.412 260.559C212.922 260.3 213.452 260.17 214.001 260.17C214.511 260.17 214.963 260.257 215.358 260.43V261.078L215.307 261.107C214.845 260.924 214.386 260.833 213.928 260.833Z" fill="#76A4AE"/>
<path d="M217.668 261.669C218.727 261.669 219.256 262.264 219.256 263.455C219.256 264.147 219.112 264.714 218.823 265.156C218.433 265.343 218.034 265.437 217.624 265.437C216.565 265.437 216.036 264.841 216.036 263.65C216.036 262.987 216.18 262.418 216.469 261.942C216.869 261.76 217.268 261.669 217.668 261.669ZM218.332 264.673C218.467 264.327 218.534 263.945 218.534 263.527C218.534 262.711 218.245 262.303 217.668 262.303C217.417 262.303 217.182 262.346 216.96 262.432C216.825 262.778 216.758 263.16 216.758 263.578C216.758 264.394 217.047 264.803 217.624 264.803C217.875 264.803 218.111 264.759 218.332 264.673Z" fill="#76A4AE"/>
<path d="M221.995 261.669C222.809 261.669 223.216 262.051 223.216 262.814V265.328H222.494V262.958C222.494 262.54 222.265 262.331 221.808 262.331C221.475 262.331 221.158 262.449 220.854 262.684V265.328H220.132V261.77H220.753L220.818 262.043C221.218 261.794 221.61 261.669 221.995 261.669Z" fill="#76A4AE"/>
<path d="M225.62 263.239C226.068 263.345 226.39 263.484 226.588 263.657C226.785 263.83 226.884 264.051 226.884 264.32C226.884 264.603 226.812 264.863 226.667 265.098C226.393 265.324 225.991 265.437 225.461 265.437C225.052 265.437 224.628 265.362 224.19 265.213L224.198 264.601L224.248 264.579C224.667 264.733 225.071 264.812 225.461 264.817C225.774 264.817 226.02 264.781 226.198 264.709C226.222 264.637 226.234 264.55 226.234 264.45C226.234 264.31 226.166 264.197 226.032 264.111C225.902 264.02 225.673 263.933 225.346 263.852C224.912 263.741 224.604 263.607 224.421 263.448C224.243 263.285 224.154 263.064 224.154 262.785C224.154 262.526 224.229 262.267 224.378 262.007C224.508 261.906 224.684 261.827 224.905 261.77C225.127 261.707 225.35 261.676 225.577 261.676C225.952 261.676 226.311 261.746 226.653 261.885V262.497L226.602 262.526C226.236 262.377 225.892 262.303 225.57 262.303C225.295 262.303 225.052 262.346 224.84 262.432C224.816 262.528 224.804 262.615 224.804 262.692C224.804 262.821 224.862 262.927 224.977 263.009C225.093 263.086 225.307 263.162 225.62 263.239Z" fill="#76A4AE"/>
<path d="M230.831 261.77V265.328H230.21L230.152 265.048C229.753 265.307 229.358 265.437 228.968 265.437C228.154 265.437 227.748 265.052 227.748 264.284V261.77H228.47V264.14C228.47 264.562 228.698 264.774 229.156 264.774C229.488 264.774 229.806 264.656 230.109 264.421V261.77H230.831Z" fill="#76A4AE"/>
<path d="M232.665 259.925V265.328H231.943V259.925H232.665Z" fill="#76A4AE"/>
<path d="M235.741 264.522L235.936 265.098C235.623 265.314 235.284 265.422 234.918 265.422C234.263 265.422 233.936 265.06 233.936 264.334V262.404H233.387V261.77H233.936V260.862H234.658V261.77H235.821V262.404H234.658V264.241C234.658 264.577 234.788 264.745 235.048 264.745C235.25 264.745 235.481 264.67 235.741 264.522Z" fill="#76A4AE"/>
<path d="M239.226 262.973V264.406C239.226 264.714 239.286 264.999 239.406 265.264L239.378 265.328H238.684C238.651 265.256 238.622 265.177 238.598 265.091C238.28 265.321 237.924 265.437 237.529 265.437C237.139 265.437 236.836 265.345 236.619 265.163C236.407 264.975 236.301 264.714 236.301 264.378C236.301 264.099 236.371 263.828 236.511 263.563C237.031 263.429 237.705 263.352 238.533 263.333V263.081C238.533 262.807 238.47 262.612 238.345 262.497C238.22 262.377 238.03 262.317 237.775 262.317C237.438 262.317 237.036 262.387 236.569 262.526L236.518 262.497V261.885C237.009 261.746 237.466 261.676 237.89 261.676C238.357 261.676 238.696 261.774 238.908 261.971C239.12 262.163 239.226 262.497 239.226 262.973ZM237.673 264.882C237.948 264.882 238.234 264.798 238.533 264.63V263.787C237.931 263.811 237.44 263.856 237.06 263.924C237.007 264.039 236.98 264.161 236.98 264.291C236.98 264.685 237.211 264.882 237.673 264.882Z" fill="#76A4AE"/>
<path d="M242.278 264.522L242.473 265.098C242.16 265.314 241.821 265.422 241.455 265.422C240.8 265.422 240.473 265.06 240.473 264.334V262.404H239.924V261.77H240.473V260.862H241.195V261.77H242.358V262.404H241.195V264.241C241.195 264.577 241.325 264.745 241.585 264.745C241.787 264.745 242.018 264.67 242.278 264.522Z" fill="#76A4AE"/>
<path d="M243.51 261.215L242.954 260.667L243.51 260.113L244.059 260.667L243.51 261.215ZM243.871 261.77V265.328H243.149V261.77H243.871Z" fill="#76A4AE"/>
<path d="M246.375 261.669C247.434 261.669 247.963 262.264 247.963 263.455C247.963 264.147 247.819 264.714 247.53 265.156C247.14 265.343 246.741 265.437 246.331 265.437C245.272 265.437 244.743 264.841 244.743 263.65C244.743 262.987 244.887 262.418 245.176 261.942C245.576 261.76 245.975 261.669 246.375 261.669ZM247.039 264.673C247.174 264.327 247.241 263.945 247.241 263.527C247.241 262.711 246.952 262.303 246.375 262.303C246.124 262.303 245.889 262.346 245.667 262.432C245.532 262.778 245.465 263.16 245.465 263.578C245.465 264.394 245.754 264.803 246.331 264.803C246.582 264.803 246.818 264.759 247.039 264.673Z" fill="#76A4AE"/>
<path d="M250.702 261.669C251.516 261.669 251.923 262.051 251.923 262.814V265.328H251.201V262.958C251.201 262.54 250.972 262.331 250.515 262.331C250.183 262.331 249.865 262.449 249.562 262.684V265.328H248.839V261.77H249.46L249.525 262.043C249.925 261.794 250.317 261.669 250.702 261.669Z" fill="#76A4AE"/>
<path d="M254.327 263.239C254.775 263.345 255.097 263.484 255.295 263.657C255.492 263.83 255.591 264.051 255.591 264.32C255.591 264.603 255.519 264.863 255.374 265.098C255.1 265.324 254.698 265.437 254.168 265.437C253.759 265.437 253.335 265.362 252.897 265.213L252.905 264.601L252.955 264.579C253.374 264.733 253.778 264.812 254.168 264.817C254.481 264.817 254.727 264.781 254.905 264.709C254.929 264.637 254.941 264.55 254.941 264.45C254.941 264.31 254.874 264.197 254.739 264.111C254.609 264.02 254.38 263.933 254.053 263.852C253.62 263.741 253.311 263.607 253.128 263.448C252.95 263.285 252.861 263.064 252.861 262.785C252.861 262.526 252.936 262.267 253.085 262.007C253.215 261.906 253.391 261.827 253.612 261.77C253.834 261.707 254.058 261.676 254.284 261.676C254.659 261.676 255.018 261.746 255.36 261.885V262.497L255.309 262.526C254.943 262.377 254.599 262.303 254.277 262.303C254.002 262.303 253.759 262.346 253.547 262.432C253.523 262.528 253.511 262.615 253.511 262.692C253.511 262.821 253.569 262.927 253.684 263.009C253.8 263.086 254.014 263.162 254.327 263.239Z" fill="#76A4AE"/>
</svg>
