<svg width="25" height="24" viewBox="0 0 25 24" fill="none" xmlns="http://www.w3.org/2000/svg">
<path opacity="0.4" fill-rule="evenodd" clip-rule="evenodd" d="M19.79 9.5869C19.79 5.42803 16.3488 2 12.29 2C8.23124 2 4.79004 5.42803 4.79004 9.5869C4.79004 13.8266 8.29329 16.7573 11.5175 18.7932C11.753 18.9287 12.0192 19 12.29 19C12.5609 19 12.8271 18.9287 13.0625 18.7932C16.2928 16.777 19.79 13.812 19.79 9.5869ZM12.29 12.5C13.9469 12.5 15.29 11.1569 15.29 9.5C15.29 7.84315 13.9469 6.5 12.29 6.5C10.6332 6.5 9.29004 7.84315 9.29004 9.5C9.29004 11.1569 10.6332 12.5 12.29 12.5Z" fill="#76A4AE"/>
<path fill-rule="evenodd" clip-rule="evenodd" d="M12.29 5.75C10.219 5.75 8.54004 7.42893 8.54004 9.5C8.54004 11.5711 10.219 13.25 12.29 13.25C14.3611 13.25 16.04 11.5711 16.04 9.5C16.04 7.42893 14.3611 5.75 12.29 5.75ZM10.04 9.5C10.04 8.25736 11.0474 7.25 12.29 7.25C13.5327 7.25 14.54 8.25736 14.54 9.5C14.54 10.7426 13.5327 11.75 12.29 11.75C11.0474 11.75 10.04 10.7426 10.04 9.5Z" fill="#76A4AE"/>
<path fill-rule="evenodd" clip-rule="evenodd" d="M4.04004 9.5869C4.04004 5.01857 7.81229 1.25 12.29 1.25C16.7678 1.25 20.54 5.01857 20.54 9.5869C20.54 14.2513 16.6918 17.4121 13.4597 19.4294L13.4483 19.4365L13.4368 19.4431C13.0879 19.644 12.6927 19.75 12.29 19.75C11.8874 19.75 11.4922 19.644 11.1433 19.4431L11.1301 19.4355L11.1171 19.4273C7.89756 17.3945 4.04004 14.2671 4.04004 9.5869ZM12.29 2.75C8.6502 2.75 5.54004 5.83749 5.54004 9.5869C5.54004 13.3802 8.67928 16.1117 11.903 18.1496C12.0221 18.2156 12.1552 18.25 12.29 18.25C12.4255 18.25 12.5591 18.2153 12.6785 18.1488C15.9023 16.1344 19.04 13.3676 19.04 9.5869C19.04 5.83749 15.9299 2.75 12.29 2.75Z" fill="#76A4AE"/>
<path d="M18.7843 17.3764C19.1288 17.1463 19.5945 17.239 19.8246 17.5834C20.2837 18.2707 20.6541 18.886 20.8579 19.4447C21.0692 20.0241 21.1313 20.627 20.8563 21.2168C20.7998 21.338 20.7339 21.4546 20.6591 21.5657C20.1832 22.2724 19.3829 22.5237 18.518 22.637C17.655 22.7501 16.5016 22.75 15.0662 22.75H9.51407C8.07866 22.75 6.92518 22.7501 6.06216 22.637C5.1973 22.5237 4.39699 22.2724 3.92109 21.5657C3.84634 21.4546 3.78036 21.338 3.72386 21.2168C3.44893 20.627 3.51098 20.0241 3.72232 19.4447C3.92606 18.886 4.2965 18.2707 4.7556 17.5834C4.98569 17.239 5.45143 17.1463 5.79586 17.3764C6.14029 17.6065 6.23298 18.0722 6.00289 18.4166C5.54811 19.0974 5.26832 19.5835 5.13152 19.9586C5.0023 20.3129 5.03349 20.476 5.08342 20.5831C5.10662 20.6329 5.13396 20.6813 5.16532 20.7279C5.26396 20.8744 5.49334 21.0497 6.25698 21.1497C7.0108 21.2485 8.06512 21.25 9.57232 21.25H15.0079C16.5151 21.25 17.5694 21.2485 18.3232 21.1497C19.0868 21.0497 19.3162 20.8744 19.4149 20.7279C19.4462 20.6813 19.4736 20.6329 19.4968 20.5831C19.5467 20.476 19.5779 20.3129 19.4487 19.9586C19.3119 19.5835 19.0321 19.0974 18.5773 18.4166C18.3472 18.0722 18.4399 17.6065 18.7843 17.3764Z" fill="#76A4AE"/>
</svg>
