<svg width="45" height="45" viewBox="0 0 45 45" fill="none" xmlns="http://www.w3.org/2000/svg">
<path fill-rule="evenodd" clip-rule="evenodd" d="M30.8315 4.35376C36.9365 4.35376 41.54 9.33493 41.54 15.9404V28.5318C41.54 31.9124 40.3446 34.9668 38.1721 37.1338C36.2233 39.0753 33.6951 40.1038 30.8608 40.1038H12.797C9.96812 40.1038 7.44179 39.0771 5.49112 37.1338C3.31862 34.9668 2.12329 31.9124 2.12329 28.5318V15.9404C2.12329 9.33493 6.72679 4.35376 12.8318 4.35376H30.8315ZM30.8315 7.10376H12.8318C8.22096 7.10376 4.87329 10.8199 4.87329 15.9404V28.5318C4.87329 31.1773 5.78262 33.5404 7.43262 35.1849C8.85529 36.6058 10.7125 37.3538 12.8025 37.3538H30.8315C30.8351 37.3501 30.8498 37.3538 30.8608 37.3538C32.9526 37.3538 34.808 36.6058 36.2306 35.1849C37.8825 33.5404 38.79 31.1773 38.79 28.5318V15.9404C38.79 10.8199 35.4423 7.10376 30.8315 7.10376ZM33.7208 15.5899C34.1993 16.1784 34.1095 17.0437 33.521 17.5241L25.3736 24.1461C24.3433 24.9637 23.1113 25.3726 21.8811 25.3726C20.6546 25.3726 19.4318 24.9674 18.4088 24.1571L10.1863 17.5277C9.59412 17.0511 9.50246 16.1839 9.97729 15.5936C10.4558 15.0051 11.3211 14.9116 11.9115 15.3864L20.1266 22.0084C21.1588 22.8261 22.6126 22.8261 23.6521 22.0011L31.7848 15.3901C32.3751 14.9079 33.2405 14.9996 33.7208 15.5899Z" fill="black"/>
</svg>
