<svg width="58" height="58" viewBox="0 0 58 58" fill="none" xmlns="http://www.w3.org/2000/svg">
<path d="M24.4433 28.4977C22.8651 29.9608 20.4424 29.9608 18.8642 28.4977C18.5893 28.2493 17.9722 27.6898 17.6706 27.3824C17.2448 26.9484 16.736 26.3611 16.408 25.642C15.8695 24.4613 15.954 23.3473 16.3485 22.3977C16.6929 21.5684 17.2364 20.7943 17.7714 20.2942L21.4251 16.6057C21.5806 16.4487 21.6583 16.3702 21.7064 16.2826C21.7545 16.195 21.7839 16.0656 21.8427 15.8067C22.2741 13.9086 23.6524 12.2415 25.4724 11.3109C26.027 11.0272 26.3044 10.8854 26.4097 10.7008C26.515 10.5163 26.4976 10.2315 26.4629 9.66203C26.4319 9.15475 26.4256 8.64938 26.4472 8.16347C26.4813 7.39721 26.5878 6.60083 26.8212 5.8885C27.0417 5.21531 27.4597 4.36106 28.2988 3.83377C29.0599 3.35551 29.8475 3.31575 30.5669 3.50628C31.0803 3.64225 31.7039 3.96341 32.1216 4.17859C34.4086 5.35278 36.806 7.61263 37.3793 11.4632C37.4341 11.8314 37.4615 12.0154 37.5415 12.1423C37.6215 12.2692 37.7721 12.3708 38.0733 12.574C41.0716 14.5964 43.326 17.6859 44.1795 21.3914C45.18 25.7356 44.2153 30.7395 40.6102 35.645C40.31 36.0534 40.1312 36.2969 40.0057 36.4877C39.9774 36.5298 39.9454 36.6103 39.9178 36.6905C39.8932 36.762 39.8809 36.7977 39.8711 36.8558C39.8613 36.914 39.8613 36.9638 39.8612 37.0633L39.8566 41.1011C39.8559 41.7724 39.8555 42.1081 39.6468 42.3165C39.4381 42.525 39.1024 42.525 38.4311 42.525H16.9517C16.7712 42.525 16.681 42.525 16.6037 42.5076C16.3301 42.446 16.1082 42.2141 16.0587 41.938C16.0447 41.86 16.0485 41.7756 16.0559 41.6069C16.0836 40.9806 16.1425 40.3872 16.3081 39.8308C16.4825 38.843 17.4872 37.6185 17.9677 37.1297C18.301 36.8116 18.7322 36.429 19.2536 35.981C20.2942 35.087 21.7726 33.8662 23.7144 32.2628C23.8668 32.1369 24.0134 32.0074 24.1543 31.875C24.5118 31.5388 24.6905 31.3707 24.8723 31.326C25.054 31.2813 25.277 31.3436 25.7229 31.4682C27.1941 31.8793 28.0512 31.9021 28.6514 31.8686C30.4768 31.7664 32.4241 30.9219 34.3263 29.0543C35.0285 28.3648 35.0388 27.2366 34.3494 26.5344C33.6599 25.8322 32.5317 25.8218 31.8295 26.5113C30.427 27.8884 29.2624 28.265 28.4523 28.3104C27.6225 28.4098 26.4867 28.0674 26.0226 27.8837C25.7936 27.7851 25.1571 27.7699 24.4433 28.4977Z" fill="#4E808C"/>
<path d="M13.6688 47.4488C13.7982 47.2943 13.9419 47.131 14.0986 46.9584C14.7375 46.255 15.0569 45.9032 15.5162 45.6999C15.9756 45.4965 16.4845 45.4965 17.5023 45.4965H38.4918C39.5024 45.4965 40.0078 45.4965 40.4653 45.698C40.9228 45.8994 41.2405 46.2465 41.8759 46.9407C42.034 47.1134 42.1792 47.2771 42.3101 47.4322C42.7587 47.9634 43.2632 48.6395 43.4326 49.4578C43.7701 51.089 43.1264 52.8075 41.7337 53.7704C41.0283 54.2581 40.1777 54.3737 39.5021 54.4254C38.7914 54.4798 37.8781 54.4798 36.7977 54.4798H19.1025C18.0615 54.4798 17.1806 54.4798 16.4938 54.4286C15.8404 54.38 15.0183 54.2713 14.3279 53.8127C12.8781 52.8499 12.2103 51.0779 12.5774 49.407C12.7508 48.6182 13.2367 47.9642 13.6688 47.4488Z" fill="#4E808C"/>
</svg>
