<svg width="45" height="45" viewBox="0 0 45 45" fill="none" xmlns="http://www.w3.org/2000/svg">
<path fill-rule="evenodd" clip-rule="evenodd" d="M8.28242 9.96493C8.28608 9.96493 8.19442 10.0603 8.07892 10.1739C7.63525 10.6048 6.71675 11.5013 6.70749 13.3768C6.69292 16.0003 8.41808 20.8714 16.7249 29.1764C24.9933 37.4411 29.8571 39.1864 32.4861 39.1864H32.5246C34.4001 39.1773 35.2948 38.2569 35.7274 37.8151C35.8594 37.6794 35.9658 37.5804 36.0409 37.5181C37.8669 35.6811 38.8019 34.3134 38.7928 33.4371C38.7799 32.5424 37.6671 31.4846 36.1289 30.0216C35.6394 29.5559 35.1078 29.0499 34.5468 28.4889C33.0929 27.0388 32.3724 27.2863 30.7884 27.8436C28.5976 28.6118 25.5909 29.6568 20.9196 24.9836C16.2409 20.3086 17.2878 17.3056 18.0541 15.1148C18.6077 13.5308 18.8608 12.8084 17.4051 11.3528C16.8349 10.7844 16.3234 10.2454 15.8523 9.75043C14.3984 8.22143 13.3498 7.11593 12.4606 7.10309H12.4459C11.5677 7.10309 10.2038 8.04176 8.27325 9.97226C8.27875 9.96676 8.28242 9.96493 8.28242 9.96493ZM32.4879 41.9364C27.9193 41.9364 21.9628 38.2991 14.7816 31.1216C7.57292 23.9148 3.93008 17.9399 3.95743 13.3621C3.97408 10.3371 5.55992 8.78793 6.15575 8.20676C6.18692 8.16826 6.29325 8.06376 6.32992 8.02709C8.95892 5.39626 10.7317 4.33293 12.4954 4.35281C14.5433 4.38059 16.0008 5.91326 17.8451 7.85476C18.3016 8.33509 18.7966 8.85759 19.3484 9.40759C22.0251 12.0843 21.2624 14.2678 20.6501 16.0204C19.9828 17.9326 19.4053 19.5826 22.8629 23.0403C26.3243 26.4979 27.9743 25.9204 29.8791 25.2476C31.6336 24.6353 33.8116 23.8689 36.4919 26.5456C37.0346 27.0883 37.5498 27.5778 38.0246 28.0306C39.9753 29.8841 41.5153 31.3489 41.5413 33.4023C41.5629 35.1531 40.4996 36.9369 37.8743 39.5641L36.7119 38.7758L37.6946 39.7364C37.1134 40.3323 35.5661 41.9199 32.5393 41.9364H32.4879Z" fill="black"/>
</svg>
