<svg width="17" height="18" viewBox="0 0 17 18" fill="none" xmlns="http://www.w3.org/2000/svg">
<path fill-rule="evenodd" clip-rule="evenodd" d="M8.28768 0.489578C6.94434 0.489578 5.85518 0.944781 4.91268 1.43403C4.62518 1.58366 4.35929 1.73091 4.10596 1.87103C3.49012 2.21145 2.94927 2.5107 2.35343 2.70149C2.00093 2.81391 1.68516 2.91524 1.46183 3.00312C1.25016 3.08624 0.995979 3.20104 0.816812 3.40133C0.657645 3.57787 0.577645 3.77421 0.525145 3.96104C0.475979 4.13125 0.435119 4.36162 0.394286 4.58566C-0.578214 9.99829 1.54184 15.152 6.78434 17.1644C7.29517 17.3608 7.68512 17.5104 8.29012 17.5104C8.89512 17.5104 9.28512 17.3608 9.79679 17.1644C15.0385 15.152 17.1568 9.99829 16.1835 4.58566C16.1435 4.36162 16.1018 4.13125 16.0535 3.96025C16.0001 3.77421 15.9202 3.57787 15.761 3.40133C15.5818 3.20104 15.3276 3.08624 15.116 3.00312C14.8926 2.91524 14.5768 2.81391 14.2252 2.70149C13.6285 2.5107 13.0868 2.21145 12.4701 1.87103C12.2168 1.73091 11.951 1.58366 11.6635 1.43403C10.721 0.944781 9.63101 0.489578 8.28768 0.489578ZM10.3634 11.4866C10.1201 11.7186 9.72431 11.7186 9.48014 11.4866C9.34431 11.3584 9.28431 11.1842 9.29931 11.0156C9.30515 10.9538 9.28511 10.8905 9.23511 10.8517C9.19094 10.8169 9.14434 10.7805 9.09684 10.7432C8.89684 10.5841 8.66682 10.3981 8.43099 10.197C8.36432 10.1408 8.26345 10.1432 8.20011 10.2033L6.16927 12.1326C5.84427 12.4414 5.31597 12.4414 4.99097 12.1326C4.66513 11.8231 4.66513 11.3219 4.99097 11.0132L7.02181 9.08312C7.08514 9.02375 7.08681 8.92796 7.02848 8.86462C6.81681 8.64058 6.62095 8.42208 6.45345 8.23129C6.41428 8.18616 6.37594 8.14261 6.33927 8.10065C6.29844 8.05315 6.23093 8.03417 6.16593 8.03971C5.98927 8.05396 5.806 7.99695 5.67016 7.86791C5.426 7.63595 5.426 7.25992 5.67016 7.02796L7.78678 5.01791C8.03095 4.78595 8.42681 4.78595 8.67098 5.01791C8.80681 5.14695 8.86681 5.32032 8.8518 5.48895C8.84597 5.55069 8.86593 5.61403 8.91593 5.65362C8.9601 5.68766 9.00597 5.72408 9.05346 5.76129C9.4593 6.0835 9.98427 6.51732 10.4434 6.95274C10.9018 7.38894 11.3584 7.88771 11.6968 8.27325C11.7368 8.31837 11.7751 8.36191 11.811 8.40387C11.8526 8.45137 11.9193 8.47037 11.9843 8.46483C12.1618 8.45058 12.3443 8.50757 12.4801 8.63661C12.7243 8.86857 12.7243 9.24462 12.4801 9.47658L10.3634 11.4866Z" fill="#221F1F"/>
</svg>
