<svg width="101" height="100" viewBox="0 0 101 100" fill="none" xmlns="http://www.w3.org/2000/svg">
<path d="M100.624 63.2486C98.965 59.9976 97.3689 56.7006 95.755 53.4128C92.6109 47.0333 89.4608 40.6506 86.3047 34.2649C86.2151 33.9731 86.0558 33.7089 85.8411 33.4963C85.6265 33.2836 85.3633 33.1292 85.0756 33.0471C84.7879 32.965 84.4848 32.9578 84.1937 33.0261C83.9026 33.0944 83.6328 33.2361 83.4087 33.4384C80.7189 35.2016 78.0291 36.9924 75.3393 38.7557C75.1033 38.9206 74.8334 39.0275 74.5504 39.068C72.1385 39.2976 69.7176 39.5088 67.3058 39.7016C67.0587 39.7032 66.8162 39.6332 66.6064 39.4996C64.9297 38.5813 63.307 37.5619 61.6214 36.671C59.9876 35.8269 58.2027 35.3332 56.3762 35.22C54.6524 35.1384 52.925 35.2369 51.2207 35.5139C49.6377 35.7053 48.119 36.2678 46.7826 37.1577C45.3301 38.1863 43.8238 39.169 42.2996 40.1424C42.0496 40.3116 41.7564 40.4011 41.4568 40.3996C39.036 40.2343 36.6151 40.0323 34.1942 39.8302C31.7734 39.6282 29.2539 39.3894 26.7703 39.2149C26.5534 39.2294 26.337 39.1789 26.1476 39.0697C25.9581 38.9604 25.8038 38.7971 25.7034 38.5996C25.551 38.3696 25.3359 38.1907 25.0848 38.0853C21.5701 36.4506 18.0644 34.8251 14.5407 33.2272C14.2985 33.0962 14.0302 33.0239 13.7564 33.0157C13.4827 33.0075 13.2107 33.0635 12.9614 33.1797C12.7121 33.2958 12.4921 33.469 12.3183 33.6857C12.1444 33.9025 12.0212 34.1572 11.9584 34.4302C11.9046 34.5955 11.8419 34.7517 11.7881 34.9078L1.21712 65.3241C0.68812 66.821 1.12741 67.8037 2.51715 68.2261L12.6309 71.3486C14.1013 71.7986 14.5226 71.67 15.473 70.4302C16.7552 71.2016 18.0194 71.9639 19.2926 72.7077C19.4107 72.762 19.5087 72.8539 19.5717 72.9697C19.6347 73.0856 19.6595 73.2192 19.6424 73.3506C19.5921 74.5633 19.9707 75.7539 20.7086 76.7037C21.4465 77.6535 22.4941 78.2988 23.6591 78.521C24.1288 78.5865 24.6019 78.6233 25.0758 78.6312C25.4347 80.0488 26.3065 81.2734 27.5146 82.0567C28.7371 82.8588 30.2197 83.1328 31.6388 82.819C32.0992 84.2007 33.0403 85.3605 34.2822 86.077C35.5242 86.7935 36.98 87.0166 38.3723 86.7036C38.4261 86.8047 38.4621 86.8506 38.489 86.8965C38.773 87.6192 39.2162 88.2648 39.7842 88.7828C40.3522 89.3008 41.0296 89.6772 41.7633 89.8827C42.4969 90.0881 43.267 90.1169 44.0133 89.9669C44.7596 89.8169 45.4618 89.4921 46.0653 89.0179C46.1541 88.9771 46.2503 88.9561 46.3476 88.9561C46.445 88.9561 46.5412 88.9771 46.63 89.0179C47.0783 89.22 47.5268 89.5047 47.9392 89.7067C50.2883 90.8271 52.736 91.4424 55.2913 90.6251C56.4148 90.2008 57.5082 89.6976 58.5639 89.1189C59.2875 89.5822 60.0998 89.881 60.9459 89.9951C61.792 90.1092 62.6522 90.0359 63.4683 89.7802C64.309 89.4892 65.0716 89.0003 65.6945 88.3527C66.3173 87.7052 66.7831 86.917 67.0547 86.0516C68.9196 86.9699 70.7578 87.1628 72.5689 86.0057C73.4113 85.5132 74.1155 84.8065 74.6134 83.9539C75.1113 83.1013 75.386 82.1315 75.4111 81.1383C76.3792 81.3151 77.3766 81.2031 78.2843 80.8155C79.192 80.428 79.9717 79.7813 80.5307 78.9526C81.8128 77.1159 81.6784 75.2057 80.7997 73.2404L85.7759 69.5669L86.5917 70.6873C86.7089 70.9222 86.874 71.1285 87.0759 71.2921C87.2779 71.4558 87.512 71.5729 87.7622 71.6357C88.0123 71.6984 88.2725 71.7052 88.5255 71.6557C88.7784 71.6061 89.0178 71.5014 89.2277 71.3486C92.6527 69.7047 96.069 68.0424 99.5119 66.4445C99.8259 66.357 100.115 66.1931 100.353 65.9667C100.592 65.7402 100.774 65.458 100.883 65.144C100.992 64.8301 101.026 64.4937 100.98 64.1637C100.935 63.8336 100.813 63.5197 100.624 63.2486ZM16.7374 59.7771C16.298 60.7781 15.8407 61.77 15.3566 62.7526C15.0966 63.3036 14.8187 63.8455 14.5497 64.3965C14.0177 65.4618 13.4707 66.518 12.9089 67.5649L5.09051 65.1587L7.51129 58.2067C9.93212 51.2639 12.3441 44.3302 14.7739 37.3414L22.4127 40.8496C22.2394 42.0435 22.0332 43.2282 21.7941 44.4037C21.6776 44.9914 21.5431 45.57 21.4087 46.1486C21.2742 46.7272 21.1307 47.3057 20.9783 47.8843C20.8259 48.4628 20.6734 49.0231 20.5121 49.5925C20.3507 50.1619 20.1713 50.7312 19.9919 51.2914C19.6871 52.2833 19.3555 53.2567 18.9968 54.2302C18.9341 54.3863 18.8801 54.5333 18.8353 54.6802C18.4318 55.7731 18.0015 56.8567 17.5442 57.9404C17.347 58.4179 17.1408 58.8588 16.9256 59.3914L16.7374 59.7771ZM27.2545 71.8445C27.2545 71.9271 27.1737 72.0465 27.1199 72.1567C27.0924 72.2179 27.0595 72.2763 27.0214 72.3312C26.6269 72.9741 26.1964 73.5986 25.775 74.2231C25.5732 74.5339 25.2629 74.7537 24.9077 74.8374C24.5525 74.9211 24.1795 74.8623 23.8653 74.6731C23.7636 74.609 23.6726 74.5284 23.5963 74.4343L23.4799 74.2965C23.4328 74.2327 23.3908 74.1651 23.3542 74.0945C23.3265 74.0286 23.3027 73.9611 23.2826 73.8924C23.2563 73.8214 23.2382 73.7474 23.2288 73.672C23.2243 73.5986 23.2243 73.525 23.2288 73.4516C23.2263 73.1885 23.2979 72.9302 23.435 72.7077C23.8743 71.9914 24.3317 71.2934 24.8696 70.6138C25.0565 70.3833 25.3107 70.2204 25.5948 70.1493C25.879 70.0782 26.1779 70.1026 26.4475 70.2189C26.7316 70.3455 26.9705 70.5592 27.1311 70.8306C27.2917 71.102 27.366 71.4177 27.3441 71.7343L27.2545 71.8445ZM34.1224 75.0404C33.3962 76.2159 32.6251 77.3639 31.8809 78.521C31.5871 78.8798 31.1765 79.1174 30.7249 79.1899C30.2733 79.2625 29.8112 79.1652 29.4242 78.9159C29.2005 78.7824 29.0064 78.6027 28.8542 78.3882C28.7021 78.1736 28.5952 77.929 28.5403 77.6699C28.4855 77.4107 28.4841 77.1427 28.536 76.8829C28.5878 76.6231 28.6918 76.3772 28.8415 76.1608C29.4781 75.169 30.1326 74.1863 30.7961 73.2128C30.957 72.927 31.1901 72.691 31.4709 72.5294C31.7518 72.3678 32.07 72.2866 32.392 72.2945C32.8775 72.283 33.3491 72.4605 33.7118 72.7911C34.0745 73.1217 34.3013 73.5809 34.3466 74.0761C34.3781 74.4199 34.2994 74.7649 34.1224 75.0588V75.0404ZM38.8117 82.1577C38.6059 82.4461 38.3358 82.68 38.0238 82.8397C37.7119 82.9995 37.3672 83.0805 37.0184 83.0761C36.6394 83.0634 36.2713 82.9434 35.9548 82.7294C35.6383 82.5154 35.3857 82.2158 35.2252 81.8638C35.0606 81.5445 34.9914 81.1826 35.0265 80.8232C35.0616 80.4639 35.1993 80.1231 35.4225 79.8435C36.3191 78.5853 37.0812 77.2628 37.9061 75.9771C38.0511 75.7259 38.2446 75.5076 38.4748 75.3355C38.7049 75.1634 38.9669 75.0411 39.2446 74.9761C39.5224 74.9111 39.8102 74.9047 40.0905 74.9574C40.3707 75.01 40.6376 75.1205 40.8748 75.2823C41.1119 75.444 41.3144 75.6536 41.4699 75.8981C41.6255 76.1427 41.7307 76.4171 41.7792 76.7047C41.8278 76.9923 41.8188 77.287 41.7525 77.5708C41.6863 77.8547 41.5643 78.1217 41.394 78.3557C40.5332 79.6598 39.6724 80.9332 38.8117 82.1761V82.1577ZM46.3969 82.4424C46.11 82.9383 45.7784 83.3608 45.4556 83.8659C45.3665 83.9791 45.2485 84.0649 45.1148 84.1138C44.6581 84.2052 44.2508 84.4674 43.9724 84.8493C43.694 85.2313 43.5643 85.7056 43.6086 86.1802C43.3388 86.3158 43.0313 86.3515 42.7387 86.2812C42.4461 86.2108 42.1864 86.0389 42.0036 85.7945C41.798 85.5659 41.6802 85.2688 41.672 84.9582C41.6637 84.6475 41.7656 84.3443 41.9587 84.1046C42.6671 83.0302 43.3845 81.9649 44.1197 80.8996C44.3216 80.5978 44.6311 80.3893 44.9815 80.3189C45.3319 80.2485 45.6952 80.3218 45.9935 80.523C46.2915 80.7306 46.4999 81.0479 46.5751 81.409C46.6502 81.77 46.5863 82.1468 46.3969 82.4608V82.4424ZM48.5578 85.7486C48.7103 85.5373 48.8357 85.3353 48.9613 85.1516C49.0868 84.9679 49.1945 84.7934 49.2931 84.6373C49.4329 84.4226 49.5587 84.1987 49.6696 83.9669C49.7674 83.7732 49.8543 83.5739 49.9297 83.37C50.0267 83.1121 50.0958 82.8442 50.1359 82.571C50.1359 82.4332 50.1895 82.2955 50.2075 82.1394L52.8257 84.3802L55.4258 86.6026C53.516 87.9159 50.2076 87.025 48.5578 85.7669V85.7486ZM77.6077 76.8404C77.3915 77.1246 77.0906 77.3286 76.7507 77.4214C76.4109 77.5143 76.0507 77.4908 75.725 77.3547C74.8305 77.0728 73.9902 76.6347 73.2414 76.0598C68.05 71.5598 62.9125 66.9863 57.757 62.4404C57.5843 62.2489 57.3738 62.0972 57.1395 61.9955C56.9052 61.8938 56.6523 61.8444 56.3979 61.8505C56.1434 61.8565 55.8931 61.918 55.6637 62.0308C55.4342 62.1436 55.231 62.3052 55.0672 62.5047C54.9029 62.6975 54.7797 62.9233 54.7056 63.1676C54.6314 63.412 54.6079 63.6695 54.6366 63.9237C54.6653 64.1779 54.7455 64.4232 54.8722 64.6438C54.9988 64.8644 55.169 65.0554 55.3719 65.2047C60.3929 69.6496 65.4259 74.0884 70.4708 78.521C70.9033 78.8127 71.2536 79.2156 71.4865 79.6894C71.7193 80.1632 71.8266 80.6914 71.7978 81.221C71.7759 81.5308 71.6823 81.8309 71.5248 82.0963C71.3672 82.3617 71.1502 82.5849 70.8917 82.7473C70.6332 82.9098 70.3406 83.0068 70.0383 83.0304C69.7359 83.0541 69.4324 83.0036 69.1528 82.8833C68.1806 82.396 67.276 81.7783 66.463 81.0465C61.2358 76.4547 56.0445 71.8629 50.8353 67.271C50.6622 67.0914 50.4548 66.9503 50.2261 66.8564C49.9974 66.7625 49.7522 66.7179 49.5059 66.7253C49.2596 66.7328 49.0176 66.7922 48.7947 66.8997C48.5718 67.0073 48.3729 67.1607 48.2105 67.3505C48.048 67.5403 47.9257 67.7623 47.8508 68.0027C47.7759 68.2431 47.7501 68.4967 47.7751 68.7477C47.8001 68.9988 47.8754 69.2419 47.9962 69.4618C48.1169 69.6818 48.2806 69.8739 48.4771 70.0261C53.0766 74.1037 57.6853 78.1628 62.258 82.2679C62.725 82.7008 63.0977 83.2296 63.3518 83.82C63.4759 84.1052 63.5233 84.4192 63.4893 84.7296C63.4552 85.0399 63.3409 85.3353 63.1581 85.5853C62.9753 85.8352 62.7307 86.0306 62.4495 86.1513C62.1683 86.2721 61.8608 86.3138 61.5586 86.272C60.8118 86.1889 60.1093 85.8677 59.5502 85.3537C57.1742 83.3424 54.8072 81.3128 52.4402 79.2924L51.9829 78.8975C51.8126 78.7078 51.6064 78.5556 51.3768 78.45C51.1473 78.3444 50.899 78.2878 50.6474 78.2835C50.3959 78.2792 50.1461 78.3273 49.9133 78.425C49.6804 78.5227 49.4695 78.6678 49.2931 78.8516C48.8648 78.2069 48.3011 77.6686 47.6433 77.2761C46.9855 76.8836 46.2503 76.6468 45.4915 76.5832C45.416 76.5574 45.3477 76.5129 45.293 76.4536C45.2383 76.3943 45.1986 76.3221 45.1776 76.2434C45.0015 74.8973 44.3637 73.6593 43.3781 72.7507C42.3925 71.8422 41.1235 71.3224 39.798 71.2843C39.4584 71.5333 39.0661 71.6963 38.6532 71.7602C38.2402 71.824 37.8183 71.7868 37.4221 71.6515C37.0259 71.5162 36.6666 71.2867 36.3736 70.9819C36.0806 70.677 35.8622 70.3054 35.7364 69.8975C35.0381 69.302 34.1998 68.9039 33.3049 68.7428C32.4099 68.5817 31.4894 68.6632 30.6347 68.9792C30.573 69.0104 30.5058 69.0287 30.4371 69.0331C30.3684 69.0376 30.2994 69.0279 30.2344 69.0048C30.1693 68.9818 30.1095 68.9457 30.0582 68.8987C30.0068 68.8518 29.965 68.7948 29.9354 68.7312C29.4825 68.0303 28.8672 67.4552 28.1443 67.0573C27.4215 66.6594 26.6136 66.4512 25.793 66.4512C24.9723 66.4512 24.1646 66.6594 23.4418 67.0573C22.7189 67.4552 22.1036 68.0303 21.6508 68.7312C21.4804 68.9883 21.301 69.2455 21.0948 69.5669L17.1318 67.2159C19.1234 63.3994 20.8637 59.4508 22.3412 55.3965C23.8267 51.3308 24.9344 47.1305 25.6496 42.8516L38.3544 43.871C37.9957 45.2945 37.5834 46.6812 37.3234 48.0955C37.1973 48.7813 36.8868 49.4175 36.4268 49.9323C35.4699 51.0376 34.8196 52.3853 34.5438 53.8353C34.3763 54.5447 34.3644 55.2834 34.5088 55.9981C34.6532 56.7129 34.9503 57.386 35.3789 57.969C35.8076 58.5521 36.3571 59.0306 36.9878 59.3702C37.6185 59.7099 38.3149 59.9022 39.0268 59.9333C40.5965 60.0969 42.1811 59.845 43.6285 59.2018C45.0759 58.5586 46.3377 57.5456 47.2935 56.2598C48.1901 55.121 48.9253 53.8078 49.7592 52.5863C49.9129 52.3544 50.1366 52.1802 50.3959 52.0904C50.8167 51.9829 51.2456 51.9122 51.678 51.8792C52.1537 51.8205 52.6364 51.8726 53.0897 52.0317C53.543 52.1907 53.9553 52.4525 54.296 52.7976C59.3349 57.518 64.4098 62.1924 69.4488 66.9128C71.8786 69.1812 74.2723 71.5047 76.6662 73.7822C76.9915 74.1038 77.2777 74.4646 77.5182 74.8567C77.7371 75.1382 77.8637 75.4833 77.8798 75.8429C77.8959 76.2024 77.8006 76.5579 77.6077 76.8588V76.8404ZM78.5043 70.3475L75.9402 67.9322L58.0707 51.172C57.4251 50.5751 56.7437 50.0149 56.0803 49.4455C55.4281 48.907 54.6735 48.5137 53.8646 48.2908C53.0556 48.0678 52.21 48.0201 51.3821 48.1506C50.3803 48.2947 49.3888 48.5064 48.4142 48.7843C48.1154 48.8643 47.8391 49.0148 47.6072 49.2236C47.3752 49.4325 47.1941 49.6941 47.0783 49.9874C46.2868 51.7518 45.173 53.3447 43.7968 54.6802C43.2232 55.2481 42.5318 55.6761 41.7742 55.9321C41.0166 56.1881 40.2124 56.2656 39.4215 56.1588C39.2107 56.1714 39.0001 56.1298 38.809 56.0377C38.618 55.9457 38.4525 55.8061 38.3277 55.6316C38.2029 55.4572 38.1228 55.2535 38.0945 55.0392C38.0663 54.8249 38.0909 54.6068 38.1661 54.4047C38.4054 53.3188 38.9964 52.3478 39.8429 51.6496C40.375 51.1239 40.695 50.4127 40.7395 49.6568C40.8919 48.6374 41.107 47.618 41.3312 46.5986C41.7247 45.3272 42.5867 44.2631 43.734 43.6323C45.572 42.3557 47.3923 41.07 49.3021 39.9588C50.1784 39.5263 51.1222 39.2558 52.0904 39.1598C53.7831 38.8308 55.519 38.8091 57.219 39.0955C58.8777 39.4793 60.4645 40.1369 61.9172 41.0425C62.9841 41.6302 64.0062 42.319 65.0104 43.0077C65.4641 43.3544 66.0237 43.5237 66.5884 43.4853L73.0262 42.9526C73.331 42.9526 73.6357 42.9526 73.9854 42.9526C75.017 47.1073 76.3571 51.1753 77.9934 55.121C79.6127 59.0684 81.5437 62.8739 83.7675 66.4996L78.5043 70.3475ZM92.4914 65.6363C91.4155 66.1598 90.3215 66.6649 89.2456 67.2067C88.9139 67.372 88.7437 67.3445 88.5106 67.0047C84.9377 61.7128 82.0645 55.9598 79.9659 49.8955C79.0693 47.3332 78.3519 44.6975 77.5808 42.0986C77.5572 42.0031 77.5563 41.9033 77.5782 41.8074C77.6 41.7115 77.644 41.6224 77.7065 41.5476C79.7328 40.1884 81.7769 38.8568 83.866 37.4792L96.7593 63.5792L92.4914 65.6363Z" fill="#1D292F"/>
<path d="M47.8129 26.8445C47.8454 27.3033 47.7087 27.7578 47.4298 28.1184C47.1509 28.4789 46.7501 28.719 46.3067 28.7914C45.8732 28.882 45.4223 28.7953 45.0504 28.5499C44.6785 28.3045 44.415 27.9199 44.3162 27.4782C44.0114 25.9904 43.7961 24.4843 43.554 22.9782C43.0161 19.6475 42.4811 16.3139 41.9491 12.9772C41.8504 12.3527 41.743 11.7282 41.6713 11.1405C41.6361 10.8948 41.65 10.6443 41.712 10.4043C41.774 10.1643 41.8829 9.93961 42.032 9.7439C42.1812 9.54819 42.3676 9.38546 42.5799 9.2656C42.7922 9.14575 43.0258 9.07124 43.2671 9.04655C43.7126 9.00731 44.1565 9.14004 44.5115 9.41868C44.8665 9.69733 45.107 10.1018 45.1859 10.5527C45.6342 13.2282 46.0675 15.9037 46.4859 18.5792C46.9044 21.2547 47.3287 23.8904 47.759 26.4863C47.777 26.5965 47.8039 26.7618 47.8129 26.8445Z" fill="#1D292F"/>
<path d="M61.7475 11.1037C61.4785 13.1058 61.2186 15.2088 60.9317 17.3027C60.4834 20.6027 60.0261 23.8966 59.5598 27.1843C59.53 27.4238 59.4541 27.6549 59.337 27.8644C59.2199 28.0739 59.0636 28.2576 58.8771 28.4052C58.6906 28.5527 58.4774 28.6612 58.25 28.7243C58.0225 28.7875 57.7852 28.804 57.5515 28.7731C57.3239 28.7515 57.1028 28.6833 56.9016 28.5725C56.7003 28.4617 56.523 28.3105 56.3799 28.128C56.2369 27.9455 56.1312 27.7354 56.0691 27.5102C56.007 27.285 55.9897 27.0492 56.0183 26.817C56.1797 25.2098 56.4217 23.6027 56.6369 22.0047C57.13 18.3313 57.641 14.7129 58.1162 11.067C58.1114 10.6559 58.2243 10.2524 58.4411 9.90639C58.6578 9.56036 58.9689 9.28701 59.3357 9.12008C59.6279 9.00621 59.9441 8.97253 60.2529 9.02244C60.5617 9.07234 60.8523 9.20406 61.0961 9.40455C61.3398 9.60504 61.5282 9.86735 61.6424 10.1654C61.7567 10.4635 61.793 10.7869 61.7475 11.1037Z" fill="#1D292F"/>
<path d="M76.8311 18.9282C76.7242 19.2963 76.5831 19.653 76.4098 19.9935C74.4014 23.2262 72.387 26.4527 70.3667 29.6731C70.1916 30.0252 69.9103 30.31 69.5646 30.4854C69.219 30.6608 68.8273 30.7173 68.4478 30.6466C68.0819 30.6066 67.7398 30.4418 67.4763 30.1786C67.2129 29.9155 67.0436 29.5692 66.9954 29.1956C66.9332 28.7395 67.0182 28.2751 67.2375 27.8731C69.2549 24.567 71.3169 21.2884 73.3881 18.0007C73.5897 17.6316 73.9094 17.3451 74.2932 17.1895C74.6771 17.0339 75.1017 17.0188 75.4952 17.1466C75.8676 17.2704 76.1945 17.507 76.433 17.8251C76.6715 18.1431 76.8104 18.5277 76.8311 18.9282Z" fill="#1D292F"/>
<path d="M34.1055 30.674C33.8498 30.6537 33.6021 30.5736 33.3813 30.4399C33.1606 30.3062 32.9728 30.1224 32.8324 29.9026C30.9674 27.1475 29.1115 24.3465 27.2735 21.5547C27.0259 21.1516 26.9408 20.6659 27.0362 20.1999C27.1315 19.7339 27.3999 19.324 27.7846 19.0567C27.9735 18.9175 28.1878 18.8189 28.415 18.7669C28.6422 18.715 28.8773 18.7108 29.1061 18.7546C29.3349 18.7984 29.5528 18.8893 29.7463 19.0217C29.9399 19.1541 30.1052 19.3254 30.2323 19.5251C31.5144 21.3618 32.7697 23.2996 34.0339 25.1822C34.6256 26.1006 35.2264 26.9638 35.8271 27.8638C36.0119 28.1298 36.1171 28.4451 36.1298 28.7713C36.1426 29.0974 36.0622 29.4204 35.8987 29.7006C35.7209 30.0205 35.458 30.2821 35.1404 30.4545C34.8228 30.6269 34.4638 30.703 34.1055 30.674Z" fill="#1D292F"/>
<path d="M12.8994 67.565L5.08105 65.1589C8.29986 55.8834 11.5187 46.6538 14.7554 37.3416L22.3945 40.8497C21.0227 50.4283 17.4273 59.1528 12.8994 67.565Z" fill="#1D292F"/>
</svg>
