<svg width="58" height="58" viewBox="0 0 58 58" fill="none" xmlns="http://www.w3.org/2000/svg">
<path d="M8.11413 7.96055C8.12263 7.81026 8.14825 7.46874 8.14825 7.46874C8.22613 6.61205 8.90715 5.93212 9.76385 5.85424C9.76385 5.85424 10.1042 5.82873 10.2545 5.82022C10.5549 5.80321 10.9826 5.7847 11.5075 5.77731C12.5543 5.76256 14.0028 5.7918 15.6065 5.96999C18.7136 6.31522 22.8251 7.26165 25.5157 9.9522C28.9971 13.4336 29.1708 18.9702 26.0369 22.6567C26.1387 22.8133 26.252 22.9937 26.3745 23.1978C26.8649 24.0152 27.5024 25.2139 28.1345 26.7939C28.6499 28.0824 29.1607 29.6221 29.5852 31.4123C29.8347 30.973 30.0902 30.5617 30.3452 30.1792C31.1576 28.9606 31.9716 28.0236 32.5892 27.3854C32.7855 27.1826 32.9626 27.0093 33.1144 26.8659C31.0779 23.6578 31.4592 19.3568 34.2581 16.5579C36.6287 14.1872 40.2283 13.3688 42.9035 13.0715C44.2913 12.9174 45.5438 12.8921 46.4486 12.9049C46.5215 12.9059 46.5989 12.9066 46.6793 12.9073C47.0995 12.9111 47.6009 12.9156 47.9625 12.9718C48.8192 13.0497 49.5001 13.7296 49.578 14.5863C49.6189 15.0368 49.6386 15.6473 49.645 16.1012C49.6578 17.0061 49.6325 18.2586 49.4783 19.6463C49.1811 22.3216 48.3626 25.9212 45.992 28.2918C43.1759 31.1079 38.8391 31.4765 35.6249 29.3977C35.4991 29.5145 35.3377 29.6703 35.1503 29.8639C34.6542 30.3766 33.9832 31.1474 33.3106 32.1562C32.1807 33.8511 31.0651 36.1876 30.7366 39.0945C39.0174 39.5941 46.4048 43.3737 51.5688 49.1345C52.0381 49.6581 52.1557 50.4086 51.8691 51.0506C51.5824 51.6926 50.945 52.106 50.2419 52.106H7.47393C6.77084 52.106 6.13347 51.6926 5.84679 51.0506C5.56011 50.4086 5.67771 49.6581 6.14701 49.1345C11.3234 43.36 18.7336 39.5761 27.0384 39.091C26.8377 34.2602 25.8204 30.6048 24.8254 28.1176C24.2695 26.7279 23.719 25.6992 23.3184 25.0316C23.291 24.9859 23.2643 24.9419 23.2384 24.8996C19.6985 26.7566 15.2217 26.1973 12.2461 23.2218C9.55555 20.5312 8.60913 16.4197 8.26389 13.3126C8.08571 11.7089 8.05647 10.2604 8.07121 9.21363C8.07861 8.68873 8.09712 8.26095 8.11413 7.96055Z" fill="#4E808C"/>
</svg>
