<svg width="21" height="20" viewBox="0 0 21 20" fill="none" xmlns="http://www.w3.org/2000/svg">
<path fill-rule="evenodd" clip-rule="evenodd" d="M2.23357 2.21547C2.34042 2.00649 2.55534 1.875 2.79004 1.875H6.95671C7.1574 1.875 7.34588 1.97137 7.46338 2.13407L11.5767 7.82945L17.3481 2.05806C17.5922 1.81398 17.9879 1.81398 18.232 2.05806C18.4761 2.30214 18.4761 2.69786 18.232 2.94194L12.318 8.85589L18.2967 17.1341C18.4341 17.3243 18.4534 17.5756 18.3465 17.7845C18.2397 17.9935 18.0247 18.125 17.79 18.125H13.6234C13.4227 18.125 13.2342 18.0286 13.1167 17.8659L9.00337 12.1706L3.23198 17.9419C2.98791 18.186 2.59218 18.186 2.3481 17.9419C2.10402 17.6979 2.10402 17.3021 2.3481 17.0581L8.26205 11.1441L2.28337 2.86593C2.14595 2.67566 2.12671 2.42444 2.23357 2.21547ZM4.01239 3.125L13.9429 16.875H16.5677L6.63714 3.125H4.01239Z" fill="white"/>
</svg>
