<svg width="21" height="21" viewBox="0 0 21 21" fill="none" xmlns="http://www.w3.org/2000/svg">
<path fill-rule="evenodd" clip-rule="evenodd" d="M2.73357 2.90248C2.84042 2.69351 3.05534 2.56201 3.29004 2.56201H7.45671C7.6574 2.56201 7.84588 2.65838 7.96338 2.82108L12.0767 8.51646L17.8481 2.74507C18.0922 2.50099 18.4879 2.50099 18.732 2.74507C18.9761 2.98915 18.9761 3.38488 18.732 3.62895L12.818 9.5429L18.7967 17.8211C18.9341 18.0114 18.9534 18.2626 18.8465 18.4715C18.7397 18.6805 18.5247 18.812 18.29 18.812H14.1234C13.9227 18.812 13.7342 18.7156 13.6167 18.5529L9.50337 12.8576L3.73198 18.629C3.48791 18.873 3.09218 18.873 2.8481 18.629C2.60402 18.3849 2.60402 17.9891 2.8481 17.7451L8.76205 11.8311L2.78337 3.55294C2.64595 3.36267 2.62671 3.11145 2.73357 2.90248ZM4.51239 3.81201L14.4429 17.562H17.0677L7.13714 3.81201H4.51239Z" fill="#221F1F"/>
</svg>
