<svg width="143" height="210" viewBox="0 0 143 210" fill="none" xmlns="http://www.w3.org/2000/svg">
<path d="M142.532 25.9558V146.672L92.1589 197.026L90.8668 197.672V119.781H106.372V91.8051H90.8668V47.4809H120.145V61.2537H104.64V78.0412H120.145V133.124H104.64V164.967L128.75 141.082V39.7286H77.9371V205.63C76.6899 206.285 72.2393 209.982 71.2703 210C70.1576 210.018 65.2047 206.223 64.1638 205.2V39.7286H13.7817V141.082L37.8916 164.967V133.124H21.9559V49.1946H52.9569V62.9674H35.7291V78.0323H50.3727V91.1591C50.3727 91.2039 49.7715 91.8051 49.7267 91.8051H35.7291V119.781H51.6648V197.672L50.3727 197.026L-0.000488281 146.672V25.9558H142.523H142.532Z" fill="#ffff"/>
<path d="M142.101 0.132812H0.00854492V13.4749H142.101V0.132812Z" fill="#ffff"/>
</svg>
